# Off-Grid array_ground_makeshift_snow_S for Project Viewpoint. Z up, tile units, x east, y south. Generated by tools/build_viewpoint.py.
mtllib offgrid.mtl
o array_ground_makeshift_snow_S
usemtl offgrid
v -0.44 0.33 0.05
v 0.44 0.33 0.05
v 0.44 0.4 0.05
v -0.44 0.4 0.05
v 0.44 0.33 0
v 0.44 0.4 0
v -0.44 0.4 0
v -0.44 0.33 0
v -0.44 -0.38 0.05
v 0.44 -0.38 0.05
v 0.44 -0.31 0.05
v -0.44 -0.31 0.05
v 0.44 -0.38 0
v 0.44 -0.31 0
v -0.44 -0.31 0
v -0.44 -0.38 0
v -0.4075 -0.3725 0.5474
v -0.3525 -0.3725 0.5474
v -0.3525 -0.3175 0.5474
v -0.4075 -0.3175 0.5474
v -0.3525 -0.3725 0.04
v -0.3525 -0.3175 0.04
v -0.4075 -0.3175 0.04
v -0.4075 -0.3725 0.04
v -0.4075 0.3375 0.07
v -0.3525 0.3375 0.07
v -0.3525 0.3925 0.07
v -0.4075 0.3925 0.07
v -0.3525 0.3375 0.04
v -0.3525 0.3925 0.04
v -0.4075 0.3925 0.04
v -0.4075 0.3375 0.04
v -0.0275 -0.3725 0.5474
v 0.0275 -0.3725 0.5474
v 0.0275 -0.3175 0.5474
v -0.0275 -0.3175 0.5474
v 0.0275 -0.3725 0.04
v 0.0275 -0.3175 0.04
v -0.0275 -0.3175 0.04
v -0.0275 -0.3725 0.04
v -0.0275 0.3375 0.07
v 0.0275 0.3375 0.07
v 0.0275 0.3925 0.07
v -0.0275 0.3925 0.07
v 0.0275 0.3375 0.04
v 0.0275 0.3925 0.04
v -0.0275 0.3925 0.04
v -0.0275 0.3375 0.04
v 0.3525 -0.3725 0.5474
v 0.4075 -0.3725 0.5474
v 0.4075 -0.3175 0.5474
v 0.3525 -0.3175 0.5474
v 0.4075 -0.3725 0.04
v 0.4075 -0.3175 0.04
v 0.3525 -0.3175 0.04
v 0.3525 -0.3725 0.04
v 0.3525 0.3375 0.07
v 0.4075 0.3375 0.07
v 0.4075 0.3925 0.07
v 0.3525 0.3925 0.07
v 0.4075 0.3375 0.04
v 0.4075 0.3925 0.04
v 0.3525 0.3925 0.04
v 0.3525 0.3375 0.04
v -0.39 -0.35 0.1
v -0.37 -0.35 0.1
v 0.39 0.37 0.05
v 0.37 0.37 0.05
v 0.37 0.3699 0.049
v 0.39 0.3699 0.049
v -0.37 -0.3501 0.099
v -0.39 -0.3501 0.099
v -0.42 -0.36 0.5424
v 0.42 -0.36 0.5424
v 0.42 0.38 0.055
v -0.42 0.38 0.055
v -0.42 0.3794 0.0542
v 0.42 0.3794 0.0542
v 0.42 -0.3606 0.5416
v -0.42 -0.3606 0.5416
v -0.44 -0.38 0.5674
v 0.44 -0.38 0.5674
v 0.44 0.4 0.08
v -0.44 0.4 0.08
v -0.44 0.3995 0.0792
v 0.44 0.3995 0.0792
v 0.44 -0.3805 0.5666
v -0.44 -0.3805 0.5666
v -0.44 -0.38 0.5974
v 0.44 -0.38 0.5974
v 0.44 -0.38 0.5424
v -0.44 -0.38 0.5424
v -0.44 -0.381 0.5424
v 0.44 -0.381 0.5424
v 0.44 -0.381 0.5974
v -0.44 -0.381 0.5974
v -0.44 0.4 0.11
v 0.44 0.4 0.11
v 0.44 0.4 0.055
v -0.44 0.4 0.055
v -0.44 0.399 0.055
v 0.44 0.399 0.055
v 0.44 0.399 0.11
v -0.44 0.399 0.11
v -0.439 -0.38 0.5424
v -0.439 0.4 0.055
v -0.439 0.4 0.11
v -0.439 -0.38 0.5974
v 0.441 -0.38 0.5424
v 0.441 0.4 0.055
v 0.441 0.4 0.11
v 0.441 -0.38 0.5974
v -0.405 -0.345 0.5874
v 0.405 -0.345 0.5874
v 0.405 0.365 0.1
v -0.405 0.365 0.1
v -0.405 0.3644 0.0992
v 0.405 0.3644 0.0992
v 0.405 -0.3456 0.5866
v -0.405 -0.3456 0.5866
v -0.141 -0.3442 0.5886
v -0.129 -0.3442 0.5886
v -0.129 0.3658 0.1012
v -0.141 0.3658 0.1012
v -0.141 0.3636 0.0979
v -0.129 0.3636 0.0979
v -0.129 -0.3464 0.5853
v -0.141 -0.3464 0.5853
v 0.129 -0.3442 0.5886
v 0.141 -0.3442 0.5886
v 0.141 0.3658 0.1012
v 0.129 0.3658 0.1012
v 0.129 0.3636 0.0979
v 0.141 0.3636 0.0979
v 0.141 -0.3464 0.5853
v 0.129 -0.3464 0.5853
v -0.405 -0.1725 0.4546
v 0.405 -0.1725 0.4546
v 0.405 -0.1625 0.4546
v -0.405 -0.1625 0.4546
v -0.405 -0.1625 0.4536
v 0.405 -0.1625 0.4536
v 0.405 -0.1725 0.4536
v -0.405 -0.1725 0.4536
v -0.405 0.005 0.3437
v 0.405 0.005 0.3437
v 0.405 0.015 0.3437
v -0.405 0.015 0.3437
v -0.405 0.015 0.3427
v 0.405 0.015 0.3427
v 0.405 0.005 0.3427
v -0.405 0.005 0.3427
v -0.405 0.1825 0.2328
v 0.405 0.1825 0.2328
v 0.405 0.1925 0.2328
v -0.405 0.1925 0.2328
v -0.405 0.1925 0.2318
v 0.405 0.1925 0.2318
v 0.405 0.1825 0.2318
v -0.405 0.1825 0.2318
v -0.4 -0.33 0.5824
v -0.1 -0.33 0.5824
v -0.1 -0.08 0.3949
v -0.4 -0.08 0.3949
v -0.4 -0.0806 0.3941
v -0.1 -0.0806 0.3941
v -0.1 -0.3306 0.5816
v -0.4 -0.3306 0.5816
v 0.1 0.18 0.2435
v 0.38 0.18 0.2435
v 0.38 0.225 0.2154
v 0.1 0.225 0.2154
v 0.1 0.2245 0.2145
v 0.38 0.2245 0.2145
v 0.38 0.1795 0.2426
v 0.1 0.1795 0.2426
v 0.1 0.08 0.306
v 0.38 0.08 0.306
v 0.38 0.125 0.2778
v 0.1 0.125 0.2778
v 0.1 0.1245 0.277
v 0.38 0.1245 0.277
v 0.38 0.0795 0.3051
v 0.1 0.0795 0.3051
v -0.405 -0.2172 0.4957
v 0.405 -0.2172 0.4957
v 0.405 0.365 0.11
v -0.405 0.365 0.11
v -0.405 0.3644 0.1092
v 0.405 0.3644 0.1092
v 0.405 -0.2178 0.4948
v -0.405 -0.2178 0.4948
v 0.405 -0.2172 0.4657
v -0.405 -0.2172 0.4657
v -0.405 -0.2182 0.4657
v 0.405 -0.2182 0.4657
v 0.405 -0.2182 0.4957
v -0.405 -0.2182 0.4957
v 0.14 -0.36 0.5574
v 0.3 -0.36 0.5574
v 0.3 -0.26 0.5574
v 0.14 -0.26 0.5574
v 0.3 -0.36 0.4874
v 0.3 -0.26 0.4874
v 0.14 -0.26 0.4874
v 0.14 -0.36 0.4874
v 0.2025 -0.3475 0.4889
v 0.2375 -0.3475 0.4889
v 0.2375 -0.3125 0.4889
v 0.2025 -0.3125 0.4889
v 0.2375 -0.3475 0
v 0.2375 -0.3125 0
v 0.2375 -0.3125 0.4874
v 0.2375 -0.3475 0.4874
v 0.2025 -0.3125 0
v 0.2025 -0.3125 0.4874
v 0.2025 -0.3475 0
v 0.2025 -0.3475 0.4874
v 0.2025 -0.3475 -0.0015
v 0.2025 -0.3125 -0.0015
v 0.2375 -0.3125 -0.0015
v 0.2375 -0.3475 -0.0015
vt 0.546875 0.921875
vt 0.046875 0.921875
vt 0.203125 0.953125
vt 0.984375 0.921875
vt 0.109375 0.921875
vt 0.734375 0.953125
vt 0.578125 0.984375
vt 0.328125 0.984375
vt 0.828125 0.984375
vt 0.109375 0.890625
vt 0.609375 0.890625
vt 0.453125 0.890625
vt 0.078125 0.921875
vt 0.640625 0.953125
vt 0.390625 0.984375
vn 0 0 1
vn 1 0 0
vn 0 1 0
vn 0 -1 0
vn -1 0 0
vn 0 0 -1
vn 0 0.0693 0.9976
vn 0 -0.0693 -0.9976
vn 0 0.5501 0.8351
vn 0 -0.5501 -0.8351
vn 0 0.5299 0.848
vn 0 -0.5299 -0.848
vn 0 0.566 0.8244
vn 0 -0.566 -0.8244
vn 0 0.5999 0.8001
vn 0 -0.5999 -0.8001
vn 0 0.5523 0.8337
vn 0 -0.5523 -0.8337
f 1/1/1 2/1/1 3/1/1
f 1/1/1 3/1/1 4/1/1
f 5/2/2 6/2/2 3/2/2
f 5/2/2 3/2/2 2/2/2
f 6/2/3 7/2/3 4/2/3
f 6/2/3 4/2/3 3/2/3
f 8/2/4 5/2/4 2/2/4
f 8/2/4 2/2/4 1/2/4
f 7/2/5 8/2/5 1/2/5
f 7/2/5 1/2/5 4/2/5
f 8/2/6 7/2/6 6/2/6
f 8/2/6 6/2/6 5/2/6
f 9/1/1 10/1/1 11/1/1
f 9/1/1 11/1/1 12/1/1
f 13/2/2 14/2/2 11/2/2
f 13/2/2 11/2/2 10/2/2
f 14/2/3 15/2/3 12/2/3
f 14/2/3 12/2/3 11/2/3
f 16/2/4 13/2/4 10/2/4
f 16/2/4 10/2/4 9/2/4
f 15/2/5 16/2/5 9/2/5
f 15/2/5 9/2/5 12/2/5
f 16/2/6 15/2/6 14/2/6
f 16/2/6 14/2/6 13/2/6
f 17/1/1 18/1/1 19/1/1
f 17/1/1 19/1/1 20/1/1
f 21/2/2 22/2/2 19/2/2
f 21/2/2 19/2/2 18/2/2
f 22/2/3 23/2/3 20/2/3
f 22/2/3 20/2/3 19/2/3
f 24/2/4 21/2/4 18/2/4
f 24/2/4 18/2/4 17/2/4
f 23/2/5 24/2/5 17/2/5
f 23/2/5 17/2/5 20/2/5
f 24/2/6 23/2/6 22/2/6
f 24/2/6 22/2/6 21/2/6
f 25/1/1 26/1/1 27/1/1
f 25/1/1 27/1/1 28/1/1
f 29/2/2 30/2/2 27/2/2
f 29/2/2 27/2/2 26/2/2
f 30/2/3 31/2/3 28/2/3
f 30/2/3 28/2/3 27/2/3
f 32/2/4 29/2/4 26/2/4
f 32/2/4 26/2/4 25/2/4
f 31/2/5 32/2/5 25/2/5
f 31/2/5 25/2/5 28/2/5
f 32/2/6 31/2/6 30/2/6
f 32/2/6 30/2/6 29/2/6
f 33/1/1 34/1/1 35/1/1
f 33/1/1 35/1/1 36/1/1
f 37/2/2 38/2/2 35/2/2
f 37/2/2 35/2/2 34/2/2
f 38/2/3 39/2/3 36/2/3
f 38/2/3 36/2/3 35/2/3
f 40/2/4 37/2/4 34/2/4
f 40/2/4 34/2/4 33/2/4
f 39/2/5 40/2/5 33/2/5
f 39/2/5 33/2/5 36/2/5
f 40/2/6 39/2/6 38/2/6
f 40/2/6 38/2/6 37/2/6
f 41/1/1 42/1/1 43/1/1
f 41/1/1 43/1/1 44/1/1
f 45/2/2 46/2/2 43/2/2
f 45/2/2 43/2/2 42/2/2
f 46/2/3 47/2/3 44/2/3
f 46/2/3 44/2/3 43/2/3
f 48/2/4 45/2/4 42/2/4
f 48/2/4 42/2/4 41/2/4
f 47/2/5 48/2/5 41/2/5
f 47/2/5 41/2/5 44/2/5
f 48/2/6 47/2/6 46/2/6
f 48/2/6 46/2/6 45/2/6
f 49/1/1 50/1/1 51/1/1
f 49/1/1 51/1/1 52/1/1
f 53/2/2 54/2/2 51/2/2
f 53/2/2 51/2/2 50/2/2
f 54/2/3 55/2/3 52/2/3
f 54/2/3 52/2/3 51/2/3
f 56/2/4 53/2/4 50/2/4
f 56/2/4 50/2/4 49/2/4
f 55/2/5 56/2/5 49/2/5
f 55/2/5 49/2/5 52/2/5
f 56/2/6 55/2/6 54/2/6
f 56/2/6 54/2/6 53/2/6
f 57/1/1 58/1/1 59/1/1
f 57/1/1 59/1/1 60/1/1
f 61/2/2 62/2/2 59/2/2
f 61/2/2 59/2/2 58/2/2
f 62/2/3 63/2/3 60/2/3
f 62/2/3 60/2/3 59/2/3
f 64/2/4 61/2/4 58/2/4
f 64/2/4 58/2/4 57/2/4
f 63/2/5 64/2/5 57/2/5
f 63/2/5 57/2/5 60/2/5
f 64/2/6 63/2/6 62/2/6
f 64/2/6 62/2/6 61/2/6
f 65/3/7 66/3/7 67/3/7
f 65/3/7 67/3/7 68/3/7
f 69/3/8 70/3/8 71/3/8
f 69/3/8 71/3/8 72/3/8
f 73/4/9 74/4/9 75/4/9
f 73/4/9 75/4/9 76/4/9
f 77/4/10 78/4/10 79/4/10
f 77/4/10 79/4/10 80/4/10
f 81/5/11 82/5/11 83/5/11
f 81/5/11 83/5/11 84/5/11
f 85/5/12 86/5/12 87/5/12
f 85/5/12 87/5/12 88/5/12
f 89/5/3 90/5/3 91/5/3
f 89/5/3 91/5/3 92/5/3
f 93/5/4 94/5/4 95/5/4
f 93/5/4 95/5/4 96/5/4
f 97/5/3 98/5/3 99/5/3
f 97/5/3 99/5/3 100/5/3
f 101/5/4 102/5/4 103/5/4
f 101/5/4 103/5/4 104/5/4
f 89/6/5 97/6/5 100/6/5
f 89/6/5 100/6/5 92/6/5
f 105/6/2 106/6/2 107/6/2
f 105/6/2 107/6/2 108/6/2
f 90/6/5 98/6/5 99/6/5
f 90/6/5 99/6/5 91/6/5
f 109/6/2 110/6/2 111/6/2
f 109/6/2 111/6/2 112/6/2
f 113/7/13 114/7/13 115/7/13
f 113/7/13 115/7/13 116/7/13
f 117/7/14 118/7/14 119/7/14
f 117/7/14 119/7/14 120/7/14
f 121/8/13 122/8/13 123/8/13
f 121/8/13 123/8/13 124/8/13
f 125/8/14 126/8/14 127/8/14
f 125/8/14 127/8/14 128/8/14
f 129/8/13 130/8/13 131/8/13
f 129/8/13 131/8/13 132/8/13
f 133/8/14 134/8/14 135/8/14
f 133/8/14 135/8/14 136/8/14
f 137/8/1 138/8/1 139/8/1
f 137/8/1 139/8/1 140/8/1
f 141/8/6 142/8/6 143/8/6
f 141/8/6 143/8/6 144/8/6
f 145/8/1 146/8/1 147/8/1
f 145/8/1 147/8/1 148/8/1
f 149/8/6 150/8/6 151/8/6
f 149/8/6 151/8/6 152/8/6
f 153/8/1 154/8/1 155/8/1
f 153/8/1 155/8/1 156/8/1
f 157/8/6 158/8/6 159/8/6
f 157/8/6 159/8/6 160/8/6
f 161/9/15 162/9/15 163/9/15
f 161/9/15 163/9/15 164/9/15
f 165/9/16 166/9/16 167/9/16
f 165/9/16 167/9/16 168/9/16
f 169/10/11 170/10/11 171/10/11
f 169/10/11 171/10/11 172/10/11
f 173/10/12 174/10/12 175/10/12
f 173/10/12 175/10/12 176/10/12
f 177/10/11 178/10/11 179/10/11
f 177/10/11 179/10/11 180/10/11
f 181/10/12 182/10/12 183/10/12
f 181/10/12 183/10/12 184/10/12
f 185/11/17 186/11/17 187/11/17
f 185/11/17 187/11/17 188/11/17
f 189/11/18 190/11/18 191/11/18
f 189/11/18 191/11/18 192/11/18
f 185/12/3 186/12/3 193/12/3
f 185/12/3 193/12/3 194/12/3
f 195/12/4 196/12/4 197/12/4
f 195/12/4 197/12/4 198/12/4
f 199/13/1 200/13/1 201/13/1
f 199/13/1 201/13/1 202/13/1
f 203/14/2 204/14/2 201/14/2
f 203/14/2 201/14/2 200/14/2
f 204/14/3 205/14/3 202/14/3
f 204/14/3 202/14/3 201/14/3
f 206/14/4 203/14/4 200/14/4
f 206/14/4 200/14/4 199/14/4
f 205/14/5 206/14/5 199/14/5
f 205/14/5 199/14/5 202/14/5
f 206/14/6 205/14/6 204/14/6
f 206/14/6 204/14/6 203/14/6
f 207/15/1 208/15/1 209/15/1
f 207/15/1 209/15/1 210/15/1
f 211/15/2 212/15/2 213/15/2
f 211/15/2 213/15/2 214/15/2
f 212/15/3 215/15/3 216/15/3
f 212/15/3 216/15/3 213/15/3
f 217/15/4 211/15/4 214/15/4
f 217/15/4 214/15/4 218/15/4
f 215/15/5 217/15/5 218/15/5
f 215/15/5 218/15/5 216/15/5
f 219/15/6 220/15/6 221/15/6
f 219/15/6 221/15/6 222/15/6
