# Off-Grid array_flat_standard_snow_S for Project Viewpoint. Z up, tile units, x east, y south. Generated by tools/build_viewpoint.py.
mtllib offgrid.mtl
o array_flat_standard_snow_S
usemtl offgrid
v -0.395 -0.355 0.112
v -0.325 -0.355 0.112
v -0.325 -0.285 0.112
v -0.395 -0.285 0.112
v -0.325 -0.355 0
v -0.325 -0.285 0
v -0.395 -0.285 0
v -0.395 -0.355 0
v -0.395 0.305 0.03
v -0.325 0.305 0.03
v -0.325 0.375 0.03
v -0.395 0.375 0.03
v -0.325 0.305 0
v -0.325 0.375 0
v -0.395 0.375 0
v -0.395 0.305 0
v 0.325 -0.355 0.112
v 0.395 -0.355 0.112
v 0.395 -0.285 0.112
v 0.325 -0.285 0.112
v 0.395 -0.355 0
v 0.395 -0.285 0
v 0.325 -0.285 0
v 0.325 -0.355 0
v 0.325 0.305 0.03
v 0.395 0.305 0.03
v 0.395 0.375 0.03
v 0.325 0.375 0.03
v 0.395 0.305 0
v 0.395 0.375 0
v 0.325 0.375 0
v 0.325 0.305 0
v -0.42 -0.36 0.087
v 0.42 -0.36 0.087
v 0.42 0.38 0.005
v -0.42 0.38 0.005
v -0.42 0.3799 0.004
v 0.42 0.3799 0.004
v 0.42 -0.3601 0.086
v -0.42 -0.3601 0.086
v -0.44 -0.38 0.112
v 0.44 -0.38 0.112
v 0.44 0.4 0.03
v -0.44 0.4 0.03
v -0.44 0.3999 0.029
v 0.44 0.3999 0.029
v 0.44 -0.3801 0.111
v -0.44 -0.3801 0.111
v -0.44 -0.38 0.142
v 0.44 -0.38 0.142
v 0.44 -0.38 0.087
v -0.44 -0.38 0.087
v -0.44 -0.381 0.087
v 0.44 -0.381 0.087
v 0.44 -0.381 0.142
v -0.44 -0.381 0.142
v -0.44 0.4 0.06
v 0.44 0.4 0.06
v 0.44 0.4 0.005
v -0.44 0.4 0.005
v -0.44 0.399 0.005
v 0.44 0.399 0.005
v 0.44 0.399 0.06
v -0.44 0.399 0.06
v -0.439 -0.38 0.087
v -0.439 0.4 0.005
v -0.439 0.4 0.06
v -0.439 -0.38 0.142
v 0.441 -0.38 0.087
v 0.441 0.4 0.005
v 0.441 0.4 0.06
v 0.441 -0.38 0.142
v -0.405 -0.345 0.132
v 0.405 -0.345 0.132
v 0.405 0.365 0.05
v -0.405 0.365 0.05
v -0.405 0.3649 0.049
v 0.405 0.3649 0.049
v 0.405 -0.3451 0.131
v -0.405 -0.3451 0.131
v -0.2085 -0.3448 0.1335
v -0.1965 -0.3448 0.1335
v -0.1965 0.3652 0.0515
v -0.2085 0.3652 0.0515
v -0.2085 0.3647 0.0475
v -0.1965 0.3647 0.0475
v -0.1965 -0.3453 0.1295
v -0.2085 -0.3453 0.1295
v -0.006 -0.3448 0.1335
v 0.006 -0.3448 0.1335
v 0.006 0.3652 0.0515
v -0.006 0.3652 0.0515
v -0.006 0.3647 0.0475
v 0.006 0.3647 0.0475
v 0.006 -0.3453 0.1295
v -0.006 -0.3453 0.1295
v 0.1965 -0.3448 0.1335
v 0.2085 -0.3448 0.1335
v 0.2085 0.3652 0.0515
v 0.1965 0.3652 0.0515
v 0.1965 0.3647 0.0475
v 0.2085 0.3647 0.0475
v 0.2085 -0.3453 0.1295
v 0.1965 -0.3453 0.1295
v -0.405 -0.2317 0.1159
v 0.405 -0.2317 0.1159
v 0.405 -0.2217 0.1159
v -0.405 -0.2217 0.1159
v -0.405 -0.2217 0.1149
v 0.405 -0.2217 0.1149
v 0.405 -0.2317 0.1149
v -0.405 -0.2317 0.1149
v -0.405 -0.1133 0.1034
v 0.405 -0.1133 0.1034
v 0.405 -0.1033 0.1034
v -0.405 -0.1033 0.1034
v -0.405 -0.1033 0.1024
v 0.405 -0.1033 0.1024
v 0.405 -0.1133 0.1024
v -0.405 -0.1133 0.1024
v -0.405 0.005 0.091
v 0.405 0.005 0.091
v 0.405 0.015 0.091
v -0.405 0.015 0.091
v -0.405 0.015 0.09
v 0.405 0.015 0.09
v 0.405 0.005 0.09
v -0.405 0.005 0.09
v -0.405 0.1233 0.0786
v 0.405 0.1233 0.0786
v 0.405 0.1333 0.0786
v -0.405 0.1333 0.0786
v -0.405 0.1333 0.0776
v 0.405 0.1333 0.0776
v 0.405 0.1233 0.0776
v -0.405 0.1233 0.0776
v -0.405 0.2417 0.0661
v 0.405 0.2417 0.0661
v 0.405 0.2517 0.0661
v -0.405 0.2517 0.0661
v -0.405 0.2517 0.0651
v 0.405 0.2517 0.0651
v 0.405 0.2417 0.0651
v -0.405 0.2417 0.0651
v -0.405 -0.3308 0.1368
v 0.405 -0.3308 0.1368
v 0.405 0.365 0.06
v -0.405 0.365 0.06
v -0.405 0.3649 0.059
v 0.405 0.3649 0.059
v 0.405 -0.3309 0.1358
v -0.405 -0.3309 0.1358
v 0.405 -0.3308 0.1068
v -0.405 -0.3308 0.1068
v -0.405 -0.3318 0.1068
v 0.405 -0.3318 0.1068
v 0.405 -0.3318 0.1368
v -0.405 -0.3318 0.1368
v 0.14 -0.36 0.102
v 0.3 -0.36 0.102
v 0.3 -0.26 0.102
v 0.14 -0.26 0.102
v 0.3 -0.36 0.032
v 0.3 -0.26 0.032
v 0.14 -0.26 0.032
v 0.14 -0.36 0.032
vt 0.359375 0.921875
vt 0.890625 0.953125
vt 0.984375 0.921875
vt 0.703125 0.921875
vt 0.296875 0.921875
vt 0.453125 0.984375
vt 0.203125 0.984375
vt 0.609375 0.890625
vt 0.453125 0.890625
vt 0.078125 0.921875
vt 0.640625 0.953125
vn 0 0 1
vn 1 0 0
vn 0 1 0
vn 0 -1 0
vn -1 0 0
vn 0 0 -1
vn 0 0.1101 0.9939
vn 0 -0.1101 -0.9939
vn 0 0.1045 0.9945
vn 0 -0.1045 -0.9945
vn 0 0.1147 0.9934
vn 0 -0.1147 -0.9934
vn 0 0.1097 0.994
vn 0 -0.1097 -0.994
f 1/1/1 2/1/1 3/1/1
f 1/1/1 3/1/1 4/1/1
f 5/2/2 6/2/2 3/2/2
f 5/2/2 3/2/2 2/2/2
f 6/2/3 7/2/3 4/2/3
f 6/2/3 4/2/3 3/2/3
f 8/2/4 5/2/4 2/2/4
f 8/2/4 2/2/4 1/2/4
f 7/2/5 8/2/5 1/2/5
f 7/2/5 1/2/5 4/2/5
f 8/2/6 7/2/6 6/2/6
f 8/2/6 6/2/6 5/2/6
f 9/1/1 10/1/1 11/1/1
f 9/1/1 11/1/1 12/1/1
f 13/2/2 14/2/2 11/2/2
f 13/2/2 11/2/2 10/2/2
f 14/2/3 15/2/3 12/2/3
f 14/2/3 12/2/3 11/2/3
f 16/2/4 13/2/4 10/2/4
f 16/2/4 10/2/4 9/2/4
f 15/2/5 16/2/5 9/2/5
f 15/2/5 9/2/5 12/2/5
f 16/2/6 15/2/6 14/2/6
f 16/2/6 14/2/6 13/2/6
f 17/1/1 18/1/1 19/1/1
f 17/1/1 19/1/1 20/1/1
f 21/2/2 22/2/2 19/2/2
f 21/2/2 19/2/2 18/2/2
f 22/2/3 23/2/3 20/2/3
f 22/2/3 20/2/3 19/2/3
f 24/2/4 21/2/4 18/2/4
f 24/2/4 18/2/4 17/2/4
f 23/2/5 24/2/5 17/2/5
f 23/2/5 17/2/5 20/2/5
f 24/2/6 23/2/6 22/2/6
f 24/2/6 22/2/6 21/2/6
f 25/1/1 26/1/1 27/1/1
f 25/1/1 27/1/1 28/1/1
f 29/2/2 30/2/2 27/2/2
f 29/2/2 27/2/2 26/2/2
f 30/2/3 31/2/3 28/2/3
f 30/2/3 28/2/3 27/2/3
f 32/2/4 29/2/4 26/2/4
f 32/2/4 26/2/4 25/2/4
f 31/2/5 32/2/5 25/2/5
f 31/2/5 25/2/5 28/2/5
f 32/2/6 31/2/6 30/2/6
f 32/2/6 30/2/6 29/2/6
f 33/3/7 34/3/7 35/3/7
f 33/3/7 35/3/7 36/3/7
f 37/3/8 38/3/8 39/3/8
f 37/3/8 39/3/8 40/3/8
f 41/4/9 42/4/9 43/4/9
f 41/4/9 43/4/9 44/4/9
f 45/4/10 46/4/10 47/4/10
f 45/4/10 47/4/10 48/4/10
f 49/4/3 50/4/3 51/4/3
f 49/4/3 51/4/3 52/4/3
f 53/4/4 54/4/4 55/4/4
f 53/4/4 55/4/4 56/4/4
f 57/4/3 58/4/3 59/4/3
f 57/4/3 59/4/3 60/4/3
f 61/4/4 62/4/4 63/4/4
f 61/4/4 63/4/4 64/4/4
f 49/5/5 57/5/5 60/5/5
f 49/5/5 60/5/5 52/5/5
f 65/5/2 66/5/2 67/5/2
f 65/5/2 67/5/2 68/5/2
f 50/5/5 58/5/5 59/5/5
f 50/5/5 59/5/5 51/5/5
f 69/5/2 70/5/2 71/5/2
f 69/5/2 71/5/2 72/5/2
f 73/6/11 74/6/11 75/6/11
f 73/6/11 75/6/11 76/6/11
f 77/6/12 78/6/12 79/6/12
f 77/6/12 79/6/12 80/6/12
f 81/7/11 82/7/11 83/7/11
f 81/7/11 83/7/11 84/7/11
f 85/7/12 86/7/12 87/7/12
f 85/7/12 87/7/12 88/7/12
f 89/7/11 90/7/11 91/7/11
f 89/7/11 91/7/11 92/7/11
f 93/7/12 94/7/12 95/7/12
f 93/7/12 95/7/12 96/7/12
f 97/7/11 98/7/11 99/7/11
f 97/7/11 99/7/11 100/7/11
f 101/7/12 102/7/12 103/7/12
f 101/7/12 103/7/12 104/7/12
f 105/7/1 106/7/1 107/7/1
f 105/7/1 107/7/1 108/7/1
f 109/7/6 110/7/6 111/7/6
f 109/7/6 111/7/6 112/7/6
f 113/7/1 114/7/1 115/7/1
f 113/7/1 115/7/1 116/7/1
f 117/7/6 118/7/6 119/7/6
f 117/7/6 119/7/6 120/7/6
f 121/7/1 122/7/1 123/7/1
f 121/7/1 123/7/1 124/7/1
f 125/7/6 126/7/6 127/7/6
f 125/7/6 127/7/6 128/7/6
f 129/7/1 130/7/1 131/7/1
f 129/7/1 131/7/1 132/7/1
f 133/7/6 134/7/6 135/7/6
f 133/7/6 135/7/6 136/7/6
f 137/7/1 138/7/1 139/7/1
f 137/7/1 139/7/1 140/7/1
f 141/7/6 142/7/6 143/7/6
f 141/7/6 143/7/6 144/7/6
f 145/8/13 146/8/13 147/8/13
f 145/8/13 147/8/13 148/8/13
f 149/8/14 150/8/14 151/8/14
f 149/8/14 151/8/14 152/8/14
f 145/9/3 146/9/3 153/9/3
f 145/9/3 153/9/3 154/9/3
f 155/9/4 156/9/4 157/9/4
f 155/9/4 157/9/4 158/9/4
f 159/10/1 160/10/1 161/10/1
f 159/10/1 161/10/1 162/10/1
f 163/11/2 164/11/2 161/11/2
f 163/11/2 161/11/2 160/11/2
f 164/11/3 165/11/3 162/11/3
f 164/11/3 162/11/3 161/11/3
f 166/11/4 163/11/4 160/11/4
f 166/11/4 160/11/4 159/11/4
f 165/11/5 166/11/5 159/11/5
f 165/11/5 159/11/5 162/11/5
f 166/11/6 165/11/6 164/11/6
f 166/11/6 164/11/6 163/11/6
