# Off-Grid array_ground_premium_clear_S for Project Viewpoint. Z up, tile units, x east, y south. Generated by tools/build_viewpoint.py.
mtllib offgrid.mtl
o array_ground_premium_clear_S
usemtl offgrid
v -0.44 0.33 0.05
v 0.44 0.33 0.05
v 0.44 0.4 0.05
v -0.44 0.4 0.05
v 0.44 0.33 0
v 0.44 0.4 0
v -0.44 0.4 0
v -0.44 0.33 0
v -0.44 -0.38 0.05
v 0.44 -0.38 0.05
v 0.44 -0.31 0.05
v -0.44 -0.31 0.05
v 0.44 -0.38 0
v 0.44 -0.31 0
v -0.44 -0.31 0
v -0.44 -0.38 0
v -0.4075 -0.3725 0.5474
v -0.3525 -0.3725 0.5474
v -0.3525 -0.3175 0.5474
v -0.4075 -0.3175 0.5474
v -0.3525 -0.3725 0.04
v -0.3525 -0.3175 0.04
v -0.4075 -0.3175 0.04
v -0.4075 -0.3725 0.04
v -0.4075 0.3375 0.07
v -0.3525 0.3375 0.07
v -0.3525 0.3925 0.07
v -0.4075 0.3925 0.07
v -0.3525 0.3375 0.04
v -0.3525 0.3925 0.04
v -0.4075 0.3925 0.04
v -0.4075 0.3375 0.04
v -0.0275 -0.3725 0.5474
v 0.0275 -0.3725 0.5474
v 0.0275 -0.3175 0.5474
v -0.0275 -0.3175 0.5474
v 0.0275 -0.3725 0.04
v 0.0275 -0.3175 0.04
v -0.0275 -0.3175 0.04
v -0.0275 -0.3725 0.04
v -0.0275 0.3375 0.07
v 0.0275 0.3375 0.07
v 0.0275 0.3925 0.07
v -0.0275 0.3925 0.07
v 0.0275 0.3375 0.04
v 0.0275 0.3925 0.04
v -0.0275 0.3925 0.04
v -0.0275 0.3375 0.04
v 0.3525 -0.3725 0.5474
v 0.4075 -0.3725 0.5474
v 0.4075 -0.3175 0.5474
v 0.3525 -0.3175 0.5474
v 0.4075 -0.3725 0.04
v 0.4075 -0.3175 0.04
v 0.3525 -0.3175 0.04
v 0.3525 -0.3725 0.04
v 0.3525 0.3375 0.07
v 0.4075 0.3375 0.07
v 0.4075 0.3925 0.07
v 0.3525 0.3925 0.07
v 0.4075 0.3375 0.04
v 0.4075 0.3925 0.04
v 0.3525 0.3925 0.04
v 0.3525 0.3375 0.04
v -0.39 -0.35 0.1
v -0.37 -0.35 0.1
v 0.39 0.37 0.05
v 0.37 0.37 0.05
v 0.37 0.3699 0.049
v 0.39 0.3699 0.049
v -0.37 -0.3501 0.099
v -0.39 -0.3501 0.099
v -0.42 -0.36 0.5424
v 0.42 -0.36 0.5424
v 0.42 0.38 0.055
v -0.42 0.38 0.055
v -0.42 0.3794 0.0542
v 0.42 0.3794 0.0542
v 0.42 -0.3606 0.5416
v -0.42 -0.3606 0.5416
v -0.44 -0.38 0.5674
v 0.44 -0.38 0.5674
v 0.44 0.4 0.08
v -0.44 0.4 0.08
v -0.44 0.3995 0.0792
v 0.44 0.3995 0.0792
v 0.44 -0.3805 0.5666
v -0.44 -0.3805 0.5666
v -0.44 -0.38 0.5974
v 0.44 -0.38 0.5974
v 0.44 -0.38 0.5424
v -0.44 -0.38 0.5424
v -0.44 -0.381 0.5424
v 0.44 -0.381 0.5424
v 0.44 -0.381 0.5974
v -0.44 -0.381 0.5974
v -0.44 0.4 0.11
v 0.44 0.4 0.11
v 0.44 0.4 0.055
v -0.44 0.4 0.055
v -0.44 0.399 0.055
v 0.44 0.399 0.055
v 0.44 0.399 0.11
v -0.44 0.399 0.11
v -0.439 -0.38 0.5424
v -0.439 0.4 0.055
v -0.439 0.4 0.11
v -0.439 -0.38 0.5974
v 0.441 -0.38 0.5424
v 0.441 0.4 0.055
v 0.441 0.4 0.11
v 0.441 -0.38 0.5974
v -0.405 -0.345 0.5874
v 0.405 -0.345 0.5874
v 0.405 0.365 0.1
v -0.405 0.365 0.1
v -0.405 0.3644 0.0992
v 0.405 0.3644 0.0992
v 0.405 -0.3456 0.5866
v -0.405 -0.3456 0.5866
v -0.249 -0.3442 0.5886
v -0.237 -0.3442 0.5886
v -0.237 0.3658 0.1012
v -0.249 0.3658 0.1012
v -0.249 0.3636 0.0979
v -0.237 0.3636 0.0979
v -0.237 -0.3464 0.5853
v -0.249 -0.3464 0.5853
v -0.087 -0.3442 0.5886
v -0.075 -0.3442 0.5886
v -0.075 0.3658 0.1012
v -0.087 0.3658 0.1012
v -0.087 0.3636 0.0979
v -0.075 0.3636 0.0979
v -0.075 -0.3464 0.5853
v -0.087 -0.3464 0.5853
v 0.075 -0.3442 0.5886
v 0.087 -0.3442 0.5886
v 0.087 0.3658 0.1012
v 0.075 0.3658 0.1012
v 0.075 0.3636 0.0979
v 0.087 0.3636 0.0979
v 0.087 -0.3464 0.5853
v 0.075 -0.3464 0.5853
v 0.237 -0.3442 0.5886
v 0.249 -0.3442 0.5886
v 0.249 0.3658 0.1012
v 0.237 0.3658 0.1012
v 0.237 0.3636 0.0979
v 0.249 0.3636 0.0979
v 0.249 -0.3464 0.5853
v 0.237 -0.3464 0.5853
v -0.405 -0.2486 0.5021
v 0.405 -0.2486 0.5021
v 0.405 -0.2386 0.5021
v -0.405 -0.2386 0.5021
v -0.405 -0.2386 0.5011
v 0.405 -0.2386 0.5011
v 0.405 -0.2486 0.5011
v -0.405 -0.2486 0.5011
v -0.405 -0.1471 0.4388
v 0.405 -0.1471 0.4388
v 0.405 -0.1371 0.4388
v -0.405 -0.1371 0.4388
v -0.405 -0.1371 0.4378
v 0.405 -0.1371 0.4378
v 0.405 -0.1471 0.4378
v -0.405 -0.1471 0.4378
v -0.405 -0.0457 0.3754
v 0.405 -0.0457 0.3754
v 0.405 -0.0357 0.3754
v -0.405 -0.0357 0.3754
v -0.405 -0.0357 0.3744
v 0.405 -0.0357 0.3744
v 0.405 -0.0457 0.3744
v -0.405 -0.0457 0.3744
v -0.405 0.0557 0.312
v 0.405 0.0557 0.312
v 0.405 0.0657 0.312
v -0.405 0.0657 0.312
v -0.405 0.0657 0.311
v 0.405 0.0657 0.311
v 0.405 0.0557 0.311
v -0.405 0.0557 0.311
v -0.405 0.1571 0.2486
v 0.405 0.1571 0.2486
v 0.405 0.1671 0.2486
v -0.405 0.1671 0.2486
v -0.405 0.1671 0.2476
v 0.405 0.1671 0.2476
v 0.405 0.1571 0.2476
v -0.405 0.1571 0.2476
v -0.405 0.2586 0.1853
v 0.405 0.2586 0.1853
v 0.405 0.2686 0.1853
v -0.405 0.2686 0.1853
v -0.405 0.2686 0.1843
v 0.405 0.2686 0.1843
v 0.405 0.2586 0.1843
v -0.405 0.2586 0.1843
v 0.14 -0.36 0.5574
v 0.3 -0.36 0.5574
v 0.3 -0.26 0.5574
v 0.14 -0.26 0.5574
v 0.3 -0.36 0.4874
v 0.3 -0.26 0.4874
v 0.14 -0.26 0.4874
v 0.14 -0.36 0.4874
v 0.2025 -0.3475 0.4889
v 0.2375 -0.3475 0.4889
v 0.2375 -0.3125 0.4889
v 0.2025 -0.3125 0.4889
v 0.2375 -0.3475 0
v 0.2375 -0.3125 0
v 0.2375 -0.3125 0.4874
v 0.2375 -0.3475 0.4874
v 0.2025 -0.3125 0
v 0.2025 -0.3125 0.4874
v 0.2025 -0.3475 0
v 0.2025 -0.3475 0.4874
v 0.2025 -0.3475 -0.0015
v 0.2025 -0.3125 -0.0015
v 0.2375 -0.3125 -0.0015
v 0.2375 -0.3475 -0.0015
vt 0.796875 0.921875
vt 0.390625 0.921875
vt 0.203125 0.953125
vt 0.984375 0.921875
vt 0.921875 0.921875
vt 0.453125 0.921875
vt 0.171875 0.984375
vt 0.015625 0.984375
vt 0.078125 0.921875
vt 0.640625 0.953125
vt 0.390625 0.984375
vn 0 0 1
vn 1 0 0
vn 0 1 0
vn 0 -1 0
vn -1 0 0
vn 0 0 -1
vn 0 0.0693 0.9976
vn 0 -0.0693 -0.9976
vn 0 0.5501 0.8351
vn 0 -0.5501 -0.8351
vn 0 0.5299 0.848
vn 0 -0.5299 -0.848
vn 0 0.566 0.8244
vn 0 -0.566 -0.8244
f 1/1/1 2/1/1 3/1/1
f 1/1/1 3/1/1 4/1/1
f 5/2/2 6/2/2 3/2/2
f 5/2/2 3/2/2 2/2/2
f 6/2/3 7/2/3 4/2/3
f 6/2/3 4/2/3 3/2/3
f 8/2/4 5/2/4 2/2/4
f 8/2/4 2/2/4 1/2/4
f 7/2/5 8/2/5 1/2/5
f 7/2/5 1/2/5 4/2/5
f 8/2/6 7/2/6 6/2/6
f 8/2/6 6/2/6 5/2/6
f 9/1/1 10/1/1 11/1/1
f 9/1/1 11/1/1 12/1/1
f 13/2/2 14/2/2 11/2/2
f 13/2/2 11/2/2 10/2/2
f 14/2/3 15/2/3 12/2/3
f 14/2/3 12/2/3 11/2/3
f 16/2/4 13/2/4 10/2/4
f 16/2/4 10/2/4 9/2/4
f 15/2/5 16/2/5 9/2/5
f 15/2/5 9/2/5 12/2/5
f 16/2/6 15/2/6 14/2/6
f 16/2/6 14/2/6 13/2/6
f 17/1/1 18/1/1 19/1/1
f 17/1/1 19/1/1 20/1/1
f 21/2/2 22/2/2 19/2/2
f 21/2/2 19/2/2 18/2/2
f 22/2/3 23/2/3 20/2/3
f 22/2/3 20/2/3 19/2/3
f 24/2/4 21/2/4 18/2/4
f 24/2/4 18/2/4 17/2/4
f 23/2/5 24/2/5 17/2/5
f 23/2/5 17/2/5 20/2/5
f 24/2/6 23/2/6 22/2/6
f 24/2/6 22/2/6 21/2/6
f 25/1/1 26/1/1 27/1/1
f 25/1/1 27/1/1 28/1/1
f 29/2/2 30/2/2 27/2/2
f 29/2/2 27/2/2 26/2/2
f 30/2/3 31/2/3 28/2/3
f 30/2/3 28/2/3 27/2/3
f 32/2/4 29/2/4 26/2/4
f 32/2/4 26/2/4 25/2/4
f 31/2/5 32/2/5 25/2/5
f 31/2/5 25/2/5 28/2/5
f 32/2/6 31/2/6 30/2/6
f 32/2/6 30/2/6 29/2/6
f 33/1/1 34/1/1 35/1/1
f 33/1/1 35/1/1 36/1/1
f 37/2/2 38/2/2 35/2/2
f 37/2/2 35/2/2 34/2/2
f 38/2/3 39/2/3 36/2/3
f 38/2/3 36/2/3 35/2/3
f 40/2/4 37/2/4 34/2/4
f 40/2/4 34/2/4 33/2/4
f 39/2/5 40/2/5 33/2/5
f 39/2/5 33/2/5 36/2/5
f 40/2/6 39/2/6 38/2/6
f 40/2/6 38/2/6 37/2/6
f 41/1/1 42/1/1 43/1/1
f 41/1/1 43/1/1 44/1/1
f 45/2/2 46/2/2 43/2/2
f 45/2/2 43/2/2 42/2/2
f 46/2/3 47/2/3 44/2/3
f 46/2/3 44/2/3 43/2/3
f 48/2/4 45/2/4 42/2/4
f 48/2/4 42/2/4 41/2/4
f 47/2/5 48/2/5 41/2/5
f 47/2/5 41/2/5 44/2/5
f 48/2/6 47/2/6 46/2/6
f 48/2/6 46/2/6 45/2/6
f 49/1/1 50/1/1 51/1/1
f 49/1/1 51/1/1 52/1/1
f 53/2/2 54/2/2 51/2/2
f 53/2/2 51/2/2 50/2/2
f 54/2/3 55/2/3 52/2/3
f 54/2/3 52/2/3 51/2/3
f 56/2/4 53/2/4 50/2/4
f 56/2/4 50/2/4 49/2/4
f 55/2/5 56/2/5 49/2/5
f 55/2/5 49/2/5 52/2/5
f 56/2/6 55/2/6 54/2/6
f 56/2/6 54/2/6 53/2/6
f 57/1/1 58/1/1 59/1/1
f 57/1/1 59/1/1 60/1/1
f 61/2/2 62/2/2 59/2/2
f 61/2/2 59/2/2 58/2/2
f 62/2/3 63/2/3 60/2/3
f 62/2/3 60/2/3 59/2/3
f 64/2/4 61/2/4 58/2/4
f 64/2/4 58/2/4 57/2/4
f 63/2/5 64/2/5 57/2/5
f 63/2/5 57/2/5 60/2/5
f 64/2/6 63/2/6 62/2/6
f 64/2/6 62/2/6 61/2/6
f 65/3/7 66/3/7 67/3/7
f 65/3/7 67/3/7 68/3/7
f 69/3/8 70/3/8 71/3/8
f 69/3/8 71/3/8 72/3/8
f 73/4/9 74/4/9 75/4/9
f 73/4/9 75/4/9 76/4/9
f 77/4/10 78/4/10 79/4/10
f 77/4/10 79/4/10 80/4/10
f 81/5/11 82/5/11 83/5/11
f 81/5/11 83/5/11 84/5/11
f 85/5/12 86/5/12 87/5/12
f 85/5/12 87/5/12 88/5/12
f 89/5/3 90/5/3 91/5/3
f 89/5/3 91/5/3 92/5/3
f 93/5/4 94/5/4 95/5/4
f 93/5/4 95/5/4 96/5/4
f 97/5/3 98/5/3 99/5/3
f 97/5/3 99/5/3 100/5/3
f 101/5/4 102/5/4 103/5/4
f 101/5/4 103/5/4 104/5/4
f 89/6/5 97/6/5 100/6/5
f 89/6/5 100/6/5 92/6/5
f 105/6/2 106/6/2 107/6/2
f 105/6/2 107/6/2 108/6/2
f 90/6/5 98/6/5 99/6/5
f 90/6/5 99/6/5 91/6/5
f 109/6/2 110/6/2 111/6/2
f 109/6/2 111/6/2 112/6/2
f 113/7/13 114/7/13 115/7/13
f 113/7/13 115/7/13 116/7/13
f 117/7/14 118/7/14 119/7/14
f 117/7/14 119/7/14 120/7/14
f 121/8/13 122/8/13 123/8/13
f 121/8/13 123/8/13 124/8/13
f 125/8/14 126/8/14 127/8/14
f 125/8/14 127/8/14 128/8/14
f 129/8/13 130/8/13 131/8/13
f 129/8/13 131/8/13 132/8/13
f 133/8/14 134/8/14 135/8/14
f 133/8/14 135/8/14 136/8/14
f 137/8/13 138/8/13 139/8/13
f 137/8/13 139/8/13 140/8/13
f 141/8/14 142/8/14 143/8/14
f 141/8/14 143/8/14 144/8/14
f 145/8/13 146/8/13 147/8/13
f 145/8/13 147/8/13 148/8/13
f 149/8/14 150/8/14 151/8/14
f 149/8/14 151/8/14 152/8/14
f 153/8/1 154/8/1 155/8/1
f 153/8/1 155/8/1 156/8/1
f 157/8/6 158/8/6 159/8/6
f 157/8/6 159/8/6 160/8/6
f 161/8/1 162/8/1 163/8/1
f 161/8/1 163/8/1 164/8/1
f 165/8/6 166/8/6 167/8/6
f 165/8/6 167/8/6 168/8/6
f 169/8/1 170/8/1 171/8/1
f 169/8/1 171/8/1 172/8/1
f 173/8/6 174/8/6 175/8/6
f 173/8/6 175/8/6 176/8/6
f 177/8/1 178/8/1 179/8/1
f 177/8/1 179/8/1 180/8/1
f 181/8/6 182/8/6 183/8/6
f 181/8/6 183/8/6 184/8/6
f 185/8/1 186/8/1 187/8/1
f 185/8/1 187/8/1 188/8/1
f 189/8/6 190/8/6 191/8/6
f 189/8/6 191/8/6 192/8/6
f 193/8/1 194/8/1 195/8/1
f 193/8/1 195/8/1 196/8/1
f 197/8/6 198/8/6 199/8/6
f 197/8/6 199/8/6 200/8/6
f 201/9/1 202/9/1 203/9/1
f 201/9/1 203/9/1 204/9/1
f 205/10/2 206/10/2 203/10/2
f 205/10/2 203/10/2 202/10/2
f 206/10/3 207/10/3 204/10/3
f 206/10/3 204/10/3 203/10/3
f 208/10/4 205/10/4 202/10/4
f 208/10/4 202/10/4 201/10/4
f 207/10/5 208/10/5 201/10/5
f 207/10/5 201/10/5 204/10/5
f 208/10/6 207/10/6 206/10/6
f 208/10/6 206/10/6 205/10/6
f 209/11/1 210/11/1 211/11/1
f 209/11/1 211/11/1 212/11/1
f 213/11/2 214/11/2 215/11/2
f 213/11/2 215/11/2 216/11/2
f 214/11/3 217/11/3 218/11/3
f 214/11/3 218/11/3 215/11/3
f 219/11/4 213/11/4 216/11/4
f 219/11/4 216/11/4 220/11/4
f 217/11/5 219/11/5 220/11/5
f 217/11/5 220/11/5 218/11/5
f 221/11/6 222/11/6 223/11/6
f 221/11/6 223/11/6 224/11/6
