# Off-Grid backup_ground_lectromax_on_E for Project Viewpoint. Z up, tile units, x east, y south. Generated by tools/build_viewpoint.py.
mtllib offgrid.mtl
o backup_ground_lectromax_on_E
usemtl offgrid
v -0.188 0.2475 0.03
v 0.122 0.2475 0.03
v 0.122 -0.2825 0.03
v -0.188 -0.2825 0.03
v 0.122 0.2475 0.48
v 0.122 -0.2825 0.48
v 0.077 0.2475 0.568
v 0.077 -0.2825 0.568
v 0.022 0.2475 0.58
v 0.022 -0.2825 0.58
v -0.088 0.2475 0.58
v -0.088 -0.2825 0.58
v -0.143 0.2475 0.568
v -0.143 -0.2825 0.568
v -0.188 0.2475 0.48
v -0.188 -0.2825 0.48
v -0.178 -0.2725 0.0315
v 0.112 -0.2725 0.0315
v 0.112 0.2375 0.0315
v -0.178 0.2375 0.0315
v 0.112 -0.2725 0
v 0.112 0.2375 0
v 0.112 0.2375 0.03
v 0.112 -0.2725 0.03
v -0.178 0.2375 0
v -0.178 0.2375 0.03
v -0.178 -0.2725 0
v -0.178 -0.2725 0.03
v -0.193 -0.2875 0.44
v 0.127 -0.2875 0.44
v 0.127 0.2525 0.44
v -0.193 0.2525 0.44
v 0.127 -0.2875 0.405
v 0.127 0.2525 0.405
v -0.193 0.2525 0.405
v -0.193 -0.2875 0.405
v 0.124 0.2175 0.23
v 0.124 -0.2525 0.23
v 0.124 -0.2525 0.05
v 0.124 0.2175 0.05
v 0.126 0.1775 0.18
v 0.126 0.1275 0.18
v 0.126 0.1275 0.11
v 0.126 0.1775 0.11
v 0.126 0.0875 0.18
v 0.126 0.0375 0.18
v 0.126 0.0375 0.11
v 0.126 0.0875 0.11
v 0.126 -0.0025 0.18
v 0.126 -0.0525 0.18
v 0.126 -0.0525 0.11
v 0.126 -0.0025 0.11
v 0.126 -0.0925 0.18
v 0.126 -0.1425 0.18
v 0.126 -0.1425 0.11
v 0.126 -0.0925 0.11
v 0.124 0.1975 0.39
v 0.124 0.0075 0.39
v 0.124 0.0075 0.25
v 0.124 0.1975 0.25
v 0.126 0.1855 0.378
v 0.126 0.0195 0.378
v 0.126 0.0195 0.262
v 0.126 0.1855 0.262
v 0.128 0.1855 0.378
v 0.128 0.0195 0.378
v 0.128 0.0195 0.3362
v 0.128 0.1855 0.3362
v 0.128 0.1735 0.3142
v 0.128 0.0315 0.3142
v 0.128 0.0315 0.3022
v 0.128 0.1735 0.3022
v 0.128 0.1735 0.2875
v 0.128 0.0812 0.2875
v 0.128 0.0812 0.2755
v 0.128 0.1735 0.2755
v -0.19 0.2175 0.05
v -0.19 -0.2525 0.05
v -0.19 -0.2525 0.23
v -0.19 0.2175 0.23
v -0.192 0.1775 0.11
v -0.192 0.1275 0.11
v -0.192 0.1275 0.18
v -0.192 0.1775 0.18
v -0.192 0.0875 0.11
v -0.192 0.0375 0.11
v -0.192 0.0375 0.18
v -0.192 0.0875 0.18
v -0.192 -0.0025 0.11
v -0.192 -0.0525 0.11
v -0.192 -0.0525 0.18
v -0.192 -0.0025 0.18
v -0.192 -0.0925 0.11
v -0.192 -0.1425 0.11
v -0.192 -0.1425 0.18
v -0.192 -0.0925 0.18
v -0.19 0.1975 0.25
v -0.19 0.0075 0.25
v -0.19 0.0075 0.39
v -0.19 0.1975 0.39
v -0.192 0.1855 0.262
v -0.192 0.0195 0.262
v -0.192 0.0195 0.378
v -0.192 0.1855 0.378
v -0.194 0.1855 0.3362
v -0.194 0.0195 0.3362
v -0.194 0.0195 0.378
v -0.194 0.1855 0.378
v -0.194 0.1735 0.3022
v -0.194 0.0315 0.3022
v -0.194 0.0315 0.3142
v -0.194 0.1735 0.3142
v -0.194 0.1735 0.2755
v -0.194 0.0812 0.2755
v -0.194 0.0812 0.2875
v -0.194 0.1735 0.2875
v 0.092 -0.2845 0.27
v -0.158 -0.2845 0.27
v -0.158 -0.2845 0.05
v 0.092 -0.2845 0.05
v 0.072 -0.2865 0.24
v -0.138 -0.2865 0.24
v -0.138 -0.2865 0.22
v 0.072 -0.2865 0.22
v 0.072 -0.2865 0.19
v -0.138 -0.2865 0.19
v -0.138 -0.2865 0.17
v 0.072 -0.2865 0.17
v 0.072 -0.2865 0.14
v -0.138 -0.2865 0.14
v -0.138 -0.2865 0.12
v 0.072 -0.2865 0.12
v 0.072 -0.2865 0.09
v -0.138 -0.2865 0.09
v -0.138 -0.2865 0.07
v 0.072 -0.2865 0.07
v 0.092 0.2495 0.05
v -0.158 0.2495 0.05
v -0.158 0.2495 0.27
v 0.092 0.2495 0.27
v 0.072 0.2515 0.22
v -0.138 0.2515 0.22
v -0.138 0.2515 0.24
v 0.072 0.2515 0.24
v 0.072 0.2515 0.17
v -0.138 0.2515 0.17
v -0.138 0.2515 0.19
v 0.072 0.2515 0.19
v 0.072 0.2515 0.12
v -0.138 0.2515 0.12
v -0.138 0.2515 0.14
v 0.072 0.2515 0.14
v 0.072 0.2515 0.07
v -0.138 0.2515 0.07
v -0.138 0.2515 0.09
v 0.072 0.2515 0.09
v 0.12 0.2505 0
v 0.154 0.2505 0
v 0.154 0.2505 0.45
v 0.12 0.2505 0.45
v 0.12 0.2845 0.45
v 0.154 0.2845 0.45
v 0.154 0.2845 0
v 0.12 0.2845 0
v 0.1534 0.286 0.4544
v 0.1206 0.286 0.4456
v 0.1005 0.286 0.5206
v 0.1333 0.286 0.5294
v 0.1333 0.249 0.5294
v 0.1005 0.249 0.5206
v 0.1206 0.249 0.4456
v 0.1534 0.249 0.4544
v 0.1333 0.2845 0.5294
v 0.1333 0.2505 0.5294
v 0.1534 0.2505 0.4544
v 0.1534 0.2845 0.4544
v 0.1206 0.2845 0.4456
v 0.1206 0.2505 0.4456
v 0.1005 0.2505 0.5206
v 0.1005 0.2845 0.5206
v 0.1289 0.2875 0.537
v 0.1049 0.2875 0.513
v 0.05 0.2875 0.5679
v 0.074 0.2875 0.5919
v 0.074 0.2475 0.5919
v 0.05 0.2475 0.5679
v 0.1049 0.2475 0.513
v 0.1289 0.2475 0.537
v 0.074 0.2845 0.5919
v 0.074 0.2505 0.5919
v 0.1289 0.2505 0.537
v 0.1289 0.2845 0.537
v 0.1049 0.2845 0.513
v 0.1049 0.2505 0.513
v 0.05 0.2505 0.5679
v 0.05 0.2845 0.5679
v 0.0664 0.289 0.5963
v 0.0576 0.289 0.5635
v -0.0174 0.289 0.5836
v -0.0086 0.289 0.6164
v -0.0086 0.246 0.6164
v -0.0174 0.246 0.5836
v 0.0576 0.246 0.5635
v 0.0664 0.246 0.5963
v -0.0086 0.2845 0.6164
v -0.0086 0.2505 0.6164
v 0.0664 0.2505 0.5963
v 0.0664 0.2845 0.5963
v 0.0576 0.2845 0.5635
v 0.0576 0.2505 0.5635
v -0.0174 0.2505 0.5836
v -0.0174 0.2845 0.5836
v -0.013 0.2905 0.617
v -0.013 0.2905 0.583
v -0.053 0.2905 0.583
v -0.053 0.2905 0.617
v -0.053 0.2445 0.617
v -0.053 0.2445 0.583
v -0.013 0.2445 0.583
v -0.013 0.2445 0.617
v -0.053 0.2845 0.617
v -0.053 0.2505 0.617
v -0.013 0.2505 0.617
v -0.013 0.2845 0.617
v -0.013 0.2845 0.583
v -0.013 0.2505 0.583
v -0.053 0.2505 0.583
v -0.053 0.2845 0.583
v -0.0574 0.292 0.6164
v -0.0486 0.292 0.5836
v -0.1236 0.292 0.5635
v -0.1324 0.292 0.5963
v -0.1324 0.243 0.5963
v -0.1236 0.243 0.5635
v -0.0486 0.243 0.5836
v -0.0574 0.243 0.6164
v -0.1324 0.2845 0.5963
v -0.1324 0.2505 0.5963
v -0.0574 0.2505 0.6164
v -0.0574 0.2845 0.6164
v -0.0486 0.2845 0.5836
v -0.0486 0.2505 0.5836
v -0.1236 0.2505 0.5635
v -0.1236 0.2845 0.5635
v -0.14 0.2935 0.5919
v -0.116 0.2935 0.5679
v -0.1709 0.2935 0.513
v -0.1949 0.2935 0.537
v -0.1949 0.2415 0.537
v -0.1709 0.2415 0.513
v -0.116 0.2415 0.5679
v -0.14 0.2415 0.5919
v -0.1949 0.2845 0.537
v -0.1949 0.2505 0.537
v -0.14 0.2505 0.5919
v -0.14 0.2845 0.5919
v -0.116 0.2845 0.5679
v -0.116 0.2505 0.5679
v -0.1709 0.2505 0.513
v -0.1709 0.2845 0.513
v -0.1993 0.295 0.5294
v -0.1665 0.295 0.5206
v -0.1866 0.295 0.4456
v -0.2194 0.295 0.4544
v -0.2194 0.2505 0.4544
v -0.1866 0.2505 0.4456
v -0.1665 0.2505 0.5206
v -0.1993 0.2505 0.5294
v -0.2194 0.2845 0.4544
v -0.1993 0.2845 0.5294
v -0.1665 0.2845 0.5206
v -0.1866 0.2845 0.4456
v -0.186 0.2505 0.45
v -0.22 0.2505 0.45
v -0.22 0.2505 0
v -0.186 0.2505 0
v -0.186 0.2965 0
v -0.22 0.2965 0
v -0.22 0.2965 0.45
v -0.186 0.2965 0.45
v -0.186 0.2845 0
v -0.186 0.2845 0.45
v -0.22 0.2845 0.45
v -0.22 0.2845 0
v 0.12 0.2505 0.467
v 0.154 0.2505 0.467
v 0.154 0.2845 0.467
v 0.12 0.2845 0.467
v 0.1555 0.2505 0.433
v 0.1555 0.2845 0.433
v 0.1555 0.2845 0.467
v 0.1555 0.2505 0.467
v 0.154 0.2875 0.433
v 0.12 0.2875 0.433
v 0.12 0.2875 0.467
v 0.154 0.2875 0.467
v 0.12 0.2475 0.433
v 0.154 0.2475 0.433
v 0.154 0.2475 0.467
v 0.12 0.2475 0.467
v 0.1185 0.2845 0.433
v 0.1185 0.2505 0.433
v 0.1185 0.2505 0.467
v 0.1185 0.2845 0.467
v 0.12 0.2505 0.433
v 0.12 0.2845 0.433
v 0.154 0.2845 0.433
v 0.154 0.2505 0.433
v 0.0999 0.2505 0.542
v 0.1339 0.2505 0.542
v 0.1339 0.2845 0.542
v 0.0999 0.2845 0.542
v 0.1339 0.2505 0.508
v 0.1339 0.2845 0.508
v 0.1339 0.289 0.508
v 0.0999 0.289 0.508
v 0.0999 0.289 0.542
v 0.1339 0.289 0.542
v 0.0999 0.246 0.508
v 0.1339 0.246 0.508
v 0.1339 0.246 0.542
v 0.0999 0.246 0.542
v 0.0999 0.2845 0.508
v 0.0999 0.2505 0.508
v 0.045 0.2505 0.5969
v 0.079 0.2505 0.5969
v 0.079 0.2845 0.5969
v 0.045 0.2845 0.5969
v 0.079 0.2505 0.5629
v 0.079 0.2845 0.5629
v 0.079 0.2905 0.5629
v 0.045 0.2905 0.5629
v 0.045 0.2905 0.5969
v 0.079 0.2905 0.5969
v 0.045 0.2445 0.5629
v 0.079 0.2445 0.5629
v 0.079 0.2445 0.5969
v 0.045 0.2445 0.5969
v 0.045 0.2845 0.5629
v 0.045 0.2505 0.5629
v -0.03 0.2505 0.6185
v 0.004 0.2505 0.6185
v 0.004 0.2845 0.6185
v -0.03 0.2845 0.6185
v 0.004 0.2505 0.583
v 0.004 0.2845 0.583
v 0.004 0.2845 0.617
v 0.004 0.2505 0.617
v 0.004 0.292 0.583
v -0.03 0.292 0.583
v -0.03 0.292 0.617
v 0.004 0.292 0.617
v -0.03 0.243 0.583
v 0.004 0.243 0.583
v 0.004 0.243 0.617
v -0.03 0.243 0.617
v -0.03 0.2845 0.583
v -0.03 0.2505 0.583
v -0.03 0.2505 0.617
v -0.03 0.2845 0.617
v -0.03 0.2505 0.5815
v -0.03 0.2845 0.5815
v 0.004 0.2845 0.5815
v 0.004 0.2505 0.5815
v -0.07 0.2505 0.6185
v -0.036 0.2505 0.6185
v -0.036 0.2845 0.6185
v -0.07 0.2845 0.6185
v -0.036 0.2505 0.583
v -0.036 0.2845 0.583
v -0.036 0.2845 0.617
v -0.036 0.2505 0.617
v -0.036 0.2935 0.583
v -0.07 0.2935 0.583
v -0.07 0.2935 0.617
v -0.036 0.2935 0.617
v -0.07 0.2415 0.583
v -0.036 0.2415 0.583
v -0.036 0.2415 0.617
v -0.07 0.2415 0.617
v -0.07 0.2845 0.583
v -0.07 0.2505 0.583
v -0.07 0.2505 0.617
v -0.07 0.2845 0.617
v -0.07 0.2505 0.5815
v -0.07 0.2845 0.5815
v -0.036 0.2845 0.5815
v -0.036 0.2505 0.5815
v -0.145 0.2505 0.5969
v -0.111 0.2505 0.5969
v -0.111 0.2845 0.5969
v -0.145 0.2845 0.5969
v -0.111 0.2505 0.5629
v -0.111 0.2845 0.5629
v -0.111 0.295 0.5629
v -0.145 0.295 0.5629
v -0.145 0.295 0.5969
v -0.111 0.295 0.5969
v -0.145 0.24 0.5629
v -0.111 0.24 0.5629
v -0.111 0.24 0.5969
v -0.145 0.24 0.5969
v -0.145 0.2845 0.5629
v -0.145 0.2505 0.5629
v -0.1999 0.2505 0.542
v -0.1659 0.2505 0.542
v -0.1659 0.2845 0.542
v -0.1999 0.2845 0.542
v -0.1659 0.2505 0.508
v -0.1659 0.2845 0.508
v -0.1659 0.2965 0.508
v -0.1999 0.2965 0.508
v -0.1999 0.2965 0.542
v -0.1659 0.2965 0.542
v -0.1999 0.24 0.508
v -0.1659 0.24 0.508
v -0.1659 0.24 0.542
v -0.1999 0.24 0.542
v -0.1999 0.2845 0.508
v -0.1999 0.2505 0.508
v -0.22 0.2505 0.467
v -0.186 0.2505 0.467
v -0.186 0.2845 0.467
v -0.22 0.2845 0.467
v -0.1845 0.2505 0.433
v -0.1845 0.2845 0.433
v -0.1845 0.2845 0.467
v -0.1845 0.2505 0.467
v -0.186 0.298 0.433
v -0.22 0.298 0.433
v -0.22 0.298 0.467
v -0.186 0.298 0.467
v -0.22 0.249 0.433
v -0.186 0.249 0.433
v -0.186 0.249 0.467
v -0.22 0.249 0.467
v -0.2215 0.2845 0.433
v -0.2215 0.2505 0.433
v -0.2215 0.2505 0.467
v -0.2215 0.2845 0.467
v -0.22 0.2505 0.433
v -0.22 0.2845 0.433
v -0.186 0.2845 0.433
v -0.186 0.2505 0.433
v 0.12 -0.3195 0
v 0.154 -0.3195 0
v 0.154 -0.3195 0.45
v 0.12 -0.3195 0.45
v 0.12 -0.2855 0.45
v 0.154 -0.2855 0.45
v 0.154 -0.2855 0
v 0.12 -0.2855 0
v 0.1534 -0.284 0.4544
v 0.1206 -0.284 0.4456
v 0.1005 -0.284 0.5206
v 0.1333 -0.284 0.5294
v 0.1333 -0.321 0.5294
v 0.1005 -0.321 0.5206
v 0.1206 -0.321 0.4456
v 0.1534 -0.321 0.4544
v 0.1333 -0.2855 0.5294
v 0.1333 -0.3195 0.5294
v 0.1534 -0.3195 0.4544
v 0.1534 -0.2855 0.4544
v 0.1206 -0.2855 0.4456
v 0.1206 -0.3195 0.4456
v 0.1005 -0.3195 0.5206
v 0.1005 -0.2855 0.5206
v 0.1289 -0.2825 0.537
v 0.1049 -0.2825 0.513
v 0.05 -0.2825 0.5679
v 0.074 -0.2825 0.5919
v 0.074 -0.3225 0.5919
v 0.05 -0.3225 0.5679
v 0.1049 -0.3225 0.513
v 0.1289 -0.3225 0.537
v 0.074 -0.2855 0.5919
v 0.074 -0.3195 0.5919
v 0.1289 -0.3195 0.537
v 0.1289 -0.2855 0.537
v 0.1049 -0.2855 0.513
v 0.1049 -0.3195 0.513
v 0.05 -0.3195 0.5679
v 0.05 -0.2855 0.5679
v 0.0664 -0.281 0.5963
v 0.0576 -0.281 0.5635
v -0.0174 -0.281 0.5836
v -0.0086 -0.281 0.6164
v -0.0086 -0.324 0.6164
v -0.0174 -0.324 0.5836
v 0.0576 -0.324 0.5635
v 0.0664 -0.324 0.5963
v -0.0086 -0.2855 0.6164
v -0.0086 -0.3195 0.6164
v 0.0664 -0.3195 0.5963
v 0.0664 -0.2855 0.5963
v 0.0576 -0.2855 0.5635
v 0.0576 -0.3195 0.5635
v -0.0174 -0.3195 0.5836
v -0.0174 -0.2855 0.5836
v -0.013 -0.2795 0.617
v -0.013 -0.2795 0.583
v -0.053 -0.2795 0.583
v -0.053 -0.2795 0.617
v -0.053 -0.3255 0.617
v -0.053 -0.3255 0.583
v -0.013 -0.3255 0.583
v -0.013 -0.3255 0.617
v -0.053 -0.2855 0.617
v -0.053 -0.3195 0.617
v -0.013 -0.3195 0.617
v -0.013 -0.2855 0.617
v -0.013 -0.2855 0.583
v -0.013 -0.3195 0.583
v -0.053 -0.3195 0.583
v -0.053 -0.2855 0.583
v -0.0574 -0.278 0.6164
v -0.0486 -0.278 0.5836
v -0.1236 -0.278 0.5635
v -0.1324 -0.278 0.5963
v -0.1324 -0.327 0.5963
v -0.1236 -0.327 0.5635
v -0.0486 -0.327 0.5836
v -0.0574 -0.327 0.6164
v -0.1324 -0.2855 0.5963
v -0.1324 -0.3195 0.5963
v -0.0574 -0.3195 0.6164
v -0.0574 -0.2855 0.6164
v -0.0486 -0.2855 0.5836
v -0.0486 -0.3195 0.5836
v -0.1236 -0.3195 0.5635
v -0.1236 -0.2855 0.5635
v -0.14 -0.2765 0.5919
v -0.116 -0.2765 0.5679
v -0.1709 -0.2765 0.513
v -0.1949 -0.2765 0.537
v -0.1949 -0.3195 0.537
v -0.1709 -0.3195 0.513
v -0.116 -0.3195 0.5679
v -0.14 -0.3195 0.5919
v -0.1949 -0.2855 0.537
v -0.14 -0.2855 0.5919
v -0.116 -0.2855 0.5679
v -0.1709 -0.2855 0.513
v -0.1993 -0.275 0.5294
v -0.1665 -0.275 0.5206
v -0.1866 -0.275 0.4456
v -0.2194 -0.275 0.4544
v -0.2194 -0.321 0.4544
v -0.1866 -0.321 0.4456
v -0.1665 -0.321 0.5206
v -0.1993 -0.321 0.5294
v -0.2194 -0.2855 0.4544
v -0.2194 -0.3195 0.4544
v -0.1993 -0.3195 0.5294
v -0.1993 -0.2855 0.5294
v -0.1665 -0.2855 0.5206
v -0.1665 -0.3195 0.5206
v -0.1866 -0.3195 0.4456
v -0.1866 -0.2855 0.4456
v -0.186 -0.3195 0.45
v -0.22 -0.3195 0.45
v -0.22 -0.3195 0
v -0.186 -0.3195 0
v -0.186 -0.2735 0
v -0.22 -0.2735 0
v -0.22 -0.2735 0.45
v -0.186 -0.2735 0.45
v -0.186 -0.2855 0
v -0.186 -0.2855 0.45
v -0.22 -0.2855 0.45
v -0.22 -0.2855 0
v 0.12 -0.3195 0.467
v 0.154 -0.3195 0.467
v 0.154 -0.2855 0.467
v 0.12 -0.2855 0.467
v 0.1555 -0.3195 0.433
v 0.1555 -0.2855 0.433
v 0.1555 -0.2855 0.467
v 0.1555 -0.3195 0.467
v 0.154 -0.2825 0.433
v 0.12 -0.2825 0.433
v 0.12 -0.2825 0.467
v 0.154 -0.2825 0.467
v 0.12 -0.3225 0.433
v 0.154 -0.3225 0.433
v 0.154 -0.3225 0.467
v 0.12 -0.3225 0.467
v 0.1185 -0.2855 0.433
v 0.1185 -0.3195 0.433
v 0.1185 -0.3195 0.467
v 0.1185 -0.2855 0.467
v 0.12 -0.3195 0.433
v 0.12 -0.2855 0.433
v 0.154 -0.2855 0.433
v 0.154 -0.3195 0.433
v 0.0999 -0.3195 0.542
v 0.1339 -0.3195 0.542
v 0.1339 -0.2855 0.542
v 0.0999 -0.2855 0.542
v 0.1339 -0.3195 0.508
v 0.1339 -0.2855 0.508
v 0.1339 -0.281 0.508
v 0.0999 -0.281 0.508
v 0.0999 -0.281 0.542
v 0.1339 -0.281 0.542
v 0.0999 -0.324 0.508
v 0.1339 -0.324 0.508
v 0.1339 -0.324 0.542
v 0.0999 -0.324 0.542
v 0.0999 -0.2855 0.508
v 0.0999 -0.3195 0.508
v 0.045 -0.3195 0.5969
v 0.079 -0.3195 0.5969
v 0.079 -0.2855 0.5969
v 0.045 -0.2855 0.5969
v 0.079 -0.3195 0.5629
v 0.079 -0.2855 0.5629
v 0.079 -0.2795 0.5629
v 0.045 -0.2795 0.5629
v 0.045 -0.2795 0.5969
v 0.079 -0.2795 0.5969
v 0.045 -0.3255 0.5629
v 0.079 -0.3255 0.5629
v 0.079 -0.3255 0.5969
v 0.045 -0.3255 0.5969
v 0.045 -0.2855 0.5629
v 0.045 -0.3195 0.5629
v -0.03 -0.3195 0.6185
v 0.004 -0.3195 0.6185
v 0.004 -0.2855 0.6185
v -0.03 -0.2855 0.6185
v 0.004 -0.3195 0.583
v 0.004 -0.2855 0.583
v 0.004 -0.2855 0.617
v 0.004 -0.3195 0.617
v 0.004 -0.278 0.583
v -0.03 -0.278 0.583
v -0.03 -0.278 0.617
v 0.004 -0.278 0.617
v -0.03 -0.327 0.583
v 0.004 -0.327 0.583
v 0.004 -0.327 0.617
v -0.03 -0.327 0.617
v -0.03 -0.2855 0.583
v -0.03 -0.3195 0.583
v -0.03 -0.3195 0.617
v -0.03 -0.2855 0.617
v -0.03 -0.3195 0.5815
v -0.03 -0.2855 0.5815
v 0.004 -0.2855 0.5815
v 0.004 -0.3195 0.5815
v -0.07 -0.3195 0.6185
v -0.036 -0.3195 0.6185
v -0.036 -0.2855 0.6185
v -0.07 -0.2855 0.6185
v -0.036 -0.3195 0.583
v -0.036 -0.2855 0.583
v -0.036 -0.2855 0.617
v -0.036 -0.3195 0.617
v -0.036 -0.2765 0.583
v -0.07 -0.2765 0.583
v -0.07 -0.2765 0.617
v -0.036 -0.2765 0.617
v -0.07 -0.3285 0.583
v -0.036 -0.3285 0.583
v -0.036 -0.3285 0.617
v -0.07 -0.3285 0.617
v -0.07 -0.2855 0.583
v -0.07 -0.3195 0.583
v -0.07 -0.3195 0.617
v -0.07 -0.2855 0.617
v -0.07 -0.3195 0.5815
v -0.07 -0.2855 0.5815
v -0.036 -0.2855 0.5815
v -0.036 -0.3195 0.5815
v -0.145 -0.3195 0.5969
v -0.111 -0.3195 0.5969
v -0.111 -0.2855 0.5969
v -0.145 -0.2855 0.5969
v -0.111 -0.3195 0.5629
v -0.111 -0.2855 0.5629
v -0.111 -0.275 0.5629
v -0.145 -0.275 0.5629
v -0.145 -0.275 0.5969
v -0.111 -0.275 0.5969
v -0.145 -0.3285 0.5629
v -0.111 -0.3285 0.5629
v -0.111 -0.3285 0.5969
v -0.145 -0.3285 0.5969
v -0.145 -0.2855 0.5629
v -0.145 -0.3195 0.5629
v -0.1999 -0.3195 0.542
v -0.1659 -0.3195 0.542
v -0.1659 -0.2855 0.542
v -0.1999 -0.2855 0.542
v -0.1659 -0.3195 0.508
v -0.1659 -0.2855 0.508
v -0.1659 -0.2735 0.508
v -0.1999 -0.2735 0.508
v -0.1999 -0.2735 0.542
v -0.1659 -0.2735 0.542
v -0.1999 -0.3195 0.508
v -0.1999 -0.2855 0.508
v -0.22 -0.3195 0.467
v -0.186 -0.3195 0.467
v -0.186 -0.2855 0.467
v -0.22 -0.2855 0.467
v -0.1845 -0.3195 0.433
v -0.1845 -0.2855 0.433
v -0.1845 -0.2855 0.467
v -0.1845 -0.3195 0.467
v -0.186 -0.272 0.433
v -0.22 -0.272 0.433
v -0.22 -0.272 0.467
v -0.186 -0.272 0.467
v -0.22 -0.321 0.433
v -0.186 -0.321 0.433
v -0.186 -0.321 0.467
v -0.22 -0.321 0.467
v -0.2215 -0.2855 0.433
v -0.2215 -0.3195 0.433
v -0.2215 -0.3195 0.467
v -0.2215 -0.2855 0.467
v -0.22 -0.3195 0.433
v -0.22 -0.2855 0.433
v -0.186 -0.2855 0.433
v -0.186 -0.3195 0.433
v -0.2215 0.2675 0.034
v -0.2215 0.2675 0
v -0.2215 -0.3025 0
v -0.2215 -0.3025 0.034
v -0.1845 -0.3025 0.034
v -0.1845 -0.3025 0
v -0.1845 0.2675 0
v -0.1845 0.2675 0.034
v -0.22 -0.3025 0.034
v -0.186 -0.3025 0.034
v -0.186 0.2675 0.034
v -0.22 0.2675 0.034
v -0.22 0.2675 0
v -0.186 0.2675 0
v -0.186 -0.3025 0
v -0.22 -0.3025 0
v -0.2166 0.2675 0.4836
v -0.2166 0.2675 0.4564
v -0.2166 -0.3025 0.4564
v -0.2166 -0.3025 0.4836
v -0.1894 -0.3025 0.4836
v -0.1894 -0.3025 0.4564
v -0.1894 0.2675 0.4564
v -0.1894 0.2675 0.4836
v 0.1185 0.2675 0.034
v 0.1185 0.2675 0
v 0.1185 -0.3025 0
v 0.1185 -0.3025 0.034
v 0.1555 -0.3025 0.034
v 0.1555 -0.3025 0
v 0.1555 0.2675 0
v 0.1555 0.2675 0.034
v 0.12 -0.3025 0.034
v 0.154 -0.3025 0.034
v 0.154 0.2675 0.034
v 0.12 0.2675 0.034
v 0.12 0.2675 0
v 0.154 0.2675 0
v 0.154 -0.3025 0
v 0.12 -0.3025 0
v 0.1234 0.2675 0.4836
v 0.1234 0.2675 0.4564
v 0.1234 -0.3025 0.4564
v 0.1234 -0.3025 0.4836
v 0.1506 -0.3025 0.4836
v 0.1506 -0.3025 0.4564
v 0.1506 0.2675 0.4564
v 0.1506 0.2675 0.4836
v 0.002 -0.3275 0.36
v 0.082 -0.3275 0.36
v 0.082 -0.2825 0.36
v 0.002 -0.2825 0.36
v 0.082 -0.3275 0.29
v 0.082 -0.2825 0.29
v 0.082 -0.281 0.29
v 0.002 -0.281 0.29
v 0.002 -0.281 0.36
v 0.082 -0.281 0.36
v 0.002 -0.3275 0.29
v 0.002 -0.2825 0.29
v 0.031 -0.316 0.2915
v 0.053 -0.316 0.2915
v 0.053 -0.294 0.2915
v 0.031 -0.294 0.2915
v 0.053 -0.316 0
v 0.053 -0.294 0
v 0.053 -0.294 0.29
v 0.053 -0.316 0.29
v 0.031 -0.294 0
v 0.031 -0.294 0.29
v 0.031 -0.316 0
v 0.031 -0.316 0.29
v -0.068 0.0775 0.58
v -0.048 0.0829 0.58
v -0.048 0.0829 0.615
v -0.068 0.0775 0.615
v -0.0334 0.0975 0.58
v -0.0334 0.0975 0.615
v -0.028 0.1175 0.58
v -0.028 0.1175 0.615
v -0.0334 0.1375 0.58
v -0.0334 0.1375 0.615
v -0.048 0.1521 0.58
v -0.048 0.1521 0.615
v -0.068 0.1575 0.58
v -0.068 0.1575 0.615
v -0.088 0.1521 0.58
v -0.088 0.1521 0.615
v -0.1026 0.1375 0.58
v -0.1026 0.1375 0.615
v -0.108 0.1175 0.58
v -0.108 0.1175 0.615
v -0.1026 0.0975 0.58
v -0.1026 0.0975 0.615
v -0.088 0.0829 0.58
v -0.088 0.0829 0.615
v -0.088 0.0829 0.5785
v -0.1026 0.0975 0.5785
v -0.108 0.1175 0.5785
v -0.1026 0.1375 0.5785
v -0.088 0.1521 0.5785
v -0.068 0.1575 0.5785
v -0.048 0.1521 0.5785
v -0.0334 0.1375 0.5785
v -0.028 0.1175 0.5785
v -0.0334 0.0975 0.5785
v -0.048 0.0829 0.5785
v -0.068 0.0775 0.5785
v -0.0149 -0.1901 0.58
v 0.0165 -0.172 0.58
v 0.0165 -0.172 0.592
v -0.0149 -0.1901 0.592
v 0.0346 -0.1406 0.58
v 0.0346 -0.1406 0.592
v 0.0346 -0.1044 0.58
v 0.0346 -0.1044 0.592
v 0.0165 -0.073 0.58
v 0.0165 -0.073 0.592
v -0.0149 -0.0549 0.58
v -0.0149 -0.0549 0.592
v -0.0511 -0.0549 0.58
v -0.0511 -0.0549 0.592
v -0.0825 -0.073 0.58
v -0.0825 -0.073 0.592
v -0.1006 -0.1044 0.58
v -0.1006 -0.1044 0.592
v -0.1006 -0.1406 0.58
v -0.1006 -0.1406 0.592
v -0.0825 -0.172 0.58
v -0.0825 -0.172 0.592
v -0.0511 -0.1901 0.58
v -0.0511 -0.1901 0.592
v -0.0511 -0.1901 0.5785
v -0.0825 -0.172 0.5785
v -0.1006 -0.1406 0.5785
v -0.1006 -0.1044 0.5785
v -0.0825 -0.073 0.5785
v -0.0511 -0.0549 0.5785
v -0.0149 -0.0549 0.5785
v 0.0165 -0.073 0.5785
v 0.0346 -0.1044 0.5785
v 0.0346 -0.1406 0.5785
v 0.0165 -0.172 0.5785
v -0.0149 -0.1901 0.5785
v -0.0185 -0.1766 0.592
v 0.0066 -0.1621 0.592
v 0.0066 -0.1621 0.628
v -0.0185 -0.1766 0.628
v 0.0211 -0.137 0.592
v 0.0211 -0.137 0.628
v 0.0211 -0.108 0.592
v 0.0211 -0.108 0.628
v 0.0066 -0.0829 0.592
v 0.0066 -0.0829 0.628
v -0.0185 -0.0684 0.592
v -0.0185 -0.0684 0.628
v -0.0475 -0.0684 0.592
v -0.0475 -0.0684 0.628
v -0.0726 -0.0829 0.592
v -0.0726 -0.0829 0.628
v -0.0871 -0.108 0.592
v -0.0871 -0.108 0.628
v -0.0871 -0.137 0.592
v -0.0871 -0.137 0.628
v -0.0726 -0.1621 0.592
v -0.0726 -0.1621 0.628
v -0.0475 -0.1766 0.592
v -0.0475 -0.1766 0.628
v -0.0475 -0.1766 0.5905
v -0.0726 -0.1621 0.5905
v -0.0871 -0.137 0.5905
v -0.0871 -0.108 0.5905
v -0.0726 -0.0829 0.5905
v -0.0475 -0.0684 0.5905
v -0.0185 -0.0684 0.5905
v 0.0066 -0.0829 0.5905
v 0.0211 -0.108 0.5905
v 0.0211 -0.137 0.5905
v 0.0066 -0.1621 0.5905
v -0.0185 -0.1766 0.5905
v -0.024 -0.156 0.628
v -0.0084 -0.1471 0.628
v -0.0084 -0.1471 0.64
v -0.024 -0.156 0.64
v 0.0005 -0.1315 0.628
v 0.0005 -0.1315 0.64
v 0.0005 -0.1135 0.628
v 0.0005 -0.1135 0.64
v -0.0084 -0.0979 0.628
v -0.0084 -0.0979 0.64
v -0.024 -0.089 0.628
v -0.024 -0.089 0.64
v -0.042 -0.089 0.628
v -0.042 -0.089 0.64
v -0.0576 -0.0979 0.628
v -0.0576 -0.0979 0.64
v -0.0665 -0.1135 0.628
v -0.0665 -0.1135 0.64
v -0.0665 -0.1315 0.628
v -0.0665 -0.1315 0.64
v -0.0576 -0.1471 0.628
v -0.0576 -0.1471 0.64
v -0.042 -0.156 0.628
v -0.042 -0.156 0.64
v -0.042 -0.156 0.6265
v -0.0576 -0.1471 0.6265
v -0.0665 -0.1315 0.6265
v -0.0665 -0.1135 0.6265
v -0.0576 -0.0979 0.6265
v -0.042 -0.089 0.6265
v -0.024 -0.089 0.6265
v -0.0084 -0.0979 0.6265
v 0.0005 -0.1135 0.6265
v 0.0005 -0.1315 0.6265
v -0.0084 -0.1471 0.6265
v -0.024 -0.156 0.6265
v -0.024 -0.1442 0.6405
v -0.0113 -0.1315 0.6405
v -0.0113 -0.1135 0.6405
v -0.024 -0.1008 0.6405
v -0.042 -0.1008 0.6405
v -0.0547 -0.1135 0.6405
v -0.0547 -0.1315 0.6405
v -0.042 -0.1442 0.6405
vt 0.203125 0.890625
vt 0.515625 0.890625
vt 0.359375 0.890625
vt 0.515625 0.984375
vt 0.609375 0.921875
vt 0.140625 0.890625
vt 0.234375 0.984375
vt 0.296875 0.984375
vt 0.546875 0.890625
vt 0.390625 0.953125
vt 0.609375 0.953125
vt 0.234375 0.921875
vt 0.265625 0.921875
vt 0.640625 0.953125
vt 0.796875 0.984375
vt 0.390625 0.984375
vt 0.484375 0.984375
vt 0.953125 0.984375
vt 0.515625 0.953125
vt 0.453125 0.953125
vt 0.890625 0.921875
vt 0.734375 0.890625
vn 0 0 -1
vn 1 0 0
vn 0.8903 0 0.4553
vn 0.2132 0 0.977
vn 0 0 1
vn -0.2132 0 0.977
vn -0.8903 0 0.4553
vn -1 0 0
vn 0 -1 0
vn 0 1 0
vn 0.9659 0 0.2588
vn -0.9659 0 -0.2588
vn 0.7071 0 0.7071
vn -0.7071 0 -0.7071
vn 0.2588 0 0.9659
vn -0.2588 0 -0.9659
vn -0.2588 0 0.9659
vn 0.2588 0 -0.9659
vn -0.7071 0 0.7071
vn 0.7071 0 -0.7071
vn -0.9659 0 0.2588
vn 0.9659 0 -0.2588
vn 0.2588 -0.9659 0
vn 0.7071 -0.7071 0
vn 0.9659 -0.2588 0
vn 0.9659 0.2588 0
vn 0.7071 0.7071 0
vn 0.2588 0.9659 0
vn -0.2588 0.9659 0
vn -0.7071 0.7071 0
vn -0.9659 0.2588 0
vn -0.9659 -0.2588 0
vn -0.7071 -0.7071 0
vn -0.2588 -0.9659 0
vn 0.5 -0.866 0
vn 0.866 -0.5 0
vn 0.866 0.5 0
vn 0.5 0.866 0
vn -0.5 0.866 0
vn -0.866 0.5 0
vn -0.866 -0.5 0
vn -0.5 -0.866 0
f 1/1/1 2/1/1 3/1/1
f 1/1/1 3/1/1 4/1/1
f 2/1/2 5/1/2 6/1/2
f 2/1/2 6/1/2 3/1/2
f 5/2/3 7/2/3 8/2/3
f 5/2/3 8/2/3 6/2/3
f 7/3/4 9/3/4 10/3/4
f 7/3/4 10/3/4 8/3/4
f 9/3/5 11/3/5 12/3/5
f 9/3/5 12/3/5 10/3/5
f 11/3/6 13/3/6 14/3/6
f 11/3/6 14/3/6 12/3/6
f 13/2/7 15/2/7 16/2/7
f 13/2/7 16/2/7 14/2/7
f 15/1/8 1/1/8 4/1/8
f 15/1/8 4/1/8 16/1/8
f 4/1/9 3/1/9 6/1/9
f 4/1/9 6/1/9 8/1/9
f 4/1/9 8/1/9 10/1/9
f 4/1/9 10/1/9 12/1/9
f 4/1/9 12/1/9 14/1/9
f 4/1/9 14/1/9 16/1/9
f 15/1/10 13/1/10 11/1/10
f 15/1/10 11/1/10 9/1/10
f 15/1/10 9/1/10 7/1/10
f 15/1/10 7/1/10 5/1/10
f 15/1/10 5/1/10 2/1/10
f 15/1/10 2/1/10 1/1/10
f 17/4/5 18/4/5 19/4/5
f 17/4/5 19/4/5 20/4/5
f 21/4/2 22/4/2 23/4/2
f 21/4/2 23/4/2 24/4/2
f 22/4/10 25/4/10 26/4/10
f 22/4/10 26/4/10 23/4/10
f 27/4/9 21/4/9 24/4/9
f 27/4/9 24/4/9 28/4/9
f 25/4/8 27/4/8 28/4/8
f 25/4/8 28/4/8 26/4/8
f 27/4/1 25/4/1 22/4/1
f 27/4/1 22/4/1 21/4/1
f 29/5/5 30/5/5 31/5/5
f 29/5/5 31/5/5 32/5/5
f 33/5/2 34/5/2 31/5/2
f 33/5/2 31/5/2 30/5/2
f 34/5/10 35/5/10 32/5/10
f 34/5/10 32/5/10 31/5/10
f 36/5/9 33/5/9 30/5/9
f 36/5/9 30/5/9 29/5/9
f 35/5/8 36/5/8 29/5/8
f 35/5/8 29/5/8 32/5/8
f 36/5/1 35/5/1 34/5/1
f 36/5/1 34/5/1 33/5/1
f 37/4/2 38/4/2 39/4/2
f 37/4/2 39/4/2 40/4/2
f 41/6/2 42/6/2 43/6/2
f 41/6/2 43/6/2 44/6/2
f 45/6/2 46/6/2 47/6/2
f 45/6/2 47/6/2 48/6/2
f 49/6/2 50/6/2 51/6/2
f 49/6/2 51/6/2 52/6/2
f 53/7/2 54/7/2 55/7/2
f 53/7/2 55/7/2 56/7/2
f 57/8/2 58/8/2 59/8/2
f 57/8/2 59/8/2 60/8/2
f 61/9/2 62/9/2 63/9/2
f 61/9/2 63/9/2 64/9/2
f 65/5/2 66/5/2 67/5/2
f 65/5/2 67/5/2 68/5/2
f 69/8/2 70/8/2 71/8/2
f 69/8/2 71/8/2 72/8/2
f 73/8/2 74/8/2 75/8/2
f 73/8/2 75/8/2 76/8/2
f 77/4/8 78/4/8 79/4/8
f 77/4/8 79/4/8 80/4/8
f 81/6/8 82/6/8 83/6/8
f 81/6/8 83/6/8 84/6/8
f 85/6/8 86/6/8 87/6/8
f 85/6/8 87/6/8 88/6/8
f 89/6/8 90/6/8 91/6/8
f 89/6/8 91/6/8 92/6/8
f 93/7/8 94/7/8 95/7/8
f 93/7/8 95/7/8 96/7/8
f 97/8/8 98/8/8 99/8/8
f 97/8/8 99/8/8 100/8/8
f 101/9/8 102/9/8 103/9/8
f 101/9/8 103/9/8 104/9/8
f 105/5/8 106/5/8 107/5/8
f 105/5/8 107/5/8 108/5/8
f 109/8/8 110/8/8 111/8/8
f 109/8/8 111/8/8 112/8/8
f 113/8/8 114/8/8 115/8/8
f 113/8/8 115/8/8 116/8/8
f 117/4/9 118/4/9 119/4/9
f 117/4/9 119/4/9 120/4/9
f 121/10/9 122/10/9 123/10/9
f 121/10/9 123/10/9 124/10/9
f 125/10/9 126/10/9 127/10/9
f 125/10/9 127/10/9 128/10/9
f 129/10/9 130/10/9 131/10/9
f 129/10/9 131/10/9 132/10/9
f 133/10/9 134/10/9 135/10/9
f 133/10/9 135/10/9 136/10/9
f 137/4/10 138/4/10 139/4/10
f 137/4/10 139/4/10 140/4/10
f 141/10/10 142/10/10 143/10/10
f 141/10/10 143/10/10 144/10/10
f 145/10/10 146/10/10 147/10/10
f 145/10/10 147/10/10 148/10/10
f 149/10/10 150/10/10 151/10/10
f 149/10/10 151/10/10 152/10/10
f 153/10/10 154/10/10 155/10/10
f 153/10/10 155/10/10 156/10/10
f 157/11/9 158/11/9 159/11/9
f 157/11/9 159/11/9 160/11/9
f 161/11/10 162/11/10 163/11/10
f 161/11/10 163/11/10 164/11/10
f 160/11/8 161/11/8 164/11/8
f 160/11/8 164/11/8 157/11/8
f 158/11/2 163/11/2 162/11/2
f 158/11/2 162/11/2 159/11/2
f 165/11/10 166/11/10 167/11/10
f 165/11/10 167/11/10 168/11/10
f 169/11/9 170/11/9 171/11/9
f 169/11/9 171/11/9 172/11/9
f 173/11/11 174/11/11 175/11/11
f 173/11/11 175/11/11 176/11/11
f 177/11/12 178/11/12 179/11/12
f 177/11/12 179/11/12 180/11/12
f 181/11/10 182/11/10 183/11/10
f 181/11/10 183/11/10 184/11/10
f 185/11/9 186/11/9 187/11/9
f 185/11/9 187/11/9 188/11/9
f 189/12/13 190/12/13 191/12/13
f 189/12/13 191/12/13 192/12/13
f 193/11/14 194/11/14 195/11/14
f 193/11/14 195/11/14 196/11/14
f 197/11/10 198/11/10 199/11/10
f 197/11/10 199/11/10 200/11/10
f 201/11/9 202/11/9 203/11/9
f 201/11/9 203/11/9 204/11/9
f 205/12/15 206/12/15 207/12/15
f 205/12/15 207/12/15 208/12/15
f 209/11/16 210/11/16 211/11/16
f 209/11/16 211/11/16 212/11/16
f 213/11/10 214/11/10 215/11/10
f 213/11/10 215/11/10 216/11/10
f 217/11/9 218/11/9 219/11/9
f 217/11/9 219/11/9 220/11/9
f 221/12/5 222/12/5 223/12/5
f 221/12/5 223/12/5 224/12/5
f 225/11/1 226/11/1 227/11/1
f 225/11/1 227/11/1 228/11/1
f 229/11/10 230/11/10 231/11/10
f 229/11/10 231/11/10 232/11/10
f 233/11/9 234/11/9 235/11/9
f 233/11/9 235/11/9 236/11/9
f 237/12/17 238/12/17 239/12/17
f 237/12/17 239/12/17 240/12/17
f 241/11/18 242/11/18 243/11/18
f 241/11/18 243/11/18 244/11/18
f 245/11/10 246/11/10 247/11/10
f 245/11/10 247/11/10 248/11/10
f 249/11/9 250/11/9 251/11/9
f 249/11/9 251/11/9 252/11/9
f 253/12/19 254/12/19 255/12/19
f 253/12/19 255/12/19 256/12/19
f 257/11/20 258/11/20 259/11/20
f 257/11/20 259/11/20 260/11/20
f 261/11/10 262/11/10 263/11/10
f 261/11/10 263/11/10 264/11/10
f 265/11/9 266/11/9 267/11/9
f 265/11/9 267/11/9 268/11/9
f 269/11/21 265/11/21 268/11/21
f 269/11/21 268/11/21 270/11/21
f 271/11/22 267/11/22 266/11/22
f 271/11/22 266/11/22 272/11/22
f 273/11/9 274/11/9 275/11/9
f 273/11/9 275/11/9 276/11/9
f 277/11/10 278/11/10 279/11/10
f 277/11/10 279/11/10 280/11/10
f 276/11/2 281/11/2 282/11/2
f 276/11/2 282/11/2 273/11/2
f 274/11/8 283/11/8 284/11/8
f 274/11/8 284/11/8 275/11/8
f 285/12/5 286/12/5 287/12/5
f 285/12/5 287/12/5 288/12/5
f 289/11/2 290/11/2 291/11/2
f 289/11/2 291/11/2 292/11/2
f 293/11/10 294/11/10 295/11/10
f 293/11/10 295/11/10 296/11/10
f 297/11/9 298/11/9 299/11/9
f 297/11/9 299/11/9 300/11/9
f 301/11/8 302/11/8 303/11/8
f 301/11/8 303/11/8 304/11/8
f 305/11/1 306/11/1 307/11/1
f 305/11/1 307/11/1 308/11/1
f 309/12/5 310/12/5 311/12/5
f 309/12/5 311/12/5 312/12/5
f 313/11/2 314/11/2 311/11/2
f 313/11/2 311/11/2 310/11/2
f 315/11/10 316/11/10 317/11/10
f 315/11/10 317/11/10 318/11/10
f 319/11/9 320/11/9 321/11/9
f 319/11/9 321/11/9 322/11/9
f 323/11/8 324/11/8 309/11/8
f 323/11/8 309/11/8 312/11/8
f 324/11/1 323/11/1 314/11/1
f 324/11/1 314/11/1 313/11/1
f 325/12/5 326/12/5 327/12/5
f 325/12/5 327/12/5 328/12/5
f 329/11/2 330/11/2 327/11/2
f 329/11/2 327/11/2 326/11/2
f 331/11/10 332/11/10 333/11/10
f 331/11/10 333/11/10 334/11/10
f 335/11/9 336/11/9 337/11/9
f 335/11/9 337/11/9 338/11/9
f 339/11/8 340/11/8 325/11/8
f 339/11/8 325/11/8 328/11/8
f 340/11/1 339/11/1 330/11/1
f 340/11/1 330/11/1 329/11/1
f 341/12/5 342/12/5 343/12/5
f 341/12/5 343/12/5 344/12/5
f 345/11/2 346/11/2 347/11/2
f 345/11/2 347/11/2 348/11/2
f 349/11/10 350/11/10 351/11/10
f 349/11/10 351/11/10 352/11/10
f 353/11/9 354/11/9 355/11/9
f 353/11/9 355/11/9 356/11/9
f 357/11/8 358/11/8 359/11/8
f 357/11/8 359/11/8 360/11/8
f 361/11/1 362/11/1 363/11/1
f 361/11/1 363/11/1 364/11/1
f 365/12/5 366/12/5 367/12/5
f 365/12/5 367/12/5 368/12/5
f 369/11/2 370/11/2 371/11/2
f 369/11/2 371/11/2 372/11/2
f 373/11/10 374/11/10 375/11/10
f 373/11/10 375/11/10 376/11/10
f 377/11/9 378/11/9 379/11/9
f 377/11/9 379/11/9 380/11/9
f 381/11/8 382/11/8 383/11/8
f 381/11/8 383/11/8 384/11/8
f 385/11/1 386/11/1 387/11/1
f 385/11/1 387/11/1 388/11/1
f 389/12/5 390/12/5 391/12/5
f 389/12/5 391/12/5 392/12/5
f 393/11/2 394/11/2 391/11/2
f 393/11/2 391/11/2 390/11/2
f 395/11/10 396/11/10 397/11/10
f 395/11/10 397/11/10 398/11/10
f 399/11/9 400/11/9 401/11/9
f 399/11/9 401/11/9 402/11/9
f 403/11/8 404/11/8 389/11/8
f 403/11/8 389/11/8 392/11/8
f 404/11/1 403/11/1 394/11/1
f 404/11/1 394/11/1 393/11/1
f 405/12/5 406/12/5 407/12/5
f 405/12/5 407/12/5 408/12/5
f 409/11/2 410/11/2 407/11/2
f 409/11/2 407/11/2 406/11/2
f 411/11/10 412/11/10 413/11/10
f 411/11/10 413/11/10 414/11/10
f 415/11/9 416/11/9 417/11/9
f 415/11/9 417/11/9 418/11/9
f 419/11/8 420/11/8 405/11/8
f 419/11/8 405/11/8 408/11/8
f 420/11/1 419/11/1 410/11/1
f 420/11/1 410/11/1 409/11/1
f 421/12/5 422/12/5 423/12/5
f 421/12/5 423/12/5 424/12/5
f 425/11/2 426/11/2 427/11/2
f 425/11/2 427/11/2 428/11/2
f 429/11/10 430/11/10 431/11/10
f 429/11/10 431/11/10 432/11/10
f 433/11/9 434/11/9 435/11/9
f 433/11/9 435/11/9 436/11/9
f 437/11/8 438/11/8 439/11/8
f 437/11/8 439/11/8 440/11/8
f 441/11/1 442/11/1 443/11/1
f 441/11/1 443/11/1 444/11/1
f 445/11/9 446/11/9 447/11/9
f 445/11/9 447/11/9 448/11/9
f 449/11/10 450/11/10 451/11/10
f 449/11/10 451/11/10 452/11/10
f 448/11/8 449/11/8 452/11/8
f 448/11/8 452/11/8 445/11/8
f 446/11/2 451/11/2 450/11/2
f 446/11/2 450/11/2 447/11/2
f 453/11/10 454/11/10 455/11/10
f 453/11/10 455/11/10 456/11/10
f 457/11/9 458/11/9 459/11/9
f 457/11/9 459/11/9 460/11/9
f 461/11/11 462/11/11 463/11/11
f 461/11/11 463/11/11 464/11/11
f 465/11/12 466/11/12 467/11/12
f 465/11/12 467/11/12 468/11/12
f 469/11/10 470/11/10 471/11/10
f 469/11/10 471/11/10 472/11/10
f 473/11/9 474/11/9 475/11/9
f 473/11/9 475/11/9 476/11/9
f 477/12/13 478/12/13 479/12/13
f 477/12/13 479/12/13 480/12/13
f 481/11/14 482/11/14 483/11/14
f 481/11/14 483/11/14 484/11/14
f 485/11/10 486/11/10 487/11/10
f 485/11/10 487/11/10 488/11/10
f 489/11/9 490/11/9 491/11/9
f 489/11/9 491/11/9 492/11/9
f 493/12/15 494/12/15 495/12/15
f 493/12/15 495/12/15 496/12/15
f 497/11/16 498/11/16 499/11/16
f 497/11/16 499/11/16 500/11/16
f 501/11/10 502/11/10 503/11/10
f 501/11/10 503/11/10 504/11/10
f 505/11/9 506/11/9 507/11/9
f 505/11/9 507/11/9 508/11/9
f 509/12/5 510/12/5 511/12/5
f 509/12/5 511/12/5 512/12/5
f 513/11/1 514/11/1 515/11/1
f 513/11/1 515/11/1 516/11/1
f 517/11/10 518/11/10 519/11/10
f 517/11/10 519/11/10 520/11/10
f 521/11/9 522/11/9 523/11/9
f 521/11/9 523/11/9 524/11/9
f 525/12/17 526/12/17 527/12/17
f 525/12/17 527/12/17 528/12/17
f 529/11/18 530/11/18 531/11/18
f 529/11/18 531/11/18 532/11/18
f 533/11/10 534/11/10 535/11/10
f 533/11/10 535/11/10 536/11/10
f 537/11/9 538/11/9 539/11/9
f 537/11/9 539/11/9 540/11/9
f 541/12/19 537/12/19 540/12/19
f 541/12/19 540/12/19 542/12/19
f 543/11/20 539/11/20 538/11/20
f 543/11/20 538/11/20 544/11/20
f 545/11/10 546/11/10 547/11/10
f 545/11/10 547/11/10 548/11/10
f 549/11/9 550/11/9 551/11/9
f 549/11/9 551/11/9 552/11/9
f 553/11/21 554/11/21 555/11/21
f 553/11/21 555/11/21 556/11/21
f 557/11/22 558/11/22 559/11/22
f 557/11/22 559/11/22 560/11/22
f 561/11/9 562/11/9 563/11/9
f 561/11/9 563/11/9 564/11/9
f 565/11/10 566/11/10 567/11/10
f 565/11/10 567/11/10 568/11/10
f 564/11/2 569/11/2 570/11/2
f 564/11/2 570/11/2 561/11/2
f 562/11/8 571/11/8 572/11/8
f 562/11/8 572/11/8 563/11/8
f 573/12/5 574/12/5 575/12/5
f 573/12/5 575/12/5 576/12/5
f 577/11/2 578/11/2 579/11/2
f 577/11/2 579/11/2 580/11/2
f 581/11/10 582/11/10 583/11/10
f 581/11/10 583/11/10 584/11/10
f 585/11/9 586/11/9 587/11/9
f 585/11/9 587/11/9 588/11/9
f 589/11/8 590/11/8 591/11/8
f 589/11/8 591/11/8 592/11/8
f 593/11/1 594/11/1 595/11/1
f 593/11/1 595/11/1 596/11/1
f 597/12/5 598/12/5 599/12/5
f 597/12/5 599/12/5 600/12/5
f 601/11/2 602/11/2 599/11/2
f 601/11/2 599/11/2 598/11/2
f 603/11/10 604/11/10 605/11/10
f 603/11/10 605/11/10 606/11/10
f 607/11/9 608/11/9 609/11/9
f 607/11/9 609/11/9 610/11/9
f 611/11/8 612/11/8 597/11/8
f 611/11/8 597/11/8 600/11/8
f 612/11/1 611/11/1 602/11/1
f 612/11/1 602/11/1 601/11/1
f 613/12/5 614/12/5 615/12/5
f 613/12/5 615/12/5 616/12/5
f 617/11/2 618/11/2 615/11/2
f 617/11/2 615/11/2 614/11/2
f 619/11/10 620/11/10 621/11/10
f 619/11/10 621/11/10 622/11/10
f 623/11/9 624/11/9 625/11/9
f 623/11/9 625/11/9 626/11/9
f 627/11/8 628/11/8 613/11/8
f 627/11/8 613/11/8 616/11/8
f 628/11/1 627/11/1 618/11/1
f 628/11/1 618/11/1 617/11/1
f 629/12/5 630/12/5 631/12/5
f 629/12/5 631/12/5 632/12/5
f 633/11/2 634/11/2 635/11/2
f 633/11/2 635/11/2 636/11/2
f 637/11/10 638/11/10 639/11/10
f 637/11/10 639/11/10 640/11/10
f 641/11/9 642/11/9 643/11/9
f 641/11/9 643/11/9 644/11/9
f 645/11/8 646/11/8 647/11/8
f 645/11/8 647/11/8 648/11/8
f 649/11/1 650/11/1 651/11/1
f 649/11/1 651/11/1 652/11/1
f 653/12/5 654/12/5 655/12/5
f 653/12/5 655/12/5 656/12/5
f 657/11/2 658/11/2 659/11/2
f 657/11/2 659/11/2 660/11/2
f 661/11/10 662/11/10 663/11/10
f 661/11/10 663/11/10 664/11/10
f 665/11/9 666/11/9 667/11/9
f 665/11/9 667/11/9 668/11/9
f 669/11/8 670/11/8 671/11/8
f 669/11/8 671/11/8 672/11/8
f 673/11/1 674/11/1 675/11/1
f 673/11/1 675/11/1 676/11/1
f 677/12/5 678/12/5 679/12/5
f 677/12/5 679/12/5 680/12/5
f 681/11/2 682/11/2 679/11/2
f 681/11/2 679/11/2 678/11/2
f 683/11/10 684/11/10 685/11/10
f 683/11/10 685/11/10 686/11/10
f 687/11/9 688/11/9 689/11/9
f 687/11/9 689/11/9 690/11/9
f 691/11/8 692/11/8 677/11/8
f 691/11/8 677/11/8 680/11/8
f 692/11/1 691/11/1 682/11/1
f 692/11/1 682/11/1 681/11/1
f 693/12/5 694/12/5 695/12/5
f 693/12/5 695/12/5 696/12/5
f 697/11/2 698/11/2 695/11/2
f 697/11/2 695/11/2 694/11/2
f 699/11/10 700/11/10 701/11/10
f 699/11/10 701/11/10 702/11/10
f 703/11/9 697/11/9 694/11/9
f 703/11/9 694/11/9 693/11/9
f 704/11/8 703/11/8 693/11/8
f 704/11/8 693/11/8 696/11/8
f 703/11/1 704/11/1 698/11/1
f 703/11/1 698/11/1 697/11/1
f 705/12/5 706/12/5 707/12/5
f 705/12/5 707/12/5 708/12/5
f 709/11/2 710/11/2 711/11/2
f 709/11/2 711/11/2 712/11/2
f 713/11/10 714/11/10 715/11/10
f 713/11/10 715/11/10 716/11/10
f 717/11/9 718/11/9 719/11/9
f 717/11/9 719/11/9 720/11/9
f 721/11/8 722/11/8 723/11/8
f 721/11/8 723/11/8 724/11/8
f 725/11/1 726/11/1 727/11/1
f 725/11/1 727/11/1 728/11/1
f 729/11/8 730/11/8 731/11/8
f 729/11/8 731/11/8 732/11/8
f 733/11/2 734/11/2 735/11/2
f 733/11/2 735/11/2 736/11/2
f 737/12/5 738/12/5 739/12/5
f 737/12/5 739/12/5 740/12/5
f 741/11/1 742/11/1 743/11/1
f 741/11/1 743/11/1 744/11/1
f 745/11/8 746/11/8 747/11/8
f 745/11/8 747/11/8 748/11/8
f 749/11/2 750/11/2 751/11/2
f 749/11/2 751/11/2 752/11/2
f 748/12/5 749/12/5 752/12/5
f 748/12/5 752/12/5 745/12/5
f 746/11/1 751/11/1 750/11/1
f 746/11/1 750/11/1 747/11/1
f 753/11/8 754/11/8 755/11/8
f 753/11/8 755/11/8 756/11/8
f 757/11/2 758/11/2 759/11/2
f 757/11/2 759/11/2 760/11/2
f 761/12/5 762/12/5 763/12/5
f 761/12/5 763/12/5 764/12/5
f 765/11/1 766/11/1 767/11/1
f 765/11/1 767/11/1 768/11/1
f 769/11/8 770/11/8 771/11/8
f 769/11/8 771/11/8 772/11/8
f 773/11/2 774/11/2 775/11/2
f 773/11/2 775/11/2 776/11/2
f 772/12/5 773/12/5 776/12/5
f 772/12/5 776/12/5 769/12/5
f 770/11/1 775/11/1 774/11/1
f 770/11/1 774/11/1 771/11/1
f 777/13/5 778/13/5 779/13/5
f 777/13/5 779/13/5 780/13/5
f 781/14/2 782/14/2 779/14/2
f 781/14/2 779/14/2 778/14/2
f 783/14/10 784/14/10 785/14/10
f 783/14/10 785/14/10 786/14/10
f 787/14/9 781/14/9 778/14/9
f 787/14/9 778/14/9 777/14/9
f 788/14/8 787/14/8 777/14/8
f 788/14/8 777/14/8 780/14/8
f 787/14/1 788/14/1 782/14/1
f 787/14/1 782/14/1 781/14/1
f 789/15/5 790/15/5 791/15/5
f 789/15/5 791/15/5 792/15/5
f 793/16/2 794/16/2 795/16/2
f 793/16/2 795/16/2 796/16/2
f 794/16/10 797/16/10 798/16/10
f 794/16/10 798/16/10 795/16/10
f 799/16/9 793/16/9 796/16/9
f 799/16/9 796/16/9 800/16/9
f 797/16/8 799/16/8 800/16/8
f 797/16/8 800/16/8 798/16/8
f 799/16/1 797/16/1 794/16/1
f 799/16/1 794/16/1 793/16/1
f 801/17/23 802/17/23 803/17/23
f 801/17/23 803/17/23 804/17/23
f 802/17/24 805/17/24 806/17/24
f 802/17/24 806/17/24 803/17/24
f 805/17/25 807/17/25 808/17/25
f 805/17/25 808/17/25 806/17/25
f 807/17/26 809/17/26 810/17/26
f 807/17/26 810/17/26 808/17/26
f 809/17/27 811/17/27 812/17/27
f 809/17/27 812/17/27 810/17/27
f 811/17/28 813/17/28 814/17/28
f 811/17/28 814/17/28 812/17/28
f 813/17/29 815/17/29 816/17/29
f 813/17/29 816/17/29 814/17/29
f 815/17/30 817/17/30 818/17/30
f 815/17/30 818/17/30 816/17/30
f 817/17/31 819/17/31 820/17/31
f 817/17/31 820/17/31 818/17/31
f 819/17/32 821/17/32 822/17/32
f 819/17/32 822/17/32 820/17/32
f 821/17/33 823/17/33 824/17/33
f 821/17/33 824/17/33 822/17/33
f 823/17/34 801/17/34 804/17/34
f 823/17/34 804/17/34 824/17/34
f 804/17/5 803/17/5 806/17/5
f 804/17/5 806/17/5 808/17/5
f 804/17/5 808/17/5 810/17/5
f 804/17/5 810/17/5 812/17/5
f 804/17/5 812/17/5 814/17/5
f 804/17/5 814/17/5 816/17/5
f 804/17/5 816/17/5 818/17/5
f 804/17/5 818/17/5 820/17/5
f 804/17/5 820/17/5 822/17/5
f 804/17/5 822/17/5 824/17/5
f 825/17/1 826/17/1 827/17/1
f 825/17/1 827/17/1 828/17/1
f 825/17/1 828/17/1 829/17/1
f 825/17/1 829/17/1 830/17/1
f 825/17/1 830/17/1 831/17/1
f 825/17/1 831/17/1 832/17/1
f 825/17/1 832/17/1 833/17/1
f 825/17/1 833/17/1 834/17/1
f 825/17/1 834/17/1 835/17/1
f 825/17/1 835/17/1 836/17/1
f 837/18/35 838/18/35 839/18/35
f 837/18/35 839/18/35 840/18/35
f 838/18/36 841/18/36 842/18/36
f 838/18/36 842/18/36 839/18/36
f 841/18/2 843/18/2 844/18/2
f 841/18/2 844/18/2 842/18/2
f 843/18/37 845/18/37 846/18/37
f 843/18/37 846/18/37 844/18/37
f 845/18/38 847/18/38 848/18/38
f 845/18/38 848/18/38 846/18/38
f 847/18/10 849/18/10 850/18/10
f 847/18/10 850/18/10 848/18/10
f 849/18/39 851/18/39 852/18/39
f 849/18/39 852/18/39 850/18/39
f 851/18/40 853/18/40 854/18/40
f 851/18/40 854/18/40 852/18/40
f 853/18/8 855/18/8 856/18/8
f 853/18/8 856/18/8 854/18/8
f 855/18/41 857/18/41 858/18/41
f 855/18/41 858/18/41 856/18/41
f 857/18/42 859/18/42 860/18/42
f 857/18/42 860/18/42 858/18/42
f 859/18/9 837/18/9 840/18/9
f 859/18/9 840/18/9 860/18/9
f 840/19/5 839/19/5 842/19/5
f 840/19/5 842/19/5 844/19/5
f 840/19/5 844/19/5 846/19/5
f 840/19/5 846/19/5 848/19/5
f 840/19/5 848/19/5 850/19/5
f 840/19/5 850/19/5 852/19/5
f 840/19/5 852/19/5 854/19/5
f 840/19/5 854/19/5 856/19/5
f 840/19/5 856/19/5 858/19/5
f 840/19/5 858/19/5 860/19/5
f 861/19/1 862/19/1 863/19/1
f 861/19/1 863/19/1 864/19/1
f 861/19/1 864/19/1 865/19/1
f 861/19/1 865/19/1 866/19/1
f 861/19/1 866/19/1 867/19/1
f 861/19/1 867/19/1 868/19/1
f 861/19/1 868/19/1 869/19/1
f 861/19/1 869/19/1 870/19/1
f 861/19/1 870/19/1 871/19/1
f 861/19/1 871/19/1 872/19/1
f 873/20/35 874/20/35 875/20/35
f 873/20/35 875/20/35 876/20/35
f 874/20/36 877/20/36 878/20/36
f 874/20/36 878/20/36 875/20/36
f 877/20/2 879/20/2 880/20/2
f 877/20/2 880/20/2 878/20/2
f 879/20/37 881/20/37 882/20/37
f 879/20/37 882/20/37 880/20/37
f 881/20/38 883/20/38 884/20/38
f 881/20/38 884/20/38 882/20/38
f 883/20/10 885/20/10 886/20/10
f 883/20/10 886/20/10 884/20/10
f 885/20/39 887/20/39 888/20/39
f 885/20/39 888/20/39 886/20/39
f 887/20/40 889/20/40 890/20/40
f 887/20/40 890/20/40 888/20/40
f 889/20/8 891/20/8 892/20/8
f 889/20/8 892/20/8 890/20/8
f 891/20/41 893/20/41 894/20/41
f 891/20/41 894/20/41 892/20/41
f 893/20/42 895/20/42 896/20/42
f 893/20/42 896/20/42 894/20/42
f 895/20/9 873/20/9 876/20/9
f 895/20/9 876/20/9 896/20/9
f 876/21/5 875/21/5 878/21/5
f 876/21/5 878/21/5 880/21/5
f 876/21/5 880/21/5 882/21/5
f 876/21/5 882/21/5 884/21/5
f 876/21/5 884/21/5 886/21/5
f 876/21/5 886/21/5 888/21/5
f 876/21/5 888/21/5 890/21/5
f 876/21/5 890/21/5 892/21/5
f 876/21/5 892/21/5 894/21/5
f 876/21/5 894/21/5 896/21/5
f 897/21/1 898/21/1 899/21/1
f 897/21/1 899/21/1 900/21/1
f 897/21/1 900/21/1 901/21/1
f 897/21/1 901/21/1 902/21/1
f 897/21/1 902/21/1 903/21/1
f 897/21/1 903/21/1 904/21/1
f 897/21/1 904/21/1 905/21/1
f 897/21/1 905/21/1 906/21/1
f 897/21/1 906/21/1 907/21/1
f 897/21/1 907/21/1 908/21/1
f 909/20/35 910/20/35 911/20/35
f 909/20/35 911/20/35 912/20/35
f 910/20/36 913/20/36 914/20/36
f 910/20/36 914/20/36 911/20/36
f 913/20/2 915/20/2 916/20/2
f 913/20/2 916/20/2 914/20/2
f 915/20/37 917/20/37 918/20/37
f 915/20/37 918/20/37 916/20/37
f 917/20/38 919/20/38 920/20/38
f 917/20/38 920/20/38 918/20/38
f 919/20/10 921/20/10 922/20/10
f 919/20/10 922/20/10 920/20/10
f 921/20/39 923/20/39 924/20/39
f 921/20/39 924/20/39 922/20/39
f 923/20/40 925/20/40 926/20/40
f 923/20/40 926/20/40 924/20/40
f 925/20/8 927/20/8 928/20/8
f 925/20/8 928/20/8 926/20/8
f 927/20/41 929/20/41 930/20/41
f 927/20/41 930/20/41 928/20/41
f 929/20/42 931/20/42 932/20/42
f 929/20/42 932/20/42 930/20/42
f 931/20/9 909/20/9 912/20/9
f 931/20/9 912/20/9 932/20/9
f 912/21/5 911/21/5 914/21/5
f 912/21/5 914/21/5 916/21/5
f 912/21/5 916/21/5 918/21/5
f 912/21/5 918/21/5 920/21/5
f 912/21/5 920/21/5 922/21/5
f 912/21/5 922/21/5 924/21/5
f 912/21/5 924/21/5 926/21/5
f 912/21/5 926/21/5 928/21/5
f 912/21/5 928/21/5 930/21/5
f 912/21/5 930/21/5 932/21/5
f 933/21/1 934/21/1 935/21/1
f 933/21/1 935/21/1 936/21/1
f 933/21/1 936/21/1 937/21/1
f 933/21/1 937/21/1 938/21/1
f 933/21/1 938/21/1 939/21/1
f 933/21/1 939/21/1 940/21/1
f 933/21/1 940/21/1 941/21/1
f 933/21/1 941/21/1 942/21/1
f 933/21/1 942/21/1 943/21/1
f 933/21/1 943/21/1 944/21/1
f 945/22/5 946/22/5 947/22/5
f 945/22/5 947/22/5 948/22/5
f 945/22/5 948/22/5 949/22/5
f 945/22/5 949/22/5 950/22/5
f 945/22/5 950/22/5 951/22/5
f 945/22/5 951/22/5 952/22/5
