# Off-Grid backup_ground_old_on_N for Project Viewpoint. Z up, tile units, x east, y south. Generated by tools/build_viewpoint.py.
mtllib offgrid.mtl
o backup_ground_old_on_N
usemtl offgrid
v 0.213 0.36 0.016
v 0.213 0.328 0.016
v 0.213 0.328 0.36
v 0.213 0.36 0.36
v 0.245 0.36 0.36
v 0.245 0.328 0.36
v 0.245 0.328 0.016
v 0.245 0.36 0.016
v 0.2403 0.3615 0.3713
v 0.2177 0.3615 0.3487
v 0.1677 0.3615 0.3987
v 0.1903 0.3615 0.4213
v 0.1903 0.3265 0.4213
v 0.1677 0.3265 0.3987
v 0.2177 0.3265 0.3487
v 0.2403 0.3265 0.3713
v 0.1903 0.36 0.4213
v 0.1903 0.328 0.4213
v 0.2403 0.328 0.3713
v 0.2403 0.36 0.3713
v 0.2177 0.36 0.3487
v 0.2177 0.328 0.3487
v 0.1677 0.328 0.3987
v 0.1677 0.36 0.3987
v 0.179 0.363 0.426
v 0.179 0.363 0.394
v -0.231 0.363 0.394
v -0.231 0.363 0.426
v -0.231 0.325 0.426
v -0.231 0.325 0.394
v 0.179 0.325 0.394
v 0.179 0.325 0.426
v -0.231 0.36 0.426
v -0.231 0.328 0.426
v 0.179 0.328 0.426
v 0.179 0.36 0.426
v 0.179 0.36 0.394
v 0.179 0.328 0.394
v -0.231 0.328 0.394
v -0.231 0.36 0.394
v -0.2423 0.3645 0.4213
v -0.2197 0.3645 0.3987
v -0.2697 0.3645 0.3487
v -0.2923 0.3645 0.3713
v -0.2923 0.3235 0.3713
v -0.2697 0.3235 0.3487
v -0.2197 0.3235 0.3987
v -0.2423 0.3235 0.4213
v -0.2923 0.36 0.3713
v -0.2923 0.328 0.3713
v -0.2423 0.328 0.4213
v -0.2423 0.36 0.4213
v -0.2197 0.36 0.3987
v -0.2197 0.328 0.3987
v -0.2697 0.328 0.3487
v -0.2697 0.36 0.3487
v -0.297 0.328 0.36
v -0.297 0.36 0.36
v -0.297 0.36 0.016
v -0.297 0.328 0.016
v -0.265 0.328 0.016
v -0.265 0.36 0.016
v -0.265 0.36 0.36
v -0.265 0.328 0.36
v -0.297 0.322 0.016
v -0.265 0.322 0.016
v -0.265 0.322 0.36
v -0.297 0.322 0.36
v -0.297 0.366 0.36
v -0.265 0.366 0.36
v -0.265 0.366 0.016
v -0.297 0.366 0.016
v 0.213 0.328 0.376
v 0.245 0.328 0.376
v 0.245 0.36 0.376
v 0.213 0.36 0.376
v 0.2465 0.328 0.344
v 0.2465 0.36 0.344
v 0.2465 0.36 0.376
v 0.2465 0.328 0.376
v 0.245 0.363 0.344
v 0.213 0.363 0.344
v 0.213 0.363 0.376
v 0.245 0.363 0.376
v 0.213 0.325 0.344
v 0.245 0.325 0.344
v 0.245 0.325 0.376
v 0.213 0.325 0.376
v 0.2115 0.36 0.344
v 0.2115 0.328 0.344
v 0.2115 0.328 0.376
v 0.2115 0.36 0.376
v 0.213 0.328 0.344
v 0.213 0.36 0.344
v 0.245 0.36 0.344
v 0.245 0.328 0.344
v 0.163 0.328 0.4275
v 0.195 0.328 0.4275
v 0.195 0.36 0.4275
v 0.163 0.36 0.4275
v 0.195 0.328 0.394
v 0.195 0.36 0.394
v 0.195 0.36 0.426
v 0.195 0.328 0.426
v 0.195 0.3645 0.394
v 0.163 0.3645 0.394
v 0.163 0.3645 0.426
v 0.195 0.3645 0.426
v 0.163 0.3235 0.394
v 0.195 0.3235 0.394
v 0.195 0.3235 0.426
v 0.163 0.3235 0.426
v 0.163 0.36 0.394
v 0.163 0.328 0.394
v 0.163 0.328 0.426
v 0.163 0.36 0.426
v 0.163 0.328 0.3925
v 0.163 0.36 0.3925
v 0.195 0.36 0.3925
v 0.195 0.328 0.3925
v -0.247 0.328 0.4275
v -0.215 0.328 0.4275
v -0.215 0.36 0.4275
v -0.247 0.36 0.4275
v -0.215 0.328 0.394
v -0.215 0.36 0.394
v -0.215 0.36 0.426
v -0.215 0.328 0.426
v -0.215 0.366 0.394
v -0.247 0.366 0.394
v -0.247 0.366 0.426
v -0.215 0.366 0.426
v -0.247 0.322 0.394
v -0.215 0.322 0.394
v -0.215 0.322 0.426
v -0.247 0.322 0.426
v -0.247 0.36 0.394
v -0.247 0.328 0.394
v -0.247 0.328 0.426
v -0.247 0.36 0.426
v -0.247 0.328 0.3925
v -0.247 0.36 0.3925
v -0.215 0.36 0.3925
v -0.215 0.328 0.3925
v -0.297 0.328 0.376
v -0.265 0.328 0.376
v -0.265 0.36 0.376
v -0.297 0.36 0.376
v -0.2635 0.328 0.344
v -0.2635 0.36 0.344
v -0.2635 0.36 0.376
v -0.2635 0.328 0.376
v -0.265 0.3675 0.344
v -0.297 0.3675 0.344
v -0.297 0.3675 0.376
v -0.265 0.3675 0.376
v -0.297 0.3205 0.344
v -0.265 0.3205 0.344
v -0.265 0.3205 0.376
v -0.297 0.3205 0.376
v -0.2985 0.36 0.344
v -0.2985 0.328 0.344
v -0.2985 0.328 0.376
v -0.2985 0.36 0.376
v -0.297 0.328 0.344
v -0.297 0.36 0.344
v -0.265 0.36 0.344
v -0.265 0.328 0.344
v 0.213 -0.36 0.016
v 0.213 -0.392 0.016
v 0.213 -0.392 0.14
v 0.213 -0.36 0.14
v 0.245 -0.36 0.14
v 0.245 -0.392 0.14
v 0.245 -0.392 0.016
v 0.245 -0.36 0.016
v 0.2403 -0.3585 0.1513
v 0.2177 -0.3585 0.1287
v 0.1677 -0.3585 0.1787
v 0.1903 -0.3585 0.2013
v 0.1903 -0.3935 0.2013
v 0.1677 -0.3935 0.1787
v 0.2177 -0.3935 0.1287
v 0.2403 -0.3935 0.1513
v 0.1903 -0.36 0.2013
v 0.1903 -0.392 0.2013
v 0.2403 -0.392 0.1513
v 0.2403 -0.36 0.1513
v 0.2177 -0.36 0.1287
v 0.2177 -0.392 0.1287
v 0.1677 -0.392 0.1787
v 0.1677 -0.36 0.1787
v 0.179 -0.357 0.206
v 0.179 -0.357 0.174
v -0.231 -0.357 0.174
v -0.231 -0.357 0.206
v -0.231 -0.395 0.206
v -0.231 -0.395 0.174
v 0.179 -0.395 0.174
v 0.179 -0.395 0.206
v -0.231 -0.36 0.206
v -0.231 -0.392 0.206
v 0.179 -0.392 0.206
v 0.179 -0.36 0.206
v 0.179 -0.36 0.174
v 0.179 -0.392 0.174
v -0.231 -0.392 0.174
v -0.231 -0.36 0.174
v -0.2423 -0.3555 0.2013
v -0.2197 -0.3555 0.1787
v -0.2697 -0.3555 0.1287
v -0.2923 -0.3555 0.1513
v -0.2923 -0.3965 0.1513
v -0.2697 -0.3965 0.1287
v -0.2197 -0.3965 0.1787
v -0.2423 -0.3965 0.2013
v -0.2923 -0.36 0.1513
v -0.2923 -0.392 0.1513
v -0.2423 -0.392 0.2013
v -0.2423 -0.36 0.2013
v -0.2197 -0.36 0.1787
v -0.2197 -0.392 0.1787
v -0.2697 -0.392 0.1287
v -0.2697 -0.36 0.1287
v -0.297 -0.392 0.14
v -0.297 -0.36 0.14
v -0.297 -0.36 0.016
v -0.297 -0.392 0.016
v -0.265 -0.392 0.016
v -0.265 -0.36 0.016
v -0.265 -0.36 0.14
v -0.265 -0.392 0.14
v -0.297 -0.398 0.016
v -0.265 -0.398 0.016
v -0.265 -0.398 0.14
v -0.297 -0.398 0.14
v -0.297 -0.354 0.14
v -0.265 -0.354 0.14
v -0.265 -0.354 0.016
v -0.297 -0.354 0.016
v 0.213 -0.392 0.156
v 0.245 -0.392 0.156
v 0.245 -0.36 0.156
v 0.213 -0.36 0.156
v 0.2465 -0.392 0.124
v 0.2465 -0.36 0.124
v 0.2465 -0.36 0.156
v 0.2465 -0.392 0.156
v 0.245 -0.357 0.124
v 0.213 -0.357 0.124
v 0.213 -0.357 0.156
v 0.245 -0.357 0.156
v 0.213 -0.395 0.124
v 0.245 -0.395 0.124
v 0.245 -0.395 0.156
v 0.213 -0.395 0.156
v 0.2115 -0.36 0.124
v 0.2115 -0.392 0.124
v 0.2115 -0.392 0.156
v 0.2115 -0.36 0.156
v 0.213 -0.392 0.124
v 0.213 -0.36 0.124
v 0.245 -0.36 0.124
v 0.245 -0.392 0.124
v 0.163 -0.392 0.2075
v 0.195 -0.392 0.2075
v 0.195 -0.36 0.2075
v 0.163 -0.36 0.2075
v 0.195 -0.392 0.174
v 0.195 -0.36 0.174
v 0.195 -0.36 0.206
v 0.195 -0.392 0.206
v 0.195 -0.3555 0.174
v 0.163 -0.3555 0.174
v 0.163 -0.3555 0.206
v 0.195 -0.3555 0.206
v 0.163 -0.3965 0.174
v 0.195 -0.3965 0.174
v 0.195 -0.3965 0.206
v 0.163 -0.3965 0.206
v 0.163 -0.36 0.174
v 0.163 -0.392 0.174
v 0.163 -0.392 0.206
v 0.163 -0.36 0.206
v 0.163 -0.392 0.1725
v 0.163 -0.36 0.1725
v 0.195 -0.36 0.1725
v 0.195 -0.392 0.1725
v -0.247 -0.392 0.2075
v -0.215 -0.392 0.2075
v -0.215 -0.36 0.2075
v -0.247 -0.36 0.2075
v -0.215 -0.392 0.174
v -0.215 -0.36 0.174
v -0.215 -0.36 0.206
v -0.215 -0.392 0.206
v -0.215 -0.354 0.174
v -0.247 -0.354 0.174
v -0.247 -0.354 0.206
v -0.215 -0.354 0.206
v -0.247 -0.398 0.174
v -0.215 -0.398 0.174
v -0.215 -0.398 0.206
v -0.247 -0.398 0.206
v -0.247 -0.36 0.174
v -0.247 -0.392 0.174
v -0.247 -0.392 0.206
v -0.247 -0.36 0.206
v -0.247 -0.392 0.1725
v -0.247 -0.36 0.1725
v -0.215 -0.36 0.1725
v -0.215 -0.392 0.1725
v -0.297 -0.392 0.156
v -0.265 -0.392 0.156
v -0.265 -0.36 0.156
v -0.297 -0.36 0.156
v -0.2635 -0.392 0.124
v -0.2635 -0.36 0.124
v -0.2635 -0.36 0.156
v -0.2635 -0.392 0.156
v -0.265 -0.3525 0.124
v -0.297 -0.3525 0.124
v -0.297 -0.3525 0.156
v -0.265 -0.3525 0.156
v -0.297 -0.3995 0.124
v -0.265 -0.3995 0.124
v -0.265 -0.3995 0.156
v -0.297 -0.3995 0.156
v -0.2985 -0.36 0.124
v -0.2985 -0.392 0.124
v -0.2985 -0.392 0.156
v -0.2985 -0.36 0.156
v -0.297 -0.392 0.124
v -0.297 -0.36 0.124
v -0.265 -0.36 0.124
v -0.265 -0.392 0.124
v 0.2115 0.344 0.032
v 0.2115 0.344 0
v 0.2115 -0.376 0
v 0.2115 -0.376 0.032
v 0.2465 -0.376 0.032
v 0.2465 -0.376 0
v 0.2465 0.344 0
v 0.2465 0.344 0.032
v 0.213 -0.376 0.032
v 0.245 -0.376 0.032
v 0.245 0.344 0.032
v 0.213 0.344 0.032
v 0.213 0.344 0
v 0.245 0.344 0
v 0.245 -0.376 0
v 0.213 -0.376 0
v -0.2985 0.344 0.032
v -0.2985 0.344 0
v -0.2985 -0.376 0
v -0.2985 -0.376 0.032
v -0.2635 -0.376 0.032
v -0.2635 -0.376 0
v -0.2635 0.344 0
v -0.2635 0.344 0.032
v -0.297 -0.376 0.032
v -0.265 -0.376 0.032
v -0.265 0.344 0.032
v -0.297 0.344 0.032
v -0.297 0.344 0
v -0.265 0.344 0
v -0.265 -0.376 0
v -0.297 -0.376 0
v -0.341 -0.171 0.38
v 0.159 -0.171 0.38
v 0.159 0.284 0.38
v -0.341 0.284 0.38
v 0.159 -0.171 0.03
v 0.159 0.284 0.03
v -0.341 0.284 0.03
v -0.341 -0.171 0.03
v -0.346 -0.176 0.305
v 0.164 -0.176 0.305
v 0.164 0.289 0.305
v -0.346 0.289 0.305
v 0.164 -0.176 0.27
v 0.164 0.289 0.27
v -0.346 0.289 0.27
v -0.346 -0.176 0.27
v -0.343 -0.141 0.085
v -0.343 0.254 0.085
v -0.343 0.254 0.07
v -0.343 -0.141 0.07
v 0.161 -0.141 0.07
v 0.161 0.254 0.07
v 0.161 0.254 0.085
v 0.161 -0.141 0.085
v -0.271 -0.131 0.7
v 0.089 -0.131 0.7
v 0.089 0.174 0.7
v -0.271 0.174 0.7
v 0.089 -0.131 0.38
v 0.089 0.174 0.38
v -0.271 0.174 0.38
v -0.271 -0.131 0.38
v -0.271 -0.131 0.3785
v -0.271 0.174 0.3785
v 0.089 0.174 0.3785
v 0.089 -0.131 0.3785
v 0.059 -0.151 0.68
v 0.077 -0.151 0.68
v 0.077 -0.131 0.68
v 0.059 -0.131 0.68
v 0.077 -0.151 0.41
v 0.077 -0.131 0.41
v 0.077 -0.1295 0.41
v 0.059 -0.1295 0.41
v 0.059 -0.1295 0.68
v 0.077 -0.1295 0.68
v 0.059 -0.151 0.41
v 0.059 -0.131 0.41
v 0.059 0.174 0.68
v 0.077 0.174 0.68
v 0.077 0.194 0.68
v 0.059 0.194 0.68
v 0.077 0.174 0.41
v 0.077 0.194 0.41
v 0.059 0.194 0.41
v 0.059 0.1725 0.41
v 0.077 0.1725 0.41
v 0.077 0.1725 0.68
v 0.059 0.1725 0.68
v 0.059 0.174 0.41
v 0.077 0.154 0.702
v 0.059 0.154 0.702
v 0.059 -0.111 0.702
v 0.077 -0.111 0.702
v -0.0046 -0.151 0.68
v 0.0134 -0.151 0.68
v 0.0134 -0.131 0.68
v -0.0046 -0.131 0.68
v 0.0134 -0.151 0.41
v 0.0134 -0.131 0.41
v 0.0134 -0.1295 0.41
v -0.0046 -0.1295 0.41
v -0.0046 -0.1295 0.68
v 0.0134 -0.1295 0.68
v -0.0046 -0.151 0.41
v -0.0046 -0.131 0.41
v -0.0046 0.174 0.68
v 0.0134 0.174 0.68
v 0.0134 0.194 0.68
v -0.0046 0.194 0.68
v 0.0134 0.174 0.41
v 0.0134 0.194 0.41
v -0.0046 0.194 0.41
v -0.0046 0.1725 0.41
v 0.0134 0.1725 0.41
v 0.0134 0.1725 0.68
v -0.0046 0.1725 0.68
v -0.0046 0.174 0.41
v 0.0134 0.154 0.702
v -0.0046 0.154 0.702
v -0.0046 -0.111 0.702
v 0.0134 -0.111 0.702
v -0.0682 -0.151 0.68
v -0.0502 -0.151 0.68
v -0.0502 -0.131 0.68
v -0.0682 -0.131 0.68
v -0.0502 -0.151 0.41
v -0.0502 -0.131 0.41
v -0.0502 -0.1295 0.41
v -0.0682 -0.1295 0.41
v -0.0682 -0.1295 0.68
v -0.0502 -0.1295 0.68
v -0.0682 -0.151 0.41
v -0.0682 -0.131 0.41
v -0.0682 0.174 0.68
v -0.0502 0.174 0.68
v -0.0502 0.194 0.68
v -0.0682 0.194 0.68
v -0.0502 0.174 0.41
v -0.0502 0.194 0.41
v -0.0682 0.194 0.41
v -0.0682 0.1725 0.41
v -0.0502 0.1725 0.41
v -0.0502 0.1725 0.68
v -0.0682 0.1725 0.68
v -0.0682 0.174 0.41
v -0.0502 0.154 0.702
v -0.0682 0.154 0.702
v -0.0682 -0.111 0.702
v -0.0502 -0.111 0.702
v -0.1318 -0.151 0.68
v -0.1138 -0.151 0.68
v -0.1138 -0.131 0.68
v -0.1318 -0.131 0.68
v -0.1138 -0.151 0.41
v -0.1138 -0.131 0.41
v -0.1138 -0.1295 0.41
v -0.1318 -0.1295 0.41
v -0.1318 -0.1295 0.68
v -0.1138 -0.1295 0.68
v -0.1318 -0.151 0.41
v -0.1318 -0.131 0.41
v -0.1318 0.174 0.68
v -0.1138 0.174 0.68
v -0.1138 0.194 0.68
v -0.1318 0.194 0.68
v -0.1138 0.174 0.41
v -0.1138 0.194 0.41
v -0.1318 0.194 0.41
v -0.1318 0.1725 0.41
v -0.1138 0.1725 0.41
v -0.1138 0.1725 0.68
v -0.1318 0.1725 0.68
v -0.1318 0.174 0.41
v -0.1138 0.154 0.702
v -0.1318 0.154 0.702
v -0.1318 -0.111 0.702
v -0.1138 -0.111 0.702
v -0.1954 -0.151 0.68
v -0.1774 -0.151 0.68
v -0.1774 -0.131 0.68
v -0.1954 -0.131 0.68
v -0.1774 -0.151 0.41
v -0.1774 -0.131 0.41
v -0.1774 -0.1295 0.41
v -0.1954 -0.1295 0.41
v -0.1954 -0.1295 0.68
v -0.1774 -0.1295 0.68
v -0.1954 -0.151 0.41
v -0.1954 -0.131 0.41
v -0.1954 0.174 0.68
v -0.1774 0.174 0.68
v -0.1774 0.194 0.68
v -0.1954 0.194 0.68
v -0.1774 0.174 0.41
v -0.1774 0.194 0.41
v -0.1954 0.194 0.41
v -0.1954 0.1725 0.41
v -0.1774 0.1725 0.41
v -0.1774 0.1725 0.68
v -0.1954 0.1725 0.68
v -0.1954 0.174 0.41
v -0.1774 0.154 0.702
v -0.1954 0.154 0.702
v -0.1954 -0.111 0.702
v -0.1774 -0.111 0.702
v -0.259 -0.151 0.68
v -0.241 -0.151 0.68
v -0.241 -0.131 0.68
v -0.259 -0.131 0.68
v -0.241 -0.151 0.41
v -0.241 -0.131 0.41
v -0.241 -0.1295 0.41
v -0.259 -0.1295 0.41
v -0.259 -0.1295 0.68
v -0.241 -0.1295 0.68
v -0.259 -0.151 0.41
v -0.259 -0.131 0.41
v -0.259 0.174 0.68
v -0.241 0.174 0.68
v -0.241 0.194 0.68
v -0.259 0.194 0.68
v -0.241 0.174 0.41
v -0.241 0.194 0.41
v -0.259 0.194 0.41
v -0.259 0.1725 0.41
v -0.241 0.1725 0.41
v -0.241 0.1725 0.68
v -0.259 0.1725 0.68
v -0.259 0.174 0.41
v -0.241 0.154 0.702
v -0.259 0.154 0.702
v -0.259 -0.111 0.702
v -0.241 -0.111 0.702
v 0.319 0.064 0.48
v 0.319 0.0734 0.515
v 0.089 0.0734 0.515
v 0.089 0.064 0.48
v 0.319 0.099 0.5406
v 0.089 0.099 0.5406
v 0.319 0.134 0.55
v 0.089 0.134 0.55
v 0.319 0.169 0.5406
v 0.089 0.169 0.5406
v 0.319 0.1946 0.515
v 0.089 0.1946 0.515
v 0.319 0.204 0.48
v 0.089 0.204 0.48
v 0.319 0.1946 0.445
v 0.089 0.1946 0.445
v 0.319 0.169 0.4194
v 0.089 0.169 0.4194
v 0.319 0.134 0.41
v 0.089 0.134 0.41
v 0.319 0.099 0.4194
v 0.089 0.099 0.4194
v 0.319 0.0734 0.445
v 0.089 0.0734 0.445
v 0.0875 0.064 0.48
v 0.0875 0.0734 0.515
v 0.0875 0.099 0.5406
v 0.0875 0.134 0.55
v 0.0875 0.169 0.5406
v 0.0875 0.1946 0.515
v 0.0875 0.204 0.48
v 0.0875 0.1946 0.445
v 0.0875 0.169 0.4194
v 0.0875 0.134 0.41
v 0.0875 0.099 0.4194
v 0.0875 0.0734 0.445
v -0.343 0.054 0.24
v -0.343 0.234 0.24
v -0.343 0.234 0.11
v -0.343 0.054 0.11
v -0.345 0.066 0.228
v -0.345 0.222 0.228
v -0.345 0.222 0.122
v -0.345 0.066 0.122
v -0.347 0.066 0.228
v -0.347 0.222 0.228
v -0.347 0.222 0.1898
v -0.347 0.066 0.1898
v -0.347 0.078 0.1697
v -0.347 0.21 0.1697
v -0.347 0.21 0.1577
v -0.347 0.078 0.1577
v -0.347 0.1242 0.1453
v -0.347 0.21 0.1453
v -0.347 0.21 0.1333
v -0.347 0.1242 0.1333
v 0.161 0.054 0.11
v 0.161 0.234 0.11
v 0.161 0.234 0.24
v 0.161 0.054 0.24
v 0.163 0.066 0.122
v 0.163 0.222 0.122
v 0.163 0.222 0.228
v 0.163 0.066 0.228
v 0.165 0.066 0.1898
v 0.165 0.222 0.1898
v 0.165 0.222 0.228
v 0.165 0.066 0.228
v 0.165 0.078 0.1577
v 0.165 0.21 0.1577
v 0.165 0.21 0.1697
v 0.165 0.078 0.1697
v 0.165 0.1242 0.1333
v 0.165 0.21 0.1333
v 0.165 0.21 0.1453
v 0.165 0.1242 0.1453
v -0.101 0.286 0.11
v -0.281 0.286 0.11
v -0.281 0.286 0.24
v -0.101 0.286 0.24
v -0.113 0.288 0.122
v -0.269 0.288 0.122
v -0.269 0.288 0.228
v -0.113 0.288 0.228
v -0.113 0.29 0.1898
v -0.269 0.29 0.1898
v -0.269 0.29 0.228
v -0.113 0.29 0.228
v -0.125 0.29 0.1577
v -0.257 0.29 0.1577
v -0.257 0.29 0.1697
v -0.125 0.29 0.1697
v -0.125 0.29 0.1333
v -0.2108 0.29 0.1333
v -0.2108 0.29 0.1453
v -0.125 0.29 0.1453
v -0.366 -0.206 0.34
v -0.3522 -0.206 0.4358
v -0.3522 -0.146 0.4358
v -0.366 -0.146 0.34
v -0.312 -0.206 0.5238
v -0.312 -0.146 0.5238
v -0.2487 -0.206 0.597
v -0.2487 -0.146 0.597
v -0.1672 -0.206 0.6493
v -0.1672 -0.146 0.6493
v -0.0744 -0.206 0.6765
v -0.0744 -0.146 0.6765
v 0.0224 -0.206 0.6765
v 0.0224 -0.146 0.6765
v 0.1152 -0.206 0.6493
v 0.1152 -0.146 0.6493
v 0.1967 -0.206 0.597
v 0.1967 -0.146 0.597
v 0.26 -0.206 0.5238
v 0.26 -0.146 0.5238
v 0.3002 -0.206 0.4358
v 0.3002 -0.146 0.4358
v 0.314 -0.206 0.34
v 0.314 -0.146 0.34
v 0.3002 -0.206 0.2442
v 0.3002 -0.146 0.2442
v 0.26 -0.206 0.1562
v 0.26 -0.146 0.1562
v 0.1967 -0.206 0.083
v 0.1967 -0.146 0.083
v 0.1152 -0.206 0.0307
v 0.1152 -0.146 0.0307
v 0.0224 -0.206 0.0035
v 0.0224 -0.146 0.0035
v -0.0744 -0.206 0.0035
v -0.0744 -0.146 0.0035
v -0.1672 -0.206 0.0307
v -0.1672 -0.146 0.0307
v -0.2487 -0.206 0.083
v -0.2487 -0.146 0.083
v -0.312 -0.206 0.1562
v -0.312 -0.146 0.1562
v -0.3522 -0.206 0.2442
v -0.3522 -0.146 0.2442
v -0.2912 -0.231 0.34
v -0.2782 -0.231 0.422
v -0.2782 -0.206 0.422
v -0.2912 -0.206 0.34
v -0.2406 -0.231 0.4959
v -0.2406 -0.206 0.4959
v -0.1819 -0.231 0.5546
v -0.1819 -0.206 0.5546
v -0.108 -0.231 0.5922
v -0.108 -0.206 0.5922
v -0.026 -0.231 0.6052
v -0.026 -0.206 0.6052
v 0.056 -0.231 0.5922
v 0.056 -0.206 0.5922
v 0.1299 -0.231 0.5546
v 0.1299 -0.206 0.5546
v 0.1886 -0.231 0.4959
v 0.1886 -0.206 0.4959
v 0.2262 -0.231 0.422
v 0.2262 -0.206 0.422
v 0.2392 -0.231 0.34
v 0.2392 -0.206 0.34
v 0.2262 -0.231 0.258
v 0.2262 -0.206 0.258
v 0.1886 -0.231 0.1841
v 0.1886 -0.206 0.1841
v 0.1299 -0.231 0.1254
v 0.1299 -0.206 0.1254
v 0.056 -0.231 0.0878
v 0.056 -0.206 0.0878
v -0.026 -0.231 0.0748
v -0.026 -0.206 0.0748
v -0.108 -0.231 0.0878
v -0.108 -0.206 0.0878
v -0.1819 -0.231 0.1254
v -0.1819 -0.206 0.1254
v -0.2406 -0.231 0.1841
v -0.2406 -0.206 0.1841
v -0.2782 -0.231 0.258
v -0.2782 -0.206 0.258
v -0.2912 -0.2045 0.34
v -0.2782 -0.2045 0.422
v -0.2406 -0.2045 0.4959
v -0.1819 -0.2045 0.5546
v -0.108 -0.2045 0.5922
v -0.026 -0.2045 0.6052
v 0.056 -0.2045 0.5922
v 0.1299 -0.2045 0.5546
v 0.1886 -0.2045 0.4959
v 0.2262 -0.2045 0.422
v 0.2392 -0.2045 0.34
v 0.2262 -0.2045 0.258
v 0.1886 -0.2045 0.1841
v 0.1299 -0.2045 0.1254
v 0.056 -0.2045 0.0878
v -0.026 -0.2045 0.0748
v -0.108 -0.2045 0.0878
v -0.1819 -0.2045 0.1254
v -0.2406 -0.2045 0.1841
v -0.2782 -0.2045 0.258
v -0.1144 -0.251 0.34
v -0.1026 -0.251 0.3842
v -0.1026 -0.231 0.3842
v -0.1144 -0.231 0.34
v -0.0702 -0.251 0.4166
v -0.0702 -0.231 0.4166
v -0.026 -0.251 0.4284
v -0.026 -0.231 0.4284
v 0.0182 -0.251 0.4166
v 0.0182 -0.231 0.4166
v 0.0506 -0.251 0.3842
v 0.0506 -0.231 0.3842
v 0.0624 -0.251 0.34
v 0.0624 -0.231 0.34
v 0.0506 -0.251 0.2958
v 0.0506 -0.231 0.2958
v 0.0182 -0.251 0.2634
v 0.0182 -0.231 0.2634
v -0.026 -0.251 0.2516
v -0.026 -0.231 0.2516
v -0.0702 -0.251 0.2634
v -0.0702 -0.231 0.2634
v -0.1026 -0.251 0.2958
v -0.1026 -0.231 0.2958
v -0.1144 -0.2295 0.34
v -0.1026 -0.2295 0.3842
v -0.0702 -0.2295 0.4166
v -0.026 -0.2295 0.4284
v 0.0182 -0.2295 0.4166
v 0.0506 -0.2295 0.3842
v 0.0624 -0.2295 0.34
v 0.0506 -0.2295 0.2958
v 0.0182 -0.2295 0.2634
v -0.026 -0.2295 0.2516
v -0.0702 -0.2295 0.2634
v -0.1026 -0.2295 0.2958
v -0.0532 -0.261 0.34
v -0.0452 -0.261 0.3592
v -0.0452 -0.251 0.3592
v -0.0532 -0.251 0.34
v -0.026 -0.261 0.3672
v -0.026 -0.251 0.3672
v -0.0068 -0.261 0.3592
v -0.0068 -0.251 0.3592
v 0.0012 -0.261 0.34
v 0.0012 -0.251 0.34
v -0.0068 -0.261 0.3208
v -0.0068 -0.251 0.3208
v -0.026 -0.261 0.3128
v -0.026 -0.251 0.3128
v -0.0452 -0.261 0.3208
v -0.0452 -0.251 0.3208
v -0.0532 -0.2495 0.34
v -0.0452 -0.2495 0.3592
v -0.026 -0.2495 0.3672
v -0.0068 -0.2495 0.3592
v 0.0012 -0.2495 0.34
v -0.0068 -0.2495 0.3208
v -0.026 -0.2495 0.3128
v -0.0452 -0.2495 0.3208
v -0.391 -0.056 0.18
v -0.341 -0.056 0.18
v -0.341 0.024 0.18
v -0.391 0.024 0.18
v -0.3395 -0.056 0.1
v -0.3395 0.024 0.1
v -0.3395 0.024 0.18
v -0.3395 -0.056 0.18
v -0.341 0.024 0.1
v -0.391 0.024 0.1
v -0.391 -0.056 0.1
v -0.341 -0.056 0.1
v -0.377 -0.027 0.1015
v -0.355 -0.027 0.1015
v -0.355 -0.005 0.1015
v -0.377 -0.005 0.1015
v -0.355 -0.027 0
v -0.355 -0.005 0
v -0.355 -0.005 0.1
v -0.355 -0.027 0.1
v -0.377 -0.005 0
v -0.377 -0.005 0.1
v -0.377 -0.027 0
v -0.377 -0.027 0.1
v -0.1586 0.0034 0.7
v -0.1405 -0.028 0.7
v -0.1405 -0.028 0.712
v -0.1586 0.0034 0.712
v -0.1091 -0.0461 0.7
v -0.1091 -0.0461 0.712
v -0.0729 -0.0461 0.7
v -0.0729 -0.0461 0.712
v -0.0415 -0.028 0.7
v -0.0415 -0.028 0.712
v -0.0234 0.0034 0.7
v -0.0234 0.0034 0.712
v -0.0234 0.0396 0.7
v -0.0234 0.0396 0.712
v -0.0415 0.071 0.7
v -0.0415 0.071 0.712
v -0.0729 0.0891 0.7
v -0.0729 0.0891 0.712
v -0.1091 0.0891 0.7
v -0.1091 0.0891 0.712
v -0.1405 0.071 0.7
v -0.1405 0.071 0.712
v -0.1586 0.0396 0.7
v -0.1586 0.0396 0.712
v -0.1586 0.0396 0.6985
v -0.1405 0.071 0.6985
v -0.1091 0.0891 0.6985
v -0.0729 0.0891 0.6985
v -0.0415 0.071 0.6985
v -0.0234 0.0396 0.6985
v -0.0234 0.0034 0.6985
v -0.0415 -0.028 0.6985
v -0.0729 -0.0461 0.6985
v -0.1091 -0.0461 0.6985
v -0.1405 -0.028 0.6985
v -0.1586 0.0034 0.6985
v -0.1451 0.007 0.712
v -0.1306 -0.0181 0.712
v -0.1306 -0.0181 0.748
v -0.1451 0.007 0.748
v -0.1055 -0.0326 0.712
v -0.1055 -0.0326 0.748
v -0.0765 -0.0326 0.712
v -0.0765 -0.0326 0.748
v -0.0514 -0.0181 0.712
v -0.0514 -0.0181 0.748
v -0.0369 0.007 0.712
v -0.0369 0.007 0.748
v -0.0369 0.036 0.712
v -0.0369 0.036 0.748
v -0.0514 0.0611 0.712
v -0.0514 0.0611 0.748
v -0.0765 0.0756 0.712
v -0.0765 0.0756 0.748
v -0.1055 0.0756 0.712
v -0.1055 0.0756 0.748
v -0.1306 0.0611 0.712
v -0.1306 0.0611 0.748
v -0.1451 0.036 0.712
v -0.1451 0.036 0.748
v -0.1451 0.036 0.7105
v -0.1306 0.0611 0.7105
v -0.1055 0.0756 0.7105
v -0.0765 0.0756 0.7105
v -0.0514 0.0611 0.7105
v -0.0369 0.036 0.7105
v -0.0369 0.007 0.7105
v -0.0514 -0.0181 0.7105
v -0.0765 -0.0326 0.7105
v -0.1055 -0.0326 0.7105
v -0.1306 -0.0181 0.7105
v -0.1451 0.007 0.7105
v -0.1245 0.0125 0.748
v -0.1156 -0.0031 0.748
v -0.1156 -0.0031 0.76
v -0.1245 0.0125 0.76
v -0.1 -0.012 0.748
v -0.1 -0.012 0.76
v -0.082 -0.012 0.748
v -0.082 -0.012 0.76
v -0.0664 -0.0031 0.748
v -0.0664 -0.0031 0.76
v -0.0575 0.0125 0.748
v -0.0575 0.0125 0.76
v -0.0575 0.0305 0.748
v -0.0575 0.0305 0.76
v -0.0664 0.0461 0.748
v -0.0664 0.0461 0.76
v -0.082 0.055 0.748
v -0.082 0.055 0.76
v -0.1 0.055 0.748
v -0.1 0.055 0.76
v -0.1156 0.0461 0.748
v -0.1156 0.0461 0.76
v -0.1245 0.0305 0.748
v -0.1245 0.0305 0.76
v -0.1245 0.0305 0.7465
v -0.1156 0.0461 0.7465
v -0.1 0.055 0.7465
v -0.082 0.055 0.7465
v -0.0664 0.0461 0.7465
v -0.0575 0.0305 0.7465
v -0.0575 0.0125 0.7465
v -0.0664 -0.0031 0.7465
v -0.082 -0.012 0.7465
v -0.1 -0.012 0.7465
v -0.1156 -0.0031 0.7465
v -0.1245 0.0125 0.7465
v -0.1127 0.0125 0.7605
v -0.1 -0.0002 0.7605
v -0.082 -0.0002 0.7605
v -0.0693 0.0125 0.7605
v -0.0693 0.0305 0.7605
v -0.082 0.0432 0.7605
v -0.1 0.0432 0.7605
v -0.1127 0.0305 0.7605
vt 0.828125 0.921875
vt 0.265625 0.890625
vt 0.140625 0.921875
vt 0.765625 0.953125
vt 0.609375 0.921875
vt 0.734375 0.984375
vt 0.859375 0.953125
vt 0.578125 0.953125
vt 0.328125 0.921875
vt 0.953125 0.953125
vt 0.296875 0.984375
vt 0.546875 0.890625
vt 0.421875 0.890625
vt 0.578125 0.890625
vt 0.046875 0.890625
vt 0.265625 0.921875
vt 0.640625 0.953125
vt 0.796875 0.984375
vt 0.390625 0.984375
vt 0.953125 0.984375
vt 0.515625 0.953125
vt 0.453125 0.953125
vt 0.890625 0.921875
vt 0.734375 0.890625
vn -1 0 0
vn 1 0 0
vn 0 1 0
vn 0 -1 0
vn 0.7071 0 0.7071
vn -0.7071 0 -0.7071
vn 0 0 1
vn 0 0 -1
vn -0.7071 0 0.7071
vn 0.7071 0 -0.7071
vn 0 -0.9659 0.2588
vn 0 -0.7071 0.7071
vn 0 -0.2588 0.9659
vn 0 0.2588 0.9659
vn 0 0.7071 0.7071
vn 0 0.9659 0.2588
vn 0 0.9659 -0.2588
vn 0 0.7071 -0.7071
vn 0 0.2588 -0.9659
vn 0 -0.2588 -0.9659
vn 0 -0.7071 -0.7071
vn 0 -0.9659 -0.2588
vn -0.9898 0 0.1423
vn -0.9096 0 0.4154
vn -0.7557 0 0.6549
vn -0.5406 0 0.8413
vn -0.2817 0 0.9595
vn 0.2817 0 0.9595
vn 0.5406 0 0.8413
vn 0.7557 0 0.6549
vn 0.9096 0 0.4154
vn 0.9898 0 0.1423
vn 0.9898 0 -0.1423
vn 0.9096 0 -0.4154
vn 0.7557 0 -0.6549
vn 0.5406 0 -0.8413
vn 0.2817 0 -0.9595
vn -0.2817 0 -0.9595
vn -0.5406 0 -0.8413
vn -0.7557 0 -0.6549
vn -0.9096 0 -0.4154
vn -0.9898 0 -0.1423
vn -0.9877 0 0.1564
vn -0.891 0 0.454
vn -0.454 0 0.891
vn -0.1564 0 0.9877
vn 0.1564 0 0.9877
vn 0.454 0 0.891
vn 0.891 0 0.454
vn 0.9877 0 0.1564
vn 0.9877 0 -0.1564
vn 0.891 0 -0.454
vn 0.454 0 -0.891
vn 0.1564 0 -0.9877
vn -0.1564 0 -0.9877
vn -0.454 0 -0.891
vn -0.891 0 -0.454
vn -0.9877 0 -0.1564
vn -0.9659 0 0.2588
vn -0.2588 0 0.9659
vn 0.2588 0 0.9659
vn 0.9659 0 0.2588
vn 0.9659 0 -0.2588
vn 0.2588 0 -0.9659
vn -0.2588 0 -0.9659
vn -0.9659 0 -0.2588
vn -0.9239 0 0.3827
vn -0.3827 0 0.9239
vn 0.3827 0 0.9239
vn 0.9239 0 0.3827
vn 0.9239 0 -0.3827
vn 0.3827 0 -0.9239
vn -0.3827 0 -0.9239
vn -0.9239 0 -0.3827
vn -0.866 -0.5 0
vn -0.5 -0.866 0
vn 0.5 -0.866 0
vn 0.866 -0.5 0
vn 0.866 0.5 0
vn 0.5 0.866 0
vn -0.5 0.866 0
vn -0.866 0.5 0
f 1/1/1 2/1/1 3/1/1
f 1/1/1 3/1/1 4/1/1
f 5/1/2 6/1/2 7/1/2
f 5/1/2 7/1/2 8/1/2
f 4/1/3 5/1/3 8/1/3
f 4/1/3 8/1/3 1/1/3
f 2/1/4 7/1/4 6/1/4
f 2/1/4 6/1/4 3/1/4
f 9/1/3 10/1/3 11/1/3
f 9/1/3 11/1/3 12/1/3
f 13/1/4 14/1/4 15/1/4
f 13/1/4 15/1/4 16/1/4
f 17/2/5 18/2/5 19/2/5
f 17/2/5 19/2/5 20/2/5
f 21/1/6 22/1/6 23/1/6
f 21/1/6 23/1/6 24/1/6
f 25/1/3 26/1/3 27/1/3
f 25/1/3 27/1/3 28/1/3
f 29/1/4 30/1/4 31/1/4
f 29/1/4 31/1/4 32/1/4
f 33/2/7 34/2/7 35/2/7
f 33/2/7 35/2/7 36/2/7
f 37/1/8 38/1/8 39/1/8
f 37/1/8 39/1/8 40/1/8
f 41/1/3 42/1/3 43/1/3
f 41/1/3 43/1/3 44/1/3
f 45/1/4 46/1/4 47/1/4
f 45/1/4 47/1/4 48/1/4
f 49/2/9 50/2/9 51/2/9
f 49/2/9 51/2/9 52/2/9
f 53/1/10 54/1/10 55/1/10
f 53/1/10 55/1/10 56/1/10
f 57/1/1 58/1/1 59/1/1
f 57/1/1 59/1/1 60/1/1
f 61/1/2 62/1/2 63/1/2
f 61/1/2 63/1/2 64/1/2
f 65/1/4 66/1/4 67/1/4
f 65/1/4 67/1/4 68/1/4
f 69/1/3 70/1/3 71/1/3
f 69/1/3 71/1/3 72/1/3
f 73/2/7 74/2/7 75/2/7
f 73/2/7 75/2/7 76/2/7
f 77/1/2 78/1/2 79/1/2
f 77/1/2 79/1/2 80/1/2
f 81/1/3 82/1/3 83/1/3
f 81/1/3 83/1/3 84/1/3
f 85/1/4 86/1/4 87/1/4
f 85/1/4 87/1/4 88/1/4
f 89/1/1 90/1/1 91/1/1
f 89/1/1 91/1/1 92/1/1
f 93/1/8 94/1/8 95/1/8
f 93/1/8 95/1/8 96/1/8
f 97/2/7 98/2/7 99/2/7
f 97/2/7 99/2/7 100/2/7
f 101/1/2 102/1/2 103/1/2
f 101/1/2 103/1/2 104/1/2
f 105/1/3 106/1/3 107/1/3
f 105/1/3 107/1/3 108/1/3
f 109/1/4 110/1/4 111/1/4
f 109/1/4 111/1/4 112/1/4
f 113/1/1 114/1/1 115/1/1
f 113/1/1 115/1/1 116/1/1
f 117/1/8 118/1/8 119/1/8
f 117/1/8 119/1/8 120/1/8
f 121/2/7 122/2/7 123/2/7
f 121/2/7 123/2/7 124/2/7
f 125/1/2 126/1/2 127/1/2
f 125/1/2 127/1/2 128/1/2
f 129/1/3 130/1/3 131/1/3
f 129/1/3 131/1/3 132/1/3
f 133/1/4 134/1/4 135/1/4
f 133/1/4 135/1/4 136/1/4
f 137/1/1 138/1/1 139/1/1
f 137/1/1 139/1/1 140/1/1
f 141/1/8 142/1/8 143/1/8
f 141/1/8 143/1/8 144/1/8
f 145/2/7 146/2/7 147/2/7
f 145/2/7 147/2/7 148/2/7
f 149/1/2 150/1/2 151/1/2
f 149/1/2 151/1/2 152/1/2
f 153/1/3 154/1/3 155/1/3
f 153/1/3 155/1/3 156/1/3
f 157/1/4 158/1/4 159/1/4
f 157/1/4 159/1/4 160/1/4
f 161/1/1 162/1/1 163/1/1
f 161/1/1 163/1/1 164/1/1
f 165/1/8 166/1/8 167/1/8
f 165/1/8 167/1/8 168/1/8
f 169/1/1 170/1/1 171/1/1
f 169/1/1 171/1/1 172/1/1
f 173/1/2 174/1/2 175/1/2
f 173/1/2 175/1/2 176/1/2
f 172/1/3 173/1/3 176/1/3
f 172/1/3 176/1/3 169/1/3
f 170/1/4 175/1/4 174/1/4
f 170/1/4 174/1/4 171/1/4
f 177/1/3 178/1/3 179/1/3
f 177/1/3 179/1/3 180/1/3
f 181/1/4 182/1/4 183/1/4
f 181/1/4 183/1/4 184/1/4
f 185/2/5 186/2/5 187/2/5
f 185/2/5 187/2/5 188/2/5
f 189/1/6 190/1/6 191/1/6
f 189/1/6 191/1/6 192/1/6
f 193/1/3 194/1/3 195/1/3
f 193/1/3 195/1/3 196/1/3
f 197/1/4 198/1/4 199/1/4
f 197/1/4 199/1/4 200/1/4
f 201/2/7 202/2/7 203/2/7
f 201/2/7 203/2/7 204/2/7
f 205/1/8 206/1/8 207/1/8
f 205/1/8 207/1/8 208/1/8
f 209/1/3 210/1/3 211/1/3
f 209/1/3 211/1/3 212/1/3
f 213/1/4 214/1/4 215/1/4
f 213/1/4 215/1/4 216/1/4
f 217/2/9 218/2/9 219/2/9
f 217/2/9 219/2/9 220/2/9
f 221/1/10 222/1/10 223/1/10
f 221/1/10 223/1/10 224/1/10
f 225/1/1 226/1/1 227/1/1
f 225/1/1 227/1/1 228/1/1
f 229/1/2 230/1/2 231/1/2
f 229/1/2 231/1/2 232/1/2
f 233/1/4 234/1/4 235/1/4
f 233/1/4 235/1/4 236/1/4
f 237/1/3 238/1/3 239/1/3
f 237/1/3 239/1/3 240/1/3
f 241/2/7 242/2/7 243/2/7
f 241/2/7 243/2/7 244/2/7
f 245/1/2 246/1/2 247/1/2
f 245/1/2 247/1/2 248/1/2
f 249/1/3 250/1/3 251/1/3
f 249/1/3 251/1/3 252/1/3
f 253/1/4 254/1/4 255/1/4
f 253/1/4 255/1/4 256/1/4
f 257/1/1 258/1/1 259/1/1
f 257/1/1 259/1/1 260/1/1
f 261/1/8 262/1/8 263/1/8
f 261/1/8 263/1/8 264/1/8
f 265/2/7 266/2/7 267/2/7
f 265/2/7 267/2/7 268/2/7
f 269/1/2 270/1/2 271/1/2
f 269/1/2 271/1/2 272/1/2
f 273/1/3 274/1/3 275/1/3
f 273/1/3 275/1/3 276/1/3
f 277/1/4 278/1/4 279/1/4
f 277/1/4 279/1/4 280/1/4
f 281/1/1 282/1/1 283/1/1
f 281/1/1 283/1/1 284/1/1
f 285/1/8 286/1/8 287/1/8
f 285/1/8 287/1/8 288/1/8
f 289/2/7 290/2/7 291/2/7
f 289/2/7 291/2/7 292/2/7
f 293/1/2 294/1/2 295/1/2
f 293/1/2 295/1/2 296/1/2
f 297/1/3 298/1/3 299/1/3
f 297/1/3 299/1/3 300/1/3
f 301/1/4 302/1/4 303/1/4
f 301/1/4 303/1/4 304/1/4
f 305/1/1 306/1/1 307/1/1
f 305/1/1 307/1/1 308/1/1
f 309/1/8 310/1/8 311/1/8
f 309/1/8 311/1/8 312/1/8
f 313/2/7 314/2/7 315/2/7
f 313/2/7 315/2/7 316/2/7
f 317/1/2 318/1/2 319/1/2
f 317/1/2 319/1/2 320/1/2
f 321/1/3 322/1/3 323/1/3
f 321/1/3 323/1/3 324/1/3
f 325/1/4 326/1/4 327/1/4
f 325/1/4 327/1/4 328/1/4
f 329/1/1 330/1/1 331/1/1
f 329/1/1 331/1/1 332/1/1
f 333/1/8 334/1/8 335/1/8
f 333/1/8 335/1/8 336/1/8
f 337/1/1 338/1/1 339/1/1
f 337/1/1 339/1/1 340/1/1
f 341/1/2 342/1/2 343/1/2
f 341/1/2 343/1/2 344/1/2
f 345/2/7 346/2/7 347/2/7
f 345/2/7 347/2/7 348/2/7
f 349/1/8 350/1/8 351/1/8
f 349/1/8 351/1/8 352/1/8
f 353/1/1 354/1/1 355/1/1
f 353/1/1 355/1/1 356/1/1
f 357/1/2 358/1/2 359/1/2
f 357/1/2 359/1/2 360/1/2
f 361/2/7 362/2/7 363/2/7
f 361/2/7 363/2/7 364/2/7
f 365/1/8 366/1/8 367/1/8
f 365/1/8 367/1/8 368/1/8
f 369/3/7 370/3/7 371/3/7
f 369/3/7 371/3/7 372/3/7
f 373/4/2 374/4/2 371/4/2
f 373/4/2 371/4/2 370/4/2
f 374/4/3 375/4/3 372/4/3
f 374/4/3 372/4/3 371/4/3
f 376/4/4 373/4/4 370/4/4
f 376/4/4 370/4/4 369/4/4
f 375/4/1 376/4/1 369/4/1
f 375/4/1 369/4/1 372/4/1
f 376/4/8 375/4/8 374/4/8
f 376/4/8 374/4/8 373/4/8
f 377/5/7 378/5/7 379/5/7
f 377/5/7 379/5/7 380/5/7
f 381/5/2 382/5/2 379/5/2
f 381/5/2 379/5/2 378/5/2
f 382/5/3 383/5/3 380/5/3
f 382/5/3 380/5/3 379/5/3
f 384/5/4 381/5/4 378/5/4
f 384/5/4 378/5/4 377/5/4
f 383/5/1 384/5/1 377/5/1
f 383/5/1 377/5/1 380/5/1
f 384/5/8 383/5/8 382/5/8
f 384/5/8 382/5/8 381/5/8
f 385/6/1 386/6/1 387/6/1
f 385/6/1 387/6/1 388/6/1
f 389/6/2 390/6/2 391/6/2
f 389/6/2 391/6/2 392/6/2
f 393/7/7 394/7/7 395/7/7
f 393/7/7 395/7/7 396/7/7
f 397/8/2 398/8/2 395/8/2
f 397/8/2 395/8/2 394/8/2
f 398/8/3 399/8/3 396/8/3
f 398/8/3 396/8/3 395/8/3
f 400/8/4 397/8/4 394/8/4
f 400/8/4 394/8/4 393/8/4
f 399/8/1 400/8/1 393/8/1
f 399/8/1 393/8/1 396/8/1
f 401/8/8 402/8/8 403/8/8
f 401/8/8 403/8/8 404/8/8
f 405/9/7 406/9/7 407/9/7
f 405/9/7 407/9/7 408/9/7
f 409/10/2 410/10/2 407/10/2
f 409/10/2 407/10/2 406/10/2
f 411/10/3 412/10/3 413/10/3
f 411/10/3 413/10/3 414/10/3
f 415/10/4 409/10/4 406/10/4
f 415/10/4 406/10/4 405/10/4
f 416/10/1 415/10/1 405/10/1
f 416/10/1 405/10/1 408/10/1
f 415/10/8 416/10/8 410/10/8
f 415/10/8 410/10/8 409/10/8
f 417/9/7 418/9/7 419/9/7
f 417/9/7 419/9/7 420/9/7
f 421/10/2 422/10/2 419/10/2
f 421/10/2 419/10/2 418/10/2
f 422/10/3 423/10/3 420/10/3
f 422/10/3 420/10/3 419/10/3
f 424/10/4 425/10/4 426/10/4
f 424/10/4 426/10/4 427/10/4
f 423/10/1 428/10/1 417/10/1
f 423/10/1 417/10/1 420/10/1
f 428/10/8 423/10/8 422/10/8
f 428/10/8 422/10/8 421/10/8
f 429/6/7 430/6/7 431/6/7
f 429/6/7 431/6/7 432/6/7
f 433/9/7 434/9/7 435/9/7
f 433/9/7 435/9/7 436/9/7
f 437/10/2 438/10/2 435/10/2
f 437/10/2 435/10/2 434/10/2
f 439/10/3 440/10/3 441/10/3
f 439/10/3 441/10/3 442/10/3
f 443/10/4 437/10/4 434/10/4
f 443/10/4 434/10/4 433/10/4
f 444/10/1 443/10/1 433/10/1
f 444/10/1 433/10/1 436/10/1
f 443/10/8 444/10/8 438/10/8
f 443/10/8 438/10/8 437/10/8
f 445/9/7 446/9/7 447/9/7
f 445/9/7 447/9/7 448/9/7
f 449/10/2 450/10/2 447/10/2
f 449/10/2 447/10/2 446/10/2
f 450/10/3 451/10/3 448/10/3
f 450/10/3 448/10/3 447/10/3
f 452/10/4 453/10/4 454/10/4
f 452/10/4 454/10/4 455/10/4
f 451/10/1 456/10/1 445/10/1
f 451/10/1 445/10/1 448/10/1
f 456/10/8 451/10/8 450/10/8
f 456/10/8 450/10/8 449/10/8
f 457/6/7 458/6/7 459/6/7
f 457/6/7 459/6/7 460/6/7
f 461/9/7 462/9/7 463/9/7
f 461/9/7 463/9/7 464/9/7
f 465/10/2 466/10/2 463/10/2
f 465/10/2 463/10/2 462/10/2
f 467/10/3 468/10/3 469/10/3
f 467/10/3 469/10/3 470/10/3
f 471/10/4 465/10/4 462/10/4
f 471/10/4 462/10/4 461/10/4
f 472/10/1 471/10/1 461/10/1
f 472/10/1 461/10/1 464/10/1
f 471/10/8 472/10/8 466/10/8
f 471/10/8 466/10/8 465/10/8
f 473/9/7 474/9/7 475/9/7
f 473/9/7 475/9/7 476/9/7
f 477/10/2 478/10/2 475/10/2
f 477/10/2 475/10/2 474/10/2
f 478/10/3 479/10/3 476/10/3
f 478/10/3 476/10/3 475/10/3
f 480/10/4 481/10/4 482/10/4
f 480/10/4 482/10/4 483/10/4
f 479/10/1 484/10/1 473/10/1
f 479/10/1 473/10/1 476/10/1
f 484/10/8 479/10/8 478/10/8
f 484/10/8 478/10/8 477/10/8
f 485/6/7 486/6/7 487/6/7
f 485/6/7 487/6/7 488/6/7
f 489/9/7 490/9/7 491/9/7
f 489/9/7 491/9/7 492/9/7
f 493/10/2 494/10/2 491/10/2
f 493/10/2 491/10/2 490/10/2
f 495/10/3 496/10/3 497/10/3
f 495/10/3 497/10/3 498/10/3
f 499/10/4 493/10/4 490/10/4
f 499/10/4 490/10/4 489/10/4
f 500/10/1 499/10/1 489/10/1
f 500/10/1 489/10/1 492/10/1
f 499/10/8 500/10/8 494/10/8
f 499/10/8 494/10/8 493/10/8
f 501/9/7 502/9/7 503/9/7
f 501/9/7 503/9/7 504/9/7
f 505/10/2 506/10/2 503/10/2
f 505/10/2 503/10/2 502/10/2
f 506/10/3 507/10/3 504/10/3
f 506/10/3 504/10/3 503/10/3
f 508/10/4 509/10/4 510/10/4
f 508/10/4 510/10/4 511/10/4
f 507/10/1 512/10/1 501/10/1
f 507/10/1 501/10/1 504/10/1
f 512/10/8 507/10/8 506/10/8
f 512/10/8 506/10/8 505/10/8
f 513/6/7 514/6/7 515/6/7
f 513/6/7 515/6/7 516/6/7
f 517/9/7 518/9/7 519/9/7
f 517/9/7 519/9/7 520/9/7
f 521/10/2 522/10/2 519/10/2
f 521/10/2 519/10/2 518/10/2
f 523/10/3 524/10/3 525/10/3
f 523/10/3 525/10/3 526/10/3
f 527/10/4 521/10/4 518/10/4
f 527/10/4 518/10/4 517/10/4
f 528/10/1 527/10/1 517/10/1
f 528/10/1 517/10/1 520/10/1
f 527/10/8 528/10/8 522/10/8
f 527/10/8 522/10/8 521/10/8
f 529/9/7 530/9/7 531/9/7
f 529/9/7 531/9/7 532/9/7
f 533/10/2 534/10/2 531/10/2
f 533/10/2 531/10/2 530/10/2
f 534/10/3 535/10/3 532/10/3
f 534/10/3 532/10/3 531/10/3
f 536/10/4 537/10/4 538/10/4
f 536/10/4 538/10/4 539/10/4
f 535/10/1 540/10/1 529/10/1
f 535/10/1 529/10/1 532/10/1
f 540/10/8 535/10/8 534/10/8
f 540/10/8 534/10/8 533/10/8
f 541/6/7 542/6/7 543/6/7
f 541/6/7 543/6/7 544/6/7
f 545/9/7 546/9/7 547/9/7
f 545/9/7 547/9/7 548/9/7
f 549/10/2 550/10/2 547/10/2
f 549/10/2 547/10/2 546/10/2
f 551/10/3 552/10/3 553/10/3
f 551/10/3 553/10/3 554/10/3
f 555/10/4 549/10/4 546/10/4
f 555/10/4 546/10/4 545/10/4
f 556/10/1 555/10/1 545/10/1
f 556/10/1 545/10/1 548/10/1
f 555/10/8 556/10/8 550/10/8
f 555/10/8 550/10/8 549/10/8
f 557/9/7 558/9/7 559/9/7
f 557/9/7 559/9/7 560/9/7
f 561/10/2 562/10/2 559/10/2
f 561/10/2 559/10/2 558/10/2
f 562/10/3 563/10/3 560/10/3
f 562/10/3 560/10/3 559/10/3
f 564/10/4 565/10/4 566/10/4
f 564/10/4 566/10/4 567/10/4
f 563/10/1 568/10/1 557/10/1
f 563/10/1 557/10/1 560/10/1
f 568/10/8 563/10/8 562/10/8
f 568/10/8 562/10/8 561/10/8
f 569/6/7 570/6/7 571/6/7
f 569/6/7 571/6/7 572/6/7
f 573/8/11 574/8/11 575/8/11
f 573/8/11 575/8/11 576/8/11
f 574/8/12 577/8/12 578/8/12
f 574/8/12 578/8/12 575/8/12
f 577/8/13 579/8/13 580/8/13
f 577/8/13 580/8/13 578/8/13
f 579/8/14 581/8/14 582/8/14
f 579/8/14 582/8/14 580/8/14
f 581/8/15 583/8/15 584/8/15
f 581/8/15 584/8/15 582/8/15
f 583/8/16 585/8/16 586/8/16
f 583/8/16 586/8/16 584/8/16
f 585/8/17 587/8/17 588/8/17
f 585/8/17 588/8/17 586/8/17
f 587/8/18 589/8/18 590/8/18
f 587/8/18 590/8/18 588/8/18
f 589/8/19 591/8/19 592/8/19
f 589/8/19 592/8/19 590/8/19
f 591/8/20 593/8/20 594/8/20
f 591/8/20 594/8/20 592/8/20
f 593/8/21 595/8/21 596/8/21
f 593/8/21 596/8/21 594/8/21
f 595/8/22 573/8/22 576/8/22
f 595/8/22 576/8/22 596/8/22
f 597/6/1 598/6/1 599/6/1
f 597/6/1 599/6/1 600/6/1
f 597/6/1 600/6/1 601/6/1
f 597/6/1 601/6/1 602/6/1
f 597/6/1 602/6/1 603/6/1
f 597/6/1 603/6/1 604/6/1
f 597/6/1 604/6/1 605/6/1
f 597/6/1 605/6/1 606/6/1
f 597/6/1 606/6/1 607/6/1
f 597/6/1 607/6/1 608/6/1
f 595/6/2 593/6/2 591/6/2
f 595/6/2 591/6/2 589/6/2
f 595/6/2 589/6/2 587/6/2
f 595/6/2 587/6/2 585/6/2
f 595/6/2 585/6/2 583/6/2
f 595/6/2 583/6/2 581/6/2
f 595/6/2 581/6/2 579/6/2
f 595/6/2 579/6/2 577/6/2
f 595/6/2 577/6/2 574/6/2
f 595/6/2 574/6/2 573/6/2
f 609/11/1 610/11/1 611/11/1
f 609/11/1 611/11/1 612/11/1
f 613/12/1 614/12/1 615/12/1
f 613/12/1 615/12/1 616/12/1
f 617/5/1 618/5/1 619/5/1
f 617/5/1 619/5/1 620/5/1
f 621/11/1 622/11/1 623/11/1
f 621/11/1 623/11/1 624/11/1
f 625/11/1 626/11/1 627/11/1
f 625/11/1 627/11/1 628/11/1
f 629/11/2 630/11/2 631/11/2
f 629/11/2 631/11/2 632/11/2
f 633/12/2 634/12/2 635/12/2
f 633/12/2 635/12/2 636/12/2
f 637/5/2 638/5/2 639/5/2
f 637/5/2 639/5/2 640/5/2
f 641/11/2 642/11/2 643/11/2
f 641/11/2 643/11/2 644/11/2
f 645/11/2 646/11/2 647/11/2
f 645/11/2 647/11/2 648/11/2
f 649/11/3 650/11/3 651/11/3
f 649/11/3 651/11/3 652/11/3
f 653/12/3 654/12/3 655/12/3
f 653/12/3 655/12/3 656/12/3
f 657/5/3 658/5/3 659/5/3
f 657/5/3 659/5/3 660/5/3
f 661/11/3 662/11/3 663/11/3
f 661/11/3 663/11/3 664/11/3
f 665/11/3 666/11/3 667/11/3
f 665/11/3 667/11/3 668/11/3
f 669/13/23 670/13/23 671/13/23
f 669/13/23 671/13/23 672/13/23
f 670/13/24 673/13/24 674/13/24
f 670/13/24 674/13/24 671/13/24
f 673/13/25 675/13/25 676/13/25
f 673/13/25 676/13/25 674/13/25
f 675/13/26 677/13/26 678/13/26
f 675/13/26 678/13/26 676/13/26
f 677/13/27 679/13/27 680/13/27
f 677/13/27 680/13/27 678/13/27
f 679/13/7 681/13/7 682/13/7
f 679/13/7 682/13/7 680/13/7
f 681/13/28 683/13/28 684/13/28
f 681/13/28 684/13/28 682/13/28
f 683/13/29 685/13/29 686/13/29
f 683/13/29 686/13/29 684/13/29
f 685/13/30 687/13/30 688/13/30
f 685/13/30 688/13/30 686/13/30
f 687/13/31 689/13/31 690/13/31
f 687/13/31 690/13/31 688/13/31
f 689/13/32 691/13/32 692/13/32
f 689/13/32 692/13/32 690/13/32
f 691/13/33 693/13/33 694/13/33
f 691/13/33 694/13/33 692/13/33
f 693/13/34 695/13/34 696/13/34
f 693/13/34 696/13/34 694/13/34
f 695/13/35 697/13/35 698/13/35
f 695/13/35 698/13/35 696/13/35
f 697/13/36 699/13/36 700/13/36
f 697/13/36 700/13/36 698/13/36
f 699/13/37 701/13/37 702/13/37
f 699/13/37 702/13/37 700/13/37
f 701/13/8 703/13/8 704/13/8
f 701/13/8 704/13/8 702/13/8
f 703/13/38 705/13/38 706/13/38
f 703/13/38 706/13/38 704/13/38
f 705/13/39 707/13/39 708/13/39
f 705/13/39 708/13/39 706/13/39
f 707/13/40 709/13/40 710/13/40
f 707/13/40 710/13/40 708/13/40
f 709/13/41 711/13/41 712/13/41
f 709/13/41 712/13/41 710/13/41
f 711/13/42 669/13/42 672/13/42
f 711/13/42 672/13/42 712/13/42
f 711/14/4 709/14/4 707/14/4
f 711/14/4 707/14/4 705/14/4
f 711/14/4 705/14/4 703/14/4
f 711/14/4 703/14/4 701/14/4
f 711/14/4 701/14/4 699/14/4
f 711/14/4 699/14/4 697/14/4
f 711/14/4 697/14/4 695/14/4
f 711/14/4 695/14/4 693/14/4
f 711/14/4 693/14/4 691/14/4
f 711/14/4 691/14/4 689/14/4
f 711/14/4 689/14/4 687/14/4
f 711/14/4 687/14/4 685/14/4
f 711/14/4 685/14/4 683/14/4
f 711/14/4 683/14/4 681/14/4
f 711/14/4 681/14/4 679/14/4
f 711/14/4 679/14/4 677/14/4
f 711/14/4 677/14/4 675/14/4
f 711/14/4 675/14/4 673/14/4
f 711/14/4 673/14/4 670/14/4
f 711/14/4 670/14/4 669/14/4
f 672/14/3 671/14/3 674/14/3
f 672/14/3 674/14/3 676/14/3
f 672/14/3 676/14/3 678/14/3
f 672/14/3 678/14/3 680/14/3
f 672/14/3 680/14/3 682/14/3
f 672/14/3 682/14/3 684/14/3
f 672/14/3 684/14/3 686/14/3
f 672/14/3 686/14/3 688/14/3
f 672/14/3 688/14/3 690/14/3
f 672/14/3 690/14/3 692/14/3
f 672/14/3 692/14/3 694/14/3
f 672/14/3 694/14/3 696/14/3
f 672/14/3 696/14/3 698/14/3
f 672/14/3 698/14/3 700/14/3
f 672/14/3 700/14/3 702/14/3
f 672/14/3 702/14/3 704/14/3
f 672/14/3 704/14/3 706/14/3
f 672/14/3 706/14/3 708/14/3
f 672/14/3 708/14/3 710/14/3
f 672/14/3 710/14/3 712/14/3
f 713/13/43 714/13/43 715/13/43
f 713/13/43 715/13/43 716/13/43
f 714/13/44 717/13/44 718/13/44
f 714/13/44 718/13/44 715/13/44
f 717/13/9 719/13/9 720/13/9
f 717/13/9 720/13/9 718/13/9
f 719/13/45 721/13/45 722/13/45
f 719/13/45 722/13/45 720/13/45
f 721/13/46 723/13/46 724/13/46
f 721/13/46 724/13/46 722/13/46
f 723/13/47 725/13/47 726/13/47
f 723/13/47 726/13/47 724/13/47
f 725/13/48 727/13/48 728/13/48
f 725/13/48 728/13/48 726/13/48
f 727/13/5 729/13/5 730/13/5
f 727/13/5 730/13/5 728/13/5
f 729/13/49 731/13/49 732/13/49
f 729/13/49 732/13/49 730/13/49
f 731/13/50 733/13/50 734/13/50
f 731/13/50 734/13/50 732/13/50
f 733/13/51 735/13/51 736/13/51
f 733/13/51 736/13/51 734/13/51
f 735/13/52 737/13/52 738/13/52
f 735/13/52 738/13/52 736/13/52
f 737/13/10 739/13/10 740/13/10
f 737/13/10 740/13/10 738/13/10
f 739/13/53 741/13/53 742/13/53
f 739/13/53 742/13/53 740/13/53
f 741/13/54 743/13/54 744/13/54
f 741/13/54 744/13/54 742/13/54
f 743/13/55 745/13/55 746/13/55
f 743/13/55 746/13/55 744/13/55
f 745/13/56 747/13/56 748/13/56
f 745/13/56 748/13/56 746/13/56
f 747/13/6 749/13/6 750/13/6
f 747/13/6 750/13/6 748/13/6
f 749/13/57 751/13/57 752/13/57
f 749/13/57 752/13/57 750/13/57
f 751/13/58 713/13/58 716/13/58
f 751/13/58 716/13/58 752/13/58
f 751/14/4 749/14/4 747/14/4
f 751/14/4 747/14/4 745/14/4
f 751/14/4 745/14/4 743/14/4
f 751/14/4 743/14/4 741/14/4
f 751/14/4 741/14/4 739/14/4
f 751/14/4 739/14/4 737/14/4
f 751/14/4 737/14/4 735/14/4
f 751/14/4 735/14/4 733/14/4
f 751/14/4 733/14/4 731/14/4
f 751/14/4 731/14/4 729/14/4
f 751/14/4 729/14/4 727/14/4
f 751/14/4 727/14/4 725/14/4
f 751/14/4 725/14/4 723/14/4
f 751/14/4 723/14/4 721/14/4
f 751/14/4 721/14/4 719/14/4
f 751/14/4 719/14/4 717/14/4
f 751/14/4 717/14/4 714/14/4
f 751/14/4 714/14/4 713/14/4
f 753/14/3 754/14/3 755/14/3
f 753/14/3 755/14/3 756/14/3
f 753/14/3 756/14/3 757/14/3
f 753/14/3 757/14/3 758/14/3
f 753/14/3 758/14/3 759/14/3
f 753/14/3 759/14/3 760/14/3
f 753/14/3 760/14/3 761/14/3
f 753/14/3 761/14/3 762/14/3
f 753/14/3 762/14/3 763/14/3
f 753/14/3 763/14/3 764/14/3
f 753/14/3 764/14/3 765/14/3
f 753/14/3 765/14/3 766/14/3
f 753/14/3 766/14/3 767/14/3
f 753/14/3 767/14/3 768/14/3
f 753/14/3 768/14/3 769/14/3
f 753/14/3 769/14/3 770/14/3
f 753/14/3 770/14/3 771/14/3
f 753/14/3 771/14/3 772/14/3
f 773/13/59 774/13/59 775/13/59
f 773/13/59 775/13/59 776/13/59
f 774/13/9 777/13/9 778/13/9
f 774/13/9 778/13/9 775/13/9
f 777/13/60 779/13/60 780/13/60
f 777/13/60 780/13/60 778/13/60
f 779/13/61 781/13/61 782/13/61
f 779/13/61 782/13/61 780/13/61
f 781/13/5 783/13/5 784/13/5
f 781/13/5 784/13/5 782/13/5
f 783/13/62 785/13/62 786/13/62
f 783/13/62 786/13/62 784/13/62
f 785/13/63 787/13/63 788/13/63
f 785/13/63 788/13/63 786/13/63
f 787/13/10 789/13/10 790/13/10
f 787/13/10 790/13/10 788/13/10
f 789/13/64 791/13/64 792/13/64
f 789/13/64 792/13/64 790/13/64
f 791/13/65 793/13/65 794/13/65
f 791/13/65 794/13/65 792/13/65
f 793/13/6 795/13/6 796/13/6
f 793/13/6 796/13/6 794/13/6
f 795/13/66 773/13/66 776/13/66
f 795/13/66 776/13/66 796/13/66
f 795/15/4 793/15/4 791/15/4
f 795/15/4 791/15/4 789/15/4
f 795/15/4 789/15/4 787/15/4
f 795/15/4 787/15/4 785/15/4
f 795/15/4 785/15/4 783/15/4
f 795/15/4 783/15/4 781/15/4
f 795/15/4 781/15/4 779/15/4
f 795/15/4 779/15/4 777/15/4
f 795/15/4 777/15/4 774/15/4
f 795/15/4 774/15/4 773/15/4
f 797/15/3 798/15/3 799/15/3
f 797/15/3 799/15/3 800/15/3
f 797/15/3 800/15/3 801/15/3
f 797/15/3 801/15/3 802/15/3
f 797/15/3 802/15/3 803/15/3
f 797/15/3 803/15/3 804/15/3
f 797/15/3 804/15/3 805/15/3
f 797/15/3 805/15/3 806/15/3
f 797/15/3 806/15/3 807/15/3
f 797/15/3 807/15/3 808/15/3
f 809/6/67 810/6/67 811/6/67
f 809/6/67 811/6/67 812/6/67
f 810/6/68 813/6/68 814/6/68
f 810/6/68 814/6/68 811/6/68
f 813/6/69 815/6/69 816/6/69
f 813/6/69 816/6/69 814/6/69
f 815/6/70 817/6/70 818/6/70
f 815/6/70 818/6/70 816/6/70
f 817/6/71 819/6/71 820/6/71
f 817/6/71 820/6/71 818/6/71
f 819/6/72 821/6/72 822/6/72
f 819/6/72 822/6/72 820/6/72
f 821/6/73 823/6/73 824/6/73
f 821/6/73 824/6/73 822/6/73
f 823/6/74 809/6/74 812/6/74
f 823/6/74 812/6/74 824/6/74
f 823/6/4 821/6/4 819/6/4
f 823/6/4 819/6/4 817/6/4
f 823/6/4 817/6/4 815/6/4
f 823/6/4 815/6/4 813/6/4
f 823/6/4 813/6/4 810/6/4
f 823/6/4 810/6/4 809/6/4
f 825/6/3 826/6/3 827/6/3
f 825/6/3 827/6/3 828/6/3
f 825/6/3 828/6/3 829/6/3
f 825/6/3 829/6/3 830/6/3
f 825/6/3 830/6/3 831/6/3
f 825/6/3 831/6/3 832/6/3
f 833/16/7 834/16/7 835/16/7
f 833/16/7 835/16/7 836/16/7
f 837/17/2 838/17/2 839/17/2
f 837/17/2 839/17/2 840/17/2
f 841/17/3 842/17/3 836/17/3
f 841/17/3 836/17/3 835/17/3
f 843/17/4 844/17/4 834/17/4
f 843/17/4 834/17/4 833/17/4
f 842/17/1 843/17/1 833/17/1
f 842/17/1 833/17/1 836/17/1
f 843/17/8 842/17/8 841/17/8
f 843/17/8 841/17/8 844/17/8
f 845/18/7 846/18/7 847/18/7
f 845/18/7 847/18/7 848/18/7
f 849/19/2 850/19/2 851/19/2
f 849/19/2 851/19/2 852/19/2
f 850/19/3 853/19/3 854/19/3
f 850/19/3 854/19/3 851/19/3
f 855/19/4 849/19/4 852/19/4
f 855/19/4 852/19/4 856/19/4
f 853/19/1 855/19/1 856/19/1
f 853/19/1 856/19/1 854/19/1
f 855/19/8 853/19/8 850/19/8
f 855/19/8 850/19/8 849/19/8
f 857/20/75 858/20/75 859/20/75
f 857/20/75 859/20/75 860/20/75
f 858/20/76 861/20/76 862/20/76
f 858/20/76 862/20/76 859/20/76
f 861/20/4 863/20/4 864/20/4
f 861/20/4 864/20/4 862/20/4
f 863/20/77 865/20/77 866/20/77
f 863/20/77 866/20/77 864/20/77
f 865/20/78 867/20/78 868/20/78
f 865/20/78 868/20/78 866/20/78
f 867/20/2 869/20/2 870/20/2
f 867/20/2 870/20/2 868/20/2
f 869/20/79 871/20/79 872/20/79
f 869/20/79 872/20/79 870/20/79
f 871/20/80 873/20/80 874/20/80
f 871/20/80 874/20/80 872/20/80
f 873/20/3 875/20/3 876/20/3
f 873/20/3 876/20/3 874/20/3
f 875/20/81 877/20/81 878/20/81
f 875/20/81 878/20/81 876/20/81
f 877/20/82 879/20/82 880/20/82
f 877/20/82 880/20/82 878/20/82
f 879/20/1 857/20/1 860/20/1
f 879/20/1 860/20/1 880/20/1
f 860/21/7 859/21/7 862/21/7
f 860/21/7 862/21/7 864/21/7
f 860/21/7 864/21/7 866/21/7
f 860/21/7 866/21/7 868/21/7
f 860/21/7 868/21/7 870/21/7
f 860/21/7 870/21/7 872/21/7
f 860/21/7 872/21/7 874/21/7
f 860/21/7 874/21/7 876/21/7
f 860/21/7 876/21/7 878/21/7
f 860/21/7 878/21/7 880/21/7
f 881/21/8 882/21/8 883/21/8
f 881/21/8 883/21/8 884/21/8
f 881/21/8 884/21/8 885/21/8
f 881/21/8 885/21/8 886/21/8
f 881/21/8 886/21/8 887/21/8
f 881/21/8 887/21/8 888/21/8
f 881/21/8 888/21/8 889/21/8
f 881/21/8 889/21/8 890/21/8
f 881/21/8 890/21/8 891/21/8
f 881/21/8 891/21/8 892/21/8
f 893/22/75 894/22/75 895/22/75
f 893/22/75 895/22/75 896/22/75
f 894/22/76 897/22/76 898/22/76
f 894/22/76 898/22/76 895/22/76
f 897/22/4 899/22/4 900/22/4
f 897/22/4 900/22/4 898/22/4
f 899/22/77 901/22/77 902/22/77
f 899/22/77 902/22/77 900/22/77
f 901/22/78 903/22/78 904/22/78
f 901/22/78 904/22/78 902/22/78
f 903/22/2 905/22/2 906/22/2
f 903/22/2 906/22/2 904/22/2
f 905/22/79 907/22/79 908/22/79
f 905/22/79 908/22/79 906/22/79
f 907/22/80 909/22/80 910/22/80
f 907/22/80 910/22/80 908/22/80
f 909/22/3 911/22/3 912/22/3
f 909/22/3 912/22/3 910/22/3
f 911/22/81 913/22/81 914/22/81
f 911/22/81 914/22/81 912/22/81
f 913/22/82 915/22/82 916/22/82
f 913/22/82 916/22/82 914/22/82
f 915/22/1 893/22/1 896/22/1
f 915/22/1 896/22/1 916/22/1
f 896/23/7 895/23/7 898/23/7
f 896/23/7 898/23/7 900/23/7
f 896/23/7 900/23/7 902/23/7
f 896/23/7 902/23/7 904/23/7
f 896/23/7 904/23/7 906/23/7
f 896/23/7 906/23/7 908/23/7
f 896/23/7 908/23/7 910/23/7
f 896/23/7 910/23/7 912/23/7
f 896/23/7 912/23/7 914/23/7
f 896/23/7 914/23/7 916/23/7
f 917/23/8 918/23/8 919/23/8
f 917/23/8 919/23/8 920/23/8
f 917/23/8 920/23/8 921/23/8
f 917/23/8 921/23/8 922/23/8
f 917/23/8 922/23/8 923/23/8
f 917/23/8 923/23/8 924/23/8
f 917/23/8 924/23/8 925/23/8
f 917/23/8 925/23/8 926/23/8
f 917/23/8 926/23/8 927/23/8
f 917/23/8 927/23/8 928/23/8
f 929/22/75 930/22/75 931/22/75
f 929/22/75 931/22/75 932/22/75
f 930/22/76 933/22/76 934/22/76
f 930/22/76 934/22/76 931/22/76
f 933/22/4 935/22/4 936/22/4
f 933/22/4 936/22/4 934/22/4
f 935/22/77 937/22/77 938/22/77
f 935/22/77 938/22/77 936/22/77
f 937/22/78 939/22/78 940/22/78
f 937/22/78 940/22/78 938/22/78
f 939/22/2 941/22/2 942/22/2
f 939/22/2 942/22/2 940/22/2
f 941/22/79 943/22/79 944/22/79
f 941/22/79 944/22/79 942/22/79
f 943/22/80 945/22/80 946/22/80
f 943/22/80 946/22/80 944/22/80
f 945/22/3 947/22/3 948/22/3
f 945/22/3 948/22/3 946/22/3
f 947/22/81 949/22/81 950/22/81
f 947/22/81 950/22/81 948/22/81
f 949/22/82 951/22/82 952/22/82
f 949/22/82 952/22/82 950/22/82
f 951/22/1 929/22/1 932/22/1
f 951/22/1 932/22/1 952/22/1
f 932/23/7 931/23/7 934/23/7
f 932/23/7 934/23/7 936/23/7
f 932/23/7 936/23/7 938/23/7
f 932/23/7 938/23/7 940/23/7
f 932/23/7 940/23/7 942/23/7
f 932/23/7 942/23/7 944/23/7
f 932/23/7 944/23/7 946/23/7
f 932/23/7 946/23/7 948/23/7
f 932/23/7 948/23/7 950/23/7
f 932/23/7 950/23/7 952/23/7
f 953/23/8 954/23/8 955/23/8
f 953/23/8 955/23/8 956/23/8
f 953/23/8 956/23/8 957/23/8
f 953/23/8 957/23/8 958/23/8
f 953/23/8 958/23/8 959/23/8
f 953/23/8 959/23/8 960/23/8
f 953/23/8 960/23/8 961/23/8
f 953/23/8 961/23/8 962/23/8
f 953/23/8 962/23/8 963/23/8
f 953/23/8 963/23/8 964/23/8
f 965/24/7 966/24/7 967/24/7
f 965/24/7 967/24/7 968/24/7
f 965/24/7 968/24/7 969/24/7
f 965/24/7 969/24/7 970/24/7
f 965/24/7 970/24/7 971/24/7
f 965/24/7 971/24/7 972/24/7
