# Off-Grid backup_ground_lectromax_on_S for Project Viewpoint. Z up, tile units, x east, y south. Generated by tools/build_viewpoint.py.
mtllib offgrid.mtl
o backup_ground_lectromax_on_S
usemtl offgrid
v -0.298 -0.1725 0.03
v -0.298 0.1375 0.03
v 0.232 0.1375 0.03
v 0.232 -0.1725 0.03
v -0.298 0.1375 0.48
v 0.232 0.1375 0.48
v -0.298 0.0925 0.568
v 0.232 0.0925 0.568
v -0.298 0.0375 0.58
v 0.232 0.0375 0.58
v -0.298 -0.0725 0.58
v 0.232 -0.0725 0.58
v -0.298 -0.1275 0.568
v 0.232 -0.1275 0.568
v -0.298 -0.1725 0.48
v 0.232 -0.1725 0.48
v -0.288 -0.1625 0.0315
v 0.222 -0.1625 0.0315
v 0.222 0.1275 0.0315
v -0.288 0.1275 0.0315
v 0.222 -0.1625 0
v 0.222 0.1275 0
v 0.222 0.1275 0.03
v 0.222 -0.1625 0.03
v -0.288 0.1275 0
v -0.288 0.1275 0.03
v -0.288 -0.1625 0
v -0.288 -0.1625 0.03
v -0.303 -0.1775 0.44
v 0.237 -0.1775 0.44
v 0.237 0.1425 0.44
v -0.303 0.1425 0.44
v 0.237 -0.1775 0.405
v 0.237 0.1425 0.405
v -0.303 0.1425 0.405
v -0.303 -0.1775 0.405
v -0.268 0.1395 0.23
v 0.202 0.1395 0.23
v 0.202 0.1395 0.05
v -0.268 0.1395 0.05
v -0.228 0.1415 0.18
v -0.178 0.1415 0.18
v -0.178 0.1415 0.11
v -0.228 0.1415 0.11
v -0.138 0.1415 0.18
v -0.088 0.1415 0.18
v -0.088 0.1415 0.11
v -0.138 0.1415 0.11
v -0.048 0.1415 0.18
v 0.002 0.1415 0.18
v 0.002 0.1415 0.11
v -0.048 0.1415 0.11
v 0.042 0.1415 0.18
v 0.092 0.1415 0.18
v 0.092 0.1415 0.11
v 0.042 0.1415 0.11
v -0.248 0.1395 0.39
v -0.058 0.1395 0.39
v -0.058 0.1395 0.25
v -0.248 0.1395 0.25
v -0.236 0.1415 0.378
v -0.07 0.1415 0.378
v -0.07 0.1415 0.262
v -0.236 0.1415 0.262
v -0.236 0.1435 0.378
v -0.07 0.1435 0.378
v -0.07 0.1435 0.3362
v -0.236 0.1435 0.3362
v -0.224 0.1435 0.3142
v -0.082 0.1435 0.3142
v -0.082 0.1435 0.3022
v -0.224 0.1435 0.3022
v -0.224 0.1435 0.2875
v -0.1317 0.1435 0.2875
v -0.1317 0.1435 0.2755
v -0.224 0.1435 0.2755
v -0.268 -0.1745 0.05
v 0.202 -0.1745 0.05
v 0.202 -0.1745 0.23
v -0.268 -0.1745 0.23
v -0.228 -0.1765 0.11
v -0.178 -0.1765 0.11
v -0.178 -0.1765 0.18
v -0.228 -0.1765 0.18
v -0.138 -0.1765 0.11
v -0.088 -0.1765 0.11
v -0.088 -0.1765 0.18
v -0.138 -0.1765 0.18
v -0.048 -0.1765 0.11
v 0.002 -0.1765 0.11
v 0.002 -0.1765 0.18
v -0.048 -0.1765 0.18
v 0.042 -0.1765 0.11
v 0.092 -0.1765 0.11
v 0.092 -0.1765 0.18
v 0.042 -0.1765 0.18
v -0.248 -0.1745 0.25
v -0.058 -0.1745 0.25
v -0.058 -0.1745 0.39
v -0.248 -0.1745 0.39
v -0.236 -0.1765 0.262
v -0.07 -0.1765 0.262
v -0.07 -0.1765 0.378
v -0.236 -0.1765 0.378
v -0.236 -0.1785 0.3362
v -0.07 -0.1785 0.3362
v -0.07 -0.1785 0.378
v -0.236 -0.1785 0.378
v -0.224 -0.1785 0.3022
v -0.082 -0.1785 0.3022
v -0.082 -0.1785 0.3142
v -0.224 -0.1785 0.3142
v -0.224 -0.1785 0.2755
v -0.1317 -0.1785 0.2755
v -0.1317 -0.1785 0.2875
v -0.224 -0.1785 0.2875
v 0.234 0.1075 0.27
v 0.234 -0.1425 0.27
v 0.234 -0.1425 0.05
v 0.234 0.1075 0.05
v 0.236 0.0875 0.24
v 0.236 -0.1225 0.24
v 0.236 -0.1225 0.22
v 0.236 0.0875 0.22
v 0.236 0.0875 0.19
v 0.236 -0.1225 0.19
v 0.236 -0.1225 0.17
v 0.236 0.0875 0.17
v 0.236 0.0875 0.14
v 0.236 -0.1225 0.14
v 0.236 -0.1225 0.12
v 0.236 0.0875 0.12
v 0.236 0.0875 0.09
v 0.236 -0.1225 0.09
v 0.236 -0.1225 0.07
v 0.236 0.0875 0.07
v -0.3 0.1075 0.05
v -0.3 -0.1425 0.05
v -0.3 -0.1425 0.27
v -0.3 0.1075 0.27
v -0.302 0.0875 0.22
v -0.302 -0.1225 0.22
v -0.302 -0.1225 0.24
v -0.302 0.0875 0.24
v -0.302 0.0875 0.17
v -0.302 -0.1225 0.17
v -0.302 -0.1225 0.19
v -0.302 0.0875 0.19
v -0.302 0.0875 0.12
v -0.302 -0.1225 0.12
v -0.302 -0.1225 0.14
v -0.302 0.0875 0.14
v -0.302 0.0875 0.07
v -0.302 -0.1225 0.07
v -0.302 -0.1225 0.09
v -0.302 0.0875 0.09
v -0.301 0.1355 0
v -0.301 0.1695 0
v -0.301 0.1695 0.45
v -0.301 0.1355 0.45
v -0.335 0.1355 0.45
v -0.335 0.1695 0.45
v -0.335 0.1695 0
v -0.335 0.1355 0
v -0.3365 0.1689 0.4544
v -0.3365 0.1361 0.4456
v -0.3365 0.116 0.5206
v -0.3365 0.1488 0.5294
v -0.2995 0.1488 0.5294
v -0.2995 0.116 0.5206
v -0.2995 0.1361 0.4456
v -0.2995 0.1689 0.4544
v -0.335 0.1488 0.5294
v -0.301 0.1488 0.5294
v -0.301 0.1689 0.4544
v -0.335 0.1689 0.4544
v -0.335 0.1361 0.4456
v -0.301 0.1361 0.4456
v -0.301 0.116 0.5206
v -0.335 0.116 0.5206
v -0.338 0.1444 0.537
v -0.338 0.1204 0.513
v -0.338 0.0655 0.5679
v -0.338 0.0895 0.5919
v -0.298 0.0895 0.5919
v -0.298 0.0655 0.5679
v -0.298 0.1204 0.513
v -0.298 0.1444 0.537
v -0.335 0.0895 0.5919
v -0.301 0.0895 0.5919
v -0.301 0.1444 0.537
v -0.335 0.1444 0.537
v -0.335 0.1204 0.513
v -0.301 0.1204 0.513
v -0.301 0.0655 0.5679
v -0.335 0.0655 0.5679
v -0.3395 0.0819 0.5963
v -0.3395 0.0731 0.5635
v -0.3395 -0.0019 0.5836
v -0.3395 0.0069 0.6164
v -0.2965 0.0069 0.6164
v -0.2965 -0.0019 0.5836
v -0.2965 0.0731 0.5635
v -0.2965 0.0819 0.5963
v -0.335 0.0069 0.6164
v -0.301 0.0069 0.6164
v -0.301 0.0819 0.5963
v -0.335 0.0819 0.5963
v -0.335 0.0731 0.5635
v -0.301 0.0731 0.5635
v -0.301 -0.0019 0.5836
v -0.335 -0.0019 0.5836
v -0.341 0.0025 0.617
v -0.341 0.0025 0.583
v -0.341 -0.0375 0.583
v -0.341 -0.0375 0.617
v -0.295 -0.0375 0.617
v -0.295 -0.0375 0.583
v -0.295 0.0025 0.583
v -0.295 0.0025 0.617
v -0.335 -0.0375 0.617
v -0.301 -0.0375 0.617
v -0.301 0.0025 0.617
v -0.335 0.0025 0.617
v -0.335 0.0025 0.583
v -0.301 0.0025 0.583
v -0.301 -0.0375 0.583
v -0.335 -0.0375 0.583
v -0.3425 -0.0419 0.6164
v -0.3425 -0.0331 0.5836
v -0.3425 -0.1081 0.5635
v -0.3425 -0.1169 0.5963
v -0.2935 -0.1169 0.5963
v -0.2935 -0.1081 0.5635
v -0.2935 -0.0331 0.5836
v -0.2935 -0.0419 0.6164
v -0.335 -0.1169 0.5963
v -0.301 -0.1169 0.5963
v -0.301 -0.0419 0.6164
v -0.335 -0.0419 0.6164
v -0.335 -0.0331 0.5836
v -0.301 -0.0331 0.5836
v -0.301 -0.1081 0.5635
v -0.335 -0.1081 0.5635
v -0.344 -0.1245 0.5919
v -0.344 -0.1005 0.5679
v -0.344 -0.1554 0.513
v -0.344 -0.1794 0.537
v -0.292 -0.1794 0.537
v -0.292 -0.1554 0.513
v -0.292 -0.1005 0.5679
v -0.292 -0.1245 0.5919
v -0.335 -0.1794 0.537
v -0.301 -0.1794 0.537
v -0.301 -0.1245 0.5919
v -0.335 -0.1245 0.5919
v -0.335 -0.1005 0.5679
v -0.301 -0.1005 0.5679
v -0.301 -0.1554 0.513
v -0.335 -0.1554 0.513
v -0.3455 -0.1838 0.5294
v -0.3455 -0.151 0.5206
v -0.3455 -0.1711 0.4456
v -0.3455 -0.2039 0.4544
v -0.2905 -0.2039 0.4544
v -0.2905 -0.1711 0.4456
v -0.2905 -0.151 0.5206
v -0.2905 -0.1838 0.5294
v -0.335 -0.2039 0.4544
v -0.301 -0.2039 0.4544
v -0.301 -0.1838 0.5294
v -0.335 -0.1838 0.5294
v -0.335 -0.151 0.5206
v -0.301 -0.151 0.5206
v -0.301 -0.1711 0.4456
v -0.335 -0.1711 0.4456
v -0.289 -0.1705 0.45
v -0.289 -0.2045 0.45
v -0.289 -0.2045 0
v -0.289 -0.1705 0
v -0.347 -0.1705 0
v -0.347 -0.2045 0
v -0.347 -0.2045 0.45
v -0.347 -0.1705 0.45
v -0.301 -0.1705 0
v -0.335 -0.1705 0
v -0.335 -0.1705 0.45
v -0.301 -0.1705 0.45
v -0.301 -0.2045 0.45
v -0.335 -0.2045 0.45
v -0.335 -0.2045 0
v -0.301 -0.2045 0
v -0.335 0.1355 0.467
v -0.301 0.1355 0.467
v -0.301 0.1695 0.467
v -0.335 0.1695 0.467
v -0.298 0.1355 0.433
v -0.298 0.1695 0.433
v -0.298 0.1695 0.467
v -0.298 0.1355 0.467
v -0.301 0.171 0.433
v -0.335 0.171 0.433
v -0.335 0.171 0.467
v -0.301 0.171 0.467
v -0.335 0.134 0.433
v -0.301 0.134 0.433
v -0.301 0.134 0.467
v -0.335 0.134 0.467
v -0.338 0.1695 0.433
v -0.338 0.1355 0.433
v -0.338 0.1355 0.467
v -0.338 0.1695 0.467
v -0.335 0.1355 0.433
v -0.335 0.1695 0.433
v -0.301 0.1695 0.433
v -0.301 0.1355 0.433
v -0.335 0.1154 0.542
v -0.301 0.1154 0.542
v -0.301 0.1494 0.542
v -0.335 0.1494 0.542
v -0.2965 0.1154 0.508
v -0.2965 0.1494 0.508
v -0.2965 0.1494 0.542
v -0.2965 0.1154 0.542
v -0.301 0.1494 0.508
v -0.335 0.1494 0.508
v -0.335 0.1154 0.508
v -0.301 0.1154 0.508
v -0.3395 0.1494 0.508
v -0.3395 0.1154 0.508
v -0.3395 0.1154 0.542
v -0.3395 0.1494 0.542
v -0.335 0.0605 0.5969
v -0.301 0.0605 0.5969
v -0.301 0.0945 0.5969
v -0.335 0.0945 0.5969
v -0.295 0.0605 0.5629
v -0.295 0.0945 0.5629
v -0.295 0.0945 0.5969
v -0.295 0.0605 0.5969
v -0.301 0.0945 0.5629
v -0.335 0.0945 0.5629
v -0.335 0.0605 0.5629
v -0.301 0.0605 0.5629
v -0.341 0.0945 0.5629
v -0.341 0.0605 0.5629
v -0.341 0.0605 0.5969
v -0.341 0.0945 0.5969
v -0.335 -0.0145 0.6185
v -0.301 -0.0145 0.6185
v -0.301 0.0195 0.6185
v -0.335 0.0195 0.6185
v -0.2935 -0.0145 0.583
v -0.2935 0.0195 0.583
v -0.2935 0.0195 0.617
v -0.2935 -0.0145 0.617
v -0.301 0.0195 0.583
v -0.335 0.0195 0.583
v -0.335 0.0195 0.617
v -0.301 0.0195 0.617
v -0.335 -0.0145 0.583
v -0.301 -0.0145 0.583
v -0.301 -0.0145 0.617
v -0.335 -0.0145 0.617
v -0.3425 0.0195 0.583
v -0.3425 -0.0145 0.583
v -0.3425 -0.0145 0.617
v -0.3425 0.0195 0.617
v -0.335 -0.0145 0.5815
v -0.335 0.0195 0.5815
v -0.301 0.0195 0.5815
v -0.301 -0.0145 0.5815
v -0.335 -0.0545 0.6185
v -0.301 -0.0545 0.6185
v -0.301 -0.0205 0.6185
v -0.335 -0.0205 0.6185
v -0.292 -0.0545 0.583
v -0.292 -0.0205 0.583
v -0.292 -0.0205 0.617
v -0.292 -0.0545 0.617
v -0.301 -0.0205 0.583
v -0.335 -0.0205 0.583
v -0.335 -0.0205 0.617
v -0.301 -0.0205 0.617
v -0.335 -0.0545 0.583
v -0.301 -0.0545 0.583
v -0.301 -0.0545 0.617
v -0.335 -0.0545 0.617
v -0.344 -0.0205 0.583
v -0.344 -0.0545 0.583
v -0.344 -0.0545 0.617
v -0.344 -0.0205 0.617
v -0.335 -0.0545 0.5815
v -0.335 -0.0205 0.5815
v -0.301 -0.0205 0.5815
v -0.301 -0.0545 0.5815
v -0.335 -0.1295 0.5969
v -0.301 -0.1295 0.5969
v -0.301 -0.0955 0.5969
v -0.335 -0.0955 0.5969
v -0.2905 -0.1295 0.5629
v -0.2905 -0.0955 0.5629
v -0.2905 -0.0955 0.5969
v -0.2905 -0.1295 0.5969
v -0.301 -0.0955 0.5629
v -0.335 -0.0955 0.5629
v -0.335 -0.1295 0.5629
v -0.301 -0.1295 0.5629
v -0.3455 -0.0955 0.5629
v -0.3455 -0.1295 0.5629
v -0.3455 -0.1295 0.5969
v -0.3455 -0.0955 0.5969
v -0.335 -0.1844 0.542
v -0.301 -0.1844 0.542
v -0.301 -0.1504 0.542
v -0.335 -0.1504 0.542
v -0.289 -0.1844 0.508
v -0.289 -0.1504 0.508
v -0.289 -0.1504 0.542
v -0.289 -0.1844 0.542
v -0.301 -0.1504 0.508
v -0.335 -0.1504 0.508
v -0.335 -0.1844 0.508
v -0.301 -0.1844 0.508
v -0.347 -0.1504 0.508
v -0.347 -0.1844 0.508
v -0.347 -0.1844 0.542
v -0.347 -0.1504 0.542
v -0.335 -0.2045 0.467
v -0.301 -0.2045 0.467
v -0.301 -0.1705 0.467
v -0.335 -0.1705 0.467
v -0.2875 -0.2045 0.433
v -0.2875 -0.1705 0.433
v -0.2875 -0.1705 0.467
v -0.2875 -0.2045 0.467
v -0.301 -0.169 0.433
v -0.335 -0.169 0.433
v -0.335 -0.169 0.467
v -0.301 -0.169 0.467
v -0.335 -0.206 0.433
v -0.301 -0.206 0.433
v -0.301 -0.206 0.467
v -0.335 -0.206 0.467
v -0.3485 -0.1705 0.433
v -0.3485 -0.2045 0.433
v -0.3485 -0.2045 0.467
v -0.3485 -0.1705 0.467
v -0.335 -0.2045 0.433
v -0.335 -0.1705 0.433
v -0.301 -0.1705 0.433
v -0.301 -0.2045 0.433
v 0.269 0.1355 0
v 0.269 0.1695 0
v 0.269 0.1695 0.45
v 0.269 0.1355 0.45
v 0.235 0.1355 0.45
v 0.235 0.1695 0.45
v 0.235 0.1695 0
v 0.235 0.1355 0
v 0.2335 0.1689 0.4544
v 0.2335 0.1361 0.4456
v 0.2335 0.116 0.5206
v 0.2335 0.1488 0.5294
v 0.2705 0.1488 0.5294
v 0.2705 0.116 0.5206
v 0.2705 0.1361 0.4456
v 0.2705 0.1689 0.4544
v 0.235 0.1488 0.5294
v 0.269 0.1488 0.5294
v 0.269 0.1689 0.4544
v 0.235 0.1689 0.4544
v 0.235 0.1361 0.4456
v 0.269 0.1361 0.4456
v 0.269 0.116 0.5206
v 0.235 0.116 0.5206
v 0.232 0.1444 0.537
v 0.232 0.1204 0.513
v 0.232 0.0655 0.5679
v 0.232 0.0895 0.5919
v 0.272 0.0895 0.5919
v 0.272 0.0655 0.5679
v 0.272 0.1204 0.513
v 0.272 0.1444 0.537
v 0.235 0.0895 0.5919
v 0.269 0.0895 0.5919
v 0.269 0.1444 0.537
v 0.235 0.1444 0.537
v 0.235 0.1204 0.513
v 0.269 0.1204 0.513
v 0.269 0.0655 0.5679
v 0.235 0.0655 0.5679
v 0.2305 0.0819 0.5963
v 0.2305 0.0731 0.5635
v 0.2305 -0.0019 0.5836
v 0.2305 0.0069 0.6164
v 0.2735 0.0069 0.6164
v 0.2735 -0.0019 0.5836
v 0.2735 0.0731 0.5635
v 0.2735 0.0819 0.5963
v 0.235 0.0069 0.6164
v 0.269 0.0069 0.6164
v 0.269 0.0819 0.5963
v 0.235 0.0819 0.5963
v 0.235 0.0731 0.5635
v 0.269 0.0731 0.5635
v 0.269 -0.0019 0.5836
v 0.235 -0.0019 0.5836
v 0.229 0.0025 0.617
v 0.229 0.0025 0.583
v 0.229 -0.0375 0.583
v 0.229 -0.0375 0.617
v 0.275 -0.0375 0.617
v 0.275 -0.0375 0.583
v 0.275 0.0025 0.583
v 0.275 0.0025 0.617
v 0.235 -0.0375 0.617
v 0.269 -0.0375 0.617
v 0.269 0.0025 0.617
v 0.235 0.0025 0.617
v 0.235 0.0025 0.583
v 0.269 0.0025 0.583
v 0.269 -0.0375 0.583
v 0.235 -0.0375 0.583
v 0.2275 -0.0419 0.6164
v 0.2275 -0.0331 0.5836
v 0.2275 -0.1081 0.5635
v 0.2275 -0.1169 0.5963
v 0.2765 -0.1169 0.5963
v 0.2765 -0.1081 0.5635
v 0.2765 -0.0331 0.5836
v 0.2765 -0.0419 0.6164
v 0.235 -0.1169 0.5963
v 0.269 -0.1169 0.5963
v 0.269 -0.0419 0.6164
v 0.235 -0.0419 0.6164
v 0.235 -0.0331 0.5836
v 0.269 -0.0331 0.5836
v 0.269 -0.1081 0.5635
v 0.235 -0.1081 0.5635
v 0.226 -0.1245 0.5919
v 0.226 -0.1005 0.5679
v 0.226 -0.1554 0.513
v 0.226 -0.1794 0.537
v 0.278 -0.1794 0.537
v 0.278 -0.1554 0.513
v 0.278 -0.1005 0.5679
v 0.278 -0.1245 0.5919
v 0.235 -0.1794 0.537
v 0.269 -0.1794 0.537
v 0.269 -0.1245 0.5919
v 0.235 -0.1245 0.5919
v 0.235 -0.1005 0.5679
v 0.269 -0.1005 0.5679
v 0.269 -0.1554 0.513
v 0.235 -0.1554 0.513
v 0.2245 -0.1838 0.5294
v 0.2245 -0.151 0.5206
v 0.2245 -0.1711 0.4456
v 0.2245 -0.2039 0.4544
v 0.2795 -0.2039 0.4544
v 0.2795 -0.1711 0.4456
v 0.2795 -0.151 0.5206
v 0.2795 -0.1838 0.5294
v 0.235 -0.2039 0.4544
v 0.269 -0.2039 0.4544
v 0.269 -0.1838 0.5294
v 0.235 -0.1838 0.5294
v 0.235 -0.151 0.5206
v 0.269 -0.151 0.5206
v 0.269 -0.1711 0.4456
v 0.235 -0.1711 0.4456
v 0.281 -0.1705 0.45
v 0.281 -0.2045 0.45
v 0.281 -0.2045 0
v 0.281 -0.1705 0
v 0.223 -0.1705 0
v 0.223 -0.2045 0
v 0.223 -0.2045 0.45
v 0.223 -0.1705 0.45
v 0.269 -0.1705 0
v 0.235 -0.1705 0
v 0.235 -0.1705 0.45
v 0.269 -0.1705 0.45
v 0.269 -0.2045 0.45
v 0.235 -0.2045 0.45
v 0.235 -0.2045 0
v 0.269 -0.2045 0
v 0.235 0.1355 0.467
v 0.269 0.1355 0.467
v 0.269 0.1695 0.467
v 0.235 0.1695 0.467
v 0.272 0.1355 0.433
v 0.272 0.1695 0.433
v 0.272 0.1695 0.467
v 0.272 0.1355 0.467
v 0.269 0.171 0.433
v 0.235 0.171 0.433
v 0.235 0.171 0.467
v 0.269 0.171 0.467
v 0.235 0.134 0.433
v 0.269 0.134 0.433
v 0.269 0.134 0.467
v 0.235 0.134 0.467
v 0.232 0.1695 0.433
v 0.232 0.1355 0.433
v 0.232 0.1355 0.467
v 0.232 0.1695 0.467
v 0.235 0.1355 0.433
v 0.235 0.1695 0.433
v 0.269 0.1695 0.433
v 0.269 0.1355 0.433
v 0.235 0.1154 0.542
v 0.269 0.1154 0.542
v 0.269 0.1494 0.542
v 0.235 0.1494 0.542
v 0.2735 0.1154 0.508
v 0.2735 0.1494 0.508
v 0.2735 0.1494 0.542
v 0.2735 0.1154 0.542
v 0.269 0.1494 0.508
v 0.235 0.1494 0.508
v 0.235 0.1154 0.508
v 0.269 0.1154 0.508
v 0.2305 0.1494 0.508
v 0.2305 0.1154 0.508
v 0.2305 0.1154 0.542
v 0.2305 0.1494 0.542
v 0.235 0.0605 0.5969
v 0.269 0.0605 0.5969
v 0.269 0.0945 0.5969
v 0.235 0.0945 0.5969
v 0.275 0.0605 0.5629
v 0.275 0.0945 0.5629
v 0.275 0.0945 0.5969
v 0.275 0.0605 0.5969
v 0.269 0.0945 0.5629
v 0.235 0.0945 0.5629
v 0.235 0.0605 0.5629
v 0.269 0.0605 0.5629
v 0.229 0.0945 0.5629
v 0.229 0.0605 0.5629
v 0.229 0.0605 0.5969
v 0.229 0.0945 0.5969
v 0.235 -0.0145 0.6185
v 0.269 -0.0145 0.6185
v 0.269 0.0195 0.6185
v 0.235 0.0195 0.6185
v 0.2765 -0.0145 0.583
v 0.2765 0.0195 0.583
v 0.2765 0.0195 0.617
v 0.2765 -0.0145 0.617
v 0.269 0.0195 0.583
v 0.235 0.0195 0.583
v 0.235 0.0195 0.617
v 0.269 0.0195 0.617
v 0.235 -0.0145 0.583
v 0.269 -0.0145 0.583
v 0.269 -0.0145 0.617
v 0.235 -0.0145 0.617
v 0.2275 0.0195 0.583
v 0.2275 -0.0145 0.583
v 0.2275 -0.0145 0.617
v 0.2275 0.0195 0.617
v 0.235 -0.0145 0.5815
v 0.235 0.0195 0.5815
v 0.269 0.0195 0.5815
v 0.269 -0.0145 0.5815
v 0.235 -0.0545 0.6185
v 0.269 -0.0545 0.6185
v 0.269 -0.0205 0.6185
v 0.235 -0.0205 0.6185
v 0.278 -0.0545 0.583
v 0.278 -0.0205 0.583
v 0.278 -0.0205 0.617
v 0.278 -0.0545 0.617
v 0.269 -0.0205 0.583
v 0.235 -0.0205 0.583
v 0.235 -0.0205 0.617
v 0.269 -0.0205 0.617
v 0.235 -0.0545 0.583
v 0.269 -0.0545 0.583
v 0.269 -0.0545 0.617
v 0.235 -0.0545 0.617
v 0.226 -0.0205 0.583
v 0.226 -0.0545 0.583
v 0.226 -0.0545 0.617
v 0.226 -0.0205 0.617
v 0.235 -0.0545 0.5815
v 0.235 -0.0205 0.5815
v 0.269 -0.0205 0.5815
v 0.269 -0.0545 0.5815
v 0.235 -0.1295 0.5969
v 0.269 -0.1295 0.5969
v 0.269 -0.0955 0.5969
v 0.235 -0.0955 0.5969
v 0.2795 -0.1295 0.5629
v 0.2795 -0.0955 0.5629
v 0.2795 -0.0955 0.5969
v 0.2795 -0.1295 0.5969
v 0.269 -0.0955 0.5629
v 0.235 -0.0955 0.5629
v 0.235 -0.1295 0.5629
v 0.269 -0.1295 0.5629
v 0.2245 -0.0955 0.5629
v 0.2245 -0.1295 0.5629
v 0.2245 -0.1295 0.5969
v 0.2245 -0.0955 0.5969
v 0.235 -0.1844 0.542
v 0.269 -0.1844 0.542
v 0.269 -0.1504 0.542
v 0.235 -0.1504 0.542
v 0.281 -0.1844 0.508
v 0.281 -0.1504 0.508
v 0.281 -0.1504 0.542
v 0.281 -0.1844 0.542
v 0.269 -0.1504 0.508
v 0.235 -0.1504 0.508
v 0.235 -0.1844 0.508
v 0.269 -0.1844 0.508
v 0.223 -0.1504 0.508
v 0.223 -0.1844 0.508
v 0.223 -0.1844 0.542
v 0.223 -0.1504 0.542
v 0.235 -0.2045 0.467
v 0.269 -0.2045 0.467
v 0.269 -0.1705 0.467
v 0.235 -0.1705 0.467
v 0.2825 -0.2045 0.433
v 0.2825 -0.1705 0.433
v 0.2825 -0.1705 0.467
v 0.2825 -0.2045 0.467
v 0.269 -0.169 0.433
v 0.235 -0.169 0.433
v 0.235 -0.169 0.467
v 0.269 -0.169 0.467
v 0.235 -0.206 0.433
v 0.269 -0.206 0.433
v 0.269 -0.206 0.467
v 0.235 -0.206 0.467
v 0.2215 -0.1705 0.433
v 0.2215 -0.2045 0.433
v 0.2215 -0.2045 0.467
v 0.2215 -0.1705 0.467
v 0.235 -0.2045 0.433
v 0.235 -0.1705 0.433
v 0.269 -0.1705 0.433
v 0.269 -0.2045 0.433
v -0.318 -0.206 0.034
v -0.318 -0.206 0
v 0.252 -0.206 0
v 0.252 -0.206 0.034
v 0.252 -0.169 0.034
v 0.252 -0.169 0
v -0.318 -0.169 0
v -0.318 -0.169 0.034
v 0.252 -0.2045 0.034
v 0.252 -0.1705 0.034
v -0.318 -0.1705 0.034
v -0.318 -0.2045 0.034
v -0.318 -0.2045 0
v -0.318 -0.1705 0
v 0.252 -0.1705 0
v 0.252 -0.2045 0
v -0.318 -0.2011 0.4836
v -0.318 -0.2011 0.4564
v 0.252 -0.2011 0.4564
v 0.252 -0.2011 0.4836
v 0.252 -0.1739 0.4836
v 0.252 -0.1739 0.4564
v -0.318 -0.1739 0.4564
v -0.318 -0.1739 0.4836
v -0.318 0.134 0.034
v -0.318 0.134 0
v 0.252 0.134 0
v 0.252 0.134 0.034
v 0.252 0.171 0.034
v 0.252 0.171 0
v -0.318 0.171 0
v -0.318 0.171 0.034
v 0.252 0.1355 0.034
v 0.252 0.1695 0.034
v -0.318 0.1695 0.034
v -0.318 0.1355 0.034
v -0.318 0.1355 0
v -0.318 0.1695 0
v 0.252 0.1695 0
v 0.252 0.1355 0
v -0.318 0.1389 0.4836
v -0.318 0.1389 0.4564
v 0.252 0.1389 0.4564
v 0.252 0.1389 0.4836
v 0.252 0.1661 0.4836
v 0.252 0.1661 0.4564
v -0.318 0.1661 0.4564
v -0.318 0.1661 0.4836
v 0.232 0.0175 0.36
v 0.277 0.0175 0.36
v 0.277 0.0975 0.36
v 0.232 0.0975 0.36
v 0.277 0.0175 0.29
v 0.277 0.0975 0.29
v 0.232 0.0975 0.29
v 0.232 0.0175 0.29
v 0.2305 0.0975 0.29
v 0.2305 0.0175 0.29
v 0.2305 0.0175 0.36
v 0.2305 0.0975 0.36
v 0.2435 0.0465 0.2915
v 0.2655 0.0465 0.2915
v 0.2655 0.0685 0.2915
v 0.2435 0.0685 0.2915
v 0.2655 0.0465 0
v 0.2655 0.0685 0
v 0.2655 0.0685 0.29
v 0.2655 0.0465 0.29
v 0.2435 0.0685 0
v 0.2435 0.0685 0.29
v 0.2435 0.0465 0
v 0.2435 0.0465 0.29
v -0.128 -0.0525 0.58
v -0.1334 -0.0325 0.58
v -0.1334 -0.0325 0.615
v -0.128 -0.0525 0.615
v -0.148 -0.0179 0.58
v -0.148 -0.0179 0.615
v -0.168 -0.0125 0.58
v -0.168 -0.0125 0.615
v -0.188 -0.0179 0.58
v -0.188 -0.0179 0.615
v -0.2026 -0.0325 0.58
v -0.2026 -0.0325 0.615
v -0.208 -0.0525 0.58
v -0.208 -0.0525 0.615
v -0.2026 -0.0725 0.58
v -0.2026 -0.0725 0.615
v -0.188 -0.0871 0.58
v -0.188 -0.0871 0.615
v -0.168 -0.0925 0.58
v -0.168 -0.0925 0.615
v -0.148 -0.0871 0.58
v -0.148 -0.0871 0.615
v -0.1334 -0.0725 0.58
v -0.1334 -0.0725 0.615
v -0.1334 -0.0725 0.5785
v -0.148 -0.0871 0.5785
v -0.168 -0.0925 0.5785
v -0.188 -0.0871 0.5785
v -0.2026 -0.0725 0.5785
v -0.208 -0.0525 0.5785
v -0.2026 -0.0325 0.5785
v -0.188 -0.0179 0.5785
v -0.168 -0.0125 0.5785
v -0.148 -0.0179 0.5785
v -0.1334 -0.0325 0.5785
v -0.128 -0.0525 0.5785
v 0.1396 0.0006 0.58
v 0.1215 0.032 0.58
v 0.1215 0.032 0.592
v 0.1396 0.0006 0.592
v 0.0901 0.0501 0.58
v 0.0901 0.0501 0.592
v 0.0539 0.0501 0.58
v 0.0539 0.0501 0.592
v 0.0225 0.032 0.58
v 0.0225 0.032 0.592
v 0.0044 0.0006 0.58
v 0.0044 0.0006 0.592
v 0.0044 -0.0356 0.58
v 0.0044 -0.0356 0.592
v 0.0225 -0.067 0.58
v 0.0225 -0.067 0.592
v 0.0539 -0.0851 0.58
v 0.0539 -0.0851 0.592
v 0.0901 -0.0851 0.58
v 0.0901 -0.0851 0.592
v 0.1215 -0.067 0.58
v 0.1215 -0.067 0.592
v 0.1396 -0.0356 0.58
v 0.1396 -0.0356 0.592
v 0.1396 -0.0356 0.5785
v 0.1215 -0.067 0.5785
v 0.0901 -0.0851 0.5785
v 0.0539 -0.0851 0.5785
v 0.0225 -0.067 0.5785
v 0.0044 -0.0356 0.5785
v 0.0044 0.0006 0.5785
v 0.0225 0.032 0.5785
v 0.0539 0.0501 0.5785
v 0.0901 0.0501 0.5785
v 0.1215 0.032 0.5785
v 0.1396 0.0006 0.5785
v 0.1261 -0.003 0.592
v 0.1116 0.0221 0.592
v 0.1116 0.0221 0.628
v 0.1261 -0.003 0.628
v 0.0865 0.0366 0.592
v 0.0865 0.0366 0.628
v 0.0575 0.0366 0.592
v 0.0575 0.0366 0.628
v 0.0324 0.0221 0.592
v 0.0324 0.0221 0.628
v 0.0179 -0.003 0.592
v 0.0179 -0.003 0.628
v 0.0179 -0.032 0.592
v 0.0179 -0.032 0.628
v 0.0324 -0.0571 0.592
v 0.0324 -0.0571 0.628
v 0.0575 -0.0716 0.592
v 0.0575 -0.0716 0.628
v 0.0865 -0.0716 0.592
v 0.0865 -0.0716 0.628
v 0.1116 -0.0571 0.592
v 0.1116 -0.0571 0.628
v 0.1261 -0.032 0.592
v 0.1261 -0.032 0.628
v 0.1261 -0.032 0.5905
v 0.1116 -0.0571 0.5905
v 0.0865 -0.0716 0.5905
v 0.0575 -0.0716 0.5905
v 0.0324 -0.0571 0.5905
v 0.0179 -0.032 0.5905
v 0.0179 -0.003 0.5905
v 0.0324 0.0221 0.5905
v 0.0575 0.0366 0.5905
v 0.0865 0.0366 0.5905
v 0.1116 0.0221 0.5905
v 0.1261 -0.003 0.5905
v 0.1055 -0.0085 0.628
v 0.0966 0.0071 0.628
v 0.0966 0.0071 0.64
v 0.1055 -0.0085 0.64
v 0.081 0.016 0.628
v 0.081 0.016 0.64
v 0.063 0.016 0.628
v 0.063 0.016 0.64
v 0.0474 0.0071 0.628
v 0.0474 0.0071 0.64
v 0.0385 -0.0085 0.628
v 0.0385 -0.0085 0.64
v 0.0385 -0.0265 0.628
v 0.0385 -0.0265 0.64
v 0.0474 -0.0421 0.628
v 0.0474 -0.0421 0.64
v 0.063 -0.051 0.628
v 0.063 -0.051 0.64
v 0.081 -0.051 0.628
v 0.081 -0.051 0.64
v 0.0966 -0.0421 0.628
v 0.0966 -0.0421 0.64
v 0.1055 -0.0265 0.628
v 0.1055 -0.0265 0.64
v 0.1055 -0.0265 0.6265
v 0.0966 -0.0421 0.6265
v 0.081 -0.051 0.6265
v 0.063 -0.051 0.6265
v 0.0474 -0.0421 0.6265
v 0.0385 -0.0265 0.6265
v 0.0385 -0.0085 0.6265
v 0.0474 0.0071 0.6265
v 0.063 0.016 0.6265
v 0.081 0.016 0.6265
v 0.0966 0.0071 0.6265
v 0.1055 -0.0085 0.6265
v 0.0937 -0.0085 0.6405
v 0.081 0.0042 0.6405
v 0.063 0.0042 0.6405
v 0.0503 -0.0085 0.6405
v 0.0503 -0.0265 0.6405
v 0.063 -0.0392 0.6405
v 0.081 -0.0392 0.6405
v 0.0937 -0.0265 0.6405
vt 0.203125 0.890625
vt 0.515625 0.890625
vt 0.359375 0.890625
vt 0.515625 0.984375
vt 0.609375 0.921875
vt 0.140625 0.890625
vt 0.234375 0.984375
vt 0.296875 0.984375
vt 0.546875 0.890625
vt 0.390625 0.953125
vt 0.609375 0.953125
vt 0.234375 0.921875
vt 0.265625 0.921875
vt 0.640625 0.953125
vt 0.796875 0.984375
vt 0.390625 0.984375
vt 0.484375 0.984375
vt 0.953125 0.984375
vt 0.515625 0.953125
vt 0.453125 0.953125
vt 0.890625 0.921875
vt 0.734375 0.890625
vn 0 0 -1
vn 0 1 0
vn 0 0.8903 0.4553
vn 0 0.2132 0.977
vn 0 0 1
vn 0 -0.2132 0.977
vn 0 -0.8903 0.4553
vn 0 -1 0
vn 1 0 0
vn -1 0 0
vn 0 0.9659 0.2588
vn 0 -0.9659 -0.2588
vn 0 0.7071 0.7071
vn 0 -0.7071 -0.7071
vn 0 0.2588 0.9659
vn 0 -0.2588 -0.9659
vn 0 -0.2588 0.9659
vn 0 0.2588 -0.9659
vn 0 -0.7071 0.7071
vn 0 0.7071 -0.7071
vn 0 -0.9659 0.2588
vn 0 0.9659 -0.2588
vn 0.9659 0.2588 0
vn 0.7071 0.7071 0
vn 0.2588 0.9659 0
vn -0.2588 0.9659 0
vn -0.7071 0.7071 0
vn -0.9659 0.2588 0
vn -0.9659 -0.2588 0
vn -0.7071 -0.7071 0
vn -0.2588 -0.9659 0
vn 0.2588 -0.9659 0
vn 0.7071 -0.7071 0
vn 0.9659 -0.2588 0
vn 0.866 0.5 0
vn 0.5 0.866 0
vn -0.5 0.866 0
vn -0.866 0.5 0
vn -0.866 -0.5 0
vn -0.5 -0.866 0
vn 0.5 -0.866 0
vn 0.866 -0.5 0
f 1/1/1 2/1/1 3/1/1
f 1/1/1 3/1/1 4/1/1
f 2/1/2 5/1/2 6/1/2
f 2/1/2 6/1/2 3/1/2
f 5/2/3 7/2/3 8/2/3
f 5/2/3 8/2/3 6/2/3
f 7/3/4 9/3/4 10/3/4
f 7/3/4 10/3/4 8/3/4
f 9/3/5 11/3/5 12/3/5
f 9/3/5 12/3/5 10/3/5
f 11/3/6 13/3/6 14/3/6
f 11/3/6 14/3/6 12/3/6
f 13/2/7 15/2/7 16/2/7
f 13/2/7 16/2/7 14/2/7
f 15/1/8 1/1/8 4/1/8
f 15/1/8 4/1/8 16/1/8
f 4/1/9 3/1/9 6/1/9
f 4/1/9 6/1/9 8/1/9
f 4/1/9 8/1/9 10/1/9
f 4/1/9 10/1/9 12/1/9
f 4/1/9 12/1/9 14/1/9
f 4/1/9 14/1/9 16/1/9
f 15/1/10 13/1/10 11/1/10
f 15/1/10 11/1/10 9/1/10
f 15/1/10 9/1/10 7/1/10
f 15/1/10 7/1/10 5/1/10
f 15/1/10 5/1/10 2/1/10
f 15/1/10 2/1/10 1/1/10
f 17/4/5 18/4/5 19/4/5
f 17/4/5 19/4/5 20/4/5
f 21/4/9 22/4/9 23/4/9
f 21/4/9 23/4/9 24/4/9
f 22/4/2 25/4/2 26/4/2
f 22/4/2 26/4/2 23/4/2
f 27/4/8 21/4/8 24/4/8
f 27/4/8 24/4/8 28/4/8
f 25/4/10 27/4/10 28/4/10
f 25/4/10 28/4/10 26/4/10
f 27/4/1 25/4/1 22/4/1
f 27/4/1 22/4/1 21/4/1
f 29/5/5 30/5/5 31/5/5
f 29/5/5 31/5/5 32/5/5
f 33/5/9 34/5/9 31/5/9
f 33/5/9 31/5/9 30/5/9
f 34/5/2 35/5/2 32/5/2
f 34/5/2 32/5/2 31/5/2
f 36/5/8 33/5/8 30/5/8
f 36/5/8 30/5/8 29/5/8
f 35/5/10 36/5/10 29/5/10
f 35/5/10 29/5/10 32/5/10
f 36/5/1 35/5/1 34/5/1
f 36/5/1 34/5/1 33/5/1
f 37/4/2 38/4/2 39/4/2
f 37/4/2 39/4/2 40/4/2
f 41/6/2 42/6/2 43/6/2
f 41/6/2 43/6/2 44/6/2
f 45/6/2 46/6/2 47/6/2
f 45/6/2 47/6/2 48/6/2
f 49/6/2 50/6/2 51/6/2
f 49/6/2 51/6/2 52/6/2
f 53/7/2 54/7/2 55/7/2
f 53/7/2 55/7/2 56/7/2
f 57/8/2 58/8/2 59/8/2
f 57/8/2 59/8/2 60/8/2
f 61/9/2 62/9/2 63/9/2
f 61/9/2 63/9/2 64/9/2
f 65/5/2 66/5/2 67/5/2
f 65/5/2 67/5/2 68/5/2
f 69/8/2 70/8/2 71/8/2
f 69/8/2 71/8/2 72/8/2
f 73/8/2 74/8/2 75/8/2
f 73/8/2 75/8/2 76/8/2
f 77/4/8 78/4/8 79/4/8
f 77/4/8 79/4/8 80/4/8
f 81/6/8 82/6/8 83/6/8
f 81/6/8 83/6/8 84/6/8
f 85/6/8 86/6/8 87/6/8
f 85/6/8 87/6/8 88/6/8
f 89/6/8 90/6/8 91/6/8
f 89/6/8 91/6/8 92/6/8
f 93/7/8 94/7/8 95/7/8
f 93/7/8 95/7/8 96/7/8
f 97/8/8 98/8/8 99/8/8
f 97/8/8 99/8/8 100/8/8
f 101/9/8 102/9/8 103/9/8
f 101/9/8 103/9/8 104/9/8
f 105/5/8 106/5/8 107/5/8
f 105/5/8 107/5/8 108/5/8
f 109/8/8 110/8/8 111/8/8
f 109/8/8 111/8/8 112/8/8
f 113/8/8 114/8/8 115/8/8
f 113/8/8 115/8/8 116/8/8
f 117/4/9 118/4/9 119/4/9
f 117/4/9 119/4/9 120/4/9
f 121/10/9 122/10/9 123/10/9
f 121/10/9 123/10/9 124/10/9
f 125/10/9 126/10/9 127/10/9
f 125/10/9 127/10/9 128/10/9
f 129/10/9 130/10/9 131/10/9
f 129/10/9 131/10/9 132/10/9
f 133/10/9 134/10/9 135/10/9
f 133/10/9 135/10/9 136/10/9
f 137/4/10 138/4/10 139/4/10
f 137/4/10 139/4/10 140/4/10
f 141/10/10 142/10/10 143/10/10
f 141/10/10 143/10/10 144/10/10
f 145/10/10 146/10/10 147/10/10
f 145/10/10 147/10/10 148/10/10
f 149/10/10 150/10/10 151/10/10
f 149/10/10 151/10/10 152/10/10
f 153/10/10 154/10/10 155/10/10
f 153/10/10 155/10/10 156/10/10
f 157/11/9 158/11/9 159/11/9
f 157/11/9 159/11/9 160/11/9
f 161/11/10 162/11/10 163/11/10
f 161/11/10 163/11/10 164/11/10
f 160/11/8 161/11/8 164/11/8
f 160/11/8 164/11/8 157/11/8
f 158/11/2 163/11/2 162/11/2
f 158/11/2 162/11/2 159/11/2
f 165/11/10 166/11/10 167/11/10
f 165/11/10 167/11/10 168/11/10
f 169/11/9 170/11/9 171/11/9
f 169/11/9 171/11/9 172/11/9
f 173/11/11 174/11/11 175/11/11
f 173/11/11 175/11/11 176/11/11
f 177/11/12 178/11/12 179/11/12
f 177/11/12 179/11/12 180/11/12
f 181/11/10 182/11/10 183/11/10
f 181/11/10 183/11/10 184/11/10
f 185/11/9 186/11/9 187/11/9
f 185/11/9 187/11/9 188/11/9
f 189/12/13 190/12/13 191/12/13
f 189/12/13 191/12/13 192/12/13
f 193/11/14 194/11/14 195/11/14
f 193/11/14 195/11/14 196/11/14
f 197/11/10 198/11/10 199/11/10
f 197/11/10 199/11/10 200/11/10
f 201/11/9 202/11/9 203/11/9
f 201/11/9 203/11/9 204/11/9
f 205/12/15 206/12/15 207/12/15
f 205/12/15 207/12/15 208/12/15
f 209/11/16 210/11/16 211/11/16
f 209/11/16 211/11/16 212/11/16
f 213/11/10 214/11/10 215/11/10
f 213/11/10 215/11/10 216/11/10
f 217/11/9 218/11/9 219/11/9
f 217/11/9 219/11/9 220/11/9
f 221/12/5 222/12/5 223/12/5
f 221/12/5 223/12/5 224/12/5
f 225/11/1 226/11/1 227/11/1
f 225/11/1 227/11/1 228/11/1
f 229/11/10 230/11/10 231/11/10
f 229/11/10 231/11/10 232/11/10
f 233/11/9 234/11/9 235/11/9
f 233/11/9 235/11/9 236/11/9
f 237/12/17 238/12/17 239/12/17
f 237/12/17 239/12/17 240/12/17
f 241/11/18 242/11/18 243/11/18
f 241/11/18 243/11/18 244/11/18
f 245/11/10 246/11/10 247/11/10
f 245/11/10 247/11/10 248/11/10
f 249/11/9 250/11/9 251/11/9
f 249/11/9 251/11/9 252/11/9
f 253/12/19 254/12/19 255/12/19
f 253/12/19 255/12/19 256/12/19
f 257/11/20 258/11/20 259/11/20
f 257/11/20 259/11/20 260/11/20
f 261/11/10 262/11/10 263/11/10
f 261/11/10 263/11/10 264/11/10
f 265/11/9 266/11/9 267/11/9
f 265/11/9 267/11/9 268/11/9
f 269/11/21 270/11/21 271/11/21
f 269/11/21 271/11/21 272/11/21
f 273/11/22 274/11/22 275/11/22
f 273/11/22 275/11/22 276/11/22
f 277/11/9 278/11/9 279/11/9
f 277/11/9 279/11/9 280/11/9
f 281/11/10 282/11/10 283/11/10
f 281/11/10 283/11/10 284/11/10
f 285/11/2 286/11/2 287/11/2
f 285/11/2 287/11/2 288/11/2
f 289/11/8 290/11/8 291/11/8
f 289/11/8 291/11/8 292/11/8
f 293/12/5 294/12/5 295/12/5
f 293/12/5 295/12/5 296/12/5
f 297/11/9 298/11/9 299/11/9
f 297/11/9 299/11/9 300/11/9
f 301/11/2 302/11/2 303/11/2
f 301/11/2 303/11/2 304/11/2
f 305/11/8 306/11/8 307/11/8
f 305/11/8 307/11/8 308/11/8
f 309/11/10 310/11/10 311/11/10
f 309/11/10 311/11/10 312/11/10
f 313/11/1 314/11/1 315/11/1
f 313/11/1 315/11/1 316/11/1
f 317/12/5 318/12/5 319/12/5
f 317/12/5 319/12/5 320/12/5
f 321/11/9 322/11/9 323/11/9
f 321/11/9 323/11/9 324/11/9
f 325/11/2 326/11/2 320/11/2
f 325/11/2 320/11/2 319/11/2
f 327/11/8 328/11/8 318/11/8
f 327/11/8 318/11/8 317/11/8
f 329/11/10 330/11/10 331/11/10
f 329/11/10 331/11/10 332/11/10
f 327/11/1 326/11/1 325/11/1
f 327/11/1 325/11/1 328/11/1
f 333/12/5 334/12/5 335/12/5
f 333/12/5 335/12/5 336/12/5
f 337/11/9 338/11/9 339/11/9
f 337/11/9 339/11/9 340/11/9
f 341/11/2 342/11/2 336/11/2
f 341/11/2 336/11/2 335/11/2
f 343/11/8 344/11/8 334/11/8
f 343/11/8 334/11/8 333/11/8
f 345/11/10 346/11/10 347/11/10
f 345/11/10 347/11/10 348/11/10
f 343/11/1 342/11/1 341/11/1
f 343/11/1 341/11/1 344/11/1
f 349/12/5 350/12/5 351/12/5
f 349/12/5 351/12/5 352/12/5
f 353/11/9 354/11/9 355/11/9
f 353/11/9 355/11/9 356/11/9
f 357/11/2 358/11/2 359/11/2
f 357/11/2 359/11/2 360/11/2
f 361/11/8 362/11/8 363/11/8
f 361/11/8 363/11/8 364/11/8
f 365/11/10 366/11/10 367/11/10
f 365/11/10 367/11/10 368/11/10
f 369/11/1 370/11/1 371/11/1
f 369/11/1 371/11/1 372/11/1
f 373/12/5 374/12/5 375/12/5
f 373/12/5 375/12/5 376/12/5
f 377/11/9 378/11/9 379/11/9
f 377/11/9 379/11/9 380/11/9
f 381/11/2 382/11/2 383/11/2
f 381/11/2 383/11/2 384/11/2
f 385/11/8 386/11/8 387/11/8
f 385/11/8 387/11/8 388/11/8
f 389/11/10 390/11/10 391/11/10
f 389/11/10 391/11/10 392/11/10
f 393/11/1 394/11/1 395/11/1
f 393/11/1 395/11/1 396/11/1
f 397/12/5 398/12/5 399/12/5
f 397/12/5 399/12/5 400/12/5
f 401/11/9 402/11/9 403/11/9
f 401/11/9 403/11/9 404/11/9
f 405/11/2 406/11/2 400/11/2
f 405/11/2 400/11/2 399/11/2
f 407/11/8 408/11/8 398/11/8
f 407/11/8 398/11/8 397/11/8
f 409/11/10 410/11/10 411/11/10
f 409/11/10 411/11/10 412/11/10
f 407/11/1 406/11/1 405/11/1
f 407/11/1 405/11/1 408/11/1
f 413/12/5 414/12/5 415/12/5
f 413/12/5 415/12/5 416/12/5
f 417/11/9 418/11/9 419/11/9
f 417/11/9 419/11/9 420/11/9
f 421/11/2 422/11/2 416/11/2
f 421/11/2 416/11/2 415/11/2
f 423/11/8 424/11/8 414/11/8
f 423/11/8 414/11/8 413/11/8
f 425/11/10 426/11/10 427/11/10
f 425/11/10 427/11/10 428/11/10
f 423/11/1 422/11/1 421/11/1
f 423/11/1 421/11/1 424/11/1
f 429/12/5 430/12/5 431/12/5
f 429/12/5 431/12/5 432/12/5
f 433/11/9 434/11/9 435/11/9
f 433/11/9 435/11/9 436/11/9
f 437/11/2 438/11/2 439/11/2
f 437/11/2 439/11/2 440/11/2
f 441/11/8 442/11/8 443/11/8
f 441/11/8 443/11/8 444/11/8
f 445/11/10 446/11/10 447/11/10
f 445/11/10 447/11/10 448/11/10
f 449/11/1 450/11/1 451/11/1
f 449/11/1 451/11/1 452/11/1
f 453/11/9 454/11/9 455/11/9
f 453/11/9 455/11/9 456/11/9
f 457/11/10 458/11/10 459/11/10
f 457/11/10 459/11/10 460/11/10
f 456/11/8 457/11/8 460/11/8
f 456/11/8 460/11/8 453/11/8
f 454/11/2 459/11/2 458/11/2
f 454/11/2 458/11/2 455/11/2
f 461/11/10 462/11/10 463/11/10
f 461/11/10 463/11/10 464/11/10
f 465/11/9 466/11/9 467/11/9
f 465/11/9 467/11/9 468/11/9
f 469/11/11 470/11/11 471/11/11
f 469/11/11 471/11/11 472/11/11
f 473/11/12 474/11/12 475/11/12
f 473/11/12 475/11/12 476/11/12
f 477/11/10 478/11/10 479/11/10
f 477/11/10 479/11/10 480/11/10
f 481/11/9 482/11/9 483/11/9
f 481/11/9 483/11/9 484/11/9
f 485/12/13 486/12/13 487/12/13
f 485/12/13 487/12/13 488/12/13
f 489/11/14 490/11/14 491/11/14
f 489/11/14 491/11/14 492/11/14
f 493/11/10 494/11/10 495/11/10
f 493/11/10 495/11/10 496/11/10
f 497/11/9 498/11/9 499/11/9
f 497/11/9 499/11/9 500/11/9
f 501/12/15 502/12/15 503/12/15
f 501/12/15 503/12/15 504/12/15
f 505/11/16 506/11/16 507/11/16
f 505/11/16 507/11/16 508/11/16
f 509/11/10 510/11/10 511/11/10
f 509/11/10 511/11/10 512/11/10
f 513/11/9 514/11/9 515/11/9
f 513/11/9 515/11/9 516/11/9
f 517/12/5 518/12/5 519/12/5
f 517/12/5 519/12/5 520/12/5
f 521/11/1 522/11/1 523/11/1
f 521/11/1 523/11/1 524/11/1
f 525/11/10 526/11/10 527/11/10
f 525/11/10 527/11/10 528/11/10
f 529/11/9 530/11/9 531/11/9
f 529/11/9 531/11/9 532/11/9
f 533/12/17 534/12/17 535/12/17
f 533/12/17 535/12/17 536/12/17
f 537/11/18 538/11/18 539/11/18
f 537/11/18 539/11/18 540/11/18
f 541/11/10 542/11/10 543/11/10
f 541/11/10 543/11/10 544/11/10
f 545/11/9 546/11/9 547/11/9
f 545/11/9 547/11/9 548/11/9
f 549/12/19 550/12/19 551/12/19
f 549/12/19 551/12/19 552/12/19
f 553/11/20 554/11/20 555/11/20
f 553/11/20 555/11/20 556/11/20
f 557/11/10 558/11/10 559/11/10
f 557/11/10 559/11/10 560/11/10
f 561/11/9 562/11/9 563/11/9
f 561/11/9 563/11/9 564/11/9
f 565/11/21 566/11/21 567/11/21
f 565/11/21 567/11/21 568/11/21
f 569/11/22 570/11/22 571/11/22
f 569/11/22 571/11/22 572/11/22
f 573/11/9 574/11/9 575/11/9
f 573/11/9 575/11/9 576/11/9
f 577/11/10 578/11/10 579/11/10
f 577/11/10 579/11/10 580/11/10
f 581/11/2 582/11/2 583/11/2
f 581/11/2 583/11/2 584/11/2
f 585/11/8 586/11/8 587/11/8
f 585/11/8 587/11/8 588/11/8
f 589/12/5 590/12/5 591/12/5
f 589/12/5 591/12/5 592/12/5
f 593/11/9 594/11/9 595/11/9
f 593/11/9 595/11/9 596/11/9
f 597/11/2 598/11/2 599/11/2
f 597/11/2 599/11/2 600/11/2
f 601/11/8 602/11/8 603/11/8
f 601/11/8 603/11/8 604/11/8
f 605/11/10 606/11/10 607/11/10
f 605/11/10 607/11/10 608/11/10
f 609/11/1 610/11/1 611/11/1
f 609/11/1 611/11/1 612/11/1
f 613/12/5 614/12/5 615/12/5
f 613/12/5 615/12/5 616/12/5
f 617/11/9 618/11/9 619/11/9
f 617/11/9 619/11/9 620/11/9
f 621/11/2 622/11/2 616/11/2
f 621/11/2 616/11/2 615/11/2
f 623/11/8 624/11/8 614/11/8
f 623/11/8 614/11/8 613/11/8
f 625/11/10 626/11/10 627/11/10
f 625/11/10 627/11/10 628/11/10
f 623/11/1 622/11/1 621/11/1
f 623/11/1 621/11/1 624/11/1
f 629/12/5 630/12/5 631/12/5
f 629/12/5 631/12/5 632/12/5
f 633/11/9 634/11/9 635/11/9
f 633/11/9 635/11/9 636/11/9
f 637/11/2 638/11/2 632/11/2
f 637/11/2 632/11/2 631/11/2
f 639/11/8 640/11/8 630/11/8
f 639/11/8 630/11/8 629/11/8
f 641/11/10 642/11/10 643/11/10
f 641/11/10 643/11/10 644/11/10
f 639/11/1 638/11/1 637/11/1
f 639/11/1 637/11/1 640/11/1
f 645/12/5 646/12/5 647/12/5
f 645/12/5 647/12/5 648/12/5
f 649/11/9 650/11/9 651/11/9
f 649/11/9 651/11/9 652/11/9
f 653/11/2 654/11/2 655/11/2
f 653/11/2 655/11/2 656/11/2
f 657/11/8 658/11/8 659/11/8
f 657/11/8 659/11/8 660/11/8
f 661/11/10 662/11/10 663/11/10
f 661/11/10 663/11/10 664/11/10
f 665/11/1 666/11/1 667/11/1
f 665/11/1 667/11/1 668/11/1
f 669/12/5 670/12/5 671/12/5
f 669/12/5 671/12/5 672/12/5
f 673/11/9 674/11/9 675/11/9
f 673/11/9 675/11/9 676/11/9
f 677/11/2 678/11/2 679/11/2
f 677/11/2 679/11/2 680/11/2
f 681/11/8 682/11/8 683/11/8
f 681/11/8 683/11/8 684/11/8
f 685/11/10 686/11/10 687/11/10
f 685/11/10 687/11/10 688/11/10
f 689/11/1 690/11/1 691/11/1
f 689/11/1 691/11/1 692/11/1
f 693/12/5 694/12/5 695/12/5
f 693/12/5 695/12/5 696/12/5
f 697/11/9 698/11/9 699/11/9
f 697/11/9 699/11/9 700/11/9
f 701/11/2 702/11/2 696/11/2
f 701/11/2 696/11/2 695/11/2
f 703/11/8 704/11/8 694/11/8
f 703/11/8 694/11/8 693/11/8
f 705/11/10 706/11/10 707/11/10
f 705/11/10 707/11/10 708/11/10
f 703/11/1 702/11/1 701/11/1
f 703/11/1 701/11/1 704/11/1
f 709/12/5 710/12/5 711/12/5
f 709/12/5 711/12/5 712/12/5
f 713/11/9 714/11/9 715/11/9
f 713/11/9 715/11/9 716/11/9
f 717/11/2 718/11/2 712/11/2
f 717/11/2 712/11/2 711/11/2
f 719/11/8 720/11/8 710/11/8
f 719/11/8 710/11/8 709/11/8
f 721/11/10 722/11/10 723/11/10
f 721/11/10 723/11/10 724/11/10
f 719/11/1 718/11/1 717/11/1
f 719/11/1 717/11/1 720/11/1
f 725/12/5 726/12/5 727/12/5
f 725/12/5 727/12/5 728/12/5
f 729/11/9 730/11/9 731/11/9
f 729/11/9 731/11/9 732/11/9
f 733/11/2 734/11/2 735/11/2
f 733/11/2 735/11/2 736/11/2
f 737/11/8 738/11/8 739/11/8
f 737/11/8 739/11/8 740/11/8
f 741/11/10 742/11/10 743/11/10
f 741/11/10 743/11/10 744/11/10
f 745/11/1 746/11/1 747/11/1
f 745/11/1 747/11/1 748/11/1
f 749/11/8 750/11/8 751/11/8
f 749/11/8 751/11/8 752/11/8
f 753/11/2 754/11/2 755/11/2
f 753/11/2 755/11/2 756/11/2
f 757/12/5 758/12/5 759/12/5
f 757/12/5 759/12/5 760/12/5
f 761/11/1 762/11/1 763/11/1
f 761/11/1 763/11/1 764/11/1
f 765/11/8 766/11/8 767/11/8
f 765/11/8 767/11/8 768/11/8
f 769/11/2 770/11/2 771/11/2
f 769/11/2 771/11/2 772/11/2
f 768/12/5 769/12/5 772/12/5
f 768/12/5 772/12/5 765/12/5
f 766/11/1 771/11/1 770/11/1
f 766/11/1 770/11/1 767/11/1
f 773/11/8 774/11/8 775/11/8
f 773/11/8 775/11/8 776/11/8
f 777/11/2 778/11/2 779/11/2
f 777/11/2 779/11/2 780/11/2
f 781/12/5 782/12/5 783/12/5
f 781/12/5 783/12/5 784/12/5
f 785/11/1 786/11/1 787/11/1
f 785/11/1 787/11/1 788/11/1
f 789/11/8 790/11/8 791/11/8
f 789/11/8 791/11/8 792/11/8
f 793/11/2 794/11/2 795/11/2
f 793/11/2 795/11/2 796/11/2
f 792/12/5 793/12/5 796/12/5
f 792/12/5 796/12/5 789/12/5
f 790/11/1 795/11/1 794/11/1
f 790/11/1 794/11/1 791/11/1
f 797/13/5 798/13/5 799/13/5
f 797/13/5 799/13/5 800/13/5
f 801/14/9 802/14/9 799/14/9
f 801/14/9 799/14/9 798/14/9
f 802/14/2 803/14/2 800/14/2
f 802/14/2 800/14/2 799/14/2
f 804/14/8 801/14/8 798/14/8
f 804/14/8 798/14/8 797/14/8
f 805/14/10 806/14/10 807/14/10
f 805/14/10 807/14/10 808/14/10
f 804/14/1 803/14/1 802/14/1
f 804/14/1 802/14/1 801/14/1
f 809/15/5 810/15/5 811/15/5
f 809/15/5 811/15/5 812/15/5
f 813/16/9 814/16/9 815/16/9
f 813/16/9 815/16/9 816/16/9
f 814/16/2 817/16/2 818/16/2
f 814/16/2 818/16/2 815/16/2
f 819/16/8 813/16/8 816/16/8
f 819/16/8 816/16/8 820/16/8
f 817/16/10 819/16/10 820/16/10
f 817/16/10 820/16/10 818/16/10
f 819/16/1 817/16/1 814/16/1
f 819/16/1 814/16/1 813/16/1
f 821/17/23 822/17/23 823/17/23
f 821/17/23 823/17/23 824/17/23
f 822/17/24 825/17/24 826/17/24
f 822/17/24 826/17/24 823/17/24
f 825/17/25 827/17/25 828/17/25
f 825/17/25 828/17/25 826/17/25
f 827/17/26 829/17/26 830/17/26
f 827/17/26 830/17/26 828/17/26
f 829/17/27 831/17/27 832/17/27
f 829/17/27 832/17/27 830/17/27
f 831/17/28 833/17/28 834/17/28
f 831/17/28 834/17/28 832/17/28
f 833/17/29 835/17/29 836/17/29
f 833/17/29 836/17/29 834/17/29
f 835/17/30 837/17/30 838/17/30
f 835/17/30 838/17/30 836/17/30
f 837/17/31 839/17/31 840/17/31
f 837/17/31 840/17/31 838/17/31
f 839/17/32 841/17/32 842/17/32
f 839/17/32 842/17/32 840/17/32
f 841/17/33 843/17/33 844/17/33
f 841/17/33 844/17/33 842/17/33
f 843/17/34 821/17/34 824/17/34
f 843/17/34 824/17/34 844/17/34
f 824/17/5 823/17/5 826/17/5
f 824/17/5 826/17/5 828/17/5
f 824/17/5 828/17/5 830/17/5
f 824/17/5 830/17/5 832/17/5
f 824/17/5 832/17/5 834/17/5
f 824/17/5 834/17/5 836/17/5
f 824/17/5 836/17/5 838/17/5
f 824/17/5 838/17/5 840/17/5
f 824/17/5 840/17/5 842/17/5
f 824/17/5 842/17/5 844/17/5
f 845/17/1 846/17/1 847/17/1
f 845/17/1 847/17/1 848/17/1
f 845/17/1 848/17/1 849/17/1
f 845/17/1 849/17/1 850/17/1
f 845/17/1 850/17/1 851/17/1
f 845/17/1 851/17/1 852/17/1
f 845/17/1 852/17/1 853/17/1
f 845/17/1 853/17/1 854/17/1
f 845/17/1 854/17/1 855/17/1
f 845/17/1 855/17/1 856/17/1
f 857/18/35 858/18/35 859/18/35
f 857/18/35 859/18/35 860/18/35
f 858/18/36 861/18/36 862/18/36
f 858/18/36 862/18/36 859/18/36
f 861/18/2 863/18/2 864/18/2
f 861/18/2 864/18/2 862/18/2
f 863/18/37 865/18/37 866/18/37
f 863/18/37 866/18/37 864/18/37
f 865/18/38 867/18/38 868/18/38
f 865/18/38 868/18/38 866/18/38
f 867/18/10 869/18/10 870/18/10
f 867/18/10 870/18/10 868/18/10
f 869/18/39 871/18/39 872/18/39
f 869/18/39 872/18/39 870/18/39
f 871/18/40 873/18/40 874/18/40
f 871/18/40 874/18/40 872/18/40
f 873/18/8 875/18/8 876/18/8
f 873/18/8 876/18/8 874/18/8
f 875/18/41 877/18/41 878/18/41
f 875/18/41 878/18/41 876/18/41
f 877/18/42 879/18/42 880/18/42
f 877/18/42 880/18/42 878/18/42
f 879/18/9 857/18/9 860/18/9
f 879/18/9 860/18/9 880/18/9
f 860/19/5 859/19/5 862/19/5
f 860/19/5 862/19/5 864/19/5
f 860/19/5 864/19/5 866/19/5
f 860/19/5 866/19/5 868/19/5
f 860/19/5 868/19/5 870/19/5
f 860/19/5 870/19/5 872/19/5
f 860/19/5 872/19/5 874/19/5
f 860/19/5 874/19/5 876/19/5
f 860/19/5 876/19/5 878/19/5
f 860/19/5 878/19/5 880/19/5
f 881/19/1 882/19/1 883/19/1
f 881/19/1 883/19/1 884/19/1
f 881/19/1 884/19/1 885/19/1
f 881/19/1 885/19/1 886/19/1
f 881/19/1 886/19/1 887/19/1
f 881/19/1 887/19/1 888/19/1
f 881/19/1 888/19/1 889/19/1
f 881/19/1 889/19/1 890/19/1
f 881/19/1 890/19/1 891/19/1
f 881/19/1 891/19/1 892/19/1
f 893/20/35 894/20/35 895/20/35
f 893/20/35 895/20/35 896/20/35
f 894/20/36 897/20/36 898/20/36
f 894/20/36 898/20/36 895/20/36
f 897/20/2 899/20/2 900/20/2
f 897/20/2 900/20/2 898/20/2
f 899/20/37 901/20/37 902/20/37
f 899/20/37 902/20/37 900/20/37
f 901/20/38 903/20/38 904/20/38
f 901/20/38 904/20/38 902/20/38
f 903/20/10 905/20/10 906/20/10
f 903/20/10 906/20/10 904/20/10
f 905/20/39 907/20/39 908/20/39
f 905/20/39 908/20/39 906/20/39
f 907/20/40 909/20/40 910/20/40
f 907/20/40 910/20/40 908/20/40
f 909/20/8 911/20/8 912/20/8
f 909/20/8 912/20/8 910/20/8
f 911/20/41 913/20/41 914/20/41
f 911/20/41 914/20/41 912/20/41
f 913/20/42 915/20/42 916/20/42
f 913/20/42 916/20/42 914/20/42
f 915/20/9 893/20/9 896/20/9
f 915/20/9 896/20/9 916/20/9
f 896/21/5 895/21/5 898/21/5
f 896/21/5 898/21/5 900/21/5
f 896/21/5 900/21/5 902/21/5
f 896/21/5 902/21/5 904/21/5
f 896/21/5 904/21/5 906/21/5
f 896/21/5 906/21/5 908/21/5
f 896/21/5 908/21/5 910/21/5
f 896/21/5 910/21/5 912/21/5
f 896/21/5 912/21/5 914/21/5
f 896/21/5 914/21/5 916/21/5
f 917/21/1 918/21/1 919/21/1
f 917/21/1 919/21/1 920/21/1
f 917/21/1 920/21/1 921/21/1
f 917/21/1 921/21/1 922/21/1
f 917/21/1 922/21/1 923/21/1
f 917/21/1 923/21/1 924/21/1
f 917/21/1 924/21/1 925/21/1
f 917/21/1 925/21/1 926/21/1
f 917/21/1 926/21/1 927/21/1
f 917/21/1 927/21/1 928/21/1
f 929/20/35 930/20/35 931/20/35
f 929/20/35 931/20/35 932/20/35
f 930/20/36 933/20/36 934/20/36
f 930/20/36 934/20/36 931/20/36
f 933/20/2 935/20/2 936/20/2
f 933/20/2 936/20/2 934/20/2
f 935/20/37 937/20/37 938/20/37
f 935/20/37 938/20/37 936/20/37
f 937/20/38 939/20/38 940/20/38
f 937/20/38 940/20/38 938/20/38
f 939/20/10 941/20/10 942/20/10
f 939/20/10 942/20/10 940/20/10
f 941/20/39 943/20/39 944/20/39
f 941/20/39 944/20/39 942/20/39
f 943/20/40 945/20/40 946/20/40
f 943/20/40 946/20/40 944/20/40
f 945/20/8 947/20/8 948/20/8
f 945/20/8 948/20/8 946/20/8
f 947/20/41 949/20/41 950/20/41
f 947/20/41 950/20/41 948/20/41
f 949/20/42 951/20/42 952/20/42
f 949/20/42 952/20/42 950/20/42
f 951/20/9 929/20/9 932/20/9
f 951/20/9 932/20/9 952/20/9
f 932/21/5 931/21/5 934/21/5
f 932/21/5 934/21/5 936/21/5
f 932/21/5 936/21/5 938/21/5
f 932/21/5 938/21/5 940/21/5
f 932/21/5 940/21/5 942/21/5
f 932/21/5 942/21/5 944/21/5
f 932/21/5 944/21/5 946/21/5
f 932/21/5 946/21/5 948/21/5
f 932/21/5 948/21/5 950/21/5
f 932/21/5 950/21/5 952/21/5
f 953/21/1 954/21/1 955/21/1
f 953/21/1 955/21/1 956/21/1
f 953/21/1 956/21/1 957/21/1
f 953/21/1 957/21/1 958/21/1
f 953/21/1 958/21/1 959/21/1
f 953/21/1 959/21/1 960/21/1
f 953/21/1 960/21/1 961/21/1
f 953/21/1 961/21/1 962/21/1
f 953/21/1 962/21/1 963/21/1
f 953/21/1 963/21/1 964/21/1
f 965/22/5 966/22/5 967/22/5
f 965/22/5 967/22/5 968/22/5
f 965/22/5 968/22/5 969/22/5
f 965/22/5 969/22/5 970/22/5
f 965/22/5 970/22/5 971/22/5
f 965/22/5 971/22/5 972/22/5
