# Off-Grid backup_ground_premium_off_W for Project Viewpoint. Z up, tile units, x east, y south. Generated by tools/build_viewpoint.py.
mtllib offgrid.mtl
o backup_ground_premium_off_W
usemtl offgrid
v 0.122 -0.2825 0.03
v -0.188 -0.2825 0.03
v -0.188 0.2475 0.03
v 0.122 0.2475 0.03
v -0.188 -0.2825 0.48
v -0.188 0.2475 0.48
v -0.143 -0.2825 0.568
v -0.143 0.2475 0.568
v -0.088 -0.2825 0.58
v -0.088 0.2475 0.58
v 0.022 -0.2825 0.58
v 0.022 0.2475 0.58
v 0.077 -0.2825 0.568
v 0.077 0.2475 0.568
v 0.122 -0.2825 0.48
v 0.122 0.2475 0.48
v -0.178 -0.2725 0.0315
v 0.112 -0.2725 0.0315
v 0.112 0.2375 0.0315
v -0.178 0.2375 0.0315
v 0.112 -0.2725 0
v 0.112 0.2375 0
v 0.112 0.2375 0.03
v 0.112 -0.2725 0.03
v -0.178 0.2375 0
v -0.178 0.2375 0.03
v -0.178 -0.2725 0
v -0.178 -0.2725 0.03
v -0.193 -0.2875 0.44
v 0.127 -0.2875 0.44
v 0.127 0.2525 0.44
v -0.193 0.2525 0.44
v 0.127 -0.2875 0.405
v 0.127 0.2525 0.405
v -0.193 0.2525 0.405
v -0.193 -0.2875 0.405
v -0.19 -0.2525 0.23
v -0.19 0.2175 0.23
v -0.19 0.2175 0.05
v -0.19 -0.2525 0.05
v -0.192 -0.2125 0.18
v -0.192 -0.1625 0.18
v -0.192 -0.1625 0.11
v -0.192 -0.2125 0.11
v -0.192 -0.1225 0.18
v -0.192 -0.0725 0.18
v -0.192 -0.0725 0.11
v -0.192 -0.1225 0.11
v -0.192 -0.0325 0.18
v -0.192 0.0175 0.18
v -0.192 0.0175 0.11
v -0.192 -0.0325 0.11
v -0.192 0.0575 0.18
v -0.192 0.1075 0.18
v -0.192 0.1075 0.11
v -0.192 0.0575 0.11
v -0.19 -0.2325 0.39
v -0.19 -0.0425 0.39
v -0.19 -0.0425 0.25
v -0.19 -0.2325 0.25
v -0.192 -0.2205 0.378
v -0.192 -0.0545 0.378
v -0.192 -0.0545 0.262
v -0.192 -0.2205 0.262
v -0.194 -0.2205 0.378
v -0.194 -0.0545 0.378
v -0.194 -0.0545 0.3362
v -0.194 -0.2205 0.3362
v -0.194 -0.2085 0.3142
v -0.194 -0.0665 0.3142
v -0.194 -0.0665 0.3022
v -0.194 -0.2085 0.3022
v -0.194 -0.2085 0.2875
v -0.194 -0.1162 0.2875
v -0.194 -0.1162 0.2755
v -0.194 -0.2085 0.2755
v 0.124 -0.2525 0.05
v 0.124 0.2175 0.05
v 0.124 0.2175 0.23
v 0.124 -0.2525 0.23
v 0.126 -0.2125 0.11
v 0.126 -0.1625 0.11
v 0.126 -0.1625 0.18
v 0.126 -0.2125 0.18
v 0.126 -0.1225 0.11
v 0.126 -0.0725 0.11
v 0.126 -0.0725 0.18
v 0.126 -0.1225 0.18
v 0.126 -0.0325 0.11
v 0.126 0.0175 0.11
v 0.126 0.0175 0.18
v 0.126 -0.0325 0.18
v 0.126 0.0575 0.11
v 0.126 0.1075 0.11
v 0.126 0.1075 0.18
v 0.126 0.0575 0.18
v 0.124 -0.2325 0.25
v 0.124 -0.0425 0.25
v 0.124 -0.0425 0.39
v 0.124 -0.2325 0.39
v 0.126 -0.2205 0.262
v 0.126 -0.0545 0.262
v 0.126 -0.0545 0.378
v 0.126 -0.2205 0.378
v 0.128 -0.2205 0.3362
v 0.128 -0.0545 0.3362
v 0.128 -0.0545 0.378
v 0.128 -0.2205 0.378
v 0.128 -0.2085 0.3022
v 0.128 -0.0665 0.3022
v 0.128 -0.0665 0.3142
v 0.128 -0.2085 0.3142
v 0.128 -0.2085 0.2755
v 0.128 -0.1162 0.2755
v 0.128 -0.1162 0.2875
v 0.128 -0.2085 0.2875
v -0.158 0.2495 0.27
v 0.092 0.2495 0.27
v 0.092 0.2495 0.05
v -0.158 0.2495 0.05
v -0.138 0.2515 0.24
v 0.072 0.2515 0.24
v 0.072 0.2515 0.22
v -0.138 0.2515 0.22
v -0.138 0.2515 0.19
v 0.072 0.2515 0.19
v 0.072 0.2515 0.17
v -0.138 0.2515 0.17
v -0.138 0.2515 0.14
v 0.072 0.2515 0.14
v 0.072 0.2515 0.12
v -0.138 0.2515 0.12
v -0.138 0.2515 0.09
v 0.072 0.2515 0.09
v 0.072 0.2515 0.07
v -0.138 0.2515 0.07
v -0.158 -0.2845 0.05
v 0.092 -0.2845 0.05
v 0.092 -0.2845 0.27
v -0.158 -0.2845 0.27
v -0.138 -0.2865 0.22
v 0.072 -0.2865 0.22
v 0.072 -0.2865 0.24
v -0.138 -0.2865 0.24
v -0.138 -0.2865 0.17
v 0.072 -0.2865 0.17
v 0.072 -0.2865 0.19
v -0.138 -0.2865 0.19
v -0.138 -0.2865 0.12
v 0.072 -0.2865 0.12
v 0.072 -0.2865 0.14
v -0.138 -0.2865 0.14
v -0.138 -0.2865 0.07
v 0.072 -0.2865 0.07
v 0.072 -0.2865 0.09
v -0.138 -0.2865 0.09
v -0.186 -0.2855 0
v -0.22 -0.2855 0
v -0.22 -0.2855 0.45
v -0.186 -0.2855 0.45
v -0.186 -0.3195 0.45
v -0.22 -0.3195 0.45
v -0.22 -0.3195 0
v -0.186 -0.3195 0
v -0.2194 -0.3195 0.4544
v -0.1866 -0.3195 0.4456
v -0.1665 -0.3195 0.5206
v -0.1993 -0.3195 0.5294
v -0.1993 -0.284 0.5294
v -0.1665 -0.284 0.5206
v -0.1866 -0.284 0.4456
v -0.2194 -0.284 0.4544
v -0.1993 -0.2855 0.5294
v -0.2194 -0.2855 0.4544
v -0.1866 -0.2855 0.4456
v -0.1665 -0.2855 0.5206
v -0.1949 -0.3195 0.537
v -0.1709 -0.3195 0.513
v -0.116 -0.3195 0.5679
v -0.14 -0.3195 0.5919
v -0.14 -0.2825 0.5919
v -0.116 -0.2825 0.5679
v -0.1709 -0.2825 0.513
v -0.1949 -0.2825 0.537
v -0.14 -0.2855 0.5919
v -0.1949 -0.2855 0.537
v -0.1709 -0.2855 0.513
v -0.116 -0.2855 0.5679
v -0.1324 -0.321 0.5963
v -0.1236 -0.321 0.5635
v -0.0486 -0.321 0.5836
v -0.0574 -0.321 0.6164
v -0.0574 -0.281 0.6164
v -0.0486 -0.281 0.5836
v -0.1236 -0.281 0.5635
v -0.1324 -0.281 0.5963
v -0.0574 -0.3195 0.6164
v -0.0574 -0.2855 0.6164
v -0.1324 -0.2855 0.5963
v -0.1324 -0.3195 0.5963
v -0.1236 -0.3195 0.5635
v -0.1236 -0.2855 0.5635
v -0.0486 -0.2855 0.5836
v -0.0486 -0.3195 0.5836
v -0.053 -0.3225 0.617
v -0.053 -0.3225 0.583
v -0.013 -0.3225 0.583
v -0.013 -0.3225 0.617
v -0.013 -0.2795 0.617
v -0.013 -0.2795 0.583
v -0.053 -0.2795 0.583
v -0.053 -0.2795 0.617
v -0.013 -0.3195 0.617
v -0.013 -0.2855 0.617
v -0.053 -0.2855 0.617
v -0.053 -0.3195 0.617
v -0.053 -0.3195 0.583
v -0.053 -0.2855 0.583
v -0.013 -0.2855 0.583
v -0.013 -0.3195 0.583
v -0.0086 -0.324 0.6164
v -0.0174 -0.324 0.5836
v 0.0576 -0.324 0.5635
v 0.0664 -0.324 0.5963
v 0.0664 -0.278 0.5963
v 0.0576 -0.278 0.5635
v -0.0174 -0.278 0.5836
v -0.0086 -0.278 0.6164
v 0.0664 -0.3195 0.5963
v 0.0664 -0.2855 0.5963
v -0.0086 -0.2855 0.6164
v -0.0086 -0.3195 0.6164
v -0.0174 -0.3195 0.5836
v -0.0174 -0.2855 0.5836
v 0.0576 -0.2855 0.5635
v 0.0576 -0.3195 0.5635
v 0.074 -0.3255 0.5919
v 0.05 -0.3255 0.5679
v 0.1049 -0.3255 0.513
v 0.1289 -0.3255 0.537
v 0.1289 -0.2765 0.537
v 0.1049 -0.2765 0.513
v 0.05 -0.2765 0.5679
v 0.074 -0.2765 0.5919
v 0.1289 -0.3195 0.537
v 0.1289 -0.2855 0.537
v 0.074 -0.2855 0.5919
v 0.074 -0.3195 0.5919
v 0.05 -0.3195 0.5679
v 0.05 -0.2855 0.5679
v 0.1049 -0.2855 0.513
v 0.1049 -0.3195 0.513
v 0.1333 -0.327 0.5294
v 0.1005 -0.327 0.5206
v 0.1206 -0.327 0.4456
v 0.1534 -0.327 0.4544
v 0.1534 -0.275 0.4544
v 0.1206 -0.275 0.4456
v 0.1005 -0.275 0.5206
v 0.1333 -0.275 0.5294
v 0.1534 -0.3195 0.4544
v 0.1534 -0.2855 0.4544
v 0.1333 -0.2855 0.5294
v 0.1333 -0.3195 0.5294
v 0.1005 -0.3195 0.5206
v 0.1005 -0.2855 0.5206
v 0.1206 -0.2855 0.4456
v 0.1206 -0.3195 0.4456
v 0.12 -0.2735 0.45
v 0.154 -0.2735 0.45
v 0.154 -0.2735 0
v 0.12 -0.2735 0
v 0.12 -0.3285 0
v 0.154 -0.3285 0
v 0.154 -0.3285 0.45
v 0.12 -0.3285 0.45
v 0.12 -0.2855 0
v 0.12 -0.3195 0
v 0.12 -0.3195 0.45
v 0.12 -0.2855 0.45
v 0.154 -0.2855 0.45
v 0.154 -0.3195 0.45
v 0.154 -0.3195 0
v 0.154 -0.2855 0
v -0.22 -0.3195 0.467
v -0.186 -0.3195 0.467
v -0.186 -0.2855 0.467
v -0.22 -0.2855 0.467
v -0.1845 -0.3195 0.433
v -0.1845 -0.2855 0.433
v -0.1845 -0.2855 0.467
v -0.1845 -0.3195 0.467
v -0.186 -0.2825 0.433
v -0.22 -0.2825 0.433
v -0.22 -0.2825 0.467
v -0.186 -0.2825 0.467
v -0.22 -0.321 0.433
v -0.186 -0.321 0.433
v -0.186 -0.321 0.467
v -0.22 -0.321 0.467
v -0.2215 -0.2855 0.433
v -0.2215 -0.3195 0.433
v -0.2215 -0.3195 0.467
v -0.2215 -0.2855 0.467
v -0.22 -0.3195 0.433
v -0.22 -0.2855 0.433
v -0.186 -0.2855 0.433
v -0.186 -0.3195 0.433
v -0.1999 -0.3195 0.542
v -0.1659 -0.3195 0.542
v -0.1659 -0.2855 0.542
v -0.1999 -0.2855 0.542
v -0.1659 -0.3195 0.508
v -0.1659 -0.2855 0.508
v -0.1659 -0.281 0.508
v -0.1999 -0.281 0.508
v -0.1999 -0.281 0.542
v -0.1659 -0.281 0.542
v -0.1999 -0.321 0.508
v -0.1659 -0.321 0.508
v -0.1659 -0.321 0.542
v -0.1999 -0.321 0.542
v -0.1999 -0.2855 0.508
v -0.1999 -0.3195 0.508
v -0.145 -0.3195 0.5969
v -0.111 -0.3195 0.5969
v -0.111 -0.2855 0.5969
v -0.145 -0.2855 0.5969
v -0.111 -0.3195 0.5629
v -0.111 -0.2855 0.5629
v -0.111 -0.2795 0.5629
v -0.145 -0.2795 0.5629
v -0.145 -0.2795 0.5969
v -0.111 -0.2795 0.5969
v -0.145 -0.3225 0.5629
v -0.111 -0.3225 0.5629
v -0.111 -0.3225 0.5969
v -0.145 -0.3225 0.5969
v -0.145 -0.2855 0.5629
v -0.145 -0.3195 0.5629
v -0.07 -0.3195 0.6185
v -0.036 -0.3195 0.6185
v -0.036 -0.2855 0.6185
v -0.07 -0.2855 0.6185
v -0.036 -0.3195 0.583
v -0.036 -0.2855 0.583
v -0.036 -0.2855 0.617
v -0.036 -0.3195 0.617
v -0.036 -0.278 0.583
v -0.07 -0.278 0.583
v -0.07 -0.278 0.617
v -0.036 -0.278 0.617
v -0.07 -0.324 0.583
v -0.036 -0.324 0.583
v -0.036 -0.324 0.617
v -0.07 -0.324 0.617
v -0.07 -0.2855 0.583
v -0.07 -0.3195 0.583
v -0.07 -0.3195 0.617
v -0.07 -0.2855 0.617
v -0.07 -0.3195 0.5815
v -0.07 -0.2855 0.5815
v -0.036 -0.2855 0.5815
v -0.036 -0.3195 0.5815
v -0.03 -0.3195 0.6185
v 0.004 -0.3195 0.6185
v 0.004 -0.2855 0.6185
v -0.03 -0.2855 0.6185
v 0.004 -0.3195 0.583
v 0.004 -0.2855 0.583
v 0.004 -0.2855 0.617
v 0.004 -0.3195 0.617
v 0.004 -0.2765 0.583
v -0.03 -0.2765 0.583
v -0.03 -0.2765 0.617
v 0.004 -0.2765 0.617
v -0.03 -0.3255 0.583
v 0.004 -0.3255 0.583
v 0.004 -0.3255 0.617
v -0.03 -0.3255 0.617
v -0.03 -0.2855 0.583
v -0.03 -0.3195 0.583
v -0.03 -0.3195 0.617
v -0.03 -0.2855 0.617
v -0.03 -0.3195 0.5815
v -0.03 -0.2855 0.5815
v 0.004 -0.2855 0.5815
v 0.004 -0.3195 0.5815
v 0.045 -0.3195 0.5969
v 0.079 -0.3195 0.5969
v 0.079 -0.2855 0.5969
v 0.045 -0.2855 0.5969
v 0.079 -0.3195 0.5629
v 0.079 -0.2855 0.5629
v 0.079 -0.275 0.5629
v 0.045 -0.275 0.5629
v 0.045 -0.275 0.5969
v 0.079 -0.275 0.5969
v 0.045 -0.327 0.5629
v 0.079 -0.327 0.5629
v 0.079 -0.327 0.5969
v 0.045 -0.327 0.5969
v 0.045 -0.2855 0.5629
v 0.045 -0.3195 0.5629
v 0.0999 -0.3195 0.542
v 0.1339 -0.3195 0.542
v 0.1339 -0.2855 0.542
v 0.0999 -0.2855 0.542
v 0.1339 -0.3195 0.508
v 0.1339 -0.2855 0.508
v 0.1339 -0.2735 0.508
v 0.0999 -0.2735 0.508
v 0.0999 -0.2735 0.542
v 0.1339 -0.2735 0.542
v 0.0999 -0.3285 0.508
v 0.1339 -0.3285 0.508
v 0.1339 -0.3285 0.542
v 0.0999 -0.3285 0.542
v 0.0999 -0.2855 0.508
v 0.0999 -0.3195 0.508
v 0.12 -0.3195 0.467
v 0.154 -0.3195 0.467
v 0.154 -0.2855 0.467
v 0.12 -0.2855 0.467
v 0.1555 -0.3195 0.433
v 0.1555 -0.2855 0.433
v 0.1555 -0.2855 0.467
v 0.1555 -0.3195 0.467
v 0.154 -0.272 0.433
v 0.12 -0.272 0.433
v 0.12 -0.272 0.467
v 0.154 -0.272 0.467
v 0.12 -0.33 0.433
v 0.154 -0.33 0.433
v 0.154 -0.33 0.467
v 0.12 -0.33 0.467
v 0.1185 -0.2855 0.433
v 0.1185 -0.3195 0.433
v 0.1185 -0.3195 0.467
v 0.1185 -0.2855 0.467
v 0.12 -0.3195 0.433
v 0.12 -0.2855 0.433
v 0.154 -0.2855 0.433
v 0.154 -0.3195 0.433
v -0.186 0.2845 0
v -0.22 0.2845 0
v -0.22 0.2845 0.45
v -0.186 0.2845 0.45
v -0.186 0.2505 0.45
v -0.22 0.2505 0.45
v -0.22 0.2505 0
v -0.186 0.2505 0
v -0.2194 0.2505 0.4544
v -0.1866 0.2505 0.4456
v -0.1665 0.2505 0.5206
v -0.1993 0.2505 0.5294
v -0.1993 0.286 0.5294
v -0.1665 0.286 0.5206
v -0.1866 0.286 0.4456
v -0.2194 0.286 0.4544
v -0.1993 0.2845 0.5294
v -0.2194 0.2845 0.4544
v -0.1866 0.2845 0.4456
v -0.1665 0.2845 0.5206
v -0.1949 0.2505 0.537
v -0.1709 0.2505 0.513
v -0.116 0.2505 0.5679
v -0.14 0.2505 0.5919
v -0.14 0.2875 0.5919
v -0.116 0.2875 0.5679
v -0.1709 0.2875 0.513
v -0.1949 0.2875 0.537
v -0.14 0.2845 0.5919
v -0.1949 0.2845 0.537
v -0.1709 0.2845 0.513
v -0.116 0.2845 0.5679
v -0.1324 0.249 0.5963
v -0.1236 0.249 0.5635
v -0.0486 0.249 0.5836
v -0.0574 0.249 0.6164
v -0.0574 0.289 0.6164
v -0.0486 0.289 0.5836
v -0.1236 0.289 0.5635
v -0.1324 0.289 0.5963
v -0.0574 0.2505 0.6164
v -0.0574 0.2845 0.6164
v -0.1324 0.2845 0.5963
v -0.1324 0.2505 0.5963
v -0.1236 0.2505 0.5635
v -0.1236 0.2845 0.5635
v -0.0486 0.2845 0.5836
v -0.0486 0.2505 0.5836
v -0.053 0.2475 0.617
v -0.053 0.2475 0.583
v -0.013 0.2475 0.583
v -0.013 0.2475 0.617
v -0.013 0.2905 0.617
v -0.013 0.2905 0.583
v -0.053 0.2905 0.583
v -0.053 0.2905 0.617
v -0.013 0.2505 0.617
v -0.013 0.2845 0.617
v -0.053 0.2845 0.617
v -0.053 0.2505 0.617
v -0.053 0.2505 0.583
v -0.053 0.2845 0.583
v -0.013 0.2845 0.583
v -0.013 0.2505 0.583
v -0.0086 0.246 0.6164
v -0.0174 0.246 0.5836
v 0.0576 0.246 0.5635
v 0.0664 0.246 0.5963
v 0.0664 0.292 0.5963
v 0.0576 0.292 0.5635
v -0.0174 0.292 0.5836
v -0.0086 0.292 0.6164
v 0.0664 0.2505 0.5963
v 0.0664 0.2845 0.5963
v -0.0086 0.2845 0.6164
v -0.0086 0.2505 0.6164
v -0.0174 0.2505 0.5836
v -0.0174 0.2845 0.5836
v 0.0576 0.2845 0.5635
v 0.0576 0.2505 0.5635
v 0.074 0.2445 0.5919
v 0.05 0.2445 0.5679
v 0.1049 0.2445 0.513
v 0.1289 0.2445 0.537
v 0.1289 0.2935 0.537
v 0.1049 0.2935 0.513
v 0.05 0.2935 0.5679
v 0.074 0.2935 0.5919
v 0.1289 0.2505 0.537
v 0.1289 0.2845 0.537
v 0.074 0.2845 0.5919
v 0.074 0.2505 0.5919
v 0.05 0.2505 0.5679
v 0.05 0.2845 0.5679
v 0.1049 0.2845 0.513
v 0.1049 0.2505 0.513
v 0.1333 0.243 0.5294
v 0.1005 0.243 0.5206
v 0.1206 0.243 0.4456
v 0.1534 0.243 0.4544
v 0.1534 0.2845 0.4544
v 0.1206 0.2845 0.4456
v 0.1005 0.2845 0.5206
v 0.1333 0.2845 0.5294
v 0.1534 0.2505 0.4544
v 0.1333 0.2505 0.5294
v 0.1005 0.2505 0.5206
v 0.1206 0.2505 0.4456
v 0.12 0.2845 0.45
v 0.154 0.2845 0.45
v 0.154 0.2845 0
v 0.12 0.2845 0
v 0.12 0.2415 0
v 0.154 0.2415 0
v 0.154 0.2415 0.45
v 0.12 0.2415 0.45
v 0.12 0.2505 0
v 0.12 0.2505 0.45
v 0.154 0.2505 0.45
v 0.154 0.2505 0
v -0.22 0.2505 0.467
v -0.186 0.2505 0.467
v -0.186 0.2845 0.467
v -0.22 0.2845 0.467
v -0.1845 0.2505 0.433
v -0.1845 0.2845 0.433
v -0.1845 0.2845 0.467
v -0.1845 0.2505 0.467
v -0.186 0.2875 0.433
v -0.22 0.2875 0.433
v -0.22 0.2875 0.467
v -0.186 0.2875 0.467
v -0.22 0.249 0.433
v -0.186 0.249 0.433
v -0.186 0.249 0.467
v -0.22 0.249 0.467
v -0.2215 0.2845 0.433
v -0.2215 0.2505 0.433
v -0.2215 0.2505 0.467
v -0.2215 0.2845 0.467
v -0.22 0.2505 0.433
v -0.22 0.2845 0.433
v -0.186 0.2845 0.433
v -0.186 0.2505 0.433
v -0.1999 0.2505 0.542
v -0.1659 0.2505 0.542
v -0.1659 0.2845 0.542
v -0.1999 0.2845 0.542
v -0.1659 0.2505 0.508
v -0.1659 0.2845 0.508
v -0.1659 0.289 0.508
v -0.1999 0.289 0.508
v -0.1999 0.289 0.542
v -0.1659 0.289 0.542
v -0.1999 0.249 0.508
v -0.1659 0.249 0.508
v -0.1659 0.249 0.542
v -0.1999 0.249 0.542
v -0.1999 0.2845 0.508
v -0.1999 0.2505 0.508
v -0.145 0.2505 0.5969
v -0.111 0.2505 0.5969
v -0.111 0.2845 0.5969
v -0.145 0.2845 0.5969
v -0.111 0.2505 0.5629
v -0.111 0.2845 0.5629
v -0.111 0.2905 0.5629
v -0.145 0.2905 0.5629
v -0.145 0.2905 0.5969
v -0.111 0.2905 0.5969
v -0.145 0.2475 0.5629
v -0.111 0.2475 0.5629
v -0.111 0.2475 0.5969
v -0.145 0.2475 0.5969
v -0.145 0.2845 0.5629
v -0.145 0.2505 0.5629
v -0.07 0.2505 0.6185
v -0.036 0.2505 0.6185
v -0.036 0.2845 0.6185
v -0.07 0.2845 0.6185
v -0.036 0.2505 0.583
v -0.036 0.2845 0.583
v -0.036 0.2845 0.617
v -0.036 0.2505 0.617
v -0.036 0.292 0.583
v -0.07 0.292 0.583
v -0.07 0.292 0.617
v -0.036 0.292 0.617
v -0.07 0.246 0.583
v -0.036 0.246 0.583
v -0.036 0.246 0.617
v -0.07 0.246 0.617
v -0.07 0.2845 0.583
v -0.07 0.2505 0.583
v -0.07 0.2505 0.617
v -0.07 0.2845 0.617
v -0.07 0.2505 0.5815
v -0.07 0.2845 0.5815
v -0.036 0.2845 0.5815
v -0.036 0.2505 0.5815
v -0.03 0.2505 0.6185
v 0.004 0.2505 0.6185
v 0.004 0.2845 0.6185
v -0.03 0.2845 0.6185
v 0.004 0.2505 0.583
v 0.004 0.2845 0.583
v 0.004 0.2845 0.617
v 0.004 0.2505 0.617
v 0.004 0.2935 0.583
v -0.03 0.2935 0.583
v -0.03 0.2935 0.617
v 0.004 0.2935 0.617
v -0.03 0.2445 0.583
v 0.004 0.2445 0.583
v 0.004 0.2445 0.617
v -0.03 0.2445 0.617
v -0.03 0.2845 0.583
v -0.03 0.2505 0.583
v -0.03 0.2505 0.617
v -0.03 0.2845 0.617
v -0.03 0.2505 0.5815
v -0.03 0.2845 0.5815
v 0.004 0.2845 0.5815
v 0.004 0.2505 0.5815
v 0.045 0.2505 0.5969
v 0.079 0.2505 0.5969
v 0.079 0.2845 0.5969
v 0.045 0.2845 0.5969
v 0.079 0.2505 0.5629
v 0.079 0.2845 0.5629
v 0.079 0.295 0.5629
v 0.045 0.295 0.5629
v 0.045 0.295 0.5969
v 0.079 0.295 0.5969
v 0.045 0.243 0.5629
v 0.079 0.243 0.5629
v 0.079 0.243 0.5969
v 0.045 0.243 0.5969
v 0.045 0.2845 0.5629
v 0.045 0.2505 0.5629
v 0.0999 0.2505 0.542
v 0.1339 0.2505 0.542
v 0.1339 0.2845 0.542
v 0.0999 0.2845 0.542
v 0.1339 0.2505 0.508
v 0.1339 0.2845 0.508
v 0.1339 0.295 0.508
v 0.0999 0.295 0.508
v 0.0999 0.295 0.542
v 0.1339 0.295 0.542
v 0.0999 0.2415 0.508
v 0.1339 0.2415 0.508
v 0.1339 0.2415 0.542
v 0.0999 0.2415 0.542
v 0.0999 0.2845 0.508
v 0.0999 0.2505 0.508
v 0.12 0.2505 0.467
v 0.154 0.2505 0.467
v 0.154 0.2845 0.467
v 0.12 0.2845 0.467
v 0.1555 0.2505 0.433
v 0.1555 0.2845 0.433
v 0.1555 0.2845 0.467
v 0.1555 0.2505 0.467
v 0.154 0.286 0.433
v 0.12 0.286 0.433
v 0.12 0.286 0.467
v 0.154 0.286 0.467
v 0.12 0.24 0.433
v 0.154 0.24 0.433
v 0.154 0.24 0.467
v 0.12 0.24 0.467
v 0.1185 0.2845 0.433
v 0.1185 0.2505 0.433
v 0.1185 0.2505 0.467
v 0.1185 0.2845 0.467
v 0.12 0.2505 0.433
v 0.12 0.2845 0.433
v 0.154 0.2845 0.433
v 0.154 0.2505 0.433
v 0.1555 -0.3025 0.034
v 0.1555 -0.3025 0
v 0.1555 0.2675 0
v 0.1555 0.2675 0.034
v 0.1185 0.2675 0.034
v 0.1185 0.2675 0
v 0.1185 -0.3025 0
v 0.1185 -0.3025 0.034
v 0.154 0.2675 0.034
v 0.12 0.2675 0.034
v 0.12 -0.3025 0.034
v 0.154 -0.3025 0.034
v 0.154 -0.3025 0
v 0.12 -0.3025 0
v 0.12 0.2675 0
v 0.154 0.2675 0
v 0.1506 -0.3025 0.4836
v 0.1506 -0.3025 0.4564
v 0.1506 0.2675 0.4564
v 0.1506 0.2675 0.4836
v 0.1234 0.2675 0.4836
v 0.1234 0.2675 0.4564
v 0.1234 -0.3025 0.4564
v 0.1234 -0.3025 0.4836
v -0.1845 -0.3025 0.034
v -0.1845 -0.3025 0
v -0.1845 0.2675 0
v -0.1845 0.2675 0.034
v -0.2215 0.2675 0.034
v -0.2215 0.2675 0
v -0.2215 -0.3025 0
v -0.2215 -0.3025 0.034
v -0.186 0.2675 0.034
v -0.22 0.2675 0.034
v -0.22 -0.3025 0.034
v -0.186 -0.3025 0.034
v -0.186 -0.3025 0
v -0.22 -0.3025 0
v -0.22 0.2675 0
v -0.186 0.2675 0
v -0.1894 -0.3025 0.4836
v -0.1894 -0.3025 0.4564
v -0.1894 0.2675 0.4564
v -0.1894 0.2675 0.4836
v -0.2166 0.2675 0.4836
v -0.2166 0.2675 0.4564
v -0.2166 -0.3025 0.4564
v -0.2166 -0.3025 0.4836
v -0.148 0.2475 0.36
v -0.068 0.2475 0.36
v -0.068 0.2925 0.36
v -0.148 0.2925 0.36
v -0.068 0.2475 0.29
v -0.068 0.2925 0.29
v -0.148 0.2925 0.29
v -0.148 0.246 0.29
v -0.068 0.246 0.29
v -0.068 0.246 0.36
v -0.148 0.246 0.36
v -0.148 0.2475 0.29
v -0.119 0.259 0.2915
v -0.097 0.259 0.2915
v -0.097 0.281 0.2915
v -0.119 0.281 0.2915
v -0.097 0.259 0
v -0.097 0.281 0
v -0.097 0.281 0.29
v -0.097 0.259 0.29
v -0.119 0.281 0
v -0.119 0.281 0.29
v -0.119 0.259 0
v -0.119 0.259 0.29
v 0.002 -0.1125 0.58
v -0.018 -0.1179 0.58
v -0.018 -0.1179 0.615
v 0.002 -0.1125 0.615
v -0.0326 -0.1325 0.58
v -0.0326 -0.1325 0.615
v -0.038 -0.1525 0.58
v -0.038 -0.1525 0.615
v -0.0326 -0.1725 0.58
v -0.0326 -0.1725 0.615
v -0.018 -0.1871 0.58
v -0.018 -0.1871 0.615
v 0.002 -0.1925 0.58
v 0.002 -0.1925 0.615
v 0.022 -0.1871 0.58
v 0.022 -0.1871 0.615
v 0.0366 -0.1725 0.58
v 0.0366 -0.1725 0.615
v 0.042 -0.1525 0.58
v 0.042 -0.1525 0.615
v 0.0366 -0.1325 0.58
v 0.0366 -0.1325 0.615
v 0.022 -0.1179 0.58
v 0.022 -0.1179 0.615
v 0.022 -0.1179 0.5785
v 0.0366 -0.1325 0.5785
v 0.042 -0.1525 0.5785
v 0.0366 -0.1725 0.5785
v 0.022 -0.1871 0.5785
v 0.002 -0.1925 0.5785
v -0.018 -0.1871 0.5785
v -0.0326 -0.1725 0.5785
v -0.038 -0.1525 0.5785
v -0.0326 -0.1325 0.5785
v -0.018 -0.1179 0.5785
v 0.002 -0.1125 0.5785
v -0.0511 0.1551 0.58
v -0.0825 0.137 0.58
v -0.0825 0.137 0.592
v -0.0511 0.1551 0.592
v -0.1006 0.1056 0.58
v -0.1006 0.1056 0.592
v -0.1006 0.0694 0.58
v -0.1006 0.0694 0.592
v -0.0825 0.038 0.58
v -0.0825 0.038 0.592
v -0.0511 0.0199 0.58
v -0.0511 0.0199 0.592
v -0.0149 0.0199 0.58
v -0.0149 0.0199 0.592
v 0.0165 0.038 0.58
v 0.0165 0.038 0.592
v 0.0346 0.0694 0.58
v 0.0346 0.0694 0.592
v 0.0346 0.1056 0.58
v 0.0346 0.1056 0.592
v 0.0165 0.137 0.58
v 0.0165 0.137 0.592
v -0.0149 0.1551 0.58
v -0.0149 0.1551 0.592
v -0.0149 0.1551 0.5785
v 0.0165 0.137 0.5785
v 0.0346 0.1056 0.5785
v 0.0346 0.0694 0.5785
v 0.0165 0.038 0.5785
v -0.0149 0.0199 0.5785
v -0.0511 0.0199 0.5785
v -0.0825 0.038 0.5785
v -0.1006 0.0694 0.5785
v -0.1006 0.1056 0.5785
v -0.0825 0.137 0.5785
v -0.0511 0.1551 0.5785
v -0.0475 0.1416 0.592
v -0.0726 0.1271 0.592
v -0.0726 0.1271 0.628
v -0.0475 0.1416 0.628
v -0.0871 0.102 0.592
v -0.0871 0.102 0.628
v -0.0871 0.073 0.592
v -0.0871 0.073 0.628
v -0.0726 0.0479 0.592
v -0.0726 0.0479 0.628
v -0.0475 0.0334 0.592
v -0.0475 0.0334 0.628
v -0.0185 0.0334 0.592
v -0.0185 0.0334 0.628
v 0.0066 0.0479 0.592
v 0.0066 0.0479 0.628
v 0.0211 0.073 0.592
v 0.0211 0.073 0.628
v 0.0211 0.102 0.592
v 0.0211 0.102 0.628
v 0.0066 0.1271 0.592
v 0.0066 0.1271 0.628
v -0.0185 0.1416 0.592
v -0.0185 0.1416 0.628
v -0.0185 0.1416 0.5905
v 0.0066 0.1271 0.5905
v 0.0211 0.102 0.5905
v 0.0211 0.073 0.5905
v 0.0066 0.0479 0.5905
v -0.0185 0.0334 0.5905
v -0.0475 0.0334 0.5905
v -0.0726 0.0479 0.5905
v -0.0871 0.073 0.5905
v -0.0871 0.102 0.5905
v -0.0726 0.1271 0.5905
v -0.0475 0.1416 0.5905
v -0.042 0.121 0.628
v -0.0576 0.1121 0.628
v -0.0576 0.1121 0.64
v -0.042 0.121 0.64
v -0.0665 0.0965 0.628
v -0.0665 0.0965 0.64
v -0.0665 0.0785 0.628
v -0.0665 0.0785 0.64
v -0.0576 0.0629 0.628
v -0.0576 0.0629 0.64
v -0.042 0.054 0.628
v -0.042 0.054 0.64
v -0.024 0.054 0.628
v -0.024 0.054 0.64
v -0.0084 0.0629 0.628
v -0.0084 0.0629 0.64
v 0.0005 0.0785 0.628
v 0.0005 0.0785 0.64
v 0.0005 0.0965 0.628
v 0.0005 0.0965 0.64
v -0.0084 0.1121 0.628
v -0.0084 0.1121 0.64
v -0.024 0.121 0.628
v -0.024 0.121 0.64
v -0.024 0.121 0.6265
v -0.0084 0.1121 0.6265
v 0.0005 0.0965 0.6265
v 0.0005 0.0785 0.6265
v -0.0084 0.0629 0.6265
v -0.024 0.054 0.6265
v -0.042 0.054 0.6265
v -0.0576 0.0629 0.6265
v -0.0665 0.0785 0.6265
v -0.0665 0.0965 0.6265
v -0.0576 0.1121 0.6265
v -0.042 0.121 0.6265
vt 0.390625 0.890625
vt 0.671875 0.890625
vt 0.484375 0.890625
vt 0.515625 0.984375
vt 0.609375 0.921875
vt 0.140625 0.890625
vt 0.234375 0.984375
vt 0.296875 0.984375
vt 0.546875 0.890625
vt 0.390625 0.953125
vt 0.609375 0.953125
vt 0.234375 0.921875
vt 0.265625 0.921875
vt 0.640625 0.953125
vt 0.796875 0.984375
vt 0.390625 0.984375
vt 0.484375 0.984375
vt 0.953125 0.984375
vt 0.515625 0.953125
vt 0.859375 0.984375
vt 0.234375 0.953125
vn 0 0 -1
vn -1 0 0
vn -0.8903 0 0.4553
vn -0.2132 0 0.977
vn 0 0 1
vn 0.2132 0 0.977
vn 0.8903 0 0.4553
vn 1 0 0
vn 0 1 0
vn 0 -1 0
vn -0.9659 0 0.2588
vn 0.9659 0 -0.2588
vn -0.7071 0 0.7071
vn 0.7071 0 -0.7071
vn -0.2588 0 0.9659
vn 0.2588 0 -0.9659
vn 0.2588 0 0.9659
vn -0.2588 0 -0.9659
vn 0.7071 0 0.7071
vn -0.7071 0 -0.7071
vn 0.9659 0 0.2588
vn -0.9659 0 -0.2588
vn -0.2588 0.9659 0
vn -0.7071 0.7071 0
vn -0.9659 0.2588 0
vn -0.9659 -0.2588 0
vn -0.7071 -0.7071 0
vn -0.2588 -0.9659 0
vn 0.2588 -0.9659 0
vn 0.7071 -0.7071 0
vn 0.9659 -0.2588 0
vn 0.9659 0.2588 0
vn 0.7071 0.7071 0
vn 0.2588 0.9659 0
vn -0.5 0.866 0
vn -0.866 0.5 0
vn -0.866 -0.5 0
vn -0.5 -0.866 0
vn 0.5 -0.866 0
vn 0.866 -0.5 0
vn 0.866 0.5 0
vn 0.5 0.866 0
f 1/1/1 2/1/1 3/1/1
f 1/1/1 3/1/1 4/1/1
f 2/1/2 5/1/2 6/1/2
f 2/1/2 6/1/2 3/1/2
f 5/2/3 7/2/3 8/2/3
f 5/2/3 8/2/3 6/2/3
f 7/3/4 9/3/4 10/3/4
f 7/3/4 10/3/4 8/3/4
f 9/3/5 11/3/5 12/3/5
f 9/3/5 12/3/5 10/3/5
f 11/3/6 13/3/6 14/3/6
f 11/3/6 14/3/6 12/3/6
f 13/2/7 15/2/7 16/2/7
f 13/2/7 16/2/7 14/2/7
f 15/1/8 1/1/8 4/1/8
f 15/1/8 4/1/8 16/1/8
f 4/1/9 3/1/9 6/1/9
f 4/1/9 6/1/9 8/1/9
f 4/1/9 8/1/9 10/1/9
f 4/1/9 10/1/9 12/1/9
f 4/1/9 12/1/9 14/1/9
f 4/1/9 14/1/9 16/1/9
f 15/1/10 13/1/10 11/1/10
f 15/1/10 11/1/10 9/1/10
f 15/1/10 9/1/10 7/1/10
f 15/1/10 7/1/10 5/1/10
f 15/1/10 5/1/10 2/1/10
f 15/1/10 2/1/10 1/1/10
f 17/4/5 18/4/5 19/4/5
f 17/4/5 19/4/5 20/4/5
f 21/4/8 22/4/8 23/4/8
f 21/4/8 23/4/8 24/4/8
f 22/4/9 25/4/9 26/4/9
f 22/4/9 26/4/9 23/4/9
f 27/4/10 21/4/10 24/4/10
f 27/4/10 24/4/10 28/4/10
f 25/4/2 27/4/2 28/4/2
f 25/4/2 28/4/2 26/4/2
f 27/4/1 25/4/1 22/4/1
f 27/4/1 22/4/1 21/4/1
f 29/5/5 30/5/5 31/5/5
f 29/5/5 31/5/5 32/5/5
f 33/5/8 34/5/8 31/5/8
f 33/5/8 31/5/8 30/5/8
f 34/5/9 35/5/9 32/5/9
f 34/5/9 32/5/9 31/5/9
f 36/5/10 33/5/10 30/5/10
f 36/5/10 30/5/10 29/5/10
f 35/5/2 36/5/2 29/5/2
f 35/5/2 29/5/2 32/5/2
f 36/5/1 35/5/1 34/5/1
f 36/5/1 34/5/1 33/5/1
f 37/4/2 38/4/2 39/4/2
f 37/4/2 39/4/2 40/4/2
f 41/6/2 42/6/2 43/6/2
f 41/6/2 43/6/2 44/6/2
f 45/6/2 46/6/2 47/6/2
f 45/6/2 47/6/2 48/6/2
f 49/6/2 50/6/2 51/6/2
f 49/6/2 51/6/2 52/6/2
f 53/7/2 54/7/2 55/7/2
f 53/7/2 55/7/2 56/7/2
f 57/8/2 58/8/2 59/8/2
f 57/8/2 59/8/2 60/8/2
f 61/9/2 62/9/2 63/9/2
f 61/9/2 63/9/2 64/9/2
f 65/5/2 66/5/2 67/5/2
f 65/5/2 67/5/2 68/5/2
f 69/8/2 70/8/2 71/8/2
f 69/8/2 71/8/2 72/8/2
f 73/8/2 74/8/2 75/8/2
f 73/8/2 75/8/2 76/8/2
f 77/4/8 78/4/8 79/4/8
f 77/4/8 79/4/8 80/4/8
f 81/6/8 82/6/8 83/6/8
f 81/6/8 83/6/8 84/6/8
f 85/6/8 86/6/8 87/6/8
f 85/6/8 87/6/8 88/6/8
f 89/6/8 90/6/8 91/6/8
f 89/6/8 91/6/8 92/6/8
f 93/7/8 94/7/8 95/7/8
f 93/7/8 95/7/8 96/7/8
f 97/8/8 98/8/8 99/8/8
f 97/8/8 99/8/8 100/8/8
f 101/9/8 102/9/8 103/9/8
f 101/9/8 103/9/8 104/9/8
f 105/5/8 106/5/8 107/5/8
f 105/5/8 107/5/8 108/5/8
f 109/8/8 110/8/8 111/8/8
f 109/8/8 111/8/8 112/8/8
f 113/8/8 114/8/8 115/8/8
f 113/8/8 115/8/8 116/8/8
f 117/4/9 118/4/9 119/4/9
f 117/4/9 119/4/9 120/4/9
f 121/10/9 122/10/9 123/10/9
f 121/10/9 123/10/9 124/10/9
f 125/10/9 126/10/9 127/10/9
f 125/10/9 127/10/9 128/10/9
f 129/10/9 130/10/9 131/10/9
f 129/10/9 131/10/9 132/10/9
f 133/10/9 134/10/9 135/10/9
f 133/10/9 135/10/9 136/10/9
f 137/4/10 138/4/10 139/4/10
f 137/4/10 139/4/10 140/4/10
f 141/10/10 142/10/10 143/10/10
f 141/10/10 143/10/10 144/10/10
f 145/10/10 146/10/10 147/10/10
f 145/10/10 147/10/10 148/10/10
f 149/10/10 150/10/10 151/10/10
f 149/10/10 151/10/10 152/10/10
f 153/10/10 154/10/10 155/10/10
f 153/10/10 155/10/10 156/10/10
f 157/11/9 158/11/9 159/11/9
f 157/11/9 159/11/9 160/11/9
f 161/11/10 162/11/10 163/11/10
f 161/11/10 163/11/10 164/11/10
f 160/11/8 161/11/8 164/11/8
f 160/11/8 164/11/8 157/11/8
f 158/11/2 163/11/2 162/11/2
f 158/11/2 162/11/2 159/11/2
f 165/11/10 166/11/10 167/11/10
f 165/11/10 167/11/10 168/11/10
f 169/11/9 170/11/9 171/11/9
f 169/11/9 171/11/9 172/11/9
f 168/11/11 173/11/11 174/11/11
f 168/11/11 174/11/11 165/11/11
f 166/11/12 175/11/12 176/11/12
f 166/11/12 176/11/12 167/11/12
f 177/11/10 178/11/10 179/11/10
f 177/11/10 179/11/10 180/11/10
f 181/11/9 182/11/9 183/11/9
f 181/11/9 183/11/9 184/11/9
f 180/12/13 185/12/13 186/12/13
f 180/12/13 186/12/13 177/12/13
f 178/11/14 187/11/14 188/11/14
f 178/11/14 188/11/14 179/11/14
f 189/11/10 190/11/10 191/11/10
f 189/11/10 191/11/10 192/11/10
f 193/11/9 194/11/9 195/11/9
f 193/11/9 195/11/9 196/11/9
f 197/12/15 198/12/15 199/12/15
f 197/12/15 199/12/15 200/12/15
f 201/11/16 202/11/16 203/11/16
f 201/11/16 203/11/16 204/11/16
f 205/11/10 206/11/10 207/11/10
f 205/11/10 207/11/10 208/11/10
f 209/11/9 210/11/9 211/11/9
f 209/11/9 211/11/9 212/11/9
f 213/12/5 214/12/5 215/12/5
f 213/12/5 215/12/5 216/12/5
f 217/11/1 218/11/1 219/11/1
f 217/11/1 219/11/1 220/11/1
f 221/11/10 222/11/10 223/11/10
f 221/11/10 223/11/10 224/11/10
f 225/11/9 226/11/9 227/11/9
f 225/11/9 227/11/9 228/11/9
f 229/12/17 230/12/17 231/12/17
f 229/12/17 231/12/17 232/12/17
f 233/11/18 234/11/18 235/11/18
f 233/11/18 235/11/18 236/11/18
f 237/11/10 238/11/10 239/11/10
f 237/11/10 239/11/10 240/11/10
f 241/11/9 242/11/9 243/11/9
f 241/11/9 243/11/9 244/11/9
f 245/12/19 246/12/19 247/12/19
f 245/12/19 247/12/19 248/12/19
f 249/11/20 250/11/20 251/11/20
f 249/11/20 251/11/20 252/11/20
f 253/11/10 254/11/10 255/11/10
f 253/11/10 255/11/10 256/11/10
f 257/11/9 258/11/9 259/11/9
f 257/11/9 259/11/9 260/11/9
f 261/11/21 262/11/21 263/11/21
f 261/11/21 263/11/21 264/11/21
f 265/11/22 266/11/22 267/11/22
f 265/11/22 267/11/22 268/11/22
f 269/11/9 270/11/9 271/11/9
f 269/11/9 271/11/9 272/11/9
f 273/11/10 274/11/10 275/11/10
f 273/11/10 275/11/10 276/11/10
f 277/11/2 278/11/2 279/11/2
f 277/11/2 279/11/2 280/11/2
f 281/11/8 282/11/8 283/11/8
f 281/11/8 283/11/8 284/11/8
f 285/12/5 286/12/5 287/12/5
f 285/12/5 287/12/5 288/12/5
f 289/11/8 290/11/8 291/11/8
f 289/11/8 291/11/8 292/11/8
f 293/11/9 294/11/9 295/11/9
f 293/11/9 295/11/9 296/11/9
f 297/11/10 298/11/10 299/11/10
f 297/11/10 299/11/10 300/11/10
f 301/11/2 302/11/2 303/11/2
f 301/11/2 303/11/2 304/11/2
f 305/11/1 306/11/1 307/11/1
f 305/11/1 307/11/1 308/11/1
f 309/12/5 310/12/5 311/12/5
f 309/12/5 311/12/5 312/12/5
f 313/11/8 314/11/8 311/11/8
f 313/11/8 311/11/8 310/11/8
f 315/11/9 316/11/9 317/11/9
f 315/11/9 317/11/9 318/11/9
f 319/11/10 320/11/10 321/11/10
f 319/11/10 321/11/10 322/11/10
f 323/11/2 324/11/2 309/11/2
f 323/11/2 309/11/2 312/11/2
f 324/11/1 323/11/1 314/11/1
f 324/11/1 314/11/1 313/11/1
f 325/12/5 326/12/5 327/12/5
f 325/12/5 327/12/5 328/12/5
f 329/11/8 330/11/8 327/11/8
f 329/11/8 327/11/8 326/11/8
f 331/11/9 332/11/9 333/11/9
f 331/11/9 333/11/9 334/11/9
f 335/11/10 336/11/10 337/11/10
f 335/11/10 337/11/10 338/11/10
f 339/11/2 340/11/2 325/11/2
f 339/11/2 325/11/2 328/11/2
f 340/11/1 339/11/1 330/11/1
f 340/11/1 330/11/1 329/11/1
f 341/12/5 342/12/5 343/12/5
f 341/12/5 343/12/5 344/12/5
f 345/11/8 346/11/8 347/11/8
f 345/11/8 347/11/8 348/11/8
f 349/11/9 350/11/9 351/11/9
f 349/11/9 351/11/9 352/11/9
f 353/11/10 354/11/10 355/11/10
f 353/11/10 355/11/10 356/11/10
f 357/11/2 358/11/2 359/11/2
f 357/11/2 359/11/2 360/11/2
f 361/11/1 362/11/1 363/11/1
f 361/11/1 363/11/1 364/11/1
f 365/12/5 366/12/5 367/12/5
f 365/12/5 367/12/5 368/12/5
f 369/11/8 370/11/8 371/11/8
f 369/11/8 371/11/8 372/11/8
f 373/11/9 374/11/9 375/11/9
f 373/11/9 375/11/9 376/11/9
f 377/11/10 378/11/10 379/11/10
f 377/11/10 379/11/10 380/11/10
f 381/11/2 382/11/2 383/11/2
f 381/11/2 383/11/2 384/11/2
f 385/11/1 386/11/1 387/11/1
f 385/11/1 387/11/1 388/11/1
f 389/12/5 390/12/5 391/12/5
f 389/12/5 391/12/5 392/12/5
f 393/11/8 394/11/8 391/11/8
f 393/11/8 391/11/8 390/11/8
f 395/11/9 396/11/9 397/11/9
f 395/11/9 397/11/9 398/11/9
f 399/11/10 400/11/10 401/11/10
f 399/11/10 401/11/10 402/11/10
f 403/11/2 404/11/2 389/11/2
f 403/11/2 389/11/2 392/11/2
f 404/11/1 403/11/1 394/11/1
f 404/11/1 394/11/1 393/11/1
f 405/12/5 406/12/5 407/12/5
f 405/12/5 407/12/5 408/12/5
f 409/11/8 410/11/8 407/11/8
f 409/11/8 407/11/8 406/11/8
f 411/11/9 412/11/9 413/11/9
f 411/11/9 413/11/9 414/11/9
f 415/11/10 416/11/10 417/11/10
f 415/11/10 417/11/10 418/11/10
f 419/11/2 420/11/2 405/11/2
f 419/11/2 405/11/2 408/11/2
f 420/11/1 419/11/1 410/11/1
f 420/11/1 410/11/1 409/11/1
f 421/12/5 422/12/5 423/12/5
f 421/12/5 423/12/5 424/12/5
f 425/11/8 426/11/8 427/11/8
f 425/11/8 427/11/8 428/11/8
f 429/11/9 430/11/9 431/11/9
f 429/11/9 431/11/9 432/11/9
f 433/11/10 434/11/10 435/11/10
f 433/11/10 435/11/10 436/11/10
f 437/11/2 438/11/2 439/11/2
f 437/11/2 439/11/2 440/11/2
f 441/11/1 442/11/1 443/11/1
f 441/11/1 443/11/1 444/11/1
f 445/11/9 446/11/9 447/11/9
f 445/11/9 447/11/9 448/11/9
f 449/11/10 450/11/10 451/11/10
f 449/11/10 451/11/10 452/11/10
f 448/11/8 449/11/8 452/11/8
f 448/11/8 452/11/8 445/11/8
f 446/11/2 451/11/2 450/11/2
f 446/11/2 450/11/2 447/11/2
f 453/11/10 454/11/10 455/11/10
f 453/11/10 455/11/10 456/11/10
f 457/11/9 458/11/9 459/11/9
f 457/11/9 459/11/9 460/11/9
f 456/11/11 461/11/11 462/11/11
f 456/11/11 462/11/11 453/11/11
f 454/11/12 463/11/12 464/11/12
f 454/11/12 464/11/12 455/11/12
f 465/11/10 466/11/10 467/11/10
f 465/11/10 467/11/10 468/11/10
f 469/11/9 470/11/9 471/11/9
f 469/11/9 471/11/9 472/11/9
f 468/12/13 473/12/13 474/12/13
f 468/12/13 474/12/13 465/12/13
f 466/11/14 475/11/14 476/11/14
f 466/11/14 476/11/14 467/11/14
f 477/11/10 478/11/10 479/11/10
f 477/11/10 479/11/10 480/11/10
f 481/11/9 482/11/9 483/11/9
f 481/11/9 483/11/9 484/11/9
f 485/12/15 486/12/15 487/12/15
f 485/12/15 487/12/15 488/12/15
f 489/11/16 490/11/16 491/11/16
f 489/11/16 491/11/16 492/11/16
f 493/11/10 494/11/10 495/11/10
f 493/11/10 495/11/10 496/11/10
f 497/11/9 498/11/9 499/11/9
f 497/11/9 499/11/9 500/11/9
f 501/12/5 502/12/5 503/12/5
f 501/12/5 503/12/5 504/12/5
f 505/11/1 506/11/1 507/11/1
f 505/11/1 507/11/1 508/11/1
f 509/11/10 510/11/10 511/11/10
f 509/11/10 511/11/10 512/11/10
f 513/11/9 514/11/9 515/11/9
f 513/11/9 515/11/9 516/11/9
f 517/12/17 518/12/17 519/12/17
f 517/12/17 519/12/17 520/12/17
f 521/11/18 522/11/18 523/11/18
f 521/11/18 523/11/18 524/11/18
f 525/11/10 526/11/10 527/11/10
f 525/11/10 527/11/10 528/11/10
f 529/11/9 530/11/9 531/11/9
f 529/11/9 531/11/9 532/11/9
f 533/12/19 534/12/19 535/12/19
f 533/12/19 535/12/19 536/12/19
f 537/11/20 538/11/20 539/11/20
f 537/11/20 539/11/20 540/11/20
f 541/11/10 542/11/10 543/11/10
f 541/11/10 543/11/10 544/11/10
f 545/11/9 546/11/9 547/11/9
f 545/11/9 547/11/9 548/11/9
f 549/11/21 545/11/21 548/11/21
f 549/11/21 548/11/21 550/11/21
f 551/11/22 547/11/22 546/11/22
f 551/11/22 546/11/22 552/11/22
f 553/11/9 554/11/9 555/11/9
f 553/11/9 555/11/9 556/11/9
f 557/11/10 558/11/10 559/11/10
f 557/11/10 559/11/10 560/11/10
f 556/11/2 561/11/2 562/11/2
f 556/11/2 562/11/2 553/11/2
f 554/11/8 563/11/8 564/11/8
f 554/11/8 564/11/8 555/11/8
f 565/12/5 566/12/5 567/12/5
f 565/12/5 567/12/5 568/12/5
f 569/11/8 570/11/8 571/11/8
f 569/11/8 571/11/8 572/11/8
f 573/11/9 574/11/9 575/11/9
f 573/11/9 575/11/9 576/11/9
f 577/11/10 578/11/10 579/11/10
f 577/11/10 579/11/10 580/11/10
f 581/11/2 582/11/2 583/11/2
f 581/11/2 583/11/2 584/11/2
f 585/11/1 586/11/1 587/11/1
f 585/11/1 587/11/1 588/11/1
f 589/12/5 590/12/5 591/12/5
f 589/12/5 591/12/5 592/12/5
f 593/11/8 594/11/8 591/11/8
f 593/11/8 591/11/8 590/11/8
f 595/11/9 596/11/9 597/11/9
f 595/11/9 597/11/9 598/11/9
f 599/11/10 600/11/10 601/11/10
f 599/11/10 601/11/10 602/11/10
f 603/11/2 604/11/2 589/11/2
f 603/11/2 589/11/2 592/11/2
f 604/11/1 603/11/1 594/11/1
f 604/11/1 594/11/1 593/11/1
f 605/12/5 606/12/5 607/12/5
f 605/12/5 607/12/5 608/12/5
f 609/11/8 610/11/8 607/11/8
f 609/11/8 607/11/8 606/11/8
f 611/11/9 612/11/9 613/11/9
f 611/11/9 613/11/9 614/11/9
f 615/11/10 616/11/10 617/11/10
f 615/11/10 617/11/10 618/11/10
f 619/11/2 620/11/2 605/11/2
f 619/11/2 605/11/2 608/11/2
f 620/11/1 619/11/1 610/11/1
f 620/11/1 610/11/1 609/11/1
f 621/12/5 622/12/5 623/12/5
f 621/12/5 623/12/5 624/12/5
f 625/11/8 626/11/8 627/11/8
f 625/11/8 627/11/8 628/11/8
f 629/11/9 630/11/9 631/11/9
f 629/11/9 631/11/9 632/11/9
f 633/11/10 634/11/10 635/11/10
f 633/11/10 635/11/10 636/11/10
f 637/11/2 638/11/2 639/11/2
f 637/11/2 639/11/2 640/11/2
f 641/11/1 642/11/1 643/11/1
f 641/11/1 643/11/1 644/11/1
f 645/12/5 646/12/5 647/12/5
f 645/12/5 647/12/5 648/12/5
f 649/11/8 650/11/8 651/11/8
f 649/11/8 651/11/8 652/11/8
f 653/11/9 654/11/9 655/11/9
f 653/11/9 655/11/9 656/11/9
f 657/11/10 658/11/10 659/11/10
f 657/11/10 659/11/10 660/11/10
f 661/11/2 662/11/2 663/11/2
f 661/11/2 663/11/2 664/11/2
f 665/11/1 666/11/1 667/11/1
f 665/11/1 667/11/1 668/11/1
f 669/12/5 670/12/5 671/12/5
f 669/12/5 671/12/5 672/12/5
f 673/11/8 674/11/8 671/11/8
f 673/11/8 671/11/8 670/11/8
f 675/11/9 676/11/9 677/11/9
f 675/11/9 677/11/9 678/11/9
f 679/11/10 680/11/10 681/11/10
f 679/11/10 681/11/10 682/11/10
f 683/11/2 684/11/2 669/11/2
f 683/11/2 669/11/2 672/11/2
f 684/11/1 683/11/1 674/11/1
f 684/11/1 674/11/1 673/11/1
f 685/12/5 686/12/5 687/12/5
f 685/12/5 687/12/5 688/12/5
f 689/11/8 690/11/8 687/11/8
f 689/11/8 687/11/8 686/11/8
f 691/11/9 692/11/9 693/11/9
f 691/11/9 693/11/9 694/11/9
f 695/11/10 696/11/10 697/11/10
f 695/11/10 697/11/10 698/11/10
f 699/11/2 700/11/2 685/11/2
f 699/11/2 685/11/2 688/11/2
f 700/11/1 699/11/1 690/11/1
f 700/11/1 690/11/1 689/11/1
f 701/12/5 702/12/5 703/12/5
f 701/12/5 703/12/5 704/12/5
f 705/11/8 706/11/8 707/11/8
f 705/11/8 707/11/8 708/11/8
f 709/11/9 710/11/9 711/11/9
f 709/11/9 711/11/9 712/11/9
f 713/11/10 714/11/10 715/11/10
f 713/11/10 715/11/10 716/11/10
f 717/11/2 718/11/2 719/11/2
f 717/11/2 719/11/2 720/11/2
f 721/11/1 722/11/1 723/11/1
f 721/11/1 723/11/1 724/11/1
f 725/11/8 726/11/8 727/11/8
f 725/11/8 727/11/8 728/11/8
f 729/11/2 730/11/2 731/11/2
f 729/11/2 731/11/2 732/11/2
f 733/12/5 734/12/5 735/12/5
f 733/12/5 735/12/5 736/12/5
f 737/11/1 738/11/1 739/11/1
f 737/11/1 739/11/1 740/11/1
f 741/11/8 742/11/8 743/11/8
f 741/11/8 743/11/8 744/11/8
f 745/11/2 746/11/2 747/11/2
f 745/11/2 747/11/2 748/11/2
f 744/12/5 745/12/5 748/12/5
f 744/12/5 748/12/5 741/12/5
f 742/11/1 747/11/1 746/11/1
f 742/11/1 746/11/1 743/11/1
f 749/11/8 750/11/8 751/11/8
f 749/11/8 751/11/8 752/11/8
f 753/11/2 754/11/2 755/11/2
f 753/11/2 755/11/2 756/11/2
f 757/12/5 758/12/5 759/12/5
f 757/12/5 759/12/5 760/12/5
f 761/11/1 762/11/1 763/11/1
f 761/11/1 763/11/1 764/11/1
f 765/11/8 766/11/8 767/11/8
f 765/11/8 767/11/8 768/11/8
f 769/11/2 770/11/2 771/11/2
f 769/11/2 771/11/2 772/11/2
f 768/12/5 769/12/5 772/12/5
f 768/12/5 772/12/5 765/12/5
f 766/11/1 771/11/1 770/11/1
f 766/11/1 770/11/1 767/11/1
f 773/13/5 774/13/5 775/13/5
f 773/13/5 775/13/5 776/13/5
f 777/14/8 778/14/8 775/14/8
f 777/14/8 775/14/8 774/14/8
f 778/14/9 779/14/9 776/14/9
f 778/14/9 776/14/9 775/14/9
f 780/14/10 781/14/10 782/14/10
f 780/14/10 782/14/10 783/14/10
f 779/14/2 784/14/2 773/14/2
f 779/14/2 773/14/2 776/14/2
f 784/14/1 779/14/1 778/14/1
f 784/14/1 778/14/1 777/14/1
f 785/15/5 786/15/5 787/15/5
f 785/15/5 787/15/5 788/15/5
f 789/16/8 790/16/8 791/16/8
f 789/16/8 791/16/8 792/16/8
f 790/16/9 793/16/9 794/16/9
f 790/16/9 794/16/9 791/16/9
f 795/16/10 789/16/10 792/16/10
f 795/16/10 792/16/10 796/16/10
f 793/16/2 795/16/2 796/16/2
f 793/16/2 796/16/2 794/16/2
f 795/16/1 793/16/1 790/16/1
f 795/16/1 790/16/1 789/16/1
f 797/17/23 798/17/23 799/17/23
f 797/17/23 799/17/23 800/17/23
f 798/17/24 801/17/24 802/17/24
f 798/17/24 802/17/24 799/17/24
f 801/17/25 803/17/25 804/17/25
f 801/17/25 804/17/25 802/17/25
f 803/17/26 805/17/26 806/17/26
f 803/17/26 806/17/26 804/17/26
f 805/17/27 807/17/27 808/17/27
f 805/17/27 808/17/27 806/17/27
f 807/17/28 809/17/28 810/17/28
f 807/17/28 810/17/28 808/17/28
f 809/17/29 811/17/29 812/17/29
f 809/17/29 812/17/29 810/17/29
f 811/17/30 813/17/30 814/17/30
f 811/17/30 814/17/30 812/17/30
f 813/17/31 815/17/31 816/17/31
f 813/17/31 816/17/31 814/17/31
f 815/17/32 817/17/32 818/17/32
f 815/17/32 818/17/32 816/17/32
f 817/17/33 819/17/33 820/17/33
f 817/17/33 820/17/33 818/17/33
f 819/17/34 797/17/34 800/17/34
f 819/17/34 800/17/34 820/17/34
f 800/17/5 799/17/5 802/17/5
f 800/17/5 802/17/5 804/17/5
f 800/17/5 804/17/5 806/17/5
f 800/17/5 806/17/5 808/17/5
f 800/17/5 808/17/5 810/17/5
f 800/17/5 810/17/5 812/17/5
f 800/17/5 812/17/5 814/17/5
f 800/17/5 814/17/5 816/17/5
f 800/17/5 816/17/5 818/17/5
f 800/17/5 818/17/5 820/17/5
f 821/17/1 822/17/1 823/17/1
f 821/17/1 823/17/1 824/17/1
f 821/17/1 824/17/1 825/17/1
f 821/17/1 825/17/1 826/17/1
f 821/17/1 826/17/1 827/17/1
f 821/17/1 827/17/1 828/17/1
f 821/17/1 828/17/1 829/17/1
f 821/17/1 829/17/1 830/17/1
f 821/17/1 830/17/1 831/17/1
f 821/17/1 831/17/1 832/17/1
f 833/18/35 834/18/35 835/18/35
f 833/18/35 835/18/35 836/18/35
f 834/18/36 837/18/36 838/18/36
f 834/18/36 838/18/36 835/18/36
f 837/18/2 839/18/2 840/18/2
f 837/18/2 840/18/2 838/18/2
f 839/18/37 841/18/37 842/18/37
f 839/18/37 842/18/37 840/18/37
f 841/18/38 843/18/38 844/18/38
f 841/18/38 844/18/38 842/18/38
f 843/18/10 845/18/10 846/18/10
f 843/18/10 846/18/10 844/18/10
f 845/18/39 847/18/39 848/18/39
f 845/18/39 848/18/39 846/18/39
f 847/18/40 849/18/40 850/18/40
f 847/18/40 850/18/40 848/18/40
f 849/18/8 851/18/8 852/18/8
f 849/18/8 852/18/8 850/18/8
f 851/18/41 853/18/41 854/18/41
f 851/18/41 854/18/41 852/18/41
f 853/18/42 855/18/42 856/18/42
f 853/18/42 856/18/42 854/18/42
f 855/18/9 833/18/9 836/18/9
f 855/18/9 836/18/9 856/18/9
f 836/19/5 835/19/5 838/19/5
f 836/19/5 838/19/5 840/19/5
f 836/19/5 840/19/5 842/19/5
f 836/19/5 842/19/5 844/19/5
f 836/19/5 844/19/5 846/19/5
f 836/19/5 846/19/5 848/19/5
f 836/19/5 848/19/5 850/19/5
f 836/19/5 850/19/5 852/19/5
f 836/19/5 852/19/5 854/19/5
f 836/19/5 854/19/5 856/19/5
f 857/19/1 858/19/1 859/19/1
f 857/19/1 859/19/1 860/19/1
f 857/19/1 860/19/1 861/19/1
f 857/19/1 861/19/1 862/19/1
f 857/19/1 862/19/1 863/19/1
f 857/19/1 863/19/1 864/19/1
f 857/19/1 864/19/1 865/19/1
f 857/19/1 865/19/1 866/19/1
f 857/19/1 866/19/1 867/19/1
f 857/19/1 867/19/1 868/19/1
f 869/20/35 870/20/35 871/20/35
f 869/20/35 871/20/35 872/20/35
f 870/20/36 873/20/36 874/20/36
f 870/20/36 874/20/36 871/20/36
f 873/20/2 875/20/2 876/20/2
f 873/20/2 876/20/2 874/20/2
f 875/20/37 877/20/37 878/20/37
f 875/20/37 878/20/37 876/20/37
f 877/20/38 879/20/38 880/20/38
f 877/20/38 880/20/38 878/20/38
f 879/20/10 881/20/10 882/20/10
f 879/20/10 882/20/10 880/20/10
f 881/20/39 883/20/39 884/20/39
f 881/20/39 884/20/39 882/20/39
f 883/20/40 885/20/40 886/20/40
f 883/20/40 886/20/40 884/20/40
f 885/20/8 887/20/8 888/20/8
f 885/20/8 888/20/8 886/20/8
f 887/20/41 889/20/41 890/20/41
f 887/20/41 890/20/41 888/20/41
f 889/20/42 891/20/42 892/20/42
f 889/20/42 892/20/42 890/20/42
f 891/20/9 869/20/9 872/20/9
f 891/20/9 872/20/9 892/20/9
f 872/21/5 871/21/5 874/21/5
f 872/21/5 874/21/5 876/21/5
f 872/21/5 876/21/5 878/21/5
f 872/21/5 878/21/5 880/21/5
f 872/21/5 880/21/5 882/21/5
f 872/21/5 882/21/5 884/21/5
f 872/21/5 884/21/5 886/21/5
f 872/21/5 886/21/5 888/21/5
f 872/21/5 888/21/5 890/21/5
f 872/21/5 890/21/5 892/21/5
f 893/21/1 894/21/1 895/21/1
f 893/21/1 895/21/1 896/21/1
f 893/21/1 896/21/1 897/21/1
f 893/21/1 897/21/1 898/21/1
f 893/21/1 898/21/1 899/21/1
f 893/21/1 899/21/1 900/21/1
f 893/21/1 900/21/1 901/21/1
f 893/21/1 901/21/1 902/21/1
f 893/21/1 902/21/1 903/21/1
f 893/21/1 903/21/1 904/21/1
f 905/20/35 906/20/35 907/20/35
f 905/20/35 907/20/35 908/20/35
f 906/20/36 909/20/36 910/20/36
f 906/20/36 910/20/36 907/20/36
f 909/20/2 911/20/2 912/20/2
f 909/20/2 912/20/2 910/20/2
f 911/20/37 913/20/37 914/20/37
f 911/20/37 914/20/37 912/20/37
f 913/20/38 915/20/38 916/20/38
f 913/20/38 916/20/38 914/20/38
f 915/20/10 917/20/10 918/20/10
f 915/20/10 918/20/10 916/20/10
f 917/20/39 919/20/39 920/20/39
f 917/20/39 920/20/39 918/20/39
f 919/20/40 921/20/40 922/20/40
f 919/20/40 922/20/40 920/20/40
f 921/20/8 923/20/8 924/20/8
f 921/20/8 924/20/8 922/20/8
f 923/20/41 925/20/41 926/20/41
f 923/20/41 926/20/41 924/20/41
f 925/20/42 927/20/42 928/20/42
f 925/20/42 928/20/42 926/20/42
f 927/20/9 905/20/9 908/20/9
f 927/20/9 908/20/9 928/20/9
f 908/21/5 907/21/5 910/21/5
f 908/21/5 910/21/5 912/21/5
f 908/21/5 912/21/5 914/21/5
f 908/21/5 914/21/5 916/21/5
f 908/21/5 916/21/5 918/21/5
f 908/21/5 918/21/5 920/21/5
f 908/21/5 920/21/5 922/21/5
f 908/21/5 922/21/5 924/21/5
f 908/21/5 924/21/5 926/21/5
f 908/21/5 926/21/5 928/21/5
f 929/21/1 930/21/1 931/21/1
f 929/21/1 931/21/1 932/21/1
f 929/21/1 932/21/1 933/21/1
f 929/21/1 933/21/1 934/21/1
f 929/21/1 934/21/1 935/21/1
f 929/21/1 935/21/1 936/21/1
f 929/21/1 936/21/1 937/21/1
f 929/21/1 937/21/1 938/21/1
f 929/21/1 938/21/1 939/21/1
f 929/21/1 939/21/1 940/21/1
