# Off-Grid backup_ground_valutech_off_N for Project Viewpoint. Z up, tile units, x east, y south. Generated by tools/build_viewpoint.py.
mtllib offgrid.mtl
o backup_ground_valutech_off_N
usemtl offgrid
v 0.2 0.205 0.02
v 0.2 -0.14 0.02
v -0.155 -0.14 0.02
v -0.155 0.205 0.02
v 0.2 -0.14 0.38
v -0.155 -0.14 0.38
v 0.2 -0.12 0.425
v -0.155 -0.12 0.425
v 0.2 -0.09 0.43
v -0.155 -0.09 0.43
v 0.2 0.155 0.43
v -0.155 0.155 0.43
v 0.2 0.185 0.425
v -0.155 0.185 0.425
v 0.2 0.205 0.38
v -0.155 0.205 0.38
v 0.275 0.211 0
v 0.275 -0.146 0
v 0.2 -0.146 0
v 0.2 0.211 0
v 0.275 -0.146 0.38
v 0.2 -0.146 0.38
v 0.275 -0.126 0.425
v 0.2 -0.126 0.425
v 0.275 -0.096 0.436
v 0.2 -0.096 0.436
v 0.275 0.161 0.436
v 0.2 0.161 0.436
v 0.275 0.191 0.425
v 0.2 0.191 0.425
v 0.275 0.211 0.38
v 0.2 0.211 0.38
v 0.1985 0.211 0
v 0.1985 -0.146 0
v 0.1985 -0.146 0.38
v 0.1985 -0.126 0.425
v 0.1985 -0.096 0.436
v 0.1985 0.161 0.436
v 0.1985 0.191 0.425
v 0.1985 0.211 0.38
v -0.155 0.211 0
v -0.155 -0.146 0
v -0.23 -0.146 0
v -0.23 0.211 0
v -0.155 -0.146 0.38
v -0.23 -0.146 0.38
v -0.155 -0.126 0.425
v -0.23 -0.126 0.425
v -0.155 -0.096 0.436
v -0.23 -0.096 0.436
v -0.155 0.161 0.436
v -0.23 0.161 0.436
v -0.155 0.191 0.425
v -0.23 0.191 0.425
v -0.155 0.211 0.38
v -0.23 0.211 0.38
v -0.1535 0.211 0.38
v -0.1535 0.191 0.425
v -0.1535 0.161 0.436
v -0.1535 -0.096 0.436
v -0.1535 -0.126 0.425
v -0.1535 -0.146 0.38
v -0.1535 -0.146 0
v -0.1535 0.211 0
v -0.155 -0.145 0.315
v 0.2 -0.145 0.315
v 0.2 0.21 0.315
v -0.155 0.21 0.315
v 0.203 -0.145 0.28
v 0.203 0.21 0.28
v 0.203 0.21 0.315
v 0.203 -0.145 0.315
v 0.2 0.21 0.28
v -0.155 0.21 0.28
v -0.155 -0.145 0.28
v 0.2 -0.145 0.28
v -0.158 0.21 0.28
v -0.158 -0.145 0.28
v -0.158 -0.145 0.315
v -0.158 0.21 0.315
v 0.2 0.05 0.42
v -0.04 0.05 0.42
v -0.04 0.16 0.42
v 0.2 0.16 0.42
v -0.04 0.05 0.4685
v -0.04 0.16 0.4685
v -0.005 0.05 0.5
v -0.005 0.16 0.5
v 0.165 0.05 0.5
v 0.165 0.16 0.5
v 0.2 0.05 0.4685
v 0.2 0.16 0.4685
v 0.203 0.05 0.4685
v 0.203 0.05 0.42
v 0.203 0.16 0.42
v 0.203 0.16 0.4685
v 0.155 0.048 0.465
v 0.005 0.048 0.465
v 0.005 0.048 0.434
v 0.155 0.048 0.434
v 0.155 0.162 0.434
v 0.005 0.162 0.434
v 0.005 0.162 0.465
v 0.155 0.162 0.465
v 0.17 -0.142 0.25
v 0.06 -0.142 0.25
v 0.06 -0.142 0.234
v 0.17 -0.142 0.234
v 0.17 -0.142 0.21
v 0.06 -0.142 0.21
v 0.06 -0.142 0.194
v 0.17 -0.142 0.194
v 0.17 -0.142 0.17
v 0.06 -0.142 0.17
v 0.06 -0.142 0.154
v 0.17 -0.142 0.154
v 0.17 -0.142 0.13
v 0.06 -0.142 0.13
v 0.06 -0.142 0.114
v 0.17 -0.142 0.114
v 0.03 -0.142 0.23
v -0.13 -0.142 0.23
v -0.13 -0.142 0.08
v 0.03 -0.142 0.08
v 0.018 -0.144 0.218
v -0.118 -0.144 0.218
v -0.118 -0.144 0.092
v 0.018 -0.144 0.092
v 0.018 -0.146 0.218
v -0.118 -0.146 0.218
v -0.118 -0.146 0.1726
v 0.018 -0.146 0.1726
v 0.006 -0.146 0.1487
v -0.106 -0.146 0.1487
v -0.106 -0.146 0.1367
v 0.006 -0.146 0.1367
v 0.006 -0.146 0.1197
v -0.0668 -0.146 0.1197
v -0.0668 -0.146 0.1077
v 0.006 -0.146 0.1077
v -0.075 -0.1435 0.17
v -0.125 -0.1435 0.17
v -0.125 -0.1435 0.07
v -0.075 -0.1435 0.07
v 0.17 0.207 0.234
v 0.06 0.207 0.234
v 0.06 0.207 0.25
v 0.17 0.207 0.25
v 0.17 0.207 0.194
v 0.06 0.207 0.194
v 0.06 0.207 0.21
v 0.17 0.207 0.21
v 0.17 0.207 0.154
v 0.06 0.207 0.154
v 0.06 0.207 0.17
v 0.17 0.207 0.17
v 0.17 0.207 0.114
v 0.06 0.207 0.114
v 0.06 0.207 0.13
v 0.17 0.207 0.13
v 0.03 0.207 0.08
v -0.13 0.207 0.08
v -0.13 0.207 0.23
v 0.03 0.207 0.23
v 0.018 0.209 0.092
v -0.118 0.209 0.092
v -0.118 0.209 0.218
v 0.018 0.209 0.218
v 0.018 0.211 0.1726
v -0.118 0.211 0.1726
v -0.118 0.211 0.218
v 0.018 0.211 0.218
v 0.006 0.211 0.1367
v -0.106 0.211 0.1367
v -0.106 0.211 0.1487
v 0.006 0.211 0.1487
v 0.006 0.211 0.1077
v -0.0668 0.211 0.1077
v -0.0668 0.211 0.1197
v 0.006 0.211 0.1197
v -0.075 0.2085 0.07
v -0.125 0.2085 0.07
v -0.125 0.2085 0.17
v -0.075 0.2085 0.17
v -0.238 -0.1 0.32
v -0.238 0.165 0.32
v -0.238 0.165 0.05
v -0.238 -0.1 0.05
v -0.24 0.085 0.15
v -0.24 0.135 0.15
v -0.24 0.135 0.09
v -0.24 0.085 0.09
v -0.24 0.005 0.15
v -0.24 0.055 0.15
v -0.24 0.055 0.09
v -0.24 0.005 0.09
v -0.24 -0.07 0.19
v -0.24 -0.02 0.19
v -0.24 -0.02 0.09
v -0.24 -0.07 0.09
v -0.24 -0.08 0.29
v -0.24 0.145 0.29
v -0.24 0.145 0.26
v -0.24 -0.08 0.26
v 0.283 -0.1 0.05
v 0.283 0.165 0.05
v 0.283 0.165 0.32
v 0.283 -0.1 0.32
v 0.285 0.065 0.272
v 0.285 0.145 0.272
v 0.285 0.145 0.29
v 0.285 0.065 0.29
v 0.285 0.065 0.232
v 0.285 0.145 0.232
v 0.285 0.145 0.25
v 0.285 0.065 0.25
v 0.285 0.065 0.192
v 0.285 0.145 0.192
v 0.285 0.145 0.21
v 0.285 0.065 0.21
v 0.285 0.065 0.152
v 0.285 0.145 0.152
v 0.285 0.145 0.17
v 0.285 0.065 0.17
v 0.285 0.065 0.112
v 0.285 0.145 0.112
v 0.285 0.145 0.13
v 0.285 0.065 0.13
v 0.285 -0.035 0.272
v 0.285 0.045 0.272
v 0.285 0.045 0.29
v 0.285 -0.035 0.29
v 0.285 -0.035 0.232
v 0.285 0.045 0.232
v 0.285 0.045 0.25
v 0.285 -0.035 0.25
v 0.285 -0.035 0.192
v 0.285 0.045 0.192
v 0.285 0.045 0.21
v 0.285 -0.035 0.21
v 0.285 -0.035 0.152
v 0.285 0.045 0.152
v 0.285 0.045 0.17
v 0.285 -0.035 0.17
v 0.285 -0.035 0.112
v 0.285 0.045 0.112
v 0.285 0.045 0.13
v 0.285 -0.035 0.13
v -0.276 -0.11 0.26
v -0.236 -0.11 0.26
v -0.236 -0.04 0.26
v -0.276 -0.04 0.26
v -0.236 -0.11 0.2
v -0.236 -0.04 0.2
v -0.276 -0.04 0.2
v -0.276 -0.11 0.2
v -0.267 -0.086 0.2015
v -0.245 -0.086 0.2015
v -0.245 -0.064 0.2015
v -0.267 -0.064 0.2015
v -0.245 -0.086 0
v -0.245 -0.064 0
v -0.245 -0.064 0.2
v -0.245 -0.086 0.2
v -0.267 -0.064 0
v -0.267 -0.064 0.2
v -0.267 -0.086 0
v -0.267 -0.086 0.2
v -0.152 0.105 0.43
v -0.1464 0.084 0.43
v -0.1464 0.084 0.468
v -0.152 0.105 0.468
v -0.131 0.0686 0.43
v -0.131 0.0686 0.468
v -0.11 0.063 0.43
v -0.11 0.063 0.468
v -0.089 0.0686 0.43
v -0.089 0.0686 0.468
v -0.0736 0.084 0.43
v -0.0736 0.084 0.468
v -0.068 0.105 0.43
v -0.068 0.105 0.468
v -0.0736 0.126 0.43
v -0.0736 0.126 0.468
v -0.089 0.1414 0.43
v -0.089 0.1414 0.468
v -0.11 0.147 0.43
v -0.11 0.147 0.468
v -0.131 0.1414 0.43
v -0.131 0.1414 0.468
v -0.1464 0.126 0.43
v -0.1464 0.126 0.468
v -0.1464 0.126 0.4285
v -0.131 0.1414 0.4285
v -0.11 0.147 0.4285
v -0.089 0.1414 0.4285
v -0.0736 0.126 0.4285
v -0.068 0.105 0.4285
v -0.0736 0.084 0.4285
v -0.089 0.0686 0.4285
v -0.11 0.063 0.4285
v -0.131 0.0686 0.4285
v -0.1464 0.084 0.4285
v -0.152 0.105 0.4285
v -0.1376 -0.0431 0.43
v -0.1195 -0.0745 0.43
v -0.1195 -0.0745 0.442
v -0.1376 -0.0431 0.442
v -0.0881 -0.0926 0.43
v -0.0881 -0.0926 0.442
v -0.0519 -0.0926 0.43
v -0.0519 -0.0926 0.442
v -0.0205 -0.0745 0.43
v -0.0205 -0.0745 0.442
v -0.0024 -0.0431 0.43
v -0.0024 -0.0431 0.442
v -0.0024 -0.0069 0.43
v -0.0024 -0.0069 0.442
v -0.0205 0.0245 0.43
v -0.0205 0.0245 0.442
v -0.0519 0.0426 0.43
v -0.0519 0.0426 0.442
v -0.0881 0.0426 0.43
v -0.0881 0.0426 0.442
v -0.1195 0.0245 0.43
v -0.1195 0.0245 0.442
v -0.1376 -0.0069 0.43
v -0.1376 -0.0069 0.442
v -0.1376 -0.0069 0.4285
v -0.1195 0.0245 0.4285
v -0.0881 0.0426 0.4285
v -0.0519 0.0426 0.4285
v -0.0205 0.0245 0.4285
v -0.0024 -0.0069 0.4285
v -0.0024 -0.0431 0.4285
v -0.0205 -0.0745 0.4285
v -0.0519 -0.0926 0.4285
v -0.0881 -0.0926 0.4285
v -0.1195 -0.0745 0.4285
v -0.1376 -0.0431 0.4285
v -0.1241 -0.0395 0.442
v -0.1096 -0.0646 0.442
v -0.1096 -0.0646 0.478
v -0.1241 -0.0395 0.478
v -0.0845 -0.0791 0.442
v -0.0845 -0.0791 0.478
v -0.0555 -0.0791 0.442
v -0.0555 -0.0791 0.478
v -0.0304 -0.0646 0.442
v -0.0304 -0.0646 0.478
v -0.0159 -0.0395 0.442
v -0.0159 -0.0395 0.478
v -0.0159 -0.0105 0.442
v -0.0159 -0.0105 0.478
v -0.0304 0.0146 0.442
v -0.0304 0.0146 0.478
v -0.0555 0.0291 0.442
v -0.0555 0.0291 0.478
v -0.0845 0.0291 0.442
v -0.0845 0.0291 0.478
v -0.1096 0.0146 0.442
v -0.1096 0.0146 0.478
v -0.1241 -0.0105 0.442
v -0.1241 -0.0105 0.478
v -0.1241 -0.0105 0.4405
v -0.1096 0.0146 0.4405
v -0.0845 0.0291 0.4405
v -0.0555 0.0291 0.4405
v -0.0304 0.0146 0.4405
v -0.0159 -0.0105 0.4405
v -0.0159 -0.0395 0.4405
v -0.0304 -0.0646 0.4405
v -0.0555 -0.0791 0.4405
v -0.0845 -0.0791 0.4405
v -0.1096 -0.0646 0.4405
v -0.1241 -0.0395 0.4405
v -0.1035 -0.034 0.478
v -0.0946 -0.0496 0.478
v -0.0946 -0.0496 0.49
v -0.1035 -0.034 0.49
v -0.079 -0.0585 0.478
v -0.079 -0.0585 0.49
v -0.061 -0.0585 0.478
v -0.061 -0.0585 0.49
v -0.0454 -0.0496 0.478
v -0.0454 -0.0496 0.49
v -0.0365 -0.034 0.478
v -0.0365 -0.034 0.49
v -0.0365 -0.016 0.478
v -0.0365 -0.016 0.49
v -0.0454 -0.0004 0.478
v -0.0454 -0.0004 0.49
v -0.061 0.0085 0.478
v -0.061 0.0085 0.49
v -0.079 0.0085 0.478
v -0.079 0.0085 0.49
v -0.0946 -0.0004 0.478
v -0.0946 -0.0004 0.49
v -0.1035 -0.016 0.478
v -0.1035 -0.016 0.49
v -0.1035 -0.016 0.4765
v -0.0946 -0.0004 0.4765
v -0.079 0.0085 0.4765
v -0.061 0.0085 0.4765
v -0.0454 -0.0004 0.4765
v -0.0365 -0.016 0.4765
v -0.0365 -0.034 0.4765
v -0.0454 -0.0496 0.4765
v -0.061 -0.0585 0.4765
v -0.079 -0.0585 0.4765
v -0.0946 -0.0496 0.4765
v -0.1035 -0.034 0.4765
vt 0.890625 0.984375
vt 0.328125 0.953125
vt 0.046875 0.953125
vt 0.671875 0.984375
vt 0.015625 0.953125
vt 0.921875 0.984375
vt 0.609375 0.921875
vt 0.296875 0.953125
vt 0.484375 0.953125
vt 0.546875 0.984375
vt 0.296875 0.984375
vt 0.546875 0.890625
vt 0.140625 0.890625
vt 0.140625 0.984375
vt 0.296875 0.890625
vt 0.046875 0.984375
vt 0.265625 0.921875
vt 0.640625 0.953125
vt 0.796875 0.984375
vt 0.390625 0.984375
vt 0.484375 0.984375
vt 0.953125 0.984375
vt 0.515625 0.953125
vt 0.859375 0.984375
vt 0.234375 0.953125
vn 0 0 -1
vn 0 -1 0
vn 0 -0.9138 0.4061
vn 0 -0.1644 0.9864
vn 0 0 1
vn 0 0.1644 0.9864
vn 0 0.9138 0.4061
vn 0 1 0
vn -1 0 0
vn 1 0 0
vn 0 -0.3443 0.9389
vn 0 0.3443 0.9389
vn -0.669 0 0.7433
vn 0.669 0 0.7433
vn -0.9659 -0.2588 0
vn -0.7071 -0.7071 0
vn -0.2588 -0.9659 0
vn 0.2588 -0.9659 0
vn 0.7071 -0.7071 0
vn 0.9659 -0.2588 0
vn 0.9659 0.2588 0
vn 0.7071 0.7071 0
vn 0.2588 0.9659 0
vn -0.2588 0.9659 0
vn -0.7071 0.7071 0
vn -0.9659 0.2588 0
vn -0.866 -0.5 0
vn -0.5 -0.866 0
vn 0.5 -0.866 0
vn 0.866 -0.5 0
vn 0.866 0.5 0
vn 0.5 0.866 0
vn -0.5 0.866 0
vn -0.866 0.5 0
f 1/1/1 2/1/1 3/1/1
f 1/1/1 3/1/1 4/1/1
f 2/1/2 5/1/2 6/1/2
f 2/1/2 6/1/2 3/1/2
f 5/2/3 7/2/3 8/2/3
f 5/2/3 8/2/3 6/2/3
f 7/3/4 9/3/4 10/3/4
f 7/3/4 10/3/4 8/3/4
f 9/3/5 11/3/5 12/3/5
f 9/3/5 12/3/5 10/3/5
f 11/3/6 13/3/6 14/3/6
f 11/3/6 14/3/6 12/3/6
f 13/2/7 15/2/7 16/2/7
f 13/2/7 16/2/7 14/2/7
f 15/1/8 1/1/8 4/1/8
f 15/1/8 4/1/8 16/1/8
f 4/1/9 3/1/9 6/1/9
f 4/1/9 6/1/9 8/1/9
f 4/1/9 8/1/9 10/1/9
f 4/1/9 10/1/9 12/1/9
f 4/1/9 12/1/9 14/1/9
f 4/1/9 14/1/9 16/1/9
f 15/1/10 13/1/10 11/1/10
f 15/1/10 11/1/10 9/1/10
f 15/1/10 9/1/10 7/1/10
f 15/1/10 7/1/10 5/1/10
f 15/1/10 5/1/10 2/1/10
f 15/1/10 2/1/10 1/1/10
f 17/4/1 18/4/1 19/4/1
f 17/4/1 19/4/1 20/4/1
f 18/4/2 21/4/2 22/4/2
f 18/4/2 22/4/2 19/4/2
f 21/5/3 23/5/3 24/5/3
f 21/5/3 24/5/3 22/5/3
f 23/6/11 25/6/11 26/6/11
f 23/6/11 26/6/11 24/6/11
f 25/6/5 27/6/5 28/6/5
f 25/6/5 28/6/5 26/6/5
f 27/6/12 29/6/12 30/6/12
f 27/6/12 30/6/12 28/6/12
f 29/5/7 31/5/7 32/5/7
f 29/5/7 32/5/7 30/5/7
f 31/4/8 17/4/8 20/4/8
f 31/4/8 20/4/8 32/4/8
f 33/4/9 34/4/9 35/4/9
f 33/4/9 35/4/9 36/4/9
f 33/4/9 36/4/9 37/4/9
f 33/4/9 37/4/9 38/4/9
f 33/4/9 38/4/9 39/4/9
f 33/4/9 39/4/9 40/4/9
f 31/4/10 29/4/10 27/4/10
f 31/4/10 27/4/10 25/4/10
f 31/4/10 25/4/10 23/4/10
f 31/4/10 23/4/10 21/4/10
f 31/4/10 21/4/10 18/4/10
f 31/4/10 18/4/10 17/4/10
f 41/4/1 42/4/1 43/4/1
f 41/4/1 43/4/1 44/4/1
f 42/4/2 45/4/2 46/4/2
f 42/4/2 46/4/2 43/4/2
f 45/5/3 47/5/3 48/5/3
f 45/5/3 48/5/3 46/5/3
f 47/6/11 49/6/11 50/6/11
f 47/6/11 50/6/11 48/6/11
f 49/6/5 51/6/5 52/6/5
f 49/6/5 52/6/5 50/6/5
f 51/6/12 53/6/12 54/6/12
f 51/6/12 54/6/12 52/6/12
f 53/5/7 55/5/7 56/5/7
f 53/5/7 56/5/7 54/5/7
f 55/4/8 41/4/8 44/4/8
f 55/4/8 44/4/8 56/4/8
f 44/4/9 43/4/9 46/4/9
f 44/4/9 46/4/9 48/4/9
f 44/4/9 48/4/9 50/4/9
f 44/4/9 50/4/9 52/4/9
f 44/4/9 52/4/9 54/4/9
f 44/4/9 54/4/9 56/4/9
f 57/4/10 58/4/10 59/4/10
f 57/4/10 59/4/10 60/4/10
f 57/4/10 60/4/10 61/4/10
f 57/4/10 61/4/10 62/4/10
f 57/4/10 62/4/10 63/4/10
f 57/4/10 63/4/10 64/4/10
f 65/7/5 66/7/5 67/7/5
f 65/7/5 67/7/5 68/7/5
f 69/7/10 70/7/10 71/7/10
f 69/7/10 71/7/10 72/7/10
f 73/7/8 74/7/8 68/7/8
f 73/7/8 68/7/8 67/7/8
f 75/7/2 76/7/2 66/7/2
f 75/7/2 66/7/2 65/7/2
f 77/7/9 78/7/9 79/7/9
f 77/7/9 79/7/9 80/7/9
f 75/7/1 74/7/1 73/7/1
f 75/7/1 73/7/1 76/7/1
f 81/3/1 82/3/1 83/3/1
f 81/3/1 83/3/1 84/3/1
f 82/3/9 85/3/9 86/3/9
f 82/3/9 86/3/9 83/3/9
f 85/8/13 87/8/13 88/8/13
f 85/8/13 88/8/13 86/8/13
f 87/9/5 89/9/5 90/9/5
f 87/9/5 90/9/5 88/9/5
f 89/8/14 91/8/14 92/8/14
f 89/8/14 92/8/14 90/8/14
f 93/3/10 94/3/10 95/3/10
f 93/3/10 95/3/10 96/3/10
f 91/3/2 89/3/2 87/3/2
f 91/3/2 87/3/2 85/3/2
f 91/3/2 85/3/2 82/3/2
f 91/3/2 82/3/2 81/3/2
f 84/3/8 83/3/8 86/3/8
f 84/3/8 86/3/8 88/3/8
f 84/3/8 88/3/8 90/3/8
f 84/3/8 90/3/8 92/3/8
f 97/10/2 98/10/2 99/10/2
f 97/10/2 99/10/2 100/10/2
f 101/10/8 102/10/8 103/10/8
f 101/10/8 103/10/8 104/10/8
f 105/10/2 106/10/2 107/10/2
f 105/10/2 107/10/2 108/10/2
f 109/10/2 110/10/2 111/10/2
f 109/10/2 111/10/2 112/10/2
f 113/10/2 114/10/2 115/10/2
f 113/10/2 115/10/2 116/10/2
f 117/10/2 118/10/2 119/10/2
f 117/10/2 119/10/2 120/10/2
f 121/11/2 122/11/2 123/11/2
f 121/11/2 123/11/2 124/11/2
f 125/12/2 126/12/2 127/12/2
f 125/12/2 127/12/2 128/12/2
f 129/7/2 130/7/2 131/7/2
f 129/7/2 131/7/2 132/7/2
f 133/11/2 134/11/2 135/11/2
f 133/11/2 135/11/2 136/11/2
f 137/11/2 138/11/2 139/11/2
f 137/11/2 139/11/2 140/11/2
f 141/11/2 142/11/2 143/11/2
f 141/11/2 143/11/2 144/11/2
f 145/10/8 146/10/8 147/10/8
f 145/10/8 147/10/8 148/10/8
f 149/10/8 150/10/8 151/10/8
f 149/10/8 151/10/8 152/10/8
f 153/10/8 154/10/8 155/10/8
f 153/10/8 155/10/8 156/10/8
f 157/10/8 158/10/8 159/10/8
f 157/10/8 159/10/8 160/10/8
f 161/11/8 162/11/8 163/11/8
f 161/11/8 163/11/8 164/11/8
f 165/12/8 166/12/8 167/12/8
f 165/12/8 167/12/8 168/12/8
f 169/7/8 170/7/8 171/7/8
f 169/7/8 171/7/8 172/7/8
f 173/11/8 174/11/8 175/11/8
f 173/11/8 175/11/8 176/11/8
f 177/11/8 178/11/8 179/11/8
f 177/11/8 179/11/8 180/11/8
f 181/11/8 182/11/8 183/11/8
f 181/11/8 183/11/8 184/11/8
f 185/10/9 186/10/9 187/10/9
f 185/10/9 187/10/9 188/10/9
f 189/13/9 190/13/9 191/13/9
f 189/13/9 191/13/9 192/13/9
f 193/13/9 194/13/9 195/13/9
f 193/13/9 195/13/9 196/13/9
f 197/14/9 198/14/9 199/14/9
f 197/14/9 199/14/9 200/14/9
f 201/15/9 202/15/9 203/15/9
f 201/15/9 203/15/9 204/15/9
f 205/11/10 206/11/10 207/11/10
f 205/11/10 207/11/10 208/11/10
f 209/16/10 210/16/10 211/16/10
f 209/16/10 211/16/10 212/16/10
f 213/16/10 214/16/10 215/16/10
f 213/16/10 215/16/10 216/16/10
f 217/16/10 218/16/10 219/16/10
f 217/16/10 219/16/10 220/16/10
f 221/16/10 222/16/10 223/16/10
f 221/16/10 223/16/10 224/16/10
f 225/16/10 226/16/10 227/16/10
f 225/16/10 227/16/10 228/16/10
f 229/16/10 230/16/10 231/16/10
f 229/16/10 231/16/10 232/16/10
f 233/16/10 234/16/10 235/16/10
f 233/16/10 235/16/10 236/16/10
f 237/16/10 238/16/10 239/16/10
f 237/16/10 239/16/10 240/16/10
f 241/16/10 242/16/10 243/16/10
f 241/16/10 243/16/10 244/16/10
f 245/16/10 246/16/10 247/16/10
f 245/16/10 247/16/10 248/16/10
f 249/17/5 250/17/5 251/17/5
f 249/17/5 251/17/5 252/17/5
f 253/18/10 254/18/10 251/18/10
f 253/18/10 251/18/10 250/18/10
f 254/18/8 255/18/8 252/18/8
f 254/18/8 252/18/8 251/18/8
f 256/18/2 253/18/2 250/18/2
f 256/18/2 250/18/2 249/18/2
f 255/18/9 256/18/9 249/18/9
f 255/18/9 249/18/9 252/18/9
f 256/18/1 255/18/1 254/18/1
f 256/18/1 254/18/1 253/18/1
f 257/19/5 258/19/5 259/19/5
f 257/19/5 259/19/5 260/19/5
f 261/20/10 262/20/10 263/20/10
f 261/20/10 263/20/10 264/20/10
f 262/20/8 265/20/8 266/20/8
f 262/20/8 266/20/8 263/20/8
f 267/20/2 261/20/2 264/20/2
f 267/20/2 264/20/2 268/20/2
f 265/20/9 267/20/9 268/20/9
f 265/20/9 268/20/9 266/20/9
f 267/20/1 265/20/1 262/20/1
f 267/20/1 262/20/1 261/20/1
f 269/21/15 270/21/15 271/21/15
f 269/21/15 271/21/15 272/21/15
f 270/21/16 273/21/16 274/21/16
f 270/21/16 274/21/16 271/21/16
f 273/21/17 275/21/17 276/21/17
f 273/21/17 276/21/17 274/21/17
f 275/21/18 277/21/18 278/21/18
f 275/21/18 278/21/18 276/21/18
f 277/21/19 279/21/19 280/21/19
f 277/21/19 280/21/19 278/21/19
f 279/21/20 281/21/20 282/21/20
f 279/21/20 282/21/20 280/21/20
f 281/21/21 283/21/21 284/21/21
f 281/21/21 284/21/21 282/21/21
f 283/21/22 285/21/22 286/21/22
f 283/21/22 286/21/22 284/21/22
f 285/21/23 287/21/23 288/21/23
f 285/21/23 288/21/23 286/21/23
f 287/21/24 289/21/24 290/21/24
f 287/21/24 290/21/24 288/21/24
f 289/21/25 291/21/25 292/21/25
f 289/21/25 292/21/25 290/21/25
f 291/21/26 269/21/26 272/21/26
f 291/21/26 272/21/26 292/21/26
f 272/21/5 271/21/5 274/21/5
f 272/21/5 274/21/5 276/21/5
f 272/21/5 276/21/5 278/21/5
f 272/21/5 278/21/5 280/21/5
f 272/21/5 280/21/5 282/21/5
f 272/21/5 282/21/5 284/21/5
f 272/21/5 284/21/5 286/21/5
f 272/21/5 286/21/5 288/21/5
f 272/21/5 288/21/5 290/21/5
f 272/21/5 290/21/5 292/21/5
f 293/21/1 294/21/1 295/21/1
f 293/21/1 295/21/1 296/21/1
f 293/21/1 296/21/1 297/21/1
f 293/21/1 297/21/1 298/21/1
f 293/21/1 298/21/1 299/21/1
f 293/21/1 299/21/1 300/21/1
f 293/21/1 300/21/1 301/21/1
f 293/21/1 301/21/1 302/21/1
f 293/21/1 302/21/1 303/21/1
f 293/21/1 303/21/1 304/21/1
f 305/22/27 306/22/27 307/22/27
f 305/22/27 307/22/27 308/22/27
f 306/22/28 309/22/28 310/22/28
f 306/22/28 310/22/28 307/22/28
f 309/22/2 311/22/2 312/22/2
f 309/22/2 312/22/2 310/22/2
f 311/22/29 313/22/29 314/22/29
f 311/22/29 314/22/29 312/22/29
f 313/22/30 315/22/30 316/22/30
f 313/22/30 316/22/30 314/22/30
f 315/22/10 317/22/10 318/22/10
f 315/22/10 318/22/10 316/22/10
f 317/22/31 319/22/31 320/22/31
f 317/22/31 320/22/31 318/22/31
f 319/22/32 321/22/32 322/22/32
f 319/22/32 322/22/32 320/22/32
f 321/22/8 323/22/8 324/22/8
f 321/22/8 324/22/8 322/22/8
f 323/22/33 325/22/33 326/22/33
f 323/22/33 326/22/33 324/22/33
f 325/22/34 327/22/34 328/22/34
f 325/22/34 328/22/34 326/22/34
f 327/22/9 305/22/9 308/22/9
f 327/22/9 308/22/9 328/22/9
f 308/23/5 307/23/5 310/23/5
f 308/23/5 310/23/5 312/23/5
f 308/23/5 312/23/5 314/23/5
f 308/23/5 314/23/5 316/23/5
f 308/23/5 316/23/5 318/23/5
f 308/23/5 318/23/5 320/23/5
f 308/23/5 320/23/5 322/23/5
f 308/23/5 322/23/5 324/23/5
f 308/23/5 324/23/5 326/23/5
f 308/23/5 326/23/5 328/23/5
f 329/23/1 330/23/1 331/23/1
f 329/23/1 331/23/1 332/23/1
f 329/23/1 332/23/1 333/23/1
f 329/23/1 333/23/1 334/23/1
f 329/23/1 334/23/1 335/23/1
f 329/23/1 335/23/1 336/23/1
f 329/23/1 336/23/1 337/23/1
f 329/23/1 337/23/1 338/23/1
f 329/23/1 338/23/1 339/23/1
f 329/23/1 339/23/1 340/23/1
f 341/24/27 342/24/27 343/24/27
f 341/24/27 343/24/27 344/24/27
f 342/24/28 345/24/28 346/24/28
f 342/24/28 346/24/28 343/24/28
f 345/24/2 347/24/2 348/24/2
f 345/24/2 348/24/2 346/24/2
f 347/24/29 349/24/29 350/24/29
f 347/24/29 350/24/29 348/24/29
f 349/24/30 351/24/30 352/24/30
f 349/24/30 352/24/30 350/24/30
f 351/24/10 353/24/10 354/24/10
f 351/24/10 354/24/10 352/24/10
f 353/24/31 355/24/31 356/24/31
f 353/24/31 356/24/31 354/24/31
f 355/24/32 357/24/32 358/24/32
f 355/24/32 358/24/32 356/24/32
f 357/24/8 359/24/8 360/24/8
f 357/24/8 360/24/8 358/24/8
f 359/24/33 361/24/33 362/24/33
f 359/24/33 362/24/33 360/24/33
f 361/24/34 363/24/34 364/24/34
f 361/24/34 364/24/34 362/24/34
f 363/24/9 341/24/9 344/24/9
f 363/24/9 344/24/9 364/24/9
f 344/25/5 343/25/5 346/25/5
f 344/25/5 346/25/5 348/25/5
f 344/25/5 348/25/5 350/25/5
f 344/25/5 350/25/5 352/25/5
f 344/25/5 352/25/5 354/25/5
f 344/25/5 354/25/5 356/25/5
f 344/25/5 356/25/5 358/25/5
f 344/25/5 358/25/5 360/25/5
f 344/25/5 360/25/5 362/25/5
f 344/25/5 362/25/5 364/25/5
f 365/25/1 366/25/1 367/25/1
f 365/25/1 367/25/1 368/25/1
f 365/25/1 368/25/1 369/25/1
f 365/25/1 369/25/1 370/25/1
f 365/25/1 370/25/1 371/25/1
f 365/25/1 371/25/1 372/25/1
f 365/25/1 372/25/1 373/25/1
f 365/25/1 373/25/1 374/25/1
f 365/25/1 374/25/1 375/25/1
f 365/25/1 375/25/1 376/25/1
f 377/24/27 378/24/27 379/24/27
f 377/24/27 379/24/27 380/24/27
f 378/24/28 381/24/28 382/24/28
f 378/24/28 382/24/28 379/24/28
f 381/24/2 383/24/2 384/24/2
f 381/24/2 384/24/2 382/24/2
f 383/24/29 385/24/29 386/24/29
f 383/24/29 386/24/29 384/24/29
f 385/24/30 387/24/30 388/24/30
f 385/24/30 388/24/30 386/24/30
f 387/24/10 389/24/10 390/24/10
f 387/24/10 390/24/10 388/24/10
f 389/24/31 391/24/31 392/24/31
f 389/24/31 392/24/31 390/24/31
f 391/24/32 393/24/32 394/24/32
f 391/24/32 394/24/32 392/24/32
f 393/24/8 395/24/8 396/24/8
f 393/24/8 396/24/8 394/24/8
f 395/24/33 397/24/33 398/24/33
f 395/24/33 398/24/33 396/24/33
f 397/24/34 399/24/34 400/24/34
f 397/24/34 400/24/34 398/24/34
f 399/24/9 377/24/9 380/24/9
f 399/24/9 380/24/9 400/24/9
f 380/25/5 379/25/5 382/25/5
f 380/25/5 382/25/5 384/25/5
f 380/25/5 384/25/5 386/25/5
f 380/25/5 386/25/5 388/25/5
f 380/25/5 388/25/5 390/25/5
f 380/25/5 390/25/5 392/25/5
f 380/25/5 392/25/5 394/25/5
f 380/25/5 394/25/5 396/25/5
f 380/25/5 396/25/5 398/25/5
f 380/25/5 398/25/5 400/25/5
f 401/25/1 402/25/1 403/25/1
f 401/25/1 403/25/1 404/25/1
f 401/25/1 404/25/1 405/25/1
f 401/25/1 405/25/1 406/25/1
f 401/25/1 406/25/1 407/25/1
f 401/25/1 407/25/1 408/25/1
f 401/25/1 408/25/1 409/25/1
f 401/25/1 409/25/1 410/25/1
f 401/25/1 410/25/1 411/25/1
f 401/25/1 411/25/1 412/25/1
