# Off-Grid bank_wall_makeshift_c1_S for Project Viewpoint. Z up, tile units, x east, y south. Generated by tools/build_viewpoint.py.
mtllib offgrid.mtl
o bank_wall_makeshift_c1_S
usemtl offgrid
v -0.4 -0.48 0.85
v 0.4 -0.48 0.85
v 0.4 -0.24 0.85
v -0.4 -0.24 0.85
v 0.4 -0.48 0.8
v 0.4 -0.24 0.8
v -0.4 -0.24 0.8
v -0.4 -0.48 0.8
v -0.34 -0.46 0.81
v -0.28 -0.46 0.81
v -0.28 -0.41 0.81
v -0.34 -0.41 0.81
v -0.28 -0.46 0.64
v -0.28 -0.41 0.64
v -0.34 -0.41 0.64
v -0.34 -0.46 0.64
v 0.28 -0.46 0.81
v 0.34 -0.46 0.81
v 0.34 -0.41 0.81
v 0.28 -0.41 0.81
v 0.34 -0.46 0.64
v 0.34 -0.41 0.64
v 0.28 -0.41 0.64
v 0.28 -0.46 0.64
v -0.37 -0.43 1.05
v -0.06 -0.43 1.05
v -0.06 -0.28 1.05
v -0.37 -0.28 1.05
v -0.06 -0.43 0.85
v -0.06 -0.28 0.85
v -0.37 -0.28 0.85
v -0.37 -0.43 0.85
v -0.37 -0.43 0.8485
v -0.37 -0.28 0.8485
v -0.06 -0.28 0.8485
v -0.06 -0.43 0.8485
v -0.3266 -0.42 1.08
v -0.2816 -0.42 1.08
v -0.2816 -0.375 1.08
v -0.3266 -0.375 1.08
v -0.2816 -0.42 1.05
v -0.2816 -0.375 1.05
v -0.3266 -0.375 1.05
v -0.3266 -0.42 1.05
v -0.3266 -0.42 1.0485
v -0.3266 -0.375 1.0485
v -0.2816 -0.375 1.0485
v -0.2816 -0.42 1.0485
v -0.153 -0.42 1.08
v -0.108 -0.42 1.08
v -0.108 -0.375 1.08
v -0.153 -0.375 1.08
v -0.108 -0.42 1.05
v -0.108 -0.375 1.05
v -0.153 -0.375 1.05
v -0.153 -0.42 1.05
v -0.153 -0.42 1.0485
v -0.153 -0.375 1.0485
v -0.108 -0.375 1.0485
v -0.108 -0.42 1.0485
v -0.36 -0.475 0.875
v 0.36 -0.475 0.875
v 0.36 -0.445 0.875
v -0.36 -0.445 0.875
v 0.36 -0.475 0.85
v 0.36 -0.445 0.85
v -0.36 -0.445 0.85
v -0.36 -0.475 0.85
v -0.36 -0.475 0.8485
v -0.36 -0.445 0.8485
v 0.36 -0.445 0.8485
v 0.36 -0.475 0.8485
v 0.26 -0.44 0.82
v 0.295 -0.44 0.82
v 0.295 -0.405 0.82
v 0.26 -0.405 0.82
v 0.295 -0.44 0.5
v 0.295 -0.405 0.5
v 0.26 -0.405 0.5
v 0.26 -0.44 0.5
vt 0.421875 0.921875
vt 0.828125 0.953125
vt 0.703125 0.953125
vt 0.171875 0.953125
vt 0.234375 0.890625
vt 0.515625 0.921875
vt 0.265625 0.953125
vt 0.765625 0.984375
vt 0.796875 0.984375
vt 0.390625 0.984375
vn 0 0 1
vn 1 0 0
vn 0 1 0
vn 0 -1 0
vn -1 0 0
vn 0 0 -1
f 1/1/1 2/1/1 3/1/1
f 1/1/1 3/1/1 4/1/1
f 5/2/2 6/2/2 3/2/2
f 5/2/2 3/2/2 2/2/2
f 6/2/3 7/2/3 4/2/3
f 6/2/3 4/2/3 3/2/3
f 8/2/4 5/2/4 2/2/4
f 8/2/4 2/2/4 1/2/4
f 7/2/5 8/2/5 1/2/5
f 7/2/5 1/2/5 4/2/5
f 8/2/6 7/2/6 6/2/6
f 8/2/6 6/2/6 5/2/6
f 9/1/1 10/1/1 11/1/1
f 9/1/1 11/1/1 12/1/1
f 13/2/2 14/2/2 11/2/2
f 13/2/2 11/2/2 10/2/2
f 14/2/3 15/2/3 12/2/3
f 14/2/3 12/2/3 11/2/3
f 16/2/4 13/2/4 10/2/4
f 16/2/4 10/2/4 9/2/4
f 15/2/5 16/2/5 9/2/5
f 15/2/5 9/2/5 12/2/5
f 16/2/6 15/2/6 14/2/6
f 16/2/6 14/2/6 13/2/6
f 17/1/1 18/1/1 19/1/1
f 17/1/1 19/1/1 20/1/1
f 21/2/2 22/2/2 19/2/2
f 21/2/2 19/2/2 18/2/2
f 22/2/3 23/2/3 20/2/3
f 22/2/3 20/2/3 19/2/3
f 24/2/4 21/2/4 18/2/4
f 24/2/4 18/2/4 17/2/4
f 23/2/5 24/2/5 17/2/5
f 23/2/5 17/2/5 20/2/5
f 24/2/6 23/2/6 22/2/6
f 24/2/6 22/2/6 21/2/6
f 25/3/1 26/3/1 27/3/1
f 25/3/1 27/3/1 28/3/1
f 29/4/2 30/4/2 27/4/2
f 29/4/2 27/4/2 26/4/2
f 30/4/3 31/4/3 28/4/3
f 30/4/3 28/4/3 27/4/3
f 32/4/4 29/4/4 26/4/4
f 32/4/4 26/4/4 25/4/4
f 31/4/5 32/4/5 25/4/5
f 31/4/5 25/4/5 28/4/5
f 33/4/6 34/4/6 35/4/6
f 33/4/6 35/4/6 36/4/6
f 37/5/1 38/5/1 39/5/1
f 37/5/1 39/5/1 40/5/1
f 41/6/2 42/6/2 39/6/2
f 41/6/2 39/6/2 38/6/2
f 42/6/3 43/6/3 40/6/3
f 42/6/3 40/6/3 39/6/3
f 44/6/4 41/6/4 38/6/4
f 44/6/4 38/6/4 37/6/4
f 43/6/5 44/6/5 37/6/5
f 43/6/5 37/6/5 40/6/5
f 45/6/6 46/6/6 47/6/6
f 45/6/6 47/6/6 48/6/6
f 49/7/1 50/7/1 51/7/1
f 49/7/1 51/7/1 52/7/1
f 53/8/2 54/8/2 51/8/2
f 53/8/2 51/8/2 50/8/2
f 54/8/3 55/8/3 52/8/3
f 54/8/3 52/8/3 51/8/3
f 56/8/4 53/8/4 50/8/4
f 56/8/4 50/8/4 49/8/4
f 55/8/5 56/8/5 49/8/5
f 55/8/5 49/8/5 52/8/5
f 57/8/6 58/8/6 59/8/6
f 57/8/6 59/8/6 60/8/6
f 61/9/1 62/9/1 63/9/1
f 61/9/1 63/9/1 64/9/1
f 65/10/2 66/10/2 63/10/2
f 65/10/2 63/10/2 62/10/2
f 66/10/3 67/10/3 64/10/3
f 66/10/3 64/10/3 63/10/3
f 68/10/4 65/10/4 62/10/4
f 68/10/4 62/10/4 61/10/4
f 67/10/5 68/10/5 61/10/5
f 67/10/5 61/10/5 64/10/5
f 69/10/6 70/10/6 71/10/6
f 69/10/6 71/10/6 72/10/6
f 73/9/1 74/9/1 75/9/1
f 73/9/1 75/9/1 76/9/1
f 77/10/2 78/10/2 75/10/2
f 77/10/2 75/10/2 74/10/2
f 78/10/3 79/10/3 76/10/3
f 78/10/3 76/10/3 75/10/3
f 80/10/4 77/10/4 74/10/4
f 80/10/4 74/10/4 73/10/4
f 79/10/5 80/10/5 73/10/5
f 79/10/5 73/10/5 76/10/5
f 80/10/6 79/10/6 78/10/6
f 80/10/6 78/10/6 77/10/6
