# Off-Grid bank_ground_standard_c2_S for Project Viewpoint. Z up, tile units, x east, y south. Generated by tools/build_viewpoint.py.
mtllib offgrid.mtl
o bank_ground_standard_c2_S
usemtl offgrid
v -0.4075 -0.2475 0.8
v -0.3525 -0.2475 0.8
v -0.3525 -0.1925 0.8
v -0.4075 -0.1925 0.8
v -0.3525 -0.2475 0
v -0.3525 -0.1925 0
v -0.4075 -0.1925 0
v -0.4075 -0.2475 0
v 0.3525 -0.2475 0.8
v 0.4075 -0.2475 0.8
v 0.4075 -0.1925 0.8
v 0.3525 -0.1925 0.8
v 0.4075 -0.2475 0
v 0.4075 -0.1925 0
v 0.3525 -0.1925 0
v 0.3525 -0.2475 0
v -0.4075 0.2125 0.46
v -0.3525 0.2125 0.46
v -0.3525 0.2675 0.46
v -0.4075 0.2675 0.46
v -0.3525 0.2125 0
v -0.3525 0.2675 0
v -0.4075 0.2675 0
v -0.4075 0.2125 0
v 0.3525 0.2125 0.46
v 0.4075 0.2125 0.46
v 0.4075 0.2675 0.46
v 0.3525 0.2675 0.46
v 0.4075 0.2125 0
v 0.4075 0.2675 0
v 0.3525 0.2675 0
v 0.3525 0.2125 0
v -0.38 -0.24 0.775
v 0.38 -0.24 0.775
v 0.38 -0.205 0.775
v -0.38 -0.205 0.775
v 0.38 -0.24 0.74
v 0.38 -0.205 0.74
v -0.38 -0.205 0.74
v -0.38 -0.24 0.74
v -0.42 -0.26 0.065
v 0.42 -0.26 0.065
v 0.42 0.28 0.065
v -0.42 0.28 0.065
v 0.42 -0.26 0.03
v 0.42 0.28 0.03
v -0.42 0.28 0.03
v -0.42 -0.26 0.03
v -0.42 -0.24 0.495
v 0.42 -0.24 0.495
v 0.42 -0.14 0.495
v -0.42 -0.14 0.495
v 0.42 -0.24 0.46
v 0.42 -0.14 0.46
v -0.42 -0.14 0.46
v -0.42 -0.24 0.46
v -0.42 0.04 0.495
v 0.42 0.04 0.495
v 0.42 0.14 0.495
v -0.42 0.14 0.495
v 0.42 0.04 0.46
v 0.42 0.14 0.46
v -0.42 0.14 0.46
v -0.42 0.04 0.46
v -0.35 -0.06 0.325
v -0.1587 -0.06 0.325
v -0.1587 0.26 0.325
v -0.35 0.26 0.325
v -0.1587 -0.06 0.065
v -0.1587 0.26 0.065
v -0.35 0.26 0.065
v -0.35 -0.06 0.065
v -0.35 -0.06 0.0635
v -0.35 0.26 0.0635
v -0.1587 0.26 0.0635
v -0.1587 -0.06 0.0635
v -0.35 0.258 0.265
v -0.1587 0.258 0.265
v -0.1587 0.258 0.195
v -0.35 0.258 0.195
v -0.35 0.257 0.195
v -0.1587 0.257 0.195
v -0.1587 0.257 0.265
v -0.35 0.257 0.265
v -0.3156 0.01 0.339
v -0.2008 0.01 0.339
v -0.2008 0.19 0.339
v -0.3156 0.19 0.339
v -0.2008 0.01 0.325
v -0.2008 0.19 0.325
v -0.3156 0.19 0.325
v -0.3156 0.01 0.325
v -0.3156 0.01 0.3235
v -0.3156 0.19 0.3235
v -0.2008 0.19 0.3235
v -0.2008 0.01 0.3235
v -0.3309 -0.035 0.357
v -0.2949 -0.035 0.357
v -0.2949 0.001 0.357
v -0.3309 0.001 0.357
v -0.2949 -0.035 0.325
v -0.2949 0.001 0.325
v -0.3309 0.001 0.325
v -0.3309 -0.035 0.325
v -0.3309 -0.035 0.3235
v -0.3309 0.001 0.3235
v -0.2949 0.001 0.3235
v -0.2949 -0.035 0.3235
v -0.2122 -0.035 0.357
v -0.1762 -0.035 0.357
v -0.1762 0.001 0.357
v -0.2122 0.001 0.357
v -0.1762 -0.035 0.325
v -0.1762 0.001 0.325
v -0.2122 0.001 0.325
v -0.2122 -0.035 0.325
v -0.2122 -0.035 0.3235
v -0.2122 0.001 0.3235
v -0.1762 0.001 0.3235
v -0.1762 -0.035 0.3235
v -0.1167 -0.06 0.325
v 0.0747 -0.06 0.325
v 0.0747 0.26 0.325
v -0.1167 0.26 0.325
v 0.0747 -0.06 0.065
v 0.0747 0.26 0.065
v -0.1167 0.26 0.065
v -0.1167 -0.06 0.065
v -0.1167 -0.06 0.0635
v -0.1167 0.26 0.0635
v 0.0747 0.26 0.0635
v 0.0747 -0.06 0.0635
v -0.1167 0.258 0.265
v 0.0747 0.258 0.265
v 0.0747 0.258 0.195
v -0.1167 0.258 0.195
v -0.1167 0.257 0.195
v 0.0747 0.257 0.195
v 0.0747 0.257 0.265
v -0.1167 0.257 0.265
v -0.0822 0.01 0.339
v 0.0326 0.01 0.339
v 0.0326 0.19 0.339
v -0.0822 0.19 0.339
v 0.0326 0.01 0.325
v 0.0326 0.19 0.325
v -0.0822 0.19 0.325
v -0.0822 0.01 0.325
v -0.0822 0.01 0.3235
v -0.0822 0.19 0.3235
v 0.0326 0.19 0.3235
v 0.0326 0.01 0.3235
v -0.0975 -0.035 0.357
v -0.0615 -0.035 0.357
v -0.0615 0.001 0.357
v -0.0975 0.001 0.357
v -0.0615 -0.035 0.325
v -0.0615 0.001 0.325
v -0.0975 0.001 0.325
v -0.0975 -0.035 0.325
v -0.0975 -0.035 0.3235
v -0.0975 0.001 0.3235
v -0.0615 0.001 0.3235
v -0.0615 -0.035 0.3235
v 0.0211 -0.035 0.357
v 0.0571 -0.035 0.357
v 0.0571 0.001 0.357
v 0.0211 0.001 0.357
v 0.0571 -0.035 0.325
v 0.0571 0.001 0.325
v 0.0211 0.001 0.325
v 0.0211 -0.035 0.325
v 0.0211 -0.035 0.3235
v 0.0211 0.001 0.3235
v 0.0571 0.001 0.3235
v 0.0571 -0.035 0.3235
v -0.33 -0.03 0.377
v 0.31 -0.03 0.377
v 0.31 -0.004 0.377
v -0.33 -0.004 0.377
v 0.31 -0.03 0.357
v 0.31 -0.004 0.357
v -0.33 -0.004 0.357
v -0.33 -0.03 0.357
v -0.33 -0.03 0.3555
v -0.33 -0.004 0.3555
v 0.31 -0.004 0.3555
v 0.31 -0.03 0.3555
v 0.02 -0.245 0.8
v 0.34 -0.245 0.8
v 0.34 -0.135 0.8
v 0.02 -0.135 0.8
v 0.34 -0.245 0.6
v 0.34 -0.135 0.6
v 0.02 -0.135 0.6
v 0.02 -0.245 0.6
v 0.07 -0.133 0.745
v 0.12 -0.133 0.745
v 0.12 -0.133 0.707
v 0.07 -0.133 0.707
v 0.07 -0.134 0.707
v 0.12 -0.134 0.707
v 0.12 -0.134 0.745
v 0.07 -0.134 0.745
v 0.15 -0.133 0.745
v 0.2 -0.133 0.745
v 0.2 -0.133 0.707
v 0.15 -0.133 0.707
v 0.15 -0.134 0.707
v 0.2 -0.134 0.707
v 0.2 -0.134 0.745
v 0.15 -0.134 0.745
v 0.23 -0.133 0.745
v 0.28 -0.133 0.745
v 0.28 -0.133 0.707
v 0.23 -0.133 0.707
v 0.23 -0.134 0.707
v 0.28 -0.134 0.707
v 0.28 -0.134 0.745
v 0.23 -0.134 0.745
v 0.3 -0.28 0.6
v 0.335 -0.28 0.6
v 0.335 -0.245 0.6
v 0.3 -0.245 0.6
v 0.335 -0.28 0
v 0.335 -0.245 0
v 0.3 -0.245 0
v 0.3 -0.28 0
vt 0.359375 0.921875
vt 0.890625 0.953125
vt 0.703125 0.953125
vt 0.171875 0.953125
vt 0.171875 0.921875
vt 0.546875 0.953125
vt 0.140625 0.953125
vt 0.234375 0.890625
vt 0.515625 0.921875
vt 0.265625 0.953125
vt 0.765625 0.984375
vt 0.796875 0.984375
vt 0.390625 0.984375
vt 0.265625 0.921875
vt 0.640625 0.953125
vt 0.921875 0.953125
vt 0.640625 0.984375
vn 0 0 1
vn 1 0 0
vn 0 1 0
vn 0 -1 0
vn -1 0 0
vn 0 0 -1
f 1/1/1 2/1/1 3/1/1
f 1/1/1 3/1/1 4/1/1
f 5/2/2 6/2/2 3/2/2
f 5/2/2 3/2/2 2/2/2
f 6/2/3 7/2/3 4/2/3
f 6/2/3 4/2/3 3/2/3
f 8/2/4 5/2/4 2/2/4
f 8/2/4 2/2/4 1/2/4
f 7/2/5 8/2/5 1/2/5
f 7/2/5 1/2/5 4/2/5
f 8/2/6 7/2/6 6/2/6
f 8/2/6 6/2/6 5/2/6
f 9/1/1 10/1/1 11/1/1
f 9/1/1 11/1/1 12/1/1
f 13/2/2 14/2/2 11/2/2
f 13/2/2 11/2/2 10/2/2
f 14/2/3 15/2/3 12/2/3
f 14/2/3 12/2/3 11/2/3
f 16/2/4 13/2/4 10/2/4
f 16/2/4 10/2/4 9/2/4
f 15/2/5 16/2/5 9/2/5
f 15/2/5 9/2/5 12/2/5
f 16/2/6 15/2/6 14/2/6
f 16/2/6 14/2/6 13/2/6
f 17/1/1 18/1/1 19/1/1
f 17/1/1 19/1/1 20/1/1
f 21/2/2 22/2/2 19/2/2
f 21/2/2 19/2/2 18/2/2
f 22/2/3 23/2/3 20/2/3
f 22/2/3 20/2/3 19/2/3
f 24/2/4 21/2/4 18/2/4
f 24/2/4 18/2/4 17/2/4
f 23/2/5 24/2/5 17/2/5
f 23/2/5 17/2/5 20/2/5
f 24/2/6 23/2/6 22/2/6
f 24/2/6 22/2/6 21/2/6
f 25/1/1 26/1/1 27/1/1
f 25/1/1 27/1/1 28/1/1
f 29/2/2 30/2/2 27/2/2
f 29/2/2 27/2/2 26/2/2
f 30/2/3 31/2/3 28/2/3
f 30/2/3 28/2/3 27/2/3
f 32/2/4 29/2/4 26/2/4
f 32/2/4 26/2/4 25/2/4
f 31/2/5 32/2/5 25/2/5
f 31/2/5 25/2/5 28/2/5
f 32/2/6 31/2/6 30/2/6
f 32/2/6 30/2/6 29/2/6
f 33/1/1 34/1/1 35/1/1
f 33/1/1 35/1/1 36/1/1
f 37/2/2 38/2/2 35/2/2
f 37/2/2 35/2/2 34/2/2
f 38/2/3 39/2/3 36/2/3
f 38/2/3 36/2/3 35/2/3
f 40/2/4 37/2/4 34/2/4
f 40/2/4 34/2/4 33/2/4
f 39/2/5 40/2/5 33/2/5
f 39/2/5 33/2/5 36/2/5
f 40/2/6 39/2/6 38/2/6
f 40/2/6 38/2/6 37/2/6
f 41/1/1 42/1/1 43/1/1
f 41/1/1 43/1/1 44/1/1
f 45/2/2 46/2/2 43/2/2
f 45/2/2 43/2/2 42/2/2
f 46/2/3 47/2/3 44/2/3
f 46/2/3 44/2/3 43/2/3
f 48/2/4 45/2/4 42/2/4
f 48/2/4 42/2/4 41/2/4
f 47/2/5 48/2/5 41/2/5
f 47/2/5 41/2/5 44/2/5
f 48/2/6 47/2/6 46/2/6
f 48/2/6 46/2/6 45/2/6
f 49/1/1 50/1/1 51/1/1
f 49/1/1 51/1/1 52/1/1
f 53/2/2 54/2/2 51/2/2
f 53/2/2 51/2/2 50/2/2
f 54/2/3 55/2/3 52/2/3
f 54/2/3 52/2/3 51/2/3
f 56/2/4 53/2/4 50/2/4
f 56/2/4 50/2/4 49/2/4
f 55/2/5 56/2/5 49/2/5
f 55/2/5 49/2/5 52/2/5
f 56/2/6 55/2/6 54/2/6
f 56/2/6 54/2/6 53/2/6
f 57/1/1 58/1/1 59/1/1
f 57/1/1 59/1/1 60/1/1
f 61/2/2 62/2/2 59/2/2
f 61/2/2 59/2/2 58/2/2
f 62/2/3 63/2/3 60/2/3
f 62/2/3 60/2/3 59/2/3
f 64/2/4 61/2/4 58/2/4
f 64/2/4 58/2/4 57/2/4
f 63/2/5 64/2/5 57/2/5
f 63/2/5 57/2/5 60/2/5
f 64/2/6 63/2/6 62/2/6
f 64/2/6 62/2/6 61/2/6
f 65/3/1 66/3/1 67/3/1
f 65/3/1 67/3/1 68/3/1
f 69/4/2 70/4/2 67/4/2
f 69/4/2 67/4/2 66/4/2
f 70/4/3 71/4/3 68/4/3
f 70/4/3 68/4/3 67/4/3
f 72/4/4 69/4/4 66/4/4
f 72/4/4 66/4/4 65/4/4
f 71/4/5 72/4/5 65/4/5
f 71/4/5 65/4/5 68/4/5
f 73/4/6 74/4/6 75/4/6
f 73/4/6 75/4/6 76/4/6
f 77/5/3 78/5/3 79/5/3
f 77/5/3 79/5/3 80/5/3
f 81/5/4 82/5/4 83/5/4
f 81/5/4 83/5/4 84/5/4
f 85/6/1 86/6/1 87/6/1
f 85/6/1 87/6/1 88/6/1
f 89/7/2 90/7/2 87/7/2
f 89/7/2 87/7/2 86/7/2
f 90/7/3 91/7/3 88/7/3
f 90/7/3 88/7/3 87/7/3
f 92/7/4 89/7/4 86/7/4
f 92/7/4 86/7/4 85/7/4
f 91/7/5 92/7/5 85/7/5
f 91/7/5 85/7/5 88/7/5
f 93/7/6 94/7/6 95/7/6
f 93/7/6 95/7/6 96/7/6
f 97/8/1 98/8/1 99/8/1
f 97/8/1 99/8/1 100/8/1
f 101/9/2 102/9/2 99/9/2
f 101/9/2 99/9/2 98/9/2
f 102/9/3 103/9/3 100/9/3
f 102/9/3 100/9/3 99/9/3
f 104/9/4 101/9/4 98/9/4
f 104/9/4 98/9/4 97/9/4
f 103/9/5 104/9/5 97/9/5
f 103/9/5 97/9/5 100/9/5
f 105/9/6 106/9/6 107/9/6
f 105/9/6 107/9/6 108/9/6
f 109/10/1 110/10/1 111/10/1
f 109/10/1 111/10/1 112/10/1
f 113/11/2 114/11/2 111/11/2
f 113/11/2 111/11/2 110/11/2
f 114/11/3 115/11/3 112/11/3
f 114/11/3 112/11/3 111/11/3
f 116/11/4 113/11/4 110/11/4
f 116/11/4 110/11/4 109/11/4
f 115/11/5 116/11/5 109/11/5
f 115/11/5 109/11/5 112/11/5
f 117/11/6 118/11/6 119/11/6
f 117/11/6 119/11/6 120/11/6
f 121/3/1 122/3/1 123/3/1
f 121/3/1 123/3/1 124/3/1
f 125/4/2 126/4/2 123/4/2
f 125/4/2 123/4/2 122/4/2
f 126/4/3 127/4/3 124/4/3
f 126/4/3 124/4/3 123/4/3
f 128/4/4 125/4/4 122/4/4
f 128/4/4 122/4/4 121/4/4
f 127/4/5 128/4/5 121/4/5
f 127/4/5 121/4/5 124/4/5
f 129/4/6 130/4/6 131/4/6
f 129/4/6 131/4/6 132/4/6
f 133/5/3 134/5/3 135/5/3
f 133/5/3 135/5/3 136/5/3
f 137/5/4 138/5/4 139/5/4
f 137/5/4 139/5/4 140/5/4
f 141/6/1 142/6/1 143/6/1
f 141/6/1 143/6/1 144/6/1
f 145/7/2 146/7/2 143/7/2
f 145/7/2 143/7/2 142/7/2
f 146/7/3 147/7/3 144/7/3
f 146/7/3 144/7/3 143/7/3
f 148/7/4 145/7/4 142/7/4
f 148/7/4 142/7/4 141/7/4
f 147/7/5 148/7/5 141/7/5
f 147/7/5 141/7/5 144/7/5
f 149/7/6 150/7/6 151/7/6
f 149/7/6 151/7/6 152/7/6
f 153/8/1 154/8/1 155/8/1
f 153/8/1 155/8/1 156/8/1
f 157/9/2 158/9/2 155/9/2
f 157/9/2 155/9/2 154/9/2
f 158/9/3 159/9/3 156/9/3
f 158/9/3 156/9/3 155/9/3
f 160/9/4 157/9/4 154/9/4
f 160/9/4 154/9/4 153/9/4
f 159/9/5 160/9/5 153/9/5
f 159/9/5 153/9/5 156/9/5
f 161/9/6 162/9/6 163/9/6
f 161/9/6 163/9/6 164/9/6
f 165/10/1 166/10/1 167/10/1
f 165/10/1 167/10/1 168/10/1
f 169/11/2 170/11/2 167/11/2
f 169/11/2 167/11/2 166/11/2
f 170/11/3 171/11/3 168/11/3
f 170/11/3 168/11/3 167/11/3
f 172/11/4 169/11/4 166/11/4
f 172/11/4 166/11/4 165/11/4
f 171/11/5 172/11/5 165/11/5
f 171/11/5 165/11/5 168/11/5
f 173/11/6 174/11/6 175/11/6
f 173/11/6 175/11/6 176/11/6
f 177/12/1 178/12/1 179/12/1
f 177/12/1 179/12/1 180/12/1
f 181/13/2 182/13/2 179/13/2
f 181/13/2 179/13/2 178/13/2
f 182/13/3 183/13/3 180/13/3
f 182/13/3 180/13/3 179/13/3
f 184/13/4 181/13/4 178/13/4
f 184/13/4 178/13/4 177/13/4
f 183/13/5 184/13/5 177/13/5
f 183/13/5 177/13/5 180/13/5
f 185/13/6 186/13/6 187/13/6
f 185/13/6 187/13/6 188/13/6
f 189/14/1 190/14/1 191/14/1
f 189/14/1 191/14/1 192/14/1
f 193/15/2 194/15/2 191/15/2
f 193/15/2 191/15/2 190/15/2
f 194/15/3 195/15/3 192/15/3
f 194/15/3 192/15/3 191/15/3
f 196/15/4 193/15/4 190/15/4
f 196/15/4 190/15/4 189/15/4
f 195/15/5 196/15/5 189/15/5
f 195/15/5 189/15/5 192/15/5
f 196/15/6 195/15/6 194/15/6
f 196/15/6 194/15/6 193/15/6
f 197/16/3 198/16/3 199/16/3
f 197/16/3 199/16/3 200/16/3
f 201/16/4 202/16/4 203/16/4
f 201/16/4 203/16/4 204/16/4
f 205/16/3 206/16/3 207/16/3
f 205/16/3 207/16/3 208/16/3
f 209/16/4 210/16/4 211/16/4
f 209/16/4 211/16/4 212/16/4
f 213/17/3 214/17/3 215/17/3
f 213/17/3 215/17/3 216/17/3
f 217/17/4 218/17/4 219/17/4
f 217/17/4 219/17/4 220/17/4
f 221/12/1 222/12/1 223/12/1
f 221/12/1 223/12/1 224/12/1
f 225/13/2 226/13/2 223/13/2
f 225/13/2 223/13/2 222/13/2
f 226/13/3 227/13/3 224/13/3
f 226/13/3 224/13/3 223/13/3
f 228/13/4 225/13/4 222/13/4
f 228/13/4 222/13/4 221/13/4
f 227/13/5 228/13/5 221/13/5
f 227/13/5 221/13/5 224/13/5
f 228/13/6 227/13/6 226/13/6
f 228/13/6 226/13/6 225/13/6
