# Off-Grid bank_wall_makeshift_c2_S for Project Viewpoint. Z up, tile units, x east, y south. Generated by tools/build_viewpoint.py.
mtllib offgrid.mtl
o bank_wall_makeshift_c2_S
usemtl offgrid
v -0.4 -0.48 0.85
v 0.4 -0.48 0.85
v 0.4 -0.24 0.85
v -0.4 -0.24 0.85
v 0.4 -0.48 0.8
v 0.4 -0.24 0.8
v -0.4 -0.24 0.8
v -0.4 -0.48 0.8
v -0.34 -0.46 0.81
v -0.28 -0.46 0.81
v -0.28 -0.41 0.81
v -0.34 -0.41 0.81
v -0.28 -0.46 0.64
v -0.28 -0.41 0.64
v -0.34 -0.41 0.64
v -0.34 -0.46 0.64
v 0.28 -0.46 0.81
v 0.34 -0.46 0.81
v 0.34 -0.41 0.81
v 0.28 -0.41 0.81
v 0.34 -0.46 0.64
v 0.34 -0.41 0.64
v 0.28 -0.41 0.64
v 0.28 -0.46 0.64
v -0.37 -0.43 1.05
v -0.06 -0.43 1.05
v -0.06 -0.28 1.05
v -0.37 -0.28 1.05
v -0.06 -0.43 0.85
v -0.06 -0.28 0.85
v -0.37 -0.28 0.85
v -0.37 -0.43 0.85
v -0.37 -0.43 0.8485
v -0.37 -0.28 0.8485
v -0.06 -0.28 0.8485
v -0.06 -0.43 0.8485
v -0.3266 -0.42 1.08
v -0.2816 -0.42 1.08
v -0.2816 -0.375 1.08
v -0.3266 -0.375 1.08
v -0.2816 -0.42 1.05
v -0.2816 -0.375 1.05
v -0.3266 -0.375 1.05
v -0.3266 -0.42 1.05
v -0.3266 -0.42 1.0485
v -0.3266 -0.375 1.0485
v -0.2816 -0.375 1.0485
v -0.2816 -0.42 1.0485
v -0.153 -0.42 1.08
v -0.108 -0.42 1.08
v -0.108 -0.375 1.08
v -0.153 -0.375 1.08
v -0.108 -0.42 1.05
v -0.108 -0.375 1.05
v -0.153 -0.375 1.05
v -0.153 -0.42 1.05
v -0.153 -0.42 1.0485
v -0.153 -0.375 1.0485
v -0.108 -0.375 1.0485
v -0.108 -0.42 1.0485
v 0 -0.43 1.05
v 0.31 -0.43 1.05
v 0.31 -0.28 1.05
v 0 -0.28 1.05
v 0.31 -0.43 0.85
v 0.31 -0.28 0.85
v 0 -0.28 0.85
v 0 -0.43 0.85
v 0 -0.43 0.8485
v 0 -0.28 0.8485
v 0.31 -0.28 0.8485
v 0.31 -0.43 0.8485
v 0.0434 -0.42 1.08
v 0.0884 -0.42 1.08
v 0.0884 -0.375 1.08
v 0.0434 -0.375 1.08
v 0.0884 -0.42 1.05
v 0.0884 -0.375 1.05
v 0.0434 -0.375 1.05
v 0.0434 -0.42 1.05
v 0.0434 -0.42 1.0485
v 0.0434 -0.375 1.0485
v 0.0884 -0.375 1.0485
v 0.0884 -0.42 1.0485
v 0.217 -0.42 1.08
v 0.262 -0.42 1.08
v 0.262 -0.375 1.08
v 0.217 -0.375 1.08
v 0.262 -0.42 1.05
v 0.262 -0.375 1.05
v 0.217 -0.375 1.05
v 0.217 -0.42 1.05
v 0.217 -0.42 1.0485
v 0.217 -0.375 1.0485
v 0.262 -0.375 1.0485
v 0.262 -0.42 1.0485
v -0.36 -0.475 0.875
v 0.36 -0.475 0.875
v 0.36 -0.445 0.875
v -0.36 -0.445 0.875
v 0.36 -0.475 0.85
v 0.36 -0.445 0.85
v -0.36 -0.445 0.85
v -0.36 -0.475 0.85
v -0.36 -0.475 0.8485
v -0.36 -0.445 0.8485
v 0.36 -0.445 0.8485
v 0.36 -0.475 0.8485
v 0.26 -0.44 0.82
v 0.295 -0.44 0.82
v 0.295 -0.405 0.82
v 0.26 -0.405 0.82
v 0.295 -0.44 0.5
v 0.295 -0.405 0.5
v 0.26 -0.405 0.5
v 0.26 -0.44 0.5
vt 0.421875 0.921875
vt 0.828125 0.953125
vt 0.703125 0.953125
vt 0.171875 0.953125
vt 0.234375 0.890625
vt 0.515625 0.921875
vt 0.265625 0.953125
vt 0.765625 0.984375
vt 0.796875 0.984375
vt 0.390625 0.984375
vn 0 0 1
vn 1 0 0
vn 0 1 0
vn 0 -1 0
vn -1 0 0
vn 0 0 -1
f 1/1/1 2/1/1 3/1/1
f 1/1/1 3/1/1 4/1/1
f 5/2/2 6/2/2 3/2/2
f 5/2/2 3/2/2 2/2/2
f 6/2/3 7/2/3 4/2/3
f 6/2/3 4/2/3 3/2/3
f 8/2/4 5/2/4 2/2/4
f 8/2/4 2/2/4 1/2/4
f 7/2/5 8/2/5 1/2/5
f 7/2/5 1/2/5 4/2/5
f 8/2/6 7/2/6 6/2/6
f 8/2/6 6/2/6 5/2/6
f 9/1/1 10/1/1 11/1/1
f 9/1/1 11/1/1 12/1/1
f 13/2/2 14/2/2 11/2/2
f 13/2/2 11/2/2 10/2/2
f 14/2/3 15/2/3 12/2/3
f 14/2/3 12/2/3 11/2/3
f 16/2/4 13/2/4 10/2/4
f 16/2/4 10/2/4 9/2/4
f 15/2/5 16/2/5 9/2/5
f 15/2/5 9/2/5 12/2/5
f 16/2/6 15/2/6 14/2/6
f 16/2/6 14/2/6 13/2/6
f 17/1/1 18/1/1 19/1/1
f 17/1/1 19/1/1 20/1/1
f 21/2/2 22/2/2 19/2/2
f 21/2/2 19/2/2 18/2/2
f 22/2/3 23/2/3 20/2/3
f 22/2/3 20/2/3 19/2/3
f 24/2/4 21/2/4 18/2/4
f 24/2/4 18/2/4 17/2/4
f 23/2/5 24/2/5 17/2/5
f 23/2/5 17/2/5 20/2/5
f 24/2/6 23/2/6 22/2/6
f 24/2/6 22/2/6 21/2/6
f 25/3/1 26/3/1 27/3/1
f 25/3/1 27/3/1 28/3/1
f 29/4/2 30/4/2 27/4/2
f 29/4/2 27/4/2 26/4/2
f 30/4/3 31/4/3 28/4/3
f 30/4/3 28/4/3 27/4/3
f 32/4/4 29/4/4 26/4/4
f 32/4/4 26/4/4 25/4/4
f 31/4/5 32/4/5 25/4/5
f 31/4/5 25/4/5 28/4/5
f 33/4/6 34/4/6 35/4/6
f 33/4/6 35/4/6 36/4/6
f 37/5/1 38/5/1 39/5/1
f 37/5/1 39/5/1 40/5/1
f 41/6/2 42/6/2 39/6/2
f 41/6/2 39/6/2 38/6/2
f 42/6/3 43/6/3 40/6/3
f 42/6/3 40/6/3 39/6/3
f 44/6/4 41/6/4 38/6/4
f 44/6/4 38/6/4 37/6/4
f 43/6/5 44/6/5 37/6/5
f 43/6/5 37/6/5 40/6/5
f 45/6/6 46/6/6 47/6/6
f 45/6/6 47/6/6 48/6/6
f 49/7/1 50/7/1 51/7/1
f 49/7/1 51/7/1 52/7/1
f 53/8/2 54/8/2 51/8/2
f 53/8/2 51/8/2 50/8/2
f 54/8/3 55/8/3 52/8/3
f 54/8/3 52/8/3 51/8/3
f 56/8/4 53/8/4 50/8/4
f 56/8/4 50/8/4 49/8/4
f 55/8/5 56/8/5 49/8/5
f 55/8/5 49/8/5 52/8/5
f 57/8/6 58/8/6 59/8/6
f 57/8/6 59/8/6 60/8/6
f 61/3/1 62/3/1 63/3/1
f 61/3/1 63/3/1 64/3/1
f 65/4/2 66/4/2 63/4/2
f 65/4/2 63/4/2 62/4/2
f 66/4/3 67/4/3 64/4/3
f 66/4/3 64/4/3 63/4/3
f 68/4/4 65/4/4 62/4/4
f 68/4/4 62/4/4 61/4/4
f 67/4/5 68/4/5 61/4/5
f 67/4/5 61/4/5 64/4/5
f 69/4/6 70/4/6 71/4/6
f 69/4/6 71/4/6 72/4/6
f 73/5/1 74/5/1 75/5/1
f 73/5/1 75/5/1 76/5/1
f 77/6/2 78/6/2 75/6/2
f 77/6/2 75/6/2 74/6/2
f 78/6/3 79/6/3 76/6/3
f 78/6/3 76/6/3 75/6/3
f 80/6/4 77/6/4 74/6/4
f 80/6/4 74/6/4 73/6/4
f 79/6/5 80/6/5 73/6/5
f 79/6/5 73/6/5 76/6/5
f 81/6/6 82/6/6 83/6/6
f 81/6/6 83/6/6 84/6/6
f 85/7/1 86/7/1 87/7/1
f 85/7/1 87/7/1 88/7/1
f 89/8/2 90/8/2 87/8/2
f 89/8/2 87/8/2 86/8/2
f 90/8/3 91/8/3 88/8/3
f 90/8/3 88/8/3 87/8/3
f 92/8/4 89/8/4 86/8/4
f 92/8/4 86/8/4 85/8/4
f 91/8/5 92/8/5 85/8/5
f 91/8/5 85/8/5 88/8/5
f 93/8/6 94/8/6 95/8/6
f 93/8/6 95/8/6 96/8/6
f 97/9/1 98/9/1 99/9/1
f 97/9/1 99/9/1 100/9/1
f 101/10/2 102/10/2 99/10/2
f 101/10/2 99/10/2 98/10/2
f 102/10/3 103/10/3 100/10/3
f 102/10/3 100/10/3 99/10/3
f 104/10/4 101/10/4 98/10/4
f 104/10/4 98/10/4 97/10/4
f 103/10/5 104/10/5 97/10/5
f 103/10/5 97/10/5 100/10/5
f 105/10/6 106/10/6 107/10/6
f 105/10/6 107/10/6 108/10/6
f 109/9/1 110/9/1 111/9/1
f 109/9/1 111/9/1 112/9/1
f 113/10/2 114/10/2 111/10/2
f 113/10/2 111/10/2 110/10/2
f 114/10/3 115/10/3 112/10/3
f 114/10/3 112/10/3 111/10/3
f 116/10/4 113/10/4 110/10/4
f 116/10/4 110/10/4 109/10/4
f 115/10/5 116/10/5 109/10/5
f 115/10/5 109/10/5 112/10/5
f 116/10/6 115/10/6 114/10/6
f 116/10/6 114/10/6 113/10/6
