# Off-Grid bank_ground_premium_c8_S for Project Viewpoint. Z up, tile units, x east, y south. Generated by tools/build_viewpoint.py.
mtllib offgrid.mtl
o bank_ground_premium_c8_S
usemtl offgrid
v -0.42 -0.26 0.05
v 0.42 -0.26 0.05
v 0.42 0.28 0.05
v -0.42 0.28 0.05
v 0.42 -0.26 0
v 0.42 0.28 0
v -0.42 0.28 0
v -0.42 -0.26 0
v -0.4 -0.24 0.92
v 0.4 -0.24 0.92
v 0.4 0.26 0.92
v -0.4 0.26 0.92
v 0.4 -0.24 0.05
v 0.4 0.26 0.05
v -0.4 0.26 0.05
v -0.4 -0.24 0.05
v -0.4 -0.24 0.0485
v -0.4 0.26 0.0485
v 0.4 0.26 0.0485
v 0.4 -0.24 0.0485
v -0.42 -0.26 0.965
v 0.42 -0.26 0.965
v 0.42 0.28 0.965
v -0.42 0.28 0.965
v 0.42 -0.26 0.92
v 0.42 0.28 0.92
v -0.42 0.28 0.92
v -0.42 -0.26 0.92
v -0.42 -0.26 0.9185
v -0.42 0.28 0.9185
v 0.42 0.28 0.9185
v 0.42 -0.26 0.9185
v -0.32 0.282 0.8
v 0.32 0.282 0.8
v 0.32 0.282 0.76
v -0.32 0.282 0.76
v -0.32 0.281 0.76
v 0.32 0.281 0.76
v 0.32 0.281 0.8
v -0.32 0.281 0.8
v -0.32 0.282 0.715
v 0.32 0.282 0.715
v 0.32 0.282 0.675
v -0.32 0.282 0.675
v -0.32 0.281 0.675
v 0.32 0.281 0.675
v 0.32 0.281 0.715
v -0.32 0.281 0.715
v -0.32 0.282 0.63
v 0.32 0.282 0.63
v 0.32 0.282 0.59
v -0.32 0.282 0.59
v -0.32 0.281 0.59
v 0.32 0.281 0.59
v 0.32 0.281 0.63
v -0.32 0.281 0.63
v -0.32 0.282 0.545
v 0.32 0.282 0.545
v 0.32 0.282 0.505
v -0.32 0.282 0.505
v -0.32 0.281 0.505
v 0.32 0.281 0.505
v 0.32 0.281 0.545
v -0.32 0.281 0.545
v -0.32 0.282 0.46
v 0.32 0.282 0.46
v 0.32 0.282 0.42
v -0.32 0.282 0.42
v -0.32 0.281 0.42
v 0.32 0.281 0.42
v 0.32 0.281 0.46
v -0.32 0.281 0.46
v -0.3 0.284 0.86
v 0.3 0.284 0.86
v 0.3 0.284 0.79
v -0.3 0.284 0.79
v -0.3 0.283 0.79
v 0.3 0.283 0.79
v 0.3 0.283 0.86
v -0.3 0.283 0.86
v -0.28 0.286 0.75
v -0.218 0.286 0.75
v -0.218 0.286 0.698
v -0.28 0.286 0.698
v -0.28 0.285 0.698
v -0.218 0.285 0.698
v -0.218 0.285 0.75
v -0.28 0.285 0.75
v -0.19 0.286 0.75
v -0.128 0.286 0.75
v -0.128 0.286 0.698
v -0.19 0.286 0.698
v -0.19 0.285 0.698
v -0.128 0.285 0.698
v -0.128 0.285 0.75
v -0.19 0.285 0.75
v -0.1 0.286 0.75
v -0.038 0.286 0.75
v -0.038 0.286 0.698
v -0.1 0.286 0.698
v -0.1 0.285 0.698
v -0.038 0.285 0.698
v -0.038 0.285 0.75
v -0.1 0.285 0.75
v -0.01 0.286 0.75
v 0.052 0.286 0.75
v 0.052 0.286 0.698
v -0.01 0.286 0.698
v -0.01 0.285 0.698
v 0.052 0.285 0.698
v 0.052 0.285 0.75
v -0.01 0.285 0.75
v 0.08 0.286 0.75
v 0.142 0.286 0.75
v 0.142 0.286 0.698
v 0.08 0.286 0.698
v 0.08 0.285 0.698
v 0.142 0.285 0.698
v 0.142 0.285 0.75
v 0.08 0.285 0.75
v 0.17 0.286 0.75
v 0.232 0.286 0.75
v 0.232 0.286 0.698
v 0.17 0.286 0.698
v 0.17 0.285 0.698
v 0.232 0.285 0.698
v 0.232 0.285 0.75
v 0.17 0.285 0.75
v 0.26 0.286 0.75
v 0.322 0.286 0.75
v 0.322 0.286 0.698
v 0.26 0.286 0.698
v 0.26 0.285 0.698
v 0.322 0.285 0.698
v 0.322 0.285 0.75
v 0.26 0.285 0.75
v 0.35 0.286 0.75
v 0.412 0.286 0.75
v 0.412 0.286 0.698
v 0.35 0.286 0.698
v 0.35 0.285 0.698
v 0.412 0.285 0.698
v 0.412 0.285 0.75
v 0.35 0.285 0.75
v 0.28 -0.22 0.7
v 0.32 -0.22 0.7
v 0.32 -0.18 0.7
v 0.28 -0.18 0.7
v 0.32 -0.22 0
v 0.32 -0.18 0
v 0.28 -0.18 0
v 0.28 -0.22 0
v 0.28 -0.22 -0.0015
v 0.28 -0.18 -0.0015
v 0.32 -0.18 -0.0015
v 0.32 -0.22 -0.0015
vt 0.890625 0.953125
vt 0.203125 0.953125
vt 0.796875 0.921875
vt 0.390625 0.921875
vt 0.078125 0.890625
vt 0.984375 0.984375
vt 0.671875 0.953125
vt 0.921875 0.953125
vt 0.796875 0.984375
vt 0.390625 0.984375
vn 0 0 1
vn 1 0 0
vn 0 1 0
vn 0 -1 0
vn -1 0 0
vn 0 0 -1
f 1/1/1 2/1/1 3/1/1
f 1/1/1 3/1/1 4/1/1
f 5/2/2 6/2/2 3/2/2
f 5/2/2 3/2/2 2/2/2
f 6/2/3 7/2/3 4/2/3
f 6/2/3 4/2/3 3/2/3
f 8/2/4 5/2/4 2/2/4
f 8/2/4 2/2/4 1/2/4
f 7/2/5 8/2/5 1/2/5
f 7/2/5 1/2/5 4/2/5
f 8/2/6 7/2/6 6/2/6
f 8/2/6 6/2/6 5/2/6
f 9/3/1 10/3/1 11/3/1
f 9/3/1 11/3/1 12/3/1
f 13/4/2 14/4/2 11/4/2
f 13/4/2 11/4/2 10/4/2
f 14/4/3 15/4/3 12/4/3
f 14/4/3 12/4/3 11/4/3
f 16/4/4 13/4/4 10/4/4
f 16/4/4 10/4/4 9/4/4
f 15/4/5 16/4/5 9/4/5
f 15/4/5 9/4/5 12/4/5
f 17/4/6 18/4/6 19/4/6
f 17/4/6 19/4/6 20/4/6
f 21/5/1 22/5/1 23/5/1
f 21/5/1 23/5/1 24/5/1
f 25/3/2 26/3/2 23/3/2
f 25/3/2 23/3/2 22/3/2
f 26/3/3 27/3/3 24/3/3
f 26/3/3 24/3/3 23/3/3
f 28/3/4 25/3/4 22/3/4
f 28/3/4 22/3/4 21/3/4
f 27/3/5 28/3/5 21/3/5
f 27/3/5 21/3/5 24/3/5
f 29/3/6 30/3/6 31/3/6
f 29/3/6 31/3/6 32/3/6
f 33/6/3 34/6/3 35/6/3
f 33/6/3 35/6/3 36/6/3
f 37/6/4 38/6/4 39/6/4
f 37/6/4 39/6/4 40/6/4
f 41/6/3 42/6/3 43/6/3
f 41/6/3 43/6/3 44/6/3
f 45/6/4 46/6/4 47/6/4
f 45/6/4 47/6/4 48/6/4
f 49/6/3 50/6/3 51/6/3
f 49/6/3 51/6/3 52/6/3
f 53/6/4 54/6/4 55/6/4
f 53/6/4 55/6/4 56/6/4
f 57/6/3 58/6/3 59/6/3
f 57/6/3 59/6/3 60/6/3
f 61/6/4 62/6/4 63/6/4
f 61/6/4 63/6/4 64/6/4
f 65/6/3 66/6/3 67/6/3
f 65/6/3 67/6/3 68/6/3
f 69/6/4 70/6/4 71/6/4
f 69/6/4 71/6/4 72/6/4
f 73/7/3 74/7/3 75/7/3
f 73/7/3 75/7/3 76/7/3
f 77/7/4 78/7/4 79/7/4
f 77/7/4 79/7/4 80/7/4
f 81/8/3 82/8/3 83/8/3
f 81/8/3 83/8/3 84/8/3
f 85/8/4 86/8/4 87/8/4
f 85/8/4 87/8/4 88/8/4
f 89/8/3 90/8/3 91/8/3
f 89/8/3 91/8/3 92/8/3
f 93/8/4 94/8/4 95/8/4
f 93/8/4 95/8/4 96/8/4
f 97/8/3 98/8/3 99/8/3
f 97/8/3 99/8/3 100/8/3
f 101/8/4 102/8/4 103/8/4
f 101/8/4 103/8/4 104/8/4
f 105/8/3 106/8/3 107/8/3
f 105/8/3 107/8/3 108/8/3
f 109/8/4 110/8/4 111/8/4
f 109/8/4 111/8/4 112/8/4
f 113/8/3 114/8/3 115/8/3
f 113/8/3 115/8/3 116/8/3
f 117/8/4 118/8/4 119/8/4
f 117/8/4 119/8/4 120/8/4
f 121/8/3 122/8/3 123/8/3
f 121/8/3 123/8/3 124/8/3
f 125/8/4 126/8/4 127/8/4
f 125/8/4 127/8/4 128/8/4
f 129/8/3 130/8/3 131/8/3
f 129/8/3 131/8/3 132/8/3
f 133/8/4 134/8/4 135/8/4
f 133/8/4 135/8/4 136/8/4
f 137/8/3 138/8/3 139/8/3
f 137/8/3 139/8/3 140/8/3
f 141/8/4 142/8/4 143/8/4
f 141/8/4 143/8/4 144/8/4
f 145/9/1 146/9/1 147/9/1
f 145/9/1 147/9/1 148/9/1
f 149/10/2 150/10/2 147/10/2
f 149/10/2 147/10/2 146/10/2
f 150/10/3 151/10/3 148/10/3
f 150/10/3 148/10/3 147/10/3
f 152/10/4 149/10/4 146/10/4
f 152/10/4 146/10/4 145/10/4
f 151/10/5 152/10/5 145/10/5
f 151/10/5 145/10/5 148/10/5
f 153/10/6 154/10/6 155/10/6
f 153/10/6 155/10/6 156/10/6
