# Off-Grid bank_wall_premium_c2_S for Project Viewpoint. Z up, tile units, x east, y south. Generated by tools/build_viewpoint.py.
mtllib offgrid.mtl
o bank_wall_premium_c2_S
usemtl offgrid
v -0.4 -0.48 1.32
v 0.4 -0.48 1.32
v 0.4 -0.24 1.32
v -0.4 -0.24 1.32
v 0.4 -0.48 0.86
v 0.4 -0.24 0.86
v -0.4 -0.24 0.86
v -0.4 -0.48 0.86
v -0.38 -0.48 1.348
v 0.38 -0.48 1.348
v 0.38 -0.22 1.348
v -0.38 -0.22 1.348
v 0.38 -0.48 1.32
v 0.38 -0.22 1.32
v -0.38 -0.22 1.32
v -0.38 -0.48 1.32
v -0.38 -0.48 1.3185
v -0.38 -0.22 1.3185
v 0.38 -0.22 1.3185
v 0.38 -0.48 1.3185
v -0.37 -0.238 1.2
v -0.215 -0.238 1.2
v -0.215 -0.238 0.91
v -0.37 -0.238 0.91
v -0.356 -0.236 1.186
v -0.229 -0.236 1.186
v -0.229 -0.236 0.924
v -0.356 -0.236 0.924
v -0.344 -0.234 1.0608
v -0.241 -0.234 1.0608
v -0.241 -0.234 0.997
v -0.344 -0.234 0.997
v -0.3497 -0.234 1.17
v -0.3097 -0.234 1.17
v -0.3097 -0.234 1.134
v -0.3497 -0.234 1.134
v -0.2753 -0.234 1.17
v -0.2353 -0.234 1.17
v -0.2353 -0.234 1.134
v -0.2753 -0.234 1.134
v -0.185 -0.238 1.2
v -0.03 -0.238 1.2
v -0.03 -0.238 0.91
v -0.185 -0.238 0.91
v -0.171 -0.236 1.186
v -0.044 -0.236 1.186
v -0.044 -0.236 0.924
v -0.171 -0.236 0.924
v -0.159 -0.234 1.0608
v -0.056 -0.234 1.0608
v -0.056 -0.234 0.997
v -0.159 -0.234 0.997
v -0.1647 -0.234 1.17
v -0.1247 -0.234 1.17
v -0.1247 -0.234 1.134
v -0.1647 -0.234 1.134
v -0.0903 -0.234 1.17
v -0.0503 -0.234 1.17
v -0.0503 -0.234 1.134
v -0.0903 -0.234 1.134
v 0 -0.238 1.2
v 0.155 -0.238 1.2
v 0.155 -0.238 0.91
v 0 -0.238 0.91
v 0.185 -0.238 1.2
v 0.34 -0.238 1.2
v 0.34 -0.238 0.91
v 0.185 -0.238 0.91
v -0.34 -0.482 1.0006
v 0.34 -0.482 1.0006
v 0.34 -0.482 1.0166
v -0.34 -0.482 1.0166
v -0.34 -0.482 1.0934
v 0.34 -0.482 1.0934
v 0.34 -0.482 1.1094
v -0.34 -0.482 1.1094
v -0.32 -0.4835 1.095
v -0.235 -0.4835 1.095
v -0.235 -0.4835 1.165
v -0.32 -0.4835 1.165
v -0.16 -0.4835 1.095
v -0.075 -0.4835 1.095
v -0.075 -0.4835 1.165
v -0.16 -0.4835 1.165
v 0 -0.4835 1.095
v 0.085 -0.4835 1.095
v 0.085 -0.4835 1.165
v 0 -0.4835 1.165
v 0.16 -0.4835 1.095
v 0.245 -0.4835 1.095
v 0.245 -0.4835 1.165
v 0.16 -0.4835 1.165
v 0.26 -0.44 0.88
v 0.295 -0.44 0.88
v 0.295 -0.405 0.88
v 0.26 -0.405 0.88
v 0.295 -0.44 0.56
v 0.295 -0.405 0.56
v 0.26 -0.405 0.56
v 0.26 -0.44 0.56
vt 0.796875 0.921875
vt 0.390625 0.921875
vt 0.421875 0.984375
vt 0.171875 0.953125
vt 0.171875 0.921875
vt 0.515625 0.921875
vt 0.765625 0.984375
vt 0.703125 0.984375
vt 0.921875 0.953125
vt 0.640625 0.984375
vt 0.796875 0.984375
vt 0.390625 0.984375
vn 0 0 1
vn 1 0 0
vn 0 1 0
vn 0 -1 0
vn -1 0 0
vn 0 0 -1
f 1/1/1 2/1/1 3/1/1
f 1/1/1 3/1/1 4/1/1
f 5/2/2 6/2/2 3/2/2
f 5/2/2 3/2/2 2/2/2
f 6/2/3 7/2/3 4/2/3
f 6/2/3 4/2/3 3/2/3
f 8/2/4 5/2/4 2/2/4
f 8/2/4 2/2/4 1/2/4
f 7/2/5 8/2/5 1/2/5
f 7/2/5 1/2/5 4/2/5
f 8/2/6 7/2/6 6/2/6
f 8/2/6 6/2/6 5/2/6
f 9/1/1 10/1/1 11/1/1
f 9/1/1 11/1/1 12/1/1
f 13/2/2 14/2/2 11/2/2
f 13/2/2 11/2/2 10/2/2
f 14/2/3 15/2/3 12/2/3
f 14/2/3 12/2/3 11/2/3
f 16/2/4 13/2/4 10/2/4
f 16/2/4 10/2/4 9/2/4
f 15/2/5 16/2/5 9/2/5
f 15/2/5 9/2/5 12/2/5
f 17/2/6 18/2/6 19/2/6
f 17/2/6 19/2/6 20/2/6
f 21/3/3 22/3/3 23/3/3
f 21/3/3 23/3/3 24/3/3
f 25/4/3 26/4/3 27/4/3
f 25/4/3 27/4/3 28/4/3
f 29/5/3 30/5/3 31/5/3
f 29/5/3 31/5/3 32/5/3
f 33/6/3 34/6/3 35/6/3
f 33/6/3 35/6/3 36/6/3
f 37/7/3 38/7/3 39/7/3
f 37/7/3 39/7/3 40/7/3
f 41/3/3 42/3/3 43/3/3
f 41/3/3 43/3/3 44/3/3
f 45/4/3 46/4/3 47/4/3
f 45/4/3 47/4/3 48/4/3
f 49/5/3 50/5/3 51/5/3
f 49/5/3 51/5/3 52/5/3
f 53/6/3 54/6/3 55/6/3
f 53/6/3 55/6/3 56/6/3
f 57/7/3 58/7/3 59/7/3
f 57/7/3 59/7/3 60/7/3
f 61/3/3 62/3/3 63/3/3
f 61/3/3 63/3/3 64/3/3
f 65/3/3 66/3/3 67/3/3
f 65/3/3 67/3/3 68/3/3
f 69/8/4 70/8/4 71/8/4
f 69/8/4 71/8/4 72/8/4
f 73/8/4 74/8/4 75/8/4
f 73/8/4 75/8/4 76/8/4
f 77/9/4 78/9/4 79/9/4
f 77/9/4 79/9/4 80/9/4
f 81/9/4 82/9/4 83/9/4
f 81/9/4 83/9/4 84/9/4
f 85/10/4 86/10/4 87/10/4
f 85/10/4 87/10/4 88/10/4
f 89/10/4 90/10/4 91/10/4
f 89/10/4 91/10/4 92/10/4
f 93/11/1 94/11/1 95/11/1
f 93/11/1 95/11/1 96/11/1
f 97/12/2 98/12/2 95/12/2
f 97/12/2 95/12/2 94/12/2
f 98/12/3 99/12/3 96/12/3
f 98/12/3 96/12/3 95/12/3
f 100/12/4 97/12/4 94/12/4
f 100/12/4 94/12/4 93/12/4
f 99/12/5 100/12/5 93/12/5
f 99/12/5 93/12/5 96/12/5
f 100/12/6 99/12/6 98/12/6
f 100/12/6 98/12/6 97/12/6
