# Off-Grid bank_wall_standard_c3_S for Project Viewpoint. Z up, tile units, x east, y south. Generated by tools/build_viewpoint.py.
mtllib offgrid.mtl
o bank_wall_standard_c3_S
usemtl offgrid
v -0.4 -0.48 1.26
v 0.4 -0.48 1.26
v 0.4 -0.24 1.26
v -0.4 -0.24 1.26
v 0.4 -0.48 0.86
v 0.4 -0.24 0.86
v -0.4 -0.24 0.86
v -0.4 -0.48 0.86
v -0.38 -0.48 1.288
v 0.38 -0.48 1.288
v 0.38 -0.22 1.288
v -0.38 -0.22 1.288
v 0.38 -0.48 1.26
v 0.38 -0.22 1.26
v -0.38 -0.22 1.26
v -0.38 -0.48 1.26
v -0.38 -0.48 1.2585
v -0.38 -0.22 1.2585
v 0.38 -0.22 1.2585
v 0.38 -0.48 1.2585
v -0.37 -0.238 1.14
v -0.1533 -0.238 1.14
v -0.1533 -0.238 0.91
v -0.37 -0.238 0.91
v -0.356 -0.236 1.126
v -0.1673 -0.236 1.126
v -0.1673 -0.236 0.924
v -0.356 -0.236 0.924
v -0.344 -0.234 1.0296
v -0.1793 -0.234 1.0296
v -0.1793 -0.234 0.979
v -0.344 -0.234 0.979
v -0.3337 -0.234 1.11
v -0.2937 -0.234 1.11
v -0.2937 -0.234 1.074
v -0.3337 -0.234 1.074
v -0.2297 -0.234 1.11
v -0.1897 -0.234 1.11
v -0.1897 -0.234 1.074
v -0.2297 -0.234 1.074
v -0.1233 -0.238 1.14
v 0.0933 -0.238 1.14
v 0.0933 -0.238 0.91
v -0.1233 -0.238 0.91
v -0.1093 -0.236 1.126
v 0.0793 -0.236 1.126
v 0.0793 -0.236 0.924
v -0.1093 -0.236 0.924
v -0.0973 -0.234 1.0296
v 0.0673 -0.234 1.0296
v 0.0673 -0.234 0.979
v -0.0973 -0.234 0.979
v -0.087 -0.234 1.11
v -0.047 -0.234 1.11
v -0.047 -0.234 1.074
v -0.087 -0.234 1.074
v 0.017 -0.234 1.11
v 0.057 -0.234 1.11
v 0.057 -0.234 1.074
v 0.017 -0.234 1.074
v 0.1233 -0.238 1.14
v 0.34 -0.238 1.14
v 0.34 -0.238 0.91
v 0.1233 -0.238 0.91
v 0.1373 -0.236 1.126
v 0.326 -0.236 1.126
v 0.326 -0.236 0.924
v 0.1373 -0.236 0.924
v 0.1493 -0.234 1.0296
v 0.314 -0.234 1.0296
v 0.314 -0.234 0.979
v 0.1493 -0.234 0.979
v 0.1597 -0.234 1.11
v 0.1997 -0.234 1.11
v 0.1997 -0.234 1.074
v 0.1597 -0.234 1.074
v 0.2637 -0.234 1.11
v 0.3037 -0.234 1.11
v 0.3037 -0.234 1.074
v 0.2637 -0.234 1.074
v -0.34 -0.482 0.9802
v 0.34 -0.482 0.9802
v 0.34 -0.482 0.9962
v -0.34 -0.482 0.9962
v -0.34 -0.482 1.0538
v 0.34 -0.482 1.0538
v 0.34 -0.482 1.0698
v -0.34 -0.482 1.0698
v -0.32 -0.4835 1.035
v -0.235 -0.4835 1.035
v -0.235 -0.4835 1.105
v -0.32 -0.4835 1.105
v -0.1067 -0.4835 1.035
v -0.0217 -0.4835 1.035
v -0.0217 -0.4835 1.105
v -0.1067 -0.4835 1.105
v 0.1067 -0.4835 1.035
v 0.1917 -0.4835 1.035
v 0.1917 -0.4835 1.105
v 0.1067 -0.4835 1.105
v 0.26 -0.44 0.88
v 0.295 -0.44 0.88
v 0.295 -0.405 0.88
v 0.26 -0.405 0.88
v 0.295 -0.44 0.56
v 0.295 -0.405 0.56
v 0.26 -0.405 0.56
v 0.26 -0.44 0.56
vt 0.359375 0.921875
vt 0.890625 0.953125
vt 0.421875 0.984375
vt 0.171875 0.953125
vt 0.171875 0.921875
vt 0.515625 0.921875
vt 0.765625 0.984375
vt 0.703125 0.984375
vt 0.921875 0.953125
vt 0.796875 0.984375
vt 0.390625 0.984375
vn 0 0 1
vn 1 0 0
vn 0 1 0
vn 0 -1 0
vn -1 0 0
vn 0 0 -1
f 1/1/1 2/1/1 3/1/1
f 1/1/1 3/1/1 4/1/1
f 5/2/2 6/2/2 3/2/2
f 5/2/2 3/2/2 2/2/2
f 6/2/3 7/2/3 4/2/3
f 6/2/3 4/2/3 3/2/3
f 8/2/4 5/2/4 2/2/4
f 8/2/4 2/2/4 1/2/4
f 7/2/5 8/2/5 1/2/5
f 7/2/5 1/2/5 4/2/5
f 8/2/6 7/2/6 6/2/6
f 8/2/6 6/2/6 5/2/6
f 9/1/1 10/1/1 11/1/1
f 9/1/1 11/1/1 12/1/1
f 13/2/2 14/2/2 11/2/2
f 13/2/2 11/2/2 10/2/2
f 14/2/3 15/2/3 12/2/3
f 14/2/3 12/2/3 11/2/3
f 16/2/4 13/2/4 10/2/4
f 16/2/4 10/2/4 9/2/4
f 15/2/5 16/2/5 9/2/5
f 15/2/5 9/2/5 12/2/5
f 17/2/6 18/2/6 19/2/6
f 17/2/6 19/2/6 20/2/6
f 21/3/3 22/3/3 23/3/3
f 21/3/3 23/3/3 24/3/3
f 25/4/3 26/4/3 27/4/3
f 25/4/3 27/4/3 28/4/3
f 29/5/3 30/5/3 31/5/3
f 29/5/3 31/5/3 32/5/3
f 33/6/3 34/6/3 35/6/3
f 33/6/3 35/6/3 36/6/3
f 37/7/3 38/7/3 39/7/3
f 37/7/3 39/7/3 40/7/3
f 41/3/3 42/3/3 43/3/3
f 41/3/3 43/3/3 44/3/3
f 45/4/3 46/4/3 47/4/3
f 45/4/3 47/4/3 48/4/3
f 49/5/3 50/5/3 51/5/3
f 49/5/3 51/5/3 52/5/3
f 53/6/3 54/6/3 55/6/3
f 53/6/3 55/6/3 56/6/3
f 57/7/3 58/7/3 59/7/3
f 57/7/3 59/7/3 60/7/3
f 61/3/3 62/3/3 63/3/3
f 61/3/3 63/3/3 64/3/3
f 65/4/3 66/4/3 67/4/3
f 65/4/3 67/4/3 68/4/3
f 69/5/3 70/5/3 71/5/3
f 69/5/3 71/5/3 72/5/3
f 73/6/3 74/6/3 75/6/3
f 73/6/3 75/6/3 76/6/3
f 77/7/3 78/7/3 79/7/3
f 77/7/3 79/7/3 80/7/3
f 81/8/4 82/8/4 83/8/4
f 81/8/4 83/8/4 84/8/4
f 85/8/4 86/8/4 87/8/4
f 85/8/4 87/8/4 88/8/4
f 89/9/4 90/9/4 91/9/4
f 89/9/4 91/9/4 92/9/4
f 93/9/4 94/9/4 95/9/4
f 93/9/4 95/9/4 96/9/4
f 97/9/4 98/9/4 99/9/4
f 97/9/4 99/9/4 100/9/4
f 101/10/1 102/10/1 103/10/1
f 101/10/1 103/10/1 104/10/1
f 105/11/2 106/11/2 103/11/2
f 105/11/2 103/11/2 102/11/2
f 106/11/3 107/11/3 104/11/3
f 106/11/3 104/11/3 103/11/3
f 108/11/4 105/11/4 102/11/4
f 108/11/4 102/11/4 101/11/4
f 107/11/5 108/11/5 101/11/5
f 107/11/5 101/11/5 104/11/5
f 108/11/6 107/11/6 106/11/6
f 108/11/6 106/11/6 105/11/6
