# Off-Grid bank_wall_standard_c0_S for Project Viewpoint. Z up, tile units, x east, y south. Generated by tools/build_viewpoint.py.
mtllib offgrid.mtl
o bank_wall_standard_c0_S
usemtl offgrid
v -0.4 -0.48 1.26
v 0.4 -0.48 1.26
v 0.4 -0.24 1.26
v -0.4 -0.24 1.26
v 0.4 -0.48 0.86
v 0.4 -0.24 0.86
v -0.4 -0.24 0.86
v -0.4 -0.48 0.86
v -0.38 -0.48 1.288
v 0.38 -0.48 1.288
v 0.38 -0.22 1.288
v -0.38 -0.22 1.288
v 0.38 -0.48 1.26
v 0.38 -0.22 1.26
v -0.38 -0.22 1.26
v -0.38 -0.48 1.26
v -0.38 -0.48 1.2585
v -0.38 -0.22 1.2585
v 0.38 -0.22 1.2585
v 0.38 -0.48 1.2585
v -0.37 -0.238 1.14
v -0.1533 -0.238 1.14
v -0.1533 -0.238 0.91
v -0.37 -0.238 0.91
v -0.1233 -0.238 1.14
v 0.0933 -0.238 1.14
v 0.0933 -0.238 0.91
v -0.1233 -0.238 0.91
v 0.1233 -0.238 1.14
v 0.34 -0.238 1.14
v 0.34 -0.238 0.91
v 0.1233 -0.238 0.91
v -0.34 -0.482 0.9802
v 0.34 -0.482 0.9802
v 0.34 -0.482 0.9962
v -0.34 -0.482 0.9962
v -0.34 -0.482 1.0538
v 0.34 -0.482 1.0538
v 0.34 -0.482 1.0698
v -0.34 -0.482 1.0698
v -0.32 -0.4835 1.035
v -0.235 -0.4835 1.035
v -0.235 -0.4835 1.105
v -0.32 -0.4835 1.105
v -0.1067 -0.4835 1.035
v -0.0217 -0.4835 1.035
v -0.0217 -0.4835 1.105
v -0.1067 -0.4835 1.105
v 0.1067 -0.4835 1.035
v 0.1917 -0.4835 1.035
v 0.1917 -0.4835 1.105
v 0.1067 -0.4835 1.105
v 0.26 -0.44 0.88
v 0.295 -0.44 0.88
v 0.295 -0.405 0.88
v 0.26 -0.405 0.88
v 0.295 -0.44 0.56
v 0.295 -0.405 0.56
v 0.26 -0.405 0.56
v 0.26 -0.44 0.56
vt 0.359375 0.921875
vt 0.890625 0.953125
vt 0.421875 0.984375
vt 0.703125 0.984375
vt 0.640625 0.984375
vt 0.796875 0.984375
vt 0.390625 0.984375
vn 0 0 1
vn 1 0 0
vn 0 1 0
vn 0 -1 0
vn -1 0 0
vn 0 0 -1
f 1/1/1 2/1/1 3/1/1
f 1/1/1 3/1/1 4/1/1
f 5/2/2 6/2/2 3/2/2
f 5/2/2 3/2/2 2/2/2
f 6/2/3 7/2/3 4/2/3
f 6/2/3 4/2/3 3/2/3
f 8/2/4 5/2/4 2/2/4
f 8/2/4 2/2/4 1/2/4
f 7/2/5 8/2/5 1/2/5
f 7/2/5 1/2/5 4/2/5
f 8/2/6 7/2/6 6/2/6
f 8/2/6 6/2/6 5/2/6
f 9/1/1 10/1/1 11/1/1
f 9/1/1 11/1/1 12/1/1
f 13/2/2 14/2/2 11/2/2
f 13/2/2 11/2/2 10/2/2
f 14/2/3 15/2/3 12/2/3
f 14/2/3 12/2/3 11/2/3
f 16/2/4 13/2/4 10/2/4
f 16/2/4 10/2/4 9/2/4
f 15/2/5 16/2/5 9/2/5
f 15/2/5 9/2/5 12/2/5
f 17/2/6 18/2/6 19/2/6
f 17/2/6 19/2/6 20/2/6
f 21/3/3 22/3/3 23/3/3
f 21/3/3 23/3/3 24/3/3
f 25/3/3 26/3/3 27/3/3
f 25/3/3 27/3/3 28/3/3
f 29/3/3 30/3/3 31/3/3
f 29/3/3 31/3/3 32/3/3
f 33/4/4 34/4/4 35/4/4
f 33/4/4 35/4/4 36/4/4
f 37/4/4 38/4/4 39/4/4
f 37/4/4 39/4/4 40/4/4
f 41/5/4 42/5/4 43/5/4
f 41/5/4 43/5/4 44/5/4
f 45/5/4 46/5/4 47/5/4
f 45/5/4 47/5/4 48/5/4
f 49/5/4 50/5/4 51/5/4
f 49/5/4 51/5/4 52/5/4
f 53/6/1 54/6/1 55/6/1
f 53/6/1 55/6/1 56/6/1
f 57/7/2 58/7/2 55/7/2
f 57/7/2 55/7/2 54/7/2
f 58/7/3 59/7/3 56/7/3
f 58/7/3 56/7/3 55/7/3
f 60/7/4 57/7/4 54/7/4
f 60/7/4 54/7/4 53/7/4
f 59/7/5 60/7/5 53/7/5
f 59/7/5 53/7/5 56/7/5
f 60/7/6 59/7/6 58/7/6
f 60/7/6 58/7/6 57/7/6
