# Off-Grid bank_ground_makeshift_c3_S for Project Viewpoint. Z up, tile units, x east, y south. Generated by tools/build_viewpoint.py.
mtllib offgrid.mtl
o bank_ground_makeshift_c3_S
usemtl offgrid
v -0.42 -0.26 0.07
v 0.42 -0.26 0.07
v 0.42 0.28 0.07
v -0.42 0.28 0.07
v 0.42 -0.26 0
v 0.42 0.28 0
v -0.42 0.28 0
v -0.42 -0.26 0
v -0.38 -0.28 0.11
v -0.32 -0.28 0.11
v -0.32 0.3 0.11
v -0.38 0.3 0.11
v -0.32 -0.28 0.07
v -0.32 0.3 0.07
v -0.38 0.3 0.07
v -0.38 -0.28 0.07
v -0.38 -0.28 0.0685
v -0.38 0.3 0.0685
v -0.32 0.3 0.0685
v -0.32 -0.28 0.0685
v -0.11 -0.28 0.11
v -0.05 -0.28 0.11
v -0.05 0.3 0.11
v -0.11 0.3 0.11
v -0.05 -0.28 0.07
v -0.05 0.3 0.07
v -0.11 0.3 0.07
v -0.11 -0.28 0.07
v -0.11 -0.28 0.0685
v -0.11 0.3 0.0685
v -0.05 0.3 0.0685
v -0.05 -0.28 0.0685
v 0.16 -0.28 0.11
v 0.22 -0.28 0.11
v 0.22 0.3 0.11
v 0.16 0.3 0.11
v 0.22 -0.28 0.07
v 0.22 0.3 0.07
v 0.16 0.3 0.07
v 0.16 -0.28 0.07
v 0.16 -0.28 0.0685
v 0.16 0.3 0.0685
v 0.22 0.3 0.0685
v 0.22 -0.28 0.0685
v -0.36 -0.16 0.37
v -0.1632 -0.16 0.37
v -0.1632 0.16 0.37
v -0.36 0.16 0.37
v -0.1632 -0.16 0.11
v -0.1632 0.16 0.11
v -0.36 0.16 0.11
v -0.36 -0.16 0.11
v -0.36 -0.16 0.1085
v -0.36 0.16 0.1085
v -0.1632 0.16 0.1085
v -0.1632 -0.16 0.1085
v -0.36 0.158 0.31
v -0.1632 0.158 0.31
v -0.1632 0.158 0.24
v -0.36 0.158 0.24
v -0.36 0.157 0.24
v -0.1632 0.157 0.24
v -0.1632 0.157 0.31
v -0.36 0.157 0.31
v -0.3246 -0.09 0.384
v -0.2065 -0.09 0.384
v -0.2065 0.09 0.384
v -0.3246 0.09 0.384
v -0.2065 -0.09 0.37
v -0.2065 0.09 0.37
v -0.3246 0.09 0.37
v -0.3246 -0.09 0.37
v -0.3246 -0.09 0.3685
v -0.3246 0.09 0.3685
v -0.2065 0.09 0.3685
v -0.2065 -0.09 0.3685
v -0.3403 -0.135 0.402
v -0.3043 -0.135 0.402
v -0.3043 -0.099 0.402
v -0.3403 -0.099 0.402
v -0.3043 -0.135 0.37
v -0.3043 -0.099 0.37
v -0.3403 -0.099 0.37
v -0.3403 -0.135 0.37
v -0.3403 -0.135 0.3685
v -0.3403 -0.099 0.3685
v -0.3043 -0.099 0.3685
v -0.3043 -0.135 0.3685
v -0.2183 -0.135 0.402
v -0.1823 -0.135 0.402
v -0.1823 -0.099 0.402
v -0.2183 -0.099 0.402
v -0.1823 -0.135 0.37
v -0.1823 -0.099 0.37
v -0.2183 -0.099 0.37
v -0.2183 -0.135 0.37
v -0.2183 -0.135 0.3685
v -0.2183 -0.099 0.3685
v -0.1823 -0.099 0.3685
v -0.1823 -0.135 0.3685
v -0.12 -0.16 0.37
v 0.0768 -0.16 0.37
v 0.0768 0.16 0.37
v -0.12 0.16 0.37
v 0.0768 -0.16 0.11
v 0.0768 0.16 0.11
v -0.12 0.16 0.11
v -0.12 -0.16 0.11
v -0.12 -0.16 0.1085
v -0.12 0.16 0.1085
v 0.0768 0.16 0.1085
v 0.0768 -0.16 0.1085
v -0.12 0.158 0.31
v 0.0768 0.158 0.31
v 0.0768 0.158 0.24
v -0.12 0.158 0.24
v -0.12 0.157 0.24
v 0.0768 0.157 0.24
v 0.0768 0.157 0.31
v -0.12 0.157 0.31
v -0.0846 -0.09 0.384
v 0.0335 -0.09 0.384
v 0.0335 0.09 0.384
v -0.0846 0.09 0.384
v 0.0335 -0.09 0.37
v 0.0335 0.09 0.37
v -0.0846 0.09 0.37
v -0.0846 -0.09 0.37
v -0.0846 -0.09 0.3685
v -0.0846 0.09 0.3685
v 0.0335 0.09 0.3685
v 0.0335 -0.09 0.3685
v -0.1003 -0.135 0.402
v -0.0643 -0.135 0.402
v -0.0643 -0.099 0.402
v -0.1003 -0.099 0.402
v -0.0643 -0.135 0.37
v -0.0643 -0.099 0.37
v -0.1003 -0.099 0.37
v -0.1003 -0.135 0.37
v -0.1003 -0.135 0.3685
v -0.1003 -0.099 0.3685
v -0.0643 -0.099 0.3685
v -0.0643 -0.135 0.3685
v 0.0217 -0.135 0.402
v 0.0577 -0.135 0.402
v 0.0577 -0.099 0.402
v 0.0217 -0.099 0.402
v 0.0577 -0.135 0.37
v 0.0577 -0.099 0.37
v 0.0217 -0.099 0.37
v 0.0217 -0.135 0.37
v 0.0217 -0.135 0.3685
v 0.0217 -0.099 0.3685
v 0.0577 -0.099 0.3685
v 0.0577 -0.135 0.3685
v 0.12 -0.16 0.37
v 0.3168 -0.16 0.37
v 0.3168 0.16 0.37
v 0.12 0.16 0.37
v 0.3168 -0.16 0.11
v 0.3168 0.16 0.11
v 0.12 0.16 0.11
v 0.12 -0.16 0.11
v 0.12 -0.16 0.1085
v 0.12 0.16 0.1085
v 0.3168 0.16 0.1085
v 0.3168 -0.16 0.1085
v 0.12 0.158 0.31
v 0.3168 0.158 0.31
v 0.3168 0.158 0.24
v 0.12 0.158 0.24
v 0.12 0.157 0.24
v 0.3168 0.157 0.24
v 0.3168 0.157 0.31
v 0.12 0.157 0.31
v 0.1554 -0.09 0.384
v 0.2735 -0.09 0.384
v 0.2735 0.09 0.384
v 0.1554 0.09 0.384
v 0.2735 -0.09 0.37
v 0.2735 0.09 0.37
v 0.1554 0.09 0.37
v 0.1554 -0.09 0.37
v 0.1554 -0.09 0.3685
v 0.1554 0.09 0.3685
v 0.2735 0.09 0.3685
v 0.2735 -0.09 0.3685
v 0.1397 -0.135 0.402
v 0.1757 -0.135 0.402
v 0.1757 -0.099 0.402
v 0.1397 -0.099 0.402
v 0.1757 -0.135 0.37
v 0.1757 -0.099 0.37
v 0.1397 -0.099 0.37
v 0.1397 -0.135 0.37
v 0.1397 -0.135 0.3685
v 0.1397 -0.099 0.3685
v 0.1757 -0.099 0.3685
v 0.1757 -0.135 0.3685
v 0.2617 -0.135 0.402
v 0.2977 -0.135 0.402
v 0.2977 -0.099 0.402
v 0.2617 -0.099 0.402
v 0.2977 -0.135 0.37
v 0.2977 -0.099 0.37
v 0.2617 -0.099 0.37
v 0.2617 -0.135 0.37
v 0.2617 -0.135 0.3685
v 0.2617 -0.099 0.3685
v 0.2977 -0.099 0.3685
v 0.2977 -0.135 0.3685
v -0.34 -0.13 0.422
v 0.32 -0.13 0.422
v 0.32 -0.104 0.422
v -0.34 -0.104 0.422
v 0.32 -0.13 0.402
v 0.32 -0.104 0.402
v -0.34 -0.104 0.402
v -0.34 -0.13 0.402
v -0.34 -0.13 0.4005
v -0.34 -0.104 0.4005
v 0.32 -0.104 0.4005
v 0.32 -0.13 0.4005
v 0.12 -0.26 0.56
v 0.38 -0.26 0.56
v 0.38 -0.16 0.56
v 0.12 -0.16 0.56
v 0.38 -0.26 0.4
v 0.38 -0.16 0.4
v 0.12 -0.16 0.4
v 0.12 -0.26 0.4
v 0.16 -0.158 0.52
v 0.21 -0.158 0.52
v 0.21 -0.158 0.482
v 0.16 -0.158 0.482
v 0.16 -0.159 0.482
v 0.21 -0.159 0.482
v 0.21 -0.159 0.52
v 0.16 -0.159 0.52
v 0.23 -0.158 0.52
v 0.28 -0.158 0.52
v 0.28 -0.158 0.482
v 0.23 -0.158 0.482
v 0.23 -0.159 0.482
v 0.28 -0.159 0.482
v 0.28 -0.159 0.52
v 0.23 -0.159 0.52
v 0.3 -0.158 0.52
v 0.35 -0.158 0.52
v 0.35 -0.158 0.482
v 0.3 -0.158 0.482
v 0.3 -0.159 0.482
v 0.35 -0.159 0.482
v 0.35 -0.159 0.52
v 0.3 -0.159 0.52
v 0.3 -0.28 0.42
v 0.335 -0.28 0.42
v 0.335 -0.245 0.42
v 0.3 -0.245 0.42
v 0.335 -0.28 0
v 0.335 -0.245 0
v 0.3 -0.245 0
v 0.3 -0.28 0
v 0.3 -0.28 -0.0015
v 0.3 -0.245 -0.0015
v 0.335 -0.245 -0.0015
v 0.335 -0.28 -0.0015
vt 0.421875 0.921875
vt 0.828125 0.953125
vt 0.703125 0.953125
vt 0.171875 0.953125
vt 0.171875 0.921875
vt 0.546875 0.953125
vt 0.140625 0.953125
vt 0.234375 0.890625
vt 0.515625 0.921875
vt 0.265625 0.953125
vt 0.765625 0.984375
vt 0.796875 0.984375
vt 0.390625 0.984375
vt 0.078125 0.921875
vt 0.640625 0.953125
vt 0.921875 0.953125
vn 0 0 1
vn 1 0 0
vn 0 1 0
vn 0 -1 0
vn -1 0 0
vn 0 0 -1
f 1/1/1 2/1/1 3/1/1
f 1/1/1 3/1/1 4/1/1
f 5/2/2 6/2/2 3/2/2
f 5/2/2 3/2/2 2/2/2
f 6/2/3 7/2/3 4/2/3
f 6/2/3 4/2/3 3/2/3
f 8/2/4 5/2/4 2/2/4
f 8/2/4 2/2/4 1/2/4
f 7/2/5 8/2/5 1/2/5
f 7/2/5 1/2/5 4/2/5
f 8/2/6 7/2/6 6/2/6
f 8/2/6 6/2/6 5/2/6
f 9/1/1 10/1/1 11/1/1
f 9/1/1 11/1/1 12/1/1
f 13/2/2 14/2/2 11/2/2
f 13/2/2 11/2/2 10/2/2
f 14/2/3 15/2/3 12/2/3
f 14/2/3 12/2/3 11/2/3
f 16/2/4 13/2/4 10/2/4
f 16/2/4 10/2/4 9/2/4
f 15/2/5 16/2/5 9/2/5
f 15/2/5 9/2/5 12/2/5
f 17/2/6 18/2/6 19/2/6
f 17/2/6 19/2/6 20/2/6
f 21/1/1 22/1/1 23/1/1
f 21/1/1 23/1/1 24/1/1
f 25/2/2 26/2/2 23/2/2
f 25/2/2 23/2/2 22/2/2
f 26/2/3 27/2/3 24/2/3
f 26/2/3 24/2/3 23/2/3
f 28/2/4 25/2/4 22/2/4
f 28/2/4 22/2/4 21/2/4
f 27/2/5 28/2/5 21/2/5
f 27/2/5 21/2/5 24/2/5
f 29/2/6 30/2/6 31/2/6
f 29/2/6 31/2/6 32/2/6
f 33/1/1 34/1/1 35/1/1
f 33/1/1 35/1/1 36/1/1
f 37/2/2 38/2/2 35/2/2
f 37/2/2 35/2/2 34/2/2
f 38/2/3 39/2/3 36/2/3
f 38/2/3 36/2/3 35/2/3
f 40/2/4 37/2/4 34/2/4
f 40/2/4 34/2/4 33/2/4
f 39/2/5 40/2/5 33/2/5
f 39/2/5 33/2/5 36/2/5
f 41/2/6 42/2/6 43/2/6
f 41/2/6 43/2/6 44/2/6
f 45/3/1 46/3/1 47/3/1
f 45/3/1 47/3/1 48/3/1
f 49/4/2 50/4/2 47/4/2
f 49/4/2 47/4/2 46/4/2
f 50/4/3 51/4/3 48/4/3
f 50/4/3 48/4/3 47/4/3
f 52/4/4 49/4/4 46/4/4
f 52/4/4 46/4/4 45/4/4
f 51/4/5 52/4/5 45/4/5
f 51/4/5 45/4/5 48/4/5
f 53/4/6 54/4/6 55/4/6
f 53/4/6 55/4/6 56/4/6
f 57/5/3 58/5/3 59/5/3
f 57/5/3 59/5/3 60/5/3
f 61/5/4 62/5/4 63/5/4
f 61/5/4 63/5/4 64/5/4
f 65/6/1 66/6/1 67/6/1
f 65/6/1 67/6/1 68/6/1
f 69/7/2 70/7/2 67/7/2
f 69/7/2 67/7/2 66/7/2
f 70/7/3 71/7/3 68/7/3
f 70/7/3 68/7/3 67/7/3
f 72/7/4 69/7/4 66/7/4
f 72/7/4 66/7/4 65/7/4
f 71/7/5 72/7/5 65/7/5
f 71/7/5 65/7/5 68/7/5
f 73/7/6 74/7/6 75/7/6
f 73/7/6 75/7/6 76/7/6
f 77/8/1 78/8/1 79/8/1
f 77/8/1 79/8/1 80/8/1
f 81/9/2 82/9/2 79/9/2
f 81/9/2 79/9/2 78/9/2
f 82/9/3 83/9/3 80/9/3
f 82/9/3 80/9/3 79/9/3
f 84/9/4 81/9/4 78/9/4
f 84/9/4 78/9/4 77/9/4
f 83/9/5 84/9/5 77/9/5
f 83/9/5 77/9/5 80/9/5
f 85/9/6 86/9/6 87/9/6
f 85/9/6 87/9/6 88/9/6
f 89/10/1 90/10/1 91/10/1
f 89/10/1 91/10/1 92/10/1
f 93/11/2 94/11/2 91/11/2
f 93/11/2 91/11/2 90/11/2
f 94/11/3 95/11/3 92/11/3
f 94/11/3 92/11/3 91/11/3
f 96/11/4 93/11/4 90/11/4
f 96/11/4 90/11/4 89/11/4
f 95/11/5 96/11/5 89/11/5
f 95/11/5 89/11/5 92/11/5
f 97/11/6 98/11/6 99/11/6
f 97/11/6 99/11/6 100/11/6
f 101/3/1 102/3/1 103/3/1
f 101/3/1 103/3/1 104/3/1
f 105/4/2 106/4/2 103/4/2
f 105/4/2 103/4/2 102/4/2
f 106/4/3 107/4/3 104/4/3
f 106/4/3 104/4/3 103/4/3
f 108/4/4 105/4/4 102/4/4
f 108/4/4 102/4/4 101/4/4
f 107/4/5 108/4/5 101/4/5
f 107/4/5 101/4/5 104/4/5
f 109/4/6 110/4/6 111/4/6
f 109/4/6 111/4/6 112/4/6
f 113/5/3 114/5/3 115/5/3
f 113/5/3 115/5/3 116/5/3
f 117/5/4 118/5/4 119/5/4
f 117/5/4 119/5/4 120/5/4
f 121/6/1 122/6/1 123/6/1
f 121/6/1 123/6/1 124/6/1
f 125/7/2 126/7/2 123/7/2
f 125/7/2 123/7/2 122/7/2
f 126/7/3 127/7/3 124/7/3
f 126/7/3 124/7/3 123/7/3
f 128/7/4 125/7/4 122/7/4
f 128/7/4 122/7/4 121/7/4
f 127/7/5 128/7/5 121/7/5
f 127/7/5 121/7/5 124/7/5
f 129/7/6 130/7/6 131/7/6
f 129/7/6 131/7/6 132/7/6
f 133/8/1 134/8/1 135/8/1
f 133/8/1 135/8/1 136/8/1
f 137/9/2 138/9/2 135/9/2
f 137/9/2 135/9/2 134/9/2
f 138/9/3 139/9/3 136/9/3
f 138/9/3 136/9/3 135/9/3
f 140/9/4 137/9/4 134/9/4
f 140/9/4 134/9/4 133/9/4
f 139/9/5 140/9/5 133/9/5
f 139/9/5 133/9/5 136/9/5
f 141/9/6 142/9/6 143/9/6
f 141/9/6 143/9/6 144/9/6
f 145/10/1 146/10/1 147/10/1
f 145/10/1 147/10/1 148/10/1
f 149/11/2 150/11/2 147/11/2
f 149/11/2 147/11/2 146/11/2
f 150/11/3 151/11/3 148/11/3
f 150/11/3 148/11/3 147/11/3
f 152/11/4 149/11/4 146/11/4
f 152/11/4 146/11/4 145/11/4
f 151/11/5 152/11/5 145/11/5
f 151/11/5 145/11/5 148/11/5
f 153/11/6 154/11/6 155/11/6
f 153/11/6 155/11/6 156/11/6
f 157/3/1 158/3/1 159/3/1
f 157/3/1 159/3/1 160/3/1
f 161/4/2 162/4/2 159/4/2
f 161/4/2 159/4/2 158/4/2
f 162/4/3 163/4/3 160/4/3
f 162/4/3 160/4/3 159/4/3
f 164/4/4 161/4/4 158/4/4
f 164/4/4 158/4/4 157/4/4
f 163/4/5 164/4/5 157/4/5
f 163/4/5 157/4/5 160/4/5
f 165/4/6 166/4/6 167/4/6
f 165/4/6 167/4/6 168/4/6
f 169/5/3 170/5/3 171/5/3
f 169/5/3 171/5/3 172/5/3
f 173/5/4 174/5/4 175/5/4
f 173/5/4 175/5/4 176/5/4
f 177/6/1 178/6/1 179/6/1
f 177/6/1 179/6/1 180/6/1
f 181/7/2 182/7/2 179/7/2
f 181/7/2 179/7/2 178/7/2
f 182/7/3 183/7/3 180/7/3
f 182/7/3 180/7/3 179/7/3
f 184/7/4 181/7/4 178/7/4
f 184/7/4 178/7/4 177/7/4
f 183/7/5 184/7/5 177/7/5
f 183/7/5 177/7/5 180/7/5
f 185/7/6 186/7/6 187/7/6
f 185/7/6 187/7/6 188/7/6
f 189/8/1 190/8/1 191/8/1
f 189/8/1 191/8/1 192/8/1
f 193/9/2 194/9/2 191/9/2
f 193/9/2 191/9/2 190/9/2
f 194/9/3 195/9/3 192/9/3
f 194/9/3 192/9/3 191/9/3
f 196/9/4 193/9/4 190/9/4
f 196/9/4 190/9/4 189/9/4
f 195/9/5 196/9/5 189/9/5
f 195/9/5 189/9/5 192/9/5
f 197/9/6 198/9/6 199/9/6
f 197/9/6 199/9/6 200/9/6
f 201/10/1 202/10/1 203/10/1
f 201/10/1 203/10/1 204/10/1
f 205/11/2 206/11/2 203/11/2
f 205/11/2 203/11/2 202/11/2
f 206/11/3 207/11/3 204/11/3
f 206/11/3 204/11/3 203/11/3
f 208/11/4 205/11/4 202/11/4
f 208/11/4 202/11/4 201/11/4
f 207/11/5 208/11/5 201/11/5
f 207/11/5 201/11/5 204/11/5
f 209/11/6 210/11/6 211/11/6
f 209/11/6 211/11/6 212/11/6
f 213/12/1 214/12/1 215/12/1
f 213/12/1 215/12/1 216/12/1
f 217/13/2 218/13/2 215/13/2
f 217/13/2 215/13/2 214/13/2
f 218/13/3 219/13/3 216/13/3
f 218/13/3 216/13/3 215/13/3
f 220/13/4 217/13/4 214/13/4
f 220/13/4 214/13/4 213/13/4
f 219/13/5 220/13/5 213/13/5
f 219/13/5 213/13/5 216/13/5
f 221/13/6 222/13/6 223/13/6
f 221/13/6 223/13/6 224/13/6
f 225/14/1 226/14/1 227/14/1
f 225/14/1 227/14/1 228/14/1
f 229/15/2 230/15/2 227/15/2
f 229/15/2 227/15/2 226/15/2
f 230/15/3 231/15/3 228/15/3
f 230/15/3 228/15/3 227/15/3
f 232/15/4 229/15/4 226/15/4
f 232/15/4 226/15/4 225/15/4
f 231/15/5 232/15/5 225/15/5
f 231/15/5 225/15/5 228/15/5
f 232/15/6 231/15/6 230/15/6
f 232/15/6 230/15/6 229/15/6
f 233/16/3 234/16/3 235/16/3
f 233/16/3 235/16/3 236/16/3
f 237/16/4 238/16/4 239/16/4
f 237/16/4 239/16/4 240/16/4
f 241/16/3 242/16/3 243/16/3
f 241/16/3 243/16/3 244/16/3
f 245/16/4 246/16/4 247/16/4
f 245/16/4 247/16/4 248/16/4
f 249/16/3 250/16/3 251/16/3
f 249/16/3 251/16/3 252/16/3
f 253/16/4 254/16/4 255/16/4
f 253/16/4 255/16/4 256/16/4
f 257/12/1 258/12/1 259/12/1
f 257/12/1 259/12/1 260/12/1
f 261/13/2 262/13/2 259/13/2
f 261/13/2 259/13/2 258/13/2
f 262/13/3 263/13/3 260/13/3
f 262/13/3 260/13/3 259/13/3
f 264/13/4 261/13/4 258/13/4
f 264/13/4 258/13/4 257/13/4
f 263/13/5 264/13/5 257/13/5
f 263/13/5 257/13/5 260/13/5
f 265/13/6 266/13/6 267/13/6
f 265/13/6 267/13/6 268/13/6
