# Off-Grid bank_ground_standard_c0_S for Project Viewpoint. Z up, tile units, x east, y south. Generated by tools/build_viewpoint.py.
mtllib offgrid.mtl
o bank_ground_standard_c0_S
usemtl offgrid
v -0.4075 -0.2475 0.8
v -0.3525 -0.2475 0.8
v -0.3525 -0.1925 0.8
v -0.4075 -0.1925 0.8
v -0.3525 -0.2475 0
v -0.3525 -0.1925 0
v -0.4075 -0.1925 0
v -0.4075 -0.2475 0
v 0.3525 -0.2475 0.8
v 0.4075 -0.2475 0.8
v 0.4075 -0.1925 0.8
v 0.3525 -0.1925 0.8
v 0.4075 -0.2475 0
v 0.4075 -0.1925 0
v 0.3525 -0.1925 0
v 0.3525 -0.2475 0
v -0.4075 0.2125 0.46
v -0.3525 0.2125 0.46
v -0.3525 0.2675 0.46
v -0.4075 0.2675 0.46
v -0.3525 0.2125 0
v -0.3525 0.2675 0
v -0.4075 0.2675 0
v -0.4075 0.2125 0
v 0.3525 0.2125 0.46
v 0.4075 0.2125 0.46
v 0.4075 0.2675 0.46
v 0.3525 0.2675 0.46
v 0.4075 0.2125 0
v 0.4075 0.2675 0
v 0.3525 0.2675 0
v 0.3525 0.2125 0
v -0.38 -0.24 0.775
v 0.38 -0.24 0.775
v 0.38 -0.205 0.775
v -0.38 -0.205 0.775
v 0.38 -0.24 0.74
v 0.38 -0.205 0.74
v -0.38 -0.205 0.74
v -0.38 -0.24 0.74
v -0.42 -0.26 0.065
v 0.42 -0.26 0.065
v 0.42 0.28 0.065
v -0.42 0.28 0.065
v 0.42 -0.26 0.03
v 0.42 0.28 0.03
v -0.42 0.28 0.03
v -0.42 -0.26 0.03
v -0.42 -0.24 0.495
v 0.42 -0.24 0.495
v 0.42 -0.14 0.495
v -0.42 -0.14 0.495
v 0.42 -0.24 0.46
v 0.42 -0.14 0.46
v -0.42 -0.14 0.46
v -0.42 -0.24 0.46
v -0.42 0.04 0.495
v 0.42 0.04 0.495
v 0.42 0.14 0.495
v -0.42 0.14 0.495
v 0.42 0.04 0.46
v 0.42 0.14 0.46
v -0.42 0.14 0.46
v -0.42 0.04 0.46
v 0.02 -0.245 0.8
v 0.34 -0.245 0.8
v 0.34 -0.135 0.8
v 0.02 -0.135 0.8
v 0.34 -0.245 0.6
v 0.34 -0.135 0.6
v 0.02 -0.135 0.6
v 0.02 -0.245 0.6
v 0.07 -0.133 0.745
v 0.12 -0.133 0.745
v 0.12 -0.133 0.707
v 0.07 -0.133 0.707
v 0.07 -0.134 0.707
v 0.12 -0.134 0.707
v 0.12 -0.134 0.745
v 0.07 -0.134 0.745
v 0.15 -0.133 0.745
v 0.2 -0.133 0.745
v 0.2 -0.133 0.707
v 0.15 -0.133 0.707
v 0.15 -0.134 0.707
v 0.2 -0.134 0.707
v 0.2 -0.134 0.745
v 0.15 -0.134 0.745
v 0.23 -0.133 0.745
v 0.28 -0.133 0.745
v 0.28 -0.133 0.707
v 0.23 -0.133 0.707
v 0.23 -0.134 0.707
v 0.28 -0.134 0.707
v 0.28 -0.134 0.745
v 0.23 -0.134 0.745
v 0.3 -0.28 0.6
v 0.335 -0.28 0.6
v 0.335 -0.245 0.6
v 0.3 -0.245 0.6
v 0.335 -0.28 0
v 0.335 -0.245 0
v 0.3 -0.245 0
v 0.3 -0.28 0
vt 0.359375 0.921875
vt 0.890625 0.953125
vt 0.265625 0.921875
vt 0.640625 0.953125
vt 0.640625 0.984375
vt 0.796875 0.984375
vt 0.390625 0.984375
vn 0 0 1
vn 1 0 0
vn 0 1 0
vn 0 -1 0
vn -1 0 0
vn 0 0 -1
f 1/1/1 2/1/1 3/1/1
f 1/1/1 3/1/1 4/1/1
f 5/2/2 6/2/2 3/2/2
f 5/2/2 3/2/2 2/2/2
f 6/2/3 7/2/3 4/2/3
f 6/2/3 4/2/3 3/2/3
f 8/2/4 5/2/4 2/2/4
f 8/2/4 2/2/4 1/2/4
f 7/2/5 8/2/5 1/2/5
f 7/2/5 1/2/5 4/2/5
f 8/2/6 7/2/6 6/2/6
f 8/2/6 6/2/6 5/2/6
f 9/1/1 10/1/1 11/1/1
f 9/1/1 11/1/1 12/1/1
f 13/2/2 14/2/2 11/2/2
f 13/2/2 11/2/2 10/2/2
f 14/2/3 15/2/3 12/2/3
f 14/2/3 12/2/3 11/2/3
f 16/2/4 13/2/4 10/2/4
f 16/2/4 10/2/4 9/2/4
f 15/2/5 16/2/5 9/2/5
f 15/2/5 9/2/5 12/2/5
f 16/2/6 15/2/6 14/2/6
f 16/2/6 14/2/6 13/2/6
f 17/1/1 18/1/1 19/1/1
f 17/1/1 19/1/1 20/1/1
f 21/2/2 22/2/2 19/2/2
f 21/2/2 19/2/2 18/2/2
f 22/2/3 23/2/3 20/2/3
f 22/2/3 20/2/3 19/2/3
f 24/2/4 21/2/4 18/2/4
f 24/2/4 18/2/4 17/2/4
f 23/2/5 24/2/5 17/2/5
f 23/2/5 17/2/5 20/2/5
f 24/2/6 23/2/6 22/2/6
f 24/2/6 22/2/6 21/2/6
f 25/1/1 26/1/1 27/1/1
f 25/1/1 27/1/1 28/1/1
f 29/2/2 30/2/2 27/2/2
f 29/2/2 27/2/2 26/2/2
f 30/2/3 31/2/3 28/2/3
f 30/2/3 28/2/3 27/2/3
f 32/2/4 29/2/4 26/2/4
f 32/2/4 26/2/4 25/2/4
f 31/2/5 32/2/5 25/2/5
f 31/2/5 25/2/5 28/2/5
f 32/2/6 31/2/6 30/2/6
f 32/2/6 30/2/6 29/2/6
f 33/1/1 34/1/1 35/1/1
f 33/1/1 35/1/1 36/1/1
f 37/2/2 38/2/2 35/2/2
f 37/2/2 35/2/2 34/2/2
f 38/2/3 39/2/3 36/2/3
f 38/2/3 36/2/3 35/2/3
f 40/2/4 37/2/4 34/2/4
f 40/2/4 34/2/4 33/2/4
f 39/2/5 40/2/5 33/2/5
f 39/2/5 33/2/5 36/2/5
f 40/2/6 39/2/6 38/2/6
f 40/2/6 38/2/6 37/2/6
f 41/1/1 42/1/1 43/1/1
f 41/1/1 43/1/1 44/1/1
f 45/2/2 46/2/2 43/2/2
f 45/2/2 43/2/2 42/2/2
f 46/2/3 47/2/3 44/2/3
f 46/2/3 44/2/3 43/2/3
f 48/2/4 45/2/4 42/2/4
f 48/2/4 42/2/4 41/2/4
f 47/2/5 48/2/5 41/2/5
f 47/2/5 41/2/5 44/2/5
f 48/2/6 47/2/6 46/2/6
f 48/2/6 46/2/6 45/2/6
f 49/1/1 50/1/1 51/1/1
f 49/1/1 51/1/1 52/1/1
f 53/2/2 54/2/2 51/2/2
f 53/2/2 51/2/2 50/2/2
f 54/2/3 55/2/3 52/2/3
f 54/2/3 52/2/3 51/2/3
f 56/2/4 53/2/4 50/2/4
f 56/2/4 50/2/4 49/2/4
f 55/2/5 56/2/5 49/2/5
f 55/2/5 49/2/5 52/2/5
f 56/2/6 55/2/6 54/2/6
f 56/2/6 54/2/6 53/2/6
f 57/1/1 58/1/1 59/1/1
f 57/1/1 59/1/1 60/1/1
f 61/2/2 62/2/2 59/2/2
f 61/2/2 59/2/2 58/2/2
f 62/2/3 63/2/3 60/2/3
f 62/2/3 60/2/3 59/2/3
f 64/2/4 61/2/4 58/2/4
f 64/2/4 58/2/4 57/2/4
f 63/2/5 64/2/5 57/2/5
f 63/2/5 57/2/5 60/2/5
f 64/2/6 63/2/6 62/2/6
f 64/2/6 62/2/6 61/2/6
f 65/3/1 66/3/1 67/3/1
f 65/3/1 67/3/1 68/3/1
f 69/4/2 70/4/2 67/4/2
f 69/4/2 67/4/2 66/4/2
f 70/4/3 71/4/3 68/4/3
f 70/4/3 68/4/3 67/4/3
f 72/4/4 69/4/4 66/4/4
f 72/4/4 66/4/4 65/4/4
f 71/4/5 72/4/5 65/4/5
f 71/4/5 65/4/5 68/4/5
f 72/4/6 71/4/6 70/4/6
f 72/4/6 70/4/6 69/4/6
f 73/5/3 74/5/3 75/5/3
f 73/5/3 75/5/3 76/5/3
f 77/5/4 78/5/4 79/5/4
f 77/5/4 79/5/4 80/5/4
f 81/5/3 82/5/3 83/5/3
f 81/5/3 83/5/3 84/5/3
f 85/5/4 86/5/4 87/5/4
f 85/5/4 87/5/4 88/5/4
f 89/5/3 90/5/3 91/5/3
f 89/5/3 91/5/3 92/5/3
f 93/5/4 94/5/4 95/5/4
f 93/5/4 95/5/4 96/5/4
f 97/6/1 98/6/1 99/6/1
f 97/6/1 99/6/1 100/6/1
f 101/7/2 102/7/2 99/7/2
f 101/7/2 99/7/2 98/7/2
f 102/7/3 103/7/3 100/7/3
f 102/7/3 100/7/3 99/7/3
f 104/7/4 101/7/4 98/7/4
f 104/7/4 98/7/4 97/7/4
f 103/7/5 104/7/5 97/7/5
f 103/7/5 97/7/5 100/7/5
f 104/7/6 103/7/6 102/7/6
f 104/7/6 102/7/6 101/7/6
