# Off-Grid bank_wall_premium_c0_S for Project Viewpoint. Z up, tile units, x east, y south. Generated by tools/build_viewpoint.py.
mtllib offgrid.mtl
o bank_wall_premium_c0_S
usemtl offgrid
v -0.4 -0.48 1.32
v 0.4 -0.48 1.32
v 0.4 -0.24 1.32
v -0.4 -0.24 1.32
v 0.4 -0.48 0.86
v 0.4 -0.24 0.86
v -0.4 -0.24 0.86
v -0.4 -0.48 0.86
v -0.38 -0.48 1.348
v 0.38 -0.48 1.348
v 0.38 -0.22 1.348
v -0.38 -0.22 1.348
v 0.38 -0.48 1.32
v 0.38 -0.22 1.32
v -0.38 -0.22 1.32
v -0.38 -0.48 1.32
v -0.38 -0.48 1.3185
v -0.38 -0.22 1.3185
v 0.38 -0.22 1.3185
v 0.38 -0.48 1.3185
v -0.37 -0.238 1.2
v -0.215 -0.238 1.2
v -0.215 -0.238 0.91
v -0.37 -0.238 0.91
v -0.185 -0.238 1.2
v -0.03 -0.238 1.2
v -0.03 -0.238 0.91
v -0.185 -0.238 0.91
v 0 -0.238 1.2
v 0.155 -0.238 1.2
v 0.155 -0.238 0.91
v 0 -0.238 0.91
v 0.185 -0.238 1.2
v 0.34 -0.238 1.2
v 0.34 -0.238 0.91
v 0.185 -0.238 0.91
v -0.34 -0.482 1.0006
v 0.34 -0.482 1.0006
v 0.34 -0.482 1.0166
v -0.34 -0.482 1.0166
v -0.34 -0.482 1.0934
v 0.34 -0.482 1.0934
v 0.34 -0.482 1.1094
v -0.34 -0.482 1.1094
v -0.32 -0.4835 1.095
v -0.235 -0.4835 1.095
v -0.235 -0.4835 1.165
v -0.32 -0.4835 1.165
v -0.16 -0.4835 1.095
v -0.075 -0.4835 1.095
v -0.075 -0.4835 1.165
v -0.16 -0.4835 1.165
v 0 -0.4835 1.095
v 0.085 -0.4835 1.095
v 0.085 -0.4835 1.165
v 0 -0.4835 1.165
v 0.16 -0.4835 1.095
v 0.245 -0.4835 1.095
v 0.245 -0.4835 1.165
v 0.16 -0.4835 1.165
v 0.26 -0.44 0.88
v 0.295 -0.44 0.88
v 0.295 -0.405 0.88
v 0.26 -0.405 0.88
v 0.295 -0.44 0.56
v 0.295 -0.405 0.56
v 0.26 -0.405 0.56
v 0.26 -0.44 0.56
vt 0.796875 0.921875
vt 0.390625 0.921875
vt 0.421875 0.984375
vt 0.703125 0.984375
vt 0.640625 0.984375
vt 0.796875 0.984375
vt 0.390625 0.984375
vn 0 0 1
vn 1 0 0
vn 0 1 0
vn 0 -1 0
vn -1 0 0
vn 0 0 -1
f 1/1/1 2/1/1 3/1/1
f 1/1/1 3/1/1 4/1/1
f 5/2/2 6/2/2 3/2/2
f 5/2/2 3/2/2 2/2/2
f 6/2/3 7/2/3 4/2/3
f 6/2/3 4/2/3 3/2/3
f 8/2/4 5/2/4 2/2/4
f 8/2/4 2/2/4 1/2/4
f 7/2/5 8/2/5 1/2/5
f 7/2/5 1/2/5 4/2/5
f 8/2/6 7/2/6 6/2/6
f 8/2/6 6/2/6 5/2/6
f 9/1/1 10/1/1 11/1/1
f 9/1/1 11/1/1 12/1/1
f 13/2/2 14/2/2 11/2/2
f 13/2/2 11/2/2 10/2/2
f 14/2/3 15/2/3 12/2/3
f 14/2/3 12/2/3 11/2/3
f 16/2/4 13/2/4 10/2/4
f 16/2/4 10/2/4 9/2/4
f 15/2/5 16/2/5 9/2/5
f 15/2/5 9/2/5 12/2/5
f 17/2/6 18/2/6 19/2/6
f 17/2/6 19/2/6 20/2/6
f 21/3/3 22/3/3 23/3/3
f 21/3/3 23/3/3 24/3/3
f 25/3/3 26/3/3 27/3/3
f 25/3/3 27/3/3 28/3/3
f 29/3/3 30/3/3 31/3/3
f 29/3/3 31/3/3 32/3/3
f 33/3/3 34/3/3 35/3/3
f 33/3/3 35/3/3 36/3/3
f 37/4/4 38/4/4 39/4/4
f 37/4/4 39/4/4 40/4/4
f 41/4/4 42/4/4 43/4/4
f 41/4/4 43/4/4 44/4/4
f 45/5/4 46/5/4 47/5/4
f 45/5/4 47/5/4 48/5/4
f 49/5/4 50/5/4 51/5/4
f 49/5/4 51/5/4 52/5/4
f 53/5/4 54/5/4 55/5/4
f 53/5/4 55/5/4 56/5/4
f 57/5/4 58/5/4 59/5/4
f 57/5/4 59/5/4 60/5/4
f 61/6/1 62/6/1 63/6/1
f 61/6/1 63/6/1 64/6/1
f 65/7/2 66/7/2 63/7/2
f 65/7/2 63/7/2 62/7/2
f 66/7/3 67/7/3 64/7/3
f 66/7/3 64/7/3 63/7/3
f 68/7/4 65/7/4 62/7/4
f 68/7/4 62/7/4 61/7/4
f 67/7/5 68/7/5 61/7/5
f 67/7/5 61/7/5 64/7/5
f 68/7/6 67/7/6 66/7/6
f 68/7/6 66/7/6 65/7/6
