# Off-Grid bank_ground_makeshift_c1_S for Project Viewpoint. Z up, tile units, x east, y south. Generated by tools/build_viewpoint.py.
mtllib offgrid.mtl
o bank_ground_makeshift_c1_S
usemtl offgrid
v -0.42 -0.26 0.07
v 0.42 -0.26 0.07
v 0.42 0.28 0.07
v -0.42 0.28 0.07
v 0.42 -0.26 0
v 0.42 0.28 0
v -0.42 0.28 0
v -0.42 -0.26 0
v -0.38 -0.28 0.11
v -0.32 -0.28 0.11
v -0.32 0.3 0.11
v -0.38 0.3 0.11
v -0.32 -0.28 0.07
v -0.32 0.3 0.07
v -0.38 0.3 0.07
v -0.38 -0.28 0.07
v -0.38 -0.28 0.0685
v -0.38 0.3 0.0685
v -0.32 0.3 0.0685
v -0.32 -0.28 0.0685
v -0.11 -0.28 0.11
v -0.05 -0.28 0.11
v -0.05 0.3 0.11
v -0.11 0.3 0.11
v -0.05 -0.28 0.07
v -0.05 0.3 0.07
v -0.11 0.3 0.07
v -0.11 -0.28 0.07
v -0.11 -0.28 0.0685
v -0.11 0.3 0.0685
v -0.05 0.3 0.0685
v -0.05 -0.28 0.0685
v 0.16 -0.28 0.11
v 0.22 -0.28 0.11
v 0.22 0.3 0.11
v 0.16 0.3 0.11
v 0.22 -0.28 0.07
v 0.22 0.3 0.07
v 0.16 0.3 0.07
v 0.16 -0.28 0.07
v 0.16 -0.28 0.0685
v 0.16 0.3 0.0685
v 0.22 0.3 0.0685
v 0.22 -0.28 0.0685
v -0.36 -0.16 0.37
v -0.1632 -0.16 0.37
v -0.1632 0.16 0.37
v -0.36 0.16 0.37
v -0.1632 -0.16 0.11
v -0.1632 0.16 0.11
v -0.36 0.16 0.11
v -0.36 -0.16 0.11
v -0.36 -0.16 0.1085
v -0.36 0.16 0.1085
v -0.1632 0.16 0.1085
v -0.1632 -0.16 0.1085
v -0.36 0.158 0.31
v -0.1632 0.158 0.31
v -0.1632 0.158 0.24
v -0.36 0.158 0.24
v -0.36 0.157 0.24
v -0.1632 0.157 0.24
v -0.1632 0.157 0.31
v -0.36 0.157 0.31
v -0.3246 -0.09 0.384
v -0.2065 -0.09 0.384
v -0.2065 0.09 0.384
v -0.3246 0.09 0.384
v -0.2065 -0.09 0.37
v -0.2065 0.09 0.37
v -0.3246 0.09 0.37
v -0.3246 -0.09 0.37
v -0.3246 -0.09 0.3685
v -0.3246 0.09 0.3685
v -0.2065 0.09 0.3685
v -0.2065 -0.09 0.3685
v -0.3403 -0.135 0.402
v -0.3043 -0.135 0.402
v -0.3043 -0.099 0.402
v -0.3403 -0.099 0.402
v -0.3043 -0.135 0.37
v -0.3043 -0.099 0.37
v -0.3403 -0.099 0.37
v -0.3403 -0.135 0.37
v -0.3403 -0.135 0.3685
v -0.3403 -0.099 0.3685
v -0.3043 -0.099 0.3685
v -0.3043 -0.135 0.3685
v -0.2183 -0.135 0.402
v -0.1823 -0.135 0.402
v -0.1823 -0.099 0.402
v -0.2183 -0.099 0.402
v -0.1823 -0.135 0.37
v -0.1823 -0.099 0.37
v -0.2183 -0.099 0.37
v -0.2183 -0.135 0.37
v -0.2183 -0.135 0.3685
v -0.2183 -0.099 0.3685
v -0.1823 -0.099 0.3685
v -0.1823 -0.135 0.3685
v -0.34 -0.13 0.422
v 0.32 -0.13 0.422
v 0.32 -0.104 0.422
v -0.34 -0.104 0.422
v 0.32 -0.13 0.402
v 0.32 -0.104 0.402
v -0.34 -0.104 0.402
v -0.34 -0.13 0.402
v -0.34 -0.13 0.4005
v -0.34 -0.104 0.4005
v 0.32 -0.104 0.4005
v 0.32 -0.13 0.4005
v 0.12 -0.26 0.56
v 0.38 -0.26 0.56
v 0.38 -0.16 0.56
v 0.12 -0.16 0.56
v 0.38 -0.26 0.4
v 0.38 -0.16 0.4
v 0.12 -0.16 0.4
v 0.12 -0.26 0.4
v 0.16 -0.158 0.52
v 0.21 -0.158 0.52
v 0.21 -0.158 0.482
v 0.16 -0.158 0.482
v 0.16 -0.159 0.482
v 0.21 -0.159 0.482
v 0.21 -0.159 0.52
v 0.16 -0.159 0.52
v 0.23 -0.158 0.52
v 0.28 -0.158 0.52
v 0.28 -0.158 0.482
v 0.23 -0.158 0.482
v 0.23 -0.159 0.482
v 0.28 -0.159 0.482
v 0.28 -0.159 0.52
v 0.23 -0.159 0.52
v 0.3 -0.158 0.52
v 0.35 -0.158 0.52
v 0.35 -0.158 0.482
v 0.3 -0.158 0.482
v 0.3 -0.159 0.482
v 0.35 -0.159 0.482
v 0.35 -0.159 0.52
v 0.3 -0.159 0.52
v 0.3 -0.28 0.42
v 0.335 -0.28 0.42
v 0.335 -0.245 0.42
v 0.3 -0.245 0.42
v 0.335 -0.28 0
v 0.335 -0.245 0
v 0.3 -0.245 0
v 0.3 -0.28 0
v 0.3 -0.28 -0.0015
v 0.3 -0.245 -0.0015
v 0.335 -0.245 -0.0015
v 0.335 -0.28 -0.0015
vt 0.421875 0.921875
vt 0.828125 0.953125
vt 0.703125 0.953125
vt 0.171875 0.953125
vt 0.171875 0.921875
vt 0.546875 0.953125
vt 0.140625 0.953125
vt 0.234375 0.890625
vt 0.515625 0.921875
vt 0.265625 0.953125
vt 0.765625 0.984375
vt 0.796875 0.984375
vt 0.390625 0.984375
vt 0.078125 0.921875
vt 0.640625 0.953125
vt 0.921875 0.953125
vt 0.640625 0.984375
vn 0 0 1
vn 1 0 0
vn 0 1 0
vn 0 -1 0
vn -1 0 0
vn 0 0 -1
f 1/1/1 2/1/1 3/1/1
f 1/1/1 3/1/1 4/1/1
f 5/2/2 6/2/2 3/2/2
f 5/2/2 3/2/2 2/2/2
f 6/2/3 7/2/3 4/2/3
f 6/2/3 4/2/3 3/2/3
f 8/2/4 5/2/4 2/2/4
f 8/2/4 2/2/4 1/2/4
f 7/2/5 8/2/5 1/2/5
f 7/2/5 1/2/5 4/2/5
f 8/2/6 7/2/6 6/2/6
f 8/2/6 6/2/6 5/2/6
f 9/1/1 10/1/1 11/1/1
f 9/1/1 11/1/1 12/1/1
f 13/2/2 14/2/2 11/2/2
f 13/2/2 11/2/2 10/2/2
f 14/2/3 15/2/3 12/2/3
f 14/2/3 12/2/3 11/2/3
f 16/2/4 13/2/4 10/2/4
f 16/2/4 10/2/4 9/2/4
f 15/2/5 16/2/5 9/2/5
f 15/2/5 9/2/5 12/2/5
f 17/2/6 18/2/6 19/2/6
f 17/2/6 19/2/6 20/2/6
f 21/1/1 22/1/1 23/1/1
f 21/1/1 23/1/1 24/1/1
f 25/2/2 26/2/2 23/2/2
f 25/2/2 23/2/2 22/2/2
f 26/2/3 27/2/3 24/2/3
f 26/2/3 24/2/3 23/2/3
f 28/2/4 25/2/4 22/2/4
f 28/2/4 22/2/4 21/2/4
f 27/2/5 28/2/5 21/2/5
f 27/2/5 21/2/5 24/2/5
f 29/2/6 30/2/6 31/2/6
f 29/2/6 31/2/6 32/2/6
f 33/1/1 34/1/1 35/1/1
f 33/1/1 35/1/1 36/1/1
f 37/2/2 38/2/2 35/2/2
f 37/2/2 35/2/2 34/2/2
f 38/2/3 39/2/3 36/2/3
f 38/2/3 36/2/3 35/2/3
f 40/2/4 37/2/4 34/2/4
f 40/2/4 34/2/4 33/2/4
f 39/2/5 40/2/5 33/2/5
f 39/2/5 33/2/5 36/2/5
f 41/2/6 42/2/6 43/2/6
f 41/2/6 43/2/6 44/2/6
f 45/3/1 46/3/1 47/3/1
f 45/3/1 47/3/1 48/3/1
f 49/4/2 50/4/2 47/4/2
f 49/4/2 47/4/2 46/4/2
f 50/4/3 51/4/3 48/4/3
f 50/4/3 48/4/3 47/4/3
f 52/4/4 49/4/4 46/4/4
f 52/4/4 46/4/4 45/4/4
f 51/4/5 52/4/5 45/4/5
f 51/4/5 45/4/5 48/4/5
f 53/4/6 54/4/6 55/4/6
f 53/4/6 55/4/6 56/4/6
f 57/5/3 58/5/3 59/5/3
f 57/5/3 59/5/3 60/5/3
f 61/5/4 62/5/4 63/5/4
f 61/5/4 63/5/4 64/5/4
f 65/6/1 66/6/1 67/6/1
f 65/6/1 67/6/1 68/6/1
f 69/7/2 70/7/2 67/7/2
f 69/7/2 67/7/2 66/7/2
f 70/7/3 71/7/3 68/7/3
f 70/7/3 68/7/3 67/7/3
f 72/7/4 69/7/4 66/7/4
f 72/7/4 66/7/4 65/7/4
f 71/7/5 72/7/5 65/7/5
f 71/7/5 65/7/5 68/7/5
f 73/7/6 74/7/6 75/7/6
f 73/7/6 75/7/6 76/7/6
f 77/8/1 78/8/1 79/8/1
f 77/8/1 79/8/1 80/8/1
f 81/9/2 82/9/2 79/9/2
f 81/9/2 79/9/2 78/9/2
f 82/9/3 83/9/3 80/9/3
f 82/9/3 80/9/3 79/9/3
f 84/9/4 81/9/4 78/9/4
f 84/9/4 78/9/4 77/9/4
f 83/9/5 84/9/5 77/9/5
f 83/9/5 77/9/5 80/9/5
f 85/9/6 86/9/6 87/9/6
f 85/9/6 87/9/6 88/9/6
f 89/10/1 90/10/1 91/10/1
f 89/10/1 91/10/1 92/10/1
f 93/11/2 94/11/2 91/11/2
f 93/11/2 91/11/2 90/11/2
f 94/11/3 95/11/3 92/11/3
f 94/11/3 92/11/3 91/11/3
f 96/11/4 93/11/4 90/11/4
f 96/11/4 90/11/4 89/11/4
f 95/11/5 96/11/5 89/11/5
f 95/11/5 89/11/5 92/11/5
f 97/11/6 98/11/6 99/11/6
f 97/11/6 99/11/6 100/11/6
f 101/12/1 102/12/1 103/12/1
f 101/12/1 103/12/1 104/12/1
f 105/13/2 106/13/2 103/13/2
f 105/13/2 103/13/2 102/13/2
f 106/13/3 107/13/3 104/13/3
f 106/13/3 104/13/3 103/13/3
f 108/13/4 105/13/4 102/13/4
f 108/13/4 102/13/4 101/13/4
f 107/13/5 108/13/5 101/13/5
f 107/13/5 101/13/5 104/13/5
f 109/13/6 110/13/6 111/13/6
f 109/13/6 111/13/6 112/13/6
f 113/14/1 114/14/1 115/14/1
f 113/14/1 115/14/1 116/14/1
f 117/15/2 118/15/2 115/15/2
f 117/15/2 115/15/2 114/15/2
f 118/15/3 119/15/3 116/15/3
f 118/15/3 116/15/3 115/15/3
f 120/15/4 117/15/4 114/15/4
f 120/15/4 114/15/4 113/15/4
f 119/15/5 120/15/5 113/15/5
f 119/15/5 113/15/5 116/15/5
f 120/15/6 119/15/6 118/15/6
f 120/15/6 118/15/6 117/15/6
f 121/16/3 122/16/3 123/16/3
f 121/16/3 123/16/3 124/16/3
f 125/16/4 126/16/4 127/16/4
f 125/16/4 127/16/4 128/16/4
f 129/17/3 130/17/3 131/17/3
f 129/17/3 131/17/3 132/17/3
f 133/17/4 134/17/4 135/17/4
f 133/17/4 135/17/4 136/17/4
f 137/17/3 138/17/3 139/17/3
f 137/17/3 139/17/3 140/17/3
f 141/17/4 142/17/4 143/17/4
f 141/17/4 143/17/4 144/17/4
f 145/12/1 146/12/1 147/12/1
f 145/12/1 147/12/1 148/12/1
f 149/13/2 150/13/2 147/13/2
f 149/13/2 147/13/2 146/13/2
f 150/13/3 151/13/3 148/13/3
f 150/13/3 148/13/3 147/13/3
f 152/13/4 149/13/4 146/13/4
f 152/13/4 146/13/4 145/13/4
f 151/13/5 152/13/5 145/13/5
f 151/13/5 145/13/5 148/13/5
f 153/13/6 154/13/6 155/13/6
f 153/13/6 155/13/6 156/13/6
