# Off-Grid bank_ground_makeshift_c0_S for Project Viewpoint. Z up, tile units, x east, y south. Generated by tools/build_viewpoint.py.
mtllib offgrid.mtl
o bank_ground_makeshift_c0_S
usemtl offgrid
v -0.42 -0.26 0.07
v 0.42 -0.26 0.07
v 0.42 0.28 0.07
v -0.42 0.28 0.07
v 0.42 -0.26 0
v 0.42 0.28 0
v -0.42 0.28 0
v -0.42 -0.26 0
v -0.38 -0.28 0.11
v -0.32 -0.28 0.11
v -0.32 0.3 0.11
v -0.38 0.3 0.11
v -0.32 -0.28 0.07
v -0.32 0.3 0.07
v -0.38 0.3 0.07
v -0.38 -0.28 0.07
v -0.38 -0.28 0.0685
v -0.38 0.3 0.0685
v -0.32 0.3 0.0685
v -0.32 -0.28 0.0685
v -0.11 -0.28 0.11
v -0.05 -0.28 0.11
v -0.05 0.3 0.11
v -0.11 0.3 0.11
v -0.05 -0.28 0.07
v -0.05 0.3 0.07
v -0.11 0.3 0.07
v -0.11 -0.28 0.07
v -0.11 -0.28 0.0685
v -0.11 0.3 0.0685
v -0.05 0.3 0.0685
v -0.05 -0.28 0.0685
v 0.16 -0.28 0.11
v 0.22 -0.28 0.11
v 0.22 0.3 0.11
v 0.16 0.3 0.11
v 0.22 -0.28 0.07
v 0.22 0.3 0.07
v 0.16 0.3 0.07
v 0.16 -0.28 0.07
v 0.16 -0.28 0.0685
v 0.16 0.3 0.0685
v 0.22 0.3 0.0685
v 0.22 -0.28 0.0685
v 0.12 -0.26 0.56
v 0.38 -0.26 0.56
v 0.38 -0.16 0.56
v 0.12 -0.16 0.56
v 0.38 -0.26 0.4
v 0.38 -0.16 0.4
v 0.12 -0.16 0.4
v 0.12 -0.26 0.4
v 0.16 -0.158 0.52
v 0.21 -0.158 0.52
v 0.21 -0.158 0.482
v 0.16 -0.158 0.482
v 0.16 -0.159 0.482
v 0.21 -0.159 0.482
v 0.21 -0.159 0.52
v 0.16 -0.159 0.52
v 0.23 -0.158 0.52
v 0.28 -0.158 0.52
v 0.28 -0.158 0.482
v 0.23 -0.158 0.482
v 0.23 -0.159 0.482
v 0.28 -0.159 0.482
v 0.28 -0.159 0.52
v 0.23 -0.159 0.52
v 0.3 -0.158 0.52
v 0.35 -0.158 0.52
v 0.35 -0.158 0.482
v 0.3 -0.158 0.482
v 0.3 -0.159 0.482
v 0.35 -0.159 0.482
v 0.35 -0.159 0.52
v 0.3 -0.159 0.52
v 0.3 -0.28 0.42
v 0.335 -0.28 0.42
v 0.335 -0.245 0.42
v 0.3 -0.245 0.42
v 0.335 -0.28 0
v 0.335 -0.245 0
v 0.3 -0.245 0
v 0.3 -0.28 0
v 0.3 -0.28 -0.0015
v 0.3 -0.245 -0.0015
v 0.335 -0.245 -0.0015
v 0.335 -0.28 -0.0015
vt 0.421875 0.921875
vt 0.828125 0.953125
vt 0.078125 0.921875
vt 0.640625 0.953125
vt 0.640625 0.984375
vt 0.796875 0.984375
vt 0.390625 0.984375
vn 0 0 1
vn 1 0 0
vn 0 1 0
vn 0 -1 0
vn -1 0 0
vn 0 0 -1
f 1/1/1 2/1/1 3/1/1
f 1/1/1 3/1/1 4/1/1
f 5/2/2 6/2/2 3/2/2
f 5/2/2 3/2/2 2/2/2
f 6/2/3 7/2/3 4/2/3
f 6/2/3 4/2/3 3/2/3
f 8/2/4 5/2/4 2/2/4
f 8/2/4 2/2/4 1/2/4
f 7/2/5 8/2/5 1/2/5
f 7/2/5 1/2/5 4/2/5
f 8/2/6 7/2/6 6/2/6
f 8/2/6 6/2/6 5/2/6
f 9/1/1 10/1/1 11/1/1
f 9/1/1 11/1/1 12/1/1
f 13/2/2 14/2/2 11/2/2
f 13/2/2 11/2/2 10/2/2
f 14/2/3 15/2/3 12/2/3
f 14/2/3 12/2/3 11/2/3
f 16/2/4 13/2/4 10/2/4
f 16/2/4 10/2/4 9/2/4
f 15/2/5 16/2/5 9/2/5
f 15/2/5 9/2/5 12/2/5
f 17/2/6 18/2/6 19/2/6
f 17/2/6 19/2/6 20/2/6
f 21/1/1 22/1/1 23/1/1
f 21/1/1 23/1/1 24/1/1
f 25/2/2 26/2/2 23/2/2
f 25/2/2 23/2/2 22/2/2
f 26/2/3 27/2/3 24/2/3
f 26/2/3 24/2/3 23/2/3
f 28/2/4 25/2/4 22/2/4
f 28/2/4 22/2/4 21/2/4
f 27/2/5 28/2/5 21/2/5
f 27/2/5 21/2/5 24/2/5
f 29/2/6 30/2/6 31/2/6
f 29/2/6 31/2/6 32/2/6
f 33/1/1 34/1/1 35/1/1
f 33/1/1 35/1/1 36/1/1
f 37/2/2 38/2/2 35/2/2
f 37/2/2 35/2/2 34/2/2
f 38/2/3 39/2/3 36/2/3
f 38/2/3 36/2/3 35/2/3
f 40/2/4 37/2/4 34/2/4
f 40/2/4 34/2/4 33/2/4
f 39/2/5 40/2/5 33/2/5
f 39/2/5 33/2/5 36/2/5
f 41/2/6 42/2/6 43/2/6
f 41/2/6 43/2/6 44/2/6
f 45/3/1 46/3/1 47/3/1
f 45/3/1 47/3/1 48/3/1
f 49/4/2 50/4/2 47/4/2
f 49/4/2 47/4/2 46/4/2
f 50/4/3 51/4/3 48/4/3
f 50/4/3 48/4/3 47/4/3
f 52/4/4 49/4/4 46/4/4
f 52/4/4 46/4/4 45/4/4
f 51/4/5 52/4/5 45/4/5
f 51/4/5 45/4/5 48/4/5
f 52/4/6 51/4/6 50/4/6
f 52/4/6 50/4/6 49/4/6
f 53/5/3 54/5/3 55/5/3
f 53/5/3 55/5/3 56/5/3
f 57/5/4 58/5/4 59/5/4
f 57/5/4 59/5/4 60/5/4
f 61/5/3 62/5/3 63/5/3
f 61/5/3 63/5/3 64/5/3
f 65/5/4 66/5/4 67/5/4
f 65/5/4 67/5/4 68/5/4
f 69/5/3 70/5/3 71/5/3
f 69/5/3 71/5/3 72/5/3
f 73/5/4 74/5/4 75/5/4
f 73/5/4 75/5/4 76/5/4
f 77/6/1 78/6/1 79/6/1
f 77/6/1 79/6/1 80/6/1
f 81/7/2 82/7/2 79/7/2
f 81/7/2 79/7/2 78/7/2
f 82/7/3 83/7/3 80/7/3
f 82/7/3 80/7/3 79/7/3
f 84/7/4 81/7/4 78/7/4
f 84/7/4 78/7/4 77/7/4
f 83/7/5 84/7/5 77/7/5
f 83/7/5 77/7/5 80/7/5
f 85/7/6 86/7/6 87/7/6
f 85/7/6 87/7/6 88/7/6
