# Off-Grid bank_wall_makeshift_c0_S for Project Viewpoint. Z up, tile units, x east, y south. Generated by tools/build_viewpoint.py.
mtllib offgrid.mtl
o bank_wall_makeshift_c0_S
usemtl offgrid
v -0.4 -0.48 0.85
v 0.4 -0.48 0.85
v 0.4 -0.24 0.85
v -0.4 -0.24 0.85
v 0.4 -0.48 0.8
v 0.4 -0.24 0.8
v -0.4 -0.24 0.8
v -0.4 -0.48 0.8
v -0.34 -0.46 0.81
v -0.28 -0.46 0.81
v -0.28 -0.41 0.81
v -0.34 -0.41 0.81
v -0.28 -0.46 0.64
v -0.28 -0.41 0.64
v -0.34 -0.41 0.64
v -0.34 -0.46 0.64
v 0.28 -0.46 0.81
v 0.34 -0.46 0.81
v 0.34 -0.41 0.81
v 0.28 -0.41 0.81
v 0.34 -0.46 0.64
v 0.34 -0.41 0.64
v 0.28 -0.41 0.64
v 0.28 -0.46 0.64
v -0.36 -0.475 0.875
v 0.36 -0.475 0.875
v 0.36 -0.445 0.875
v -0.36 -0.445 0.875
v 0.36 -0.475 0.85
v 0.36 -0.445 0.85
v -0.36 -0.445 0.85
v -0.36 -0.475 0.85
v -0.36 -0.475 0.8485
v -0.36 -0.445 0.8485
v 0.36 -0.445 0.8485
v 0.36 -0.475 0.8485
v 0.26 -0.44 0.82
v 0.295 -0.44 0.82
v 0.295 -0.405 0.82
v 0.26 -0.405 0.82
v 0.295 -0.44 0.5
v 0.295 -0.405 0.5
v 0.26 -0.405 0.5
v 0.26 -0.44 0.5
vt 0.421875 0.921875
vt 0.828125 0.953125
vt 0.796875 0.984375
vt 0.390625 0.984375
vn 0 0 1
vn 1 0 0
vn 0 1 0
vn 0 -1 0
vn -1 0 0
vn 0 0 -1
f 1/1/1 2/1/1 3/1/1
f 1/1/1 3/1/1 4/1/1
f 5/2/2 6/2/2 3/2/2
f 5/2/2 3/2/2 2/2/2
f 6/2/3 7/2/3 4/2/3
f 6/2/3 4/2/3 3/2/3
f 8/2/4 5/2/4 2/2/4
f 8/2/4 2/2/4 1/2/4
f 7/2/5 8/2/5 1/2/5
f 7/2/5 1/2/5 4/2/5
f 8/2/6 7/2/6 6/2/6
f 8/2/6 6/2/6 5/2/6
f 9/1/1 10/1/1 11/1/1
f 9/1/1 11/1/1 12/1/1
f 13/2/2 14/2/2 11/2/2
f 13/2/2 11/2/2 10/2/2
f 14/2/3 15/2/3 12/2/3
f 14/2/3 12/2/3 11/2/3
f 16/2/4 13/2/4 10/2/4
f 16/2/4 10/2/4 9/2/4
f 15/2/5 16/2/5 9/2/5
f 15/2/5 9/2/5 12/2/5
f 16/2/6 15/2/6 14/2/6
f 16/2/6 14/2/6 13/2/6
f 17/1/1 18/1/1 19/1/1
f 17/1/1 19/1/1 20/1/1
f 21/2/2 22/2/2 19/2/2
f 21/2/2 19/2/2 18/2/2
f 22/2/3 23/2/3 20/2/3
f 22/2/3 20/2/3 19/2/3
f 24/2/4 21/2/4 18/2/4
f 24/2/4 18/2/4 17/2/4
f 23/2/5 24/2/5 17/2/5
f 23/2/5 17/2/5 20/2/5
f 24/2/6 23/2/6 22/2/6
f 24/2/6 22/2/6 21/2/6
f 25/3/1 26/3/1 27/3/1
f 25/3/1 27/3/1 28/3/1
f 29/4/2 30/4/2 27/4/2
f 29/4/2 27/4/2 26/4/2
f 30/4/3 31/4/3 28/4/3
f 30/4/3 28/4/3 27/4/3
f 32/4/4 29/4/4 26/4/4
f 32/4/4 26/4/4 25/4/4
f 31/4/5 32/4/5 25/4/5
f 31/4/5 25/4/5 28/4/5
f 33/4/6 34/4/6 35/4/6
f 33/4/6 35/4/6 36/4/6
f 37/3/1 38/3/1 39/3/1
f 37/3/1 39/3/1 40/3/1
f 41/4/2 42/4/2 39/4/2
f 41/4/2 39/4/2 38/4/2
f 42/4/3 43/4/3 40/4/3
f 42/4/3 40/4/3 39/4/3
f 44/4/4 41/4/4 38/4/4
f 44/4/4 38/4/4 37/4/4
f 43/4/5 44/4/5 37/4/5
f 43/4/5 37/4/5 40/4/5
f 44/4/6 43/4/6 42/4/6
f 44/4/6 42/4/6 41/4/6
