# Off-Grid controller_ground_mppt_off_S for Project Viewpoint. Z up, tile units, x east, y south. Generated by tools/build_viewpoint.py.
mtllib offgrid.mtl
o controller_ground_mppt_off_S
usemtl offgrid
v -0.18 -0.1 0.04
v 0.18 -0.1 0.04
v 0.18 0.1 0.04
v -0.18 0.1 0.04
v 0.18 -0.1 0
v 0.18 0.1 0
v -0.18 0.1 0
v -0.18 -0.1 0
v -0.14 -0.06 0.32
v -0.085 -0.06 0.32
v -0.085 0.06 0.32
v -0.14 0.06 0.32
v -0.085 -0.06 0.02
v -0.085 0.06 0.02
v -0.14 0.06 0.02
v -0.14 -0.06 0.02
v 0.12 -0.06 0.32
v 0.175 -0.06 0.32
v 0.175 0.06 0.32
v 0.12 0.06 0.32
v 0.175 -0.06 0.02
v 0.175 0.06 0.02
v 0.12 0.06 0.02
v 0.12 -0.06 0.02
v -0.36 -0.16 0.98
v 0.36 -0.16 0.98
v 0.36 0.12 0.98
v -0.36 0.12 0.98
v 0.36 -0.16 0.3
v 0.36 0.12 0.3
v -0.36 0.12 0.3
v -0.36 -0.16 0.3
v -0.385 -0.18 1.02
v 0.385 -0.18 1.02
v 0.385 0.16 1.02
v -0.385 0.16 1.02
v 0.385 -0.18 0.98
v 0.385 0.16 0.98
v -0.385 0.16 0.98
v -0.385 -0.18 0.98
v -0.385 -0.18 0.9785
v -0.385 0.16 0.9785
v 0.385 0.16 0.9785
v 0.385 -0.18 0.9785
v -0.29 0.122 0.88
v 0.29 0.122 0.88
v 0.29 0.122 0.64
v -0.29 0.122 0.64
v -0.29 0.121 0.64
v 0.29 0.121 0.64
v 0.29 0.121 0.88
v -0.29 0.121 0.88
v -0.26 0.122 0.58
v -0.19 0.122 0.58
v -0.19 0.122 0.535
v -0.26 0.122 0.535
v -0.26 0.121 0.535
v -0.19 0.121 0.535
v -0.19 0.121 0.58
v -0.26 0.121 0.58
v -0.16 0.122 0.58
v -0.09 0.122 0.58
v -0.09 0.122 0.535
v -0.16 0.122 0.535
v -0.16 0.121 0.535
v -0.09 0.121 0.535
v -0.09 0.121 0.58
v -0.16 0.121 0.58
v -0.06 0.122 0.58
v 0.01 0.122 0.58
v 0.01 0.122 0.535
v -0.06 0.122 0.535
v -0.06 0.121 0.535
v 0.01 0.121 0.535
v 0.01 0.121 0.58
v -0.06 0.121 0.58
v 0.04 0.122 0.58
v 0.11 0.122 0.58
v 0.11 0.122 0.535
v 0.04 0.122 0.535
v 0.04 0.121 0.535
v 0.11 0.121 0.535
v 0.11 0.121 0.58
v 0.04 0.121 0.58
v 0.14 0.122 0.58
v 0.21 0.122 0.58
v 0.21 0.122 0.535
v 0.14 0.122 0.535
v 0.14 0.121 0.535
v 0.21 0.121 0.535
v 0.21 0.121 0.58
v 0.14 0.121 0.58
v -0.24 0.122 0.36
v 0.24 0.122 0.36
v 0.24 0.122 0.338
v -0.24 0.122 0.338
v -0.24 0.121 0.338
v 0.24 0.121 0.338
v 0.24 0.121 0.36
v -0.24 0.121 0.36
v -0.24 0.122 0.405
v 0.24 0.122 0.405
v 0.24 0.122 0.383
v -0.24 0.122 0.383
v -0.24 0.121 0.383
v 0.24 0.121 0.383
v 0.24 0.121 0.405
v -0.24 0.121 0.405
v -0.24 0.122 0.45
v 0.24 0.122 0.45
v 0.24 0.122 0.428
v -0.24 0.122 0.428
v -0.24 0.121 0.428
v 0.24 0.121 0.428
v 0.24 0.121 0.45
v -0.24 0.121 0.45
v 0.364 -0.14 0.4
v 0.364 0.1 0.4
v 0.364 0.1 0.355
v 0.364 -0.14 0.355
v 0.365 -0.14 0.355
v 0.365 0.1 0.355
v 0.365 0.1 0.4
v 0.365 -0.14 0.4
v 0.364 -0.14 0.495
v 0.364 0.1 0.495
v 0.364 0.1 0.45
v 0.364 -0.14 0.45
v 0.365 -0.14 0.45
v 0.365 0.1 0.45
v 0.365 0.1 0.495
v 0.365 -0.14 0.495
v 0.364 -0.14 0.59
v 0.364 0.1 0.59
v 0.364 0.1 0.545
v 0.364 -0.14 0.545
v 0.365 -0.14 0.545
v 0.365 0.1 0.545
v 0.365 0.1 0.59
v 0.365 -0.14 0.59
v 0.364 -0.14 0.685
v 0.364 0.1 0.685
v 0.364 0.1 0.64
v 0.364 -0.14 0.64
v 0.365 -0.14 0.64
v 0.365 0.1 0.64
v 0.365 0.1 0.685
v 0.365 -0.14 0.685
v 0.364 -0.14 0.78
v 0.364 0.1 0.78
v 0.364 0.1 0.735
v 0.364 -0.14 0.735
v 0.365 -0.14 0.735
v 0.365 0.1 0.735
v 0.365 0.1 0.78
v 0.365 -0.14 0.78
v 0.364 -0.14 0.875
v 0.364 0.1 0.875
v 0.364 0.1 0.83
v 0.364 -0.14 0.83
v 0.365 -0.14 0.83
v 0.365 0.1 0.83
v 0.365 0.1 0.875
v 0.365 -0.14 0.875
v 0.2 -0.21 0.6
v 0.25 -0.21 0.6
v 0.25 -0.16 0.6
v 0.2 -0.16 0.6
v 0.25 -0.21 0
v 0.25 -0.16 0
v 0.25 -0.1585 0
v 0.2 -0.1585 0
v 0.2 -0.1585 0.6
v 0.25 -0.1585 0.6
v 0.2 -0.21 0
v 0.2 -0.16 0
vt 0.890625 0.953125
vt 0.203125 0.953125
vt 0.984375 0.953125
vt 0.421875 0.953125
vt 0.484375 0.921875
vt 0.265625 0.984375
vt 0.640625 0.984375
vt 0.078125 0.953125
vt 0.578125 0.921875
vt 0.796875 0.984375
vt 0.390625 0.984375
vn 0 0 1
vn 1 0 0
vn 0 1 0
vn 0 -1 0
vn -1 0 0
vn 0 0 -1
f 1/1/1 2/1/1 3/1/1
f 1/1/1 3/1/1 4/1/1
f 5/2/2 6/2/2 3/2/2
f 5/2/2 3/2/2 2/2/2
f 6/2/3 7/2/3 4/2/3
f 6/2/3 4/2/3 3/2/3
f 8/2/4 5/2/4 2/2/4
f 8/2/4 2/2/4 1/2/4
f 7/2/5 8/2/5 1/2/5
f 7/2/5 1/2/5 4/2/5
f 8/2/6 7/2/6 6/2/6
f 8/2/6 6/2/6 5/2/6
f 9/1/1 10/1/1 11/1/1
f 9/1/1 11/1/1 12/1/1
f 13/2/2 14/2/2 11/2/2
f 13/2/2 11/2/2 10/2/2
f 14/2/3 15/2/3 12/2/3
f 14/2/3 12/2/3 11/2/3
f 16/2/4 13/2/4 10/2/4
f 16/2/4 10/2/4 9/2/4
f 15/2/5 16/2/5 9/2/5
f 15/2/5 9/2/5 12/2/5
f 16/2/6 15/2/6 14/2/6
f 16/2/6 14/2/6 13/2/6
f 17/1/1 18/1/1 19/1/1
f 17/1/1 19/1/1 20/1/1
f 21/2/2 22/2/2 19/2/2
f 21/2/2 19/2/2 18/2/2
f 22/2/3 23/2/3 20/2/3
f 22/2/3 20/2/3 19/2/3
f 24/2/4 21/2/4 18/2/4
f 24/2/4 18/2/4 17/2/4
f 23/2/5 24/2/5 17/2/5
f 23/2/5 17/2/5 20/2/5
f 24/2/6 23/2/6 22/2/6
f 24/2/6 22/2/6 21/2/6
f 25/3/1 26/3/1 27/3/1
f 25/3/1 27/3/1 28/3/1
f 29/4/2 30/4/2 27/4/2
f 29/4/2 27/4/2 26/4/2
f 30/4/3 31/4/3 28/4/3
f 30/4/3 28/4/3 27/4/3
f 32/4/4 29/4/4 26/4/4
f 32/4/4 26/4/4 25/4/4
f 31/4/5 32/4/5 25/4/5
f 31/4/5 25/4/5 28/4/5
f 32/4/6 31/4/6 30/4/6
f 32/4/6 30/4/6 29/4/6
f 33/5/1 34/5/1 35/5/1
f 33/5/1 35/5/1 36/5/1
f 37/1/2 38/1/2 35/1/2
f 37/1/2 35/1/2 34/1/2
f 38/1/3 39/1/3 36/1/3
f 38/1/3 36/1/3 35/1/3
f 40/1/4 37/1/4 34/1/4
f 40/1/4 34/1/4 33/1/4
f 39/1/5 40/1/5 33/1/5
f 39/1/5 33/1/5 36/1/5
f 41/1/6 42/1/6 43/1/6
f 41/1/6 43/1/6 44/1/6
f 45/6/3 46/6/3 47/6/3
f 45/6/3 47/6/3 48/6/3
f 49/6/4 50/6/4 51/6/4
f 49/6/4 51/6/4 52/6/4
f 53/7/3 54/7/3 55/7/3
f 53/7/3 55/7/3 56/7/3
f 57/7/4 58/7/4 59/7/4
f 57/7/4 59/7/4 60/7/4
f 61/7/3 62/7/3 63/7/3
f 61/7/3 63/7/3 64/7/3
f 65/7/4 66/7/4 67/7/4
f 65/7/4 67/7/4 68/7/4
f 69/7/3 70/7/3 71/7/3
f 69/7/3 71/7/3 72/7/3
f 73/7/4 74/7/4 75/7/4
f 73/7/4 75/7/4 76/7/4
f 77/7/3 78/7/3 79/7/3
f 77/7/3 79/7/3 80/7/3
f 81/7/4 82/7/4 83/7/4
f 81/7/4 83/7/4 84/7/4
f 85/7/3 86/7/3 87/7/3
f 85/7/3 87/7/3 88/7/3
f 89/7/4 90/7/4 91/7/4
f 89/7/4 91/7/4 92/7/4
f 93/8/3 94/8/3 95/8/3
f 93/8/3 95/8/3 96/8/3
f 97/8/4 98/8/4 99/8/4
f 97/8/4 99/8/4 100/8/4
f 101/8/3 102/8/3 103/8/3
f 101/8/3 103/8/3 104/8/3
f 105/8/4 106/8/4 107/8/4
f 105/8/4 107/8/4 108/8/4
f 109/8/3 110/8/3 111/8/3
f 109/8/3 111/8/3 112/8/3
f 113/8/4 114/8/4 115/8/4
f 113/8/4 115/8/4 116/8/4
f 117/9/5 118/9/5 119/9/5
f 117/9/5 119/9/5 120/9/5
f 121/9/2 122/9/2 123/9/2
f 121/9/2 123/9/2 124/9/2
f 125/9/5 126/9/5 127/9/5
f 125/9/5 127/9/5 128/9/5
f 129/9/2 130/9/2 131/9/2
f 129/9/2 131/9/2 132/9/2
f 133/9/5 134/9/5 135/9/5
f 133/9/5 135/9/5 136/9/5
f 137/9/2 138/9/2 139/9/2
f 137/9/2 139/9/2 140/9/2
f 141/9/5 142/9/5 143/9/5
f 141/9/5 143/9/5 144/9/5
f 145/9/2 146/9/2 147/9/2
f 145/9/2 147/9/2 148/9/2
f 149/9/5 150/9/5 151/9/5
f 149/9/5 151/9/5 152/9/5
f 153/9/2 154/9/2 155/9/2
f 153/9/2 155/9/2 156/9/2
f 157/9/5 158/9/5 159/9/5
f 157/9/5 159/9/5 160/9/5
f 161/9/2 162/9/2 163/9/2
f 161/9/2 163/9/2 164/9/2
f 165/10/1 166/10/1 167/10/1
f 165/10/1 167/10/1 168/10/1
f 169/11/2 170/11/2 167/11/2
f 169/11/2 167/11/2 166/11/2
f 171/11/3 172/11/3 173/11/3
f 171/11/3 173/11/3 174/11/3
f 175/11/4 169/11/4 166/11/4
f 175/11/4 166/11/4 165/11/4
f 176/11/5 175/11/5 165/11/5
f 176/11/5 165/11/5 168/11/5
f 175/11/6 176/11/6 170/11/6
f 175/11/6 170/11/6 169/11/6
