# Off-Grid controller_ground_basic_on_S for Project Viewpoint. Z up, tile units, x east, y south. Generated by tools/build_viewpoint.py.
mtllib offgrid.mtl
o controller_ground_basic_on_S
usemtl offgrid
v -0.18 -0.1 0.04
v 0.18 -0.1 0.04
v 0.18 0.1 0.04
v -0.18 0.1 0.04
v 0.18 -0.1 0
v 0.18 0.1 0
v -0.18 0.1 0
v -0.18 -0.1 0
v -0.14 -0.06 0.32
v -0.085 -0.06 0.32
v -0.085 0.06 0.32
v -0.14 0.06 0.32
v -0.085 -0.06 0.02
v -0.085 0.06 0.02
v -0.14 0.06 0.02
v -0.14 -0.06 0.02
v 0.12 -0.06 0.32
v 0.175 -0.06 0.32
v 0.175 0.06 0.32
v 0.12 0.06 0.32
v 0.175 -0.06 0.02
v 0.175 0.06 0.02
v 0.12 0.06 0.02
v 0.12 -0.06 0.02
v -0.3 -0.16 0.92
v 0.3 -0.16 0.92
v 0.3 0.12 0.92
v -0.3 0.12 0.92
v 0.3 -0.16 0.3
v 0.3 0.12 0.3
v -0.3 0.12 0.3
v -0.3 -0.16 0.3
v -0.325 -0.18 0.96
v 0.325 -0.18 0.96
v 0.325 0.16 0.96
v -0.325 0.16 0.96
v 0.325 -0.18 0.92
v 0.325 0.16 0.92
v -0.325 0.16 0.92
v -0.325 -0.18 0.92
v -0.325 -0.18 0.9185
v -0.325 0.16 0.9185
v 0.325 0.16 0.9185
v 0.325 -0.18 0.9185
v -0.23 0.122 0.82
v 0.23 0.122 0.82
v 0.23 0.122 0.58
v -0.23 0.122 0.58
v -0.23 0.121 0.58
v 0.23 0.121 0.58
v 0.23 0.121 0.82
v -0.23 0.121 0.82
v -0.2 0.124 0.765
v 0.112 0.124 0.765
v 0.112 0.124 0.739
v -0.2 0.124 0.739
v -0.2 0.123 0.739
v 0.112 0.123 0.739
v 0.112 0.123 0.765
v -0.2 0.123 0.765
v -0.2 0.124 0.695
v -0.016 0.124 0.695
v -0.016 0.124 0.669
v -0.2 0.124 0.669
v -0.2 0.123 0.669
v -0.016 0.123 0.669
v -0.016 0.123 0.695
v -0.2 0.123 0.695
v -0.2 0.122 0.52
v -0.13 0.122 0.52
v -0.13 0.122 0.475
v -0.2 0.122 0.475
v -0.2 0.121 0.475
v -0.13 0.121 0.475
v -0.13 0.121 0.52
v -0.2 0.121 0.52
v -0.1 0.122 0.52
v -0.03 0.122 0.52
v -0.03 0.122 0.475
v -0.1 0.122 0.475
v -0.1 0.121 0.475
v -0.03 0.121 0.475
v -0.03 0.121 0.52
v -0.1 0.121 0.52
v 0 0.122 0.52
v 0.07 0.122 0.52
v 0.07 0.122 0.475
v 0 0.122 0.475
v 0 0.121 0.475
v 0.07 0.121 0.475
v 0.07 0.121 0.52
v 0 0.121 0.52
v -0.18 0.122 0.36
v 0.18 0.122 0.36
v 0.18 0.122 0.338
v -0.18 0.122 0.338
v -0.18 0.121 0.338
v 0.18 0.121 0.338
v 0.18 0.121 0.36
v -0.18 0.121 0.36
v -0.18 0.122 0.405
v 0.18 0.122 0.405
v 0.18 0.122 0.383
v -0.18 0.122 0.383
v -0.18 0.121 0.383
v 0.18 0.121 0.383
v 0.18 0.121 0.405
v -0.18 0.121 0.405
v -0.18 0.122 0.45
v 0.18 0.122 0.45
v 0.18 0.122 0.428
v -0.18 0.122 0.428
v -0.18 0.121 0.428
v 0.18 0.121 0.428
v 0.18 0.121 0.45
v -0.18 0.121 0.45
v 0.14 -0.21 0.6
v 0.19 -0.21 0.6
v 0.19 -0.16 0.6
v 0.14 -0.16 0.6
v 0.19 -0.21 0
v 0.19 -0.16 0
v 0.19 -0.1585 0
v 0.14 -0.1585 0
v 0.14 -0.1585 0.6
v 0.19 -0.1585 0.6
v 0.14 -0.21 0
v 0.14 -0.16 0
vt 0.890625 0.953125
vt 0.203125 0.953125
vt 0.203125 0.921875
vt 0.640625 0.953125
vt 0.484375 0.921875
vt 0.671875 0.953125
vt 0.328125 0.890625
vt 0.921875 0.953125
vt 0.640625 0.984375
vt 0.078125 0.953125
vt 0.796875 0.984375
vt 0.390625 0.984375
vn 0 0 1
vn 1 0 0
vn 0 1 0
vn 0 -1 0
vn -1 0 0
vn 0 0 -1
f 1/1/1 2/1/1 3/1/1
f 1/1/1 3/1/1 4/1/1
f 5/2/2 6/2/2 3/2/2
f 5/2/2 3/2/2 2/2/2
f 6/2/3 7/2/3 4/2/3
f 6/2/3 4/2/3 3/2/3
f 8/2/4 5/2/4 2/2/4
f 8/2/4 2/2/4 1/2/4
f 7/2/5 8/2/5 1/2/5
f 7/2/5 1/2/5 4/2/5
f 8/2/6 7/2/6 6/2/6
f 8/2/6 6/2/6 5/2/6
f 9/1/1 10/1/1 11/1/1
f 9/1/1 11/1/1 12/1/1
f 13/2/2 14/2/2 11/2/2
f 13/2/2 11/2/2 10/2/2
f 14/2/3 15/2/3 12/2/3
f 14/2/3 12/2/3 11/2/3
f 16/2/4 13/2/4 10/2/4
f 16/2/4 10/2/4 9/2/4
f 15/2/5 16/2/5 9/2/5
f 15/2/5 9/2/5 12/2/5
f 16/2/6 15/2/6 14/2/6
f 16/2/6 14/2/6 13/2/6
f 17/1/1 18/1/1 19/1/1
f 17/1/1 19/1/1 20/1/1
f 21/2/2 22/2/2 19/2/2
f 21/2/2 19/2/2 18/2/2
f 22/2/3 23/2/3 20/2/3
f 22/2/3 20/2/3 19/2/3
f 24/2/4 21/2/4 18/2/4
f 24/2/4 18/2/4 17/2/4
f 23/2/5 24/2/5 17/2/5
f 23/2/5 17/2/5 20/2/5
f 24/2/6 23/2/6 22/2/6
f 24/2/6 22/2/6 21/2/6
f 25/3/1 26/3/1 27/3/1
f 25/3/1 27/3/1 28/3/1
f 29/4/2 30/4/2 27/4/2
f 29/4/2 27/4/2 26/4/2
f 30/4/3 31/4/3 28/4/3
f 30/4/3 28/4/3 27/4/3
f 32/4/4 29/4/4 26/4/4
f 32/4/4 26/4/4 25/4/4
f 31/4/5 32/4/5 25/4/5
f 31/4/5 25/4/5 28/4/5
f 32/4/6 31/4/6 30/4/6
f 32/4/6 30/4/6 29/4/6
f 33/5/1 34/5/1 35/5/1
f 33/5/1 35/5/1 36/5/1
f 37/1/2 38/1/2 35/1/2
f 37/1/2 35/1/2 34/1/2
f 38/1/3 39/1/3 36/1/3
f 38/1/3 36/1/3 35/1/3
f 40/1/4 37/1/4 34/1/4
f 40/1/4 34/1/4 33/1/4
f 39/1/5 40/1/5 33/1/5
f 39/1/5 33/1/5 36/1/5
f 41/1/6 42/1/6 43/1/6
f 41/1/6 43/1/6 44/1/6
f 45/6/3 46/6/3 47/6/3
f 45/6/3 47/6/3 48/6/3
f 49/6/4 50/6/4 51/6/4
f 49/6/4 51/6/4 52/6/4
f 53/7/3 54/7/3 55/7/3
f 53/7/3 55/7/3 56/7/3
f 57/7/4 58/7/4 59/7/4
f 57/7/4 59/7/4 60/7/4
f 61/7/3 62/7/3 63/7/3
f 61/7/3 63/7/3 64/7/3
f 65/7/4 66/7/4 67/7/4
f 65/7/4 67/7/4 68/7/4
f 69/8/3 70/8/3 71/8/3
f 69/8/3 71/8/3 72/8/3
f 73/8/4 74/8/4 75/8/4
f 73/8/4 75/8/4 76/8/4
f 77/9/3 78/9/3 79/9/3
f 77/9/3 79/9/3 80/9/3
f 81/9/4 82/9/4 83/9/4
f 81/9/4 83/9/4 84/9/4
f 85/9/3 86/9/3 87/9/3
f 85/9/3 87/9/3 88/9/3
f 89/9/4 90/9/4 91/9/4
f 89/9/4 91/9/4 92/9/4
f 93/10/3 94/10/3 95/10/3
f 93/10/3 95/10/3 96/10/3
f 97/10/4 98/10/4 99/10/4
f 97/10/4 99/10/4 100/10/4
f 101/10/3 102/10/3 103/10/3
f 101/10/3 103/10/3 104/10/3
f 105/10/4 106/10/4 107/10/4
f 105/10/4 107/10/4 108/10/4
f 109/10/3 110/10/3 111/10/3
f 109/10/3 111/10/3 112/10/3
f 113/10/4 114/10/4 115/10/4
f 113/10/4 115/10/4 116/10/4
f 117/11/1 118/11/1 119/11/1
f 117/11/1 119/11/1 120/11/1
f 121/12/2 122/12/2 119/12/2
f 121/12/2 119/12/2 118/12/2
f 123/12/3 124/12/3 125/12/3
f 123/12/3 125/12/3 126/12/3
f 127/12/4 121/12/4 118/12/4
f 127/12/4 118/12/4 117/12/4
f 128/12/5 127/12/5 117/12/5
f 128/12/5 117/12/5 120/12/5
f 127/12/6 128/12/6 122/12/6
f 127/12/6 122/12/6 121/12/6
