# Off-Grid controller_ground_mppt_on_S for Project Viewpoint. Z up, tile units, x east, y south. Generated by tools/build_viewpoint.py.
mtllib offgrid.mtl
o controller_ground_mppt_on_S
usemtl offgrid
v -0.18 -0.1 0.04
v 0.18 -0.1 0.04
v 0.18 0.1 0.04
v -0.18 0.1 0.04
v 0.18 -0.1 0
v 0.18 0.1 0
v -0.18 0.1 0
v -0.18 -0.1 0
v -0.14 -0.06 0.32
v -0.085 -0.06 0.32
v -0.085 0.06 0.32
v -0.14 0.06 0.32
v -0.085 -0.06 0.02
v -0.085 0.06 0.02
v -0.14 0.06 0.02
v -0.14 -0.06 0.02
v 0.12 -0.06 0.32
v 0.175 -0.06 0.32
v 0.175 0.06 0.32
v 0.12 0.06 0.32
v 0.175 -0.06 0.02
v 0.175 0.06 0.02
v 0.12 0.06 0.02
v 0.12 -0.06 0.02
v -0.36 -0.16 0.98
v 0.36 -0.16 0.98
v 0.36 0.12 0.98
v -0.36 0.12 0.98
v 0.36 -0.16 0.3
v 0.36 0.12 0.3
v -0.36 0.12 0.3
v -0.36 -0.16 0.3
v -0.385 -0.18 1.02
v 0.385 -0.18 1.02
v 0.385 0.16 1.02
v -0.385 0.16 1.02
v 0.385 -0.18 0.98
v 0.385 0.16 0.98
v -0.385 0.16 0.98
v -0.385 -0.18 0.98
v -0.385 -0.18 0.9785
v -0.385 0.16 0.9785
v 0.385 0.16 0.9785
v 0.385 -0.18 0.9785
v -0.29 0.122 0.88
v 0.29 0.122 0.88
v 0.29 0.122 0.64
v -0.29 0.122 0.64
v -0.29 0.121 0.64
v 0.29 0.121 0.64
v 0.29 0.121 0.88
v -0.29 0.121 0.88
v -0.26 0.124 0.835
v 0.1768 0.124 0.835
v 0.1768 0.124 0.809
v -0.26 0.124 0.809
v -0.26 0.123 0.809
v 0.1768 0.123 0.809
v 0.1768 0.123 0.835
v -0.26 0.123 0.835
v -0.26 0.124 0.78
v 0.0416 0.124 0.78
v 0.0416 0.124 0.754
v -0.26 0.124 0.754
v -0.26 0.123 0.754
v 0.0416 0.123 0.754
v 0.0416 0.123 0.78
v -0.26 0.123 0.78
v -0.26 0.124 0.725
v -0.0884 0.124 0.725
v -0.0884 0.124 0.699
v -0.26 0.124 0.699
v -0.26 0.123 0.699
v -0.0884 0.123 0.699
v -0.0884 0.123 0.725
v -0.26 0.123 0.725
v -0.26 0.122 0.58
v -0.19 0.122 0.58
v -0.19 0.122 0.535
v -0.26 0.122 0.535
v -0.26 0.121 0.535
v -0.19 0.121 0.535
v -0.19 0.121 0.58
v -0.26 0.121 0.58
v -0.16 0.122 0.58
v -0.09 0.122 0.58
v -0.09 0.122 0.535
v -0.16 0.122 0.535
v -0.16 0.121 0.535
v -0.09 0.121 0.535
v -0.09 0.121 0.58
v -0.16 0.121 0.58
v -0.06 0.122 0.58
v 0.01 0.122 0.58
v 0.01 0.122 0.535
v -0.06 0.122 0.535
v -0.06 0.121 0.535
v 0.01 0.121 0.535
v 0.01 0.121 0.58
v -0.06 0.121 0.58
v 0.04 0.122 0.58
v 0.11 0.122 0.58
v 0.11 0.122 0.535
v 0.04 0.122 0.535
v 0.04 0.121 0.535
v 0.11 0.121 0.535
v 0.11 0.121 0.58
v 0.04 0.121 0.58
v 0.14 0.122 0.58
v 0.21 0.122 0.58
v 0.21 0.122 0.535
v 0.14 0.122 0.535
v 0.14 0.121 0.535
v 0.21 0.121 0.535
v 0.21 0.121 0.58
v 0.14 0.121 0.58
v -0.24 0.122 0.36
v 0.24 0.122 0.36
v 0.24 0.122 0.338
v -0.24 0.122 0.338
v -0.24 0.121 0.338
v 0.24 0.121 0.338
v 0.24 0.121 0.36
v -0.24 0.121 0.36
v -0.24 0.122 0.405
v 0.24 0.122 0.405
v 0.24 0.122 0.383
v -0.24 0.122 0.383
v -0.24 0.121 0.383
v 0.24 0.121 0.383
v 0.24 0.121 0.405
v -0.24 0.121 0.405
v -0.24 0.122 0.45
v 0.24 0.122 0.45
v 0.24 0.122 0.428
v -0.24 0.122 0.428
v -0.24 0.121 0.428
v 0.24 0.121 0.428
v 0.24 0.121 0.45
v -0.24 0.121 0.45
v 0.364 -0.14 0.4
v 0.364 0.1 0.4
v 0.364 0.1 0.355
v 0.364 -0.14 0.355
v 0.365 -0.14 0.355
v 0.365 0.1 0.355
v 0.365 0.1 0.4
v 0.365 -0.14 0.4
v 0.364 -0.14 0.495
v 0.364 0.1 0.495
v 0.364 0.1 0.45
v 0.364 -0.14 0.45
v 0.365 -0.14 0.45
v 0.365 0.1 0.45
v 0.365 0.1 0.495
v 0.365 -0.14 0.495
v 0.364 -0.14 0.59
v 0.364 0.1 0.59
v 0.364 0.1 0.545
v 0.364 -0.14 0.545
v 0.365 -0.14 0.545
v 0.365 0.1 0.545
v 0.365 0.1 0.59
v 0.365 -0.14 0.59
v 0.364 -0.14 0.685
v 0.364 0.1 0.685
v 0.364 0.1 0.64
v 0.364 -0.14 0.64
v 0.365 -0.14 0.64
v 0.365 0.1 0.64
v 0.365 0.1 0.685
v 0.365 -0.14 0.685
v 0.364 -0.14 0.78
v 0.364 0.1 0.78
v 0.364 0.1 0.735
v 0.364 -0.14 0.735
v 0.365 -0.14 0.735
v 0.365 0.1 0.735
v 0.365 0.1 0.78
v 0.365 -0.14 0.78
v 0.364 -0.14 0.875
v 0.364 0.1 0.875
v 0.364 0.1 0.83
v 0.364 -0.14 0.83
v 0.365 -0.14 0.83
v 0.365 0.1 0.83
v 0.365 0.1 0.875
v 0.365 -0.14 0.875
v 0.2 -0.21 0.6
v 0.25 -0.21 0.6
v 0.25 -0.16 0.6
v 0.2 -0.16 0.6
v 0.25 -0.21 0
v 0.25 -0.16 0
v 0.25 -0.1585 0
v 0.2 -0.1585 0
v 0.2 -0.1585 0.6
v 0.25 -0.1585 0.6
v 0.2 -0.21 0
v 0.2 -0.16 0
vt 0.890625 0.953125
vt 0.203125 0.953125
vt 0.984375 0.953125
vt 0.421875 0.953125
vt 0.484375 0.921875
vt 0.671875 0.953125
vt 0.328125 0.890625
vt 0.921875 0.953125
vt 0.640625 0.984375
vt 0.078125 0.953125
vt 0.578125 0.921875
vt 0.796875 0.984375
vt 0.390625 0.984375
vn 0 0 1
vn 1 0 0
vn 0 1 0
vn 0 -1 0
vn -1 0 0
vn 0 0 -1
f 1/1/1 2/1/1 3/1/1
f 1/1/1 3/1/1 4/1/1
f 5/2/2 6/2/2 3/2/2
f 5/2/2 3/2/2 2/2/2
f 6/2/3 7/2/3 4/2/3
f 6/2/3 4/2/3 3/2/3
f 8/2/4 5/2/4 2/2/4
f 8/2/4 2/2/4 1/2/4
f 7/2/5 8/2/5 1/2/5
f 7/2/5 1/2/5 4/2/5
f 8/2/6 7/2/6 6/2/6
f 8/2/6 6/2/6 5/2/6
f 9/1/1 10/1/1 11/1/1
f 9/1/1 11/1/1 12/1/1
f 13/2/2 14/2/2 11/2/2
f 13/2/2 11/2/2 10/2/2
f 14/2/3 15/2/3 12/2/3
f 14/2/3 12/2/3 11/2/3
f 16/2/4 13/2/4 10/2/4
f 16/2/4 10/2/4 9/2/4
f 15/2/5 16/2/5 9/2/5
f 15/2/5 9/2/5 12/2/5
f 16/2/6 15/2/6 14/2/6
f 16/2/6 14/2/6 13/2/6
f 17/1/1 18/1/1 19/1/1
f 17/1/1 19/1/1 20/1/1
f 21/2/2 22/2/2 19/2/2
f 21/2/2 19/2/2 18/2/2
f 22/2/3 23/2/3 20/2/3
f 22/2/3 20/2/3 19/2/3
f 24/2/4 21/2/4 18/2/4
f 24/2/4 18/2/4 17/2/4
f 23/2/5 24/2/5 17/2/5
f 23/2/5 17/2/5 20/2/5
f 24/2/6 23/2/6 22/2/6
f 24/2/6 22/2/6 21/2/6
f 25/3/1 26/3/1 27/3/1
f 25/3/1 27/3/1 28/3/1
f 29/4/2 30/4/2 27/4/2
f 29/4/2 27/4/2 26/4/2
f 30/4/3 31/4/3 28/4/3
f 30/4/3 28/4/3 27/4/3
f 32/4/4 29/4/4 26/4/4
f 32/4/4 26/4/4 25/4/4
f 31/4/5 32/4/5 25/4/5
f 31/4/5 25/4/5 28/4/5
f 32/4/6 31/4/6 30/4/6
f 32/4/6 30/4/6 29/4/6
f 33/5/1 34/5/1 35/5/1
f 33/5/1 35/5/1 36/5/1
f 37/1/2 38/1/2 35/1/2
f 37/1/2 35/1/2 34/1/2
f 38/1/3 39/1/3 36/1/3
f 38/1/3 36/1/3 35/1/3
f 40/1/4 37/1/4 34/1/4
f 40/1/4 34/1/4 33/1/4
f 39/1/5 40/1/5 33/1/5
f 39/1/5 33/1/5 36/1/5
f 41/1/6 42/1/6 43/1/6
f 41/1/6 43/1/6 44/1/6
f 45/6/3 46/6/3 47/6/3
f 45/6/3 47/6/3 48/6/3
f 49/6/4 50/6/4 51/6/4
f 49/6/4 51/6/4 52/6/4
f 53/7/3 54/7/3 55/7/3
f 53/7/3 55/7/3 56/7/3
f 57/7/4 58/7/4 59/7/4
f 57/7/4 59/7/4 60/7/4
f 61/7/3 62/7/3 63/7/3
f 61/7/3 63/7/3 64/7/3
f 65/7/4 66/7/4 67/7/4
f 65/7/4 67/7/4 68/7/4
f 69/7/3 70/7/3 71/7/3
f 69/7/3 71/7/3 72/7/3
f 73/7/4 74/7/4 75/7/4
f 73/7/4 75/7/4 76/7/4
f 77/8/3 78/8/3 79/8/3
f 77/8/3 79/8/3 80/8/3
f 81/8/4 82/8/4 83/8/4
f 81/8/4 83/8/4 84/8/4
f 85/9/3 86/9/3 87/9/3
f 85/9/3 87/9/3 88/9/3
f 89/9/4 90/9/4 91/9/4
f 89/9/4 91/9/4 92/9/4
f 93/9/3 94/9/3 95/9/3
f 93/9/3 95/9/3 96/9/3
f 97/9/4 98/9/4 99/9/4
f 97/9/4 99/9/4 100/9/4
f 101/9/3 102/9/3 103/9/3
f 101/9/3 103/9/3 104/9/3
f 105/9/4 106/9/4 107/9/4
f 105/9/4 107/9/4 108/9/4
f 109/9/3 110/9/3 111/9/3
f 109/9/3 111/9/3 112/9/3
f 113/9/4 114/9/4 115/9/4
f 113/9/4 115/9/4 116/9/4
f 117/10/3 118/10/3 119/10/3
f 117/10/3 119/10/3 120/10/3
f 121/10/4 122/10/4 123/10/4
f 121/10/4 123/10/4 124/10/4
f 125/10/3 126/10/3 127/10/3
f 125/10/3 127/10/3 128/10/3
f 129/10/4 130/10/4 131/10/4
f 129/10/4 131/10/4 132/10/4
f 133/10/3 134/10/3 135/10/3
f 133/10/3 135/10/3 136/10/3
f 137/10/4 138/10/4 139/10/4
f 137/10/4 139/10/4 140/10/4
f 141/11/5 142/11/5 143/11/5
f 141/11/5 143/11/5 144/11/5
f 145/11/2 146/11/2 147/11/2
f 145/11/2 147/11/2 148/11/2
f 149/11/5 150/11/5 151/11/5
f 149/11/5 151/11/5 152/11/5
f 153/11/2 154/11/2 155/11/2
f 153/11/2 155/11/2 156/11/2
f 157/11/5 158/11/5 159/11/5
f 157/11/5 159/11/5 160/11/5
f 161/11/2 162/11/2 163/11/2
f 161/11/2 163/11/2 164/11/2
f 165/11/5 166/11/5 167/11/5
f 165/11/5 167/11/5 168/11/5
f 169/11/2 170/11/2 171/11/2
f 169/11/2 171/11/2 172/11/2
f 173/11/5 174/11/5 175/11/5
f 173/11/5 175/11/5 176/11/5
f 177/11/2 178/11/2 179/11/2
f 177/11/2 179/11/2 180/11/2
f 181/11/5 182/11/5 183/11/5
f 181/11/5 183/11/5 184/11/5
f 185/11/2 186/11/2 187/11/2
f 185/11/2 187/11/2 188/11/2
f 189/12/1 190/12/1 191/12/1
f 189/12/1 191/12/1 192/12/1
f 193/13/2 194/13/2 191/13/2
f 193/13/2 191/13/2 190/13/2
f 195/13/3 196/13/3 197/13/3
f 195/13/3 197/13/3 198/13/3
f 199/13/4 193/13/4 190/13/4
f 199/13/4 190/13/4 189/13/4
f 200/13/5 199/13/5 189/13/5
f 200/13/5 189/13/5 192/13/5
f 199/13/6 200/13/6 194/13/6
f 199/13/6 194/13/6 193/13/6
