# Off-Grid lamp_ground_street_on_S for Project Viewpoint. Z up, tile units, x east, y south. Generated by tools/build_viewpoint.py.
mtllib offgrid.mtl
o lamp_ground_street_on_S
usemtl offgrid
v -0.13 -0.13 0.08
v 0.13 -0.13 0.08
v 0.13 0.13 0.08
v -0.13 0.13 0.08
v 0.13 -0.13 0
v 0.13 0.13 0
v -0.13 0.13 0
v -0.13 -0.13 0
v -0.0375 -0.0375 2.86
v 0.0375 -0.0375 2.86
v 0.0375 0.0375 2.86
v -0.0375 0.0375 2.86
v 0.0375 -0.0375 0.08
v 0.0375 0.0375 0.08
v -0.0375 0.0375 0.08
v -0.0375 -0.0375 0.08
v -0.0375 -0.0375 0.0785
v -0.0375 0.0375 0.0785
v 0.0375 0.0375 0.0785
v 0.0375 -0.0375 0.0785
v 0.04 -0.07 1.49
v 0.15 -0.07 1.49
v 0.15 0.07 1.49
v 0.04 0.07 1.49
v 0.15 -0.07 1.15
v 0.15 0.07 1.15
v 0.04 0.07 1.15
v 0.04 -0.07 1.15
v -0.025 0 2.785
v 0.025 0 2.785
v 0.025 0.44 2.785
v -0.025 0.44 2.785
v 0.025 0 2.74
v 0.025 0.44 2.74
v -0.025 0.44 2.74
v -0.025 0 2.74
v -0.1 0.26 2.765
v 0.1 0.26 2.765
v 0.1 0.58 2.765
v -0.1 0.58 2.765
v 0.1 0.26 2.69
v 0.1 0.58 2.69
v -0.1 0.58 2.69
v -0.1 0.26 2.69
v -0.09 0.27 2.6915
v 0.09 0.27 2.6915
v 0.09 0.57 2.6915
v -0.09 0.57 2.6915
v 0.09 0.27 2.61
v 0.09 0.57 2.61
v 0.09 0.57 2.69
v 0.09 0.27 2.69
v -0.09 0.57 2.61
v -0.09 0.57 2.69
v -0.09 0.27 2.61
v -0.09 0.27 2.69
v -0.212 -0.192 3.03
v 0.212 -0.192 3.03
v 0.212 0.152 2.87
v -0.212 0.152 2.87
v -0.212 0.1516 2.8691
v 0.212 0.1516 2.8691
v 0.212 -0.1924 3.0291
v -0.212 -0.1924 3.0291
v -0.2 -0.18 3.034
v 0.2 -0.18 3.034
v 0.2 0.14 2.874
v -0.2 0.14 2.874
v -0.2 0.1396 2.8731
v 0.2 0.1396 2.8731
v 0.2 -0.1804 3.0331
v -0.2 -0.1804 3.0331
v -0.2 -0.024 2.958
v 0.2 -0.024 2.958
v 0.2 -0.016 2.957
v -0.2 -0.016 2.957
v -0.2 -0.0161 2.956
v 0.2 -0.0161 2.956
v 0.2 -0.0241 2.957
v -0.2 -0.0241 2.957
vt 0.953125 0.921875
vt 0.640625 0.921875
vt 0.859375 0.921875
vt 0.390625 0.921875
vt 0.359375 0.921875
vt 0.890625 0.953125
vt 0.765625 0.890625
vt 0.203125 0.953125
vt 0.359375 0.984375
vt 0.609375 0.984375
vn 0 0 1
vn 1 0 0
vn 0 1 0
vn 0 -1 0
vn -1 0 0
vn 0 0 -1
vn 0 0.4217 0.9067
vn 0 -0.4217 -0.9067
vn 0 0.4472 0.8944
vn 0 -0.4472 -0.8944
vn 0 0.124 0.9923
vn 0 -0.124 -0.9923
f 1/1/1 2/1/1 3/1/1
f 1/1/1 3/1/1 4/1/1
f 5/2/2 6/2/2 3/2/2
f 5/2/2 3/2/2 2/2/2
f 6/2/3 7/2/3 4/2/3
f 6/2/3 4/2/3 3/2/3
f 8/2/4 5/2/4 2/2/4
f 8/2/4 2/2/4 1/2/4
f 7/2/5 8/2/5 1/2/5
f 7/2/5 1/2/5 4/2/5
f 8/2/6 7/2/6 6/2/6
f 8/2/6 6/2/6 5/2/6
f 9/3/1 10/3/1 11/3/1
f 9/3/1 11/3/1 12/3/1
f 13/4/2 14/4/2 11/4/2
f 13/4/2 11/4/2 10/4/2
f 14/4/3 15/4/3 12/4/3
f 14/4/3 12/4/3 11/4/3
f 16/4/4 13/4/4 10/4/4
f 16/4/4 10/4/4 9/4/4
f 15/4/5 16/4/5 9/4/5
f 15/4/5 9/4/5 12/4/5
f 17/4/6 18/4/6 19/4/6
f 17/4/6 19/4/6 20/4/6
f 21/5/1 22/5/1 23/5/1
f 21/5/1 23/5/1 24/5/1
f 25/6/2 26/6/2 23/6/2
f 25/6/2 23/6/2 22/6/2
f 26/6/3 27/6/3 24/6/3
f 26/6/3 24/6/3 23/6/3
f 28/6/4 25/6/4 22/6/4
f 28/6/4 22/6/4 21/6/4
f 27/6/5 28/6/5 21/6/5
f 27/6/5 21/6/5 24/6/5
f 28/6/6 27/6/6 26/6/6
f 28/6/6 26/6/6 25/6/6
f 29/3/1 30/3/1 31/3/1
f 29/3/1 31/3/1 32/3/1
f 33/4/2 34/4/2 31/4/2
f 33/4/2 31/4/2 30/4/2
f 34/4/3 35/4/3 32/4/3
f 34/4/3 32/4/3 31/4/3
f 36/4/4 33/4/4 30/4/4
f 36/4/4 30/4/4 29/4/4
f 35/4/5 36/4/5 29/4/5
f 35/4/5 29/4/5 32/4/5
f 36/4/6 35/4/6 34/4/6
f 36/4/6 34/4/6 33/4/6
f 37/3/1 38/3/1 39/3/1
f 37/3/1 39/3/1 40/3/1
f 41/4/2 42/4/2 39/4/2
f 41/4/2 39/4/2 38/4/2
f 42/4/3 43/4/3 40/4/3
f 42/4/3 40/4/3 39/4/3
f 44/4/4 41/4/4 38/4/4
f 44/4/4 38/4/4 37/4/4
f 43/4/5 44/4/5 37/4/5
f 43/4/5 37/4/5 40/4/5
f 44/4/6 43/4/6 42/4/6
f 44/4/6 42/4/6 41/4/6
f 45/7/1 46/7/1 47/7/1
f 45/7/1 47/7/1 48/7/1
f 49/7/2 50/7/2 51/7/2
f 49/7/2 51/7/2 52/7/2
f 50/7/3 53/7/3 54/7/3
f 50/7/3 54/7/3 51/7/3
f 55/7/4 49/7/4 52/7/4
f 55/7/4 52/7/4 56/7/4
f 53/7/5 55/7/5 56/7/5
f 53/7/5 56/7/5 54/7/5
f 55/7/6 53/7/6 50/7/6
f 55/7/6 50/7/6 49/7/6
f 57/8/7 58/8/7 59/8/7
f 57/8/7 59/8/7 60/8/7
f 61/8/8 62/8/8 63/8/8
f 61/8/8 63/8/8 64/8/8
f 65/9/9 66/9/9 67/9/9
f 65/9/9 67/9/9 68/9/9
f 69/9/10 70/9/10 71/9/10
f 69/9/10 71/9/10 72/9/10
f 73/10/11 74/10/11 75/10/11
f 73/10/11 75/10/11 76/10/11
f 77/10/12 78/10/12 79/10/12
f 77/10/12 79/10/12 80/10/12
