# Off-Grid lamp_ground_garden_on_S for Project Viewpoint. Z up, tile units, x east, y south. Generated by tools/build_viewpoint.py.
mtllib offgrid.mtl
o lamp_ground_garden_on_S
usemtl offgrid
v -0.0225 -0.0225 0.4
v 0.0225 -0.0225 0.4
v 0.0225 0.0225 0.4
v -0.0225 0.0225 0.4
v 0.0225 -0.0225 0
v 0.0225 0.0225 0
v -0.0225 0.0225 0
v -0.0225 -0.0225 0
v -0.075 -0.075 0.54
v 0.075 -0.075 0.54
v 0.075 0.075 0.54
v -0.075 0.075 0.54
v 0.075 -0.075 0.4
v 0.075 0.075 0.4
v -0.075 0.075 0.4
v -0.075 -0.075 0.4
v -0.075 -0.075 0.3985
v -0.075 0.075 0.3985
v 0.075 0.075 0.3985
v 0.075 -0.075 0.3985
v -0.105 -0.105 0.575
v 0.105 -0.105 0.575
v 0.105 0.105 0.575
v -0.105 0.105 0.575
v 0.105 -0.105 0.54
v 0.105 0.105 0.54
v -0.105 0.105 0.54
v -0.105 -0.105 0.54
v -0.105 -0.105 0.5385
v -0.105 0.105 0.5385
v 0.105 0.105 0.5385
v 0.105 -0.105 0.5385
v -0.097 -0.097 0.595
v 0.097 -0.097 0.595
v 0.097 0.097 0.575
v -0.097 0.097 0.575
v -0.097 0.0969 0.574
v 0.097 0.0969 0.574
v 0.097 -0.0971 0.594
v -0.097 -0.0971 0.594
v -0.085 -0.085 0.599
v 0.085 -0.085 0.599
v 0.085 0.085 0.579
v -0.085 0.085 0.579
v -0.085 0.0849 0.578
v 0.085 0.0849 0.578
v 0.085 -0.0851 0.598
v -0.085 -0.0851 0.598
v -0.085 -0.004 0.593
v 0.085 -0.004 0.593
v 0.085 0.004 0.592
v -0.085 0.004 0.592
v -0.085 0.0039 0.591
v 0.085 0.0039 0.591
v 0.085 -0.0041 0.592
v -0.085 -0.0041 0.592
vt 0.859375 0.921875
vt 0.390625 0.921875
vt 0.796875 0.890625
vt 0.765625 0.890625
vt 0.203125 0.953125
vt 0.359375 0.984375
vt 0.609375 0.984375
vn 0 0 1
vn 1 0 0
vn 0 1 0
vn 0 -1 0
vn -1 0 0
vn 0 0 -1
vn 0 0.1025 0.9947
vn 0 -0.1025 -0.9947
vn 0 0.1168 0.9932
vn 0 -0.1168 -0.9932
vn 0 0.124 0.9923
vn 0 -0.124 -0.9923
f 1/1/1 2/1/1 3/1/1
f 1/1/1 3/1/1 4/1/1
f 5/2/2 6/2/2 3/2/2
f 5/2/2 3/2/2 2/2/2
f 6/2/3 7/2/3 4/2/3
f 6/2/3 4/2/3 3/2/3
f 8/2/4 5/2/4 2/2/4
f 8/2/4 2/2/4 1/2/4
f 7/2/5 8/2/5 1/2/5
f 7/2/5 1/2/5 4/2/5
f 8/2/6 7/2/6 6/2/6
f 8/2/6 6/2/6 5/2/6
f 9/3/1 10/3/1 11/3/1
f 9/3/1 11/3/1 12/3/1
f 13/4/2 14/4/2 11/4/2
f 13/4/2 11/4/2 10/4/2
f 14/4/3 15/4/3 12/4/3
f 14/4/3 12/4/3 11/4/3
f 16/4/4 13/4/4 10/4/4
f 16/4/4 10/4/4 9/4/4
f 15/4/5 16/4/5 9/4/5
f 15/4/5 9/4/5 12/4/5
f 17/4/6 18/4/6 19/4/6
f 17/4/6 19/4/6 20/4/6
f 21/1/1 22/1/1 23/1/1
f 21/1/1 23/1/1 24/1/1
f 25/2/2 26/2/2 23/2/2
f 25/2/2 23/2/2 22/2/2
f 26/2/3 27/2/3 24/2/3
f 26/2/3 24/2/3 23/2/3
f 28/2/4 25/2/4 22/2/4
f 28/2/4 22/2/4 21/2/4
f 27/2/5 28/2/5 21/2/5
f 27/2/5 21/2/5 24/2/5
f 29/2/6 30/2/6 31/2/6
f 29/2/6 31/2/6 32/2/6
f 33/5/7 34/5/7 35/5/7
f 33/5/7 35/5/7 36/5/7
f 37/5/8 38/5/8 39/5/8
f 37/5/8 39/5/8 40/5/8
f 41/6/9 42/6/9 43/6/9
f 41/6/9 43/6/9 44/6/9
f 45/6/10 46/6/10 47/6/10
f 45/6/10 47/6/10 48/6/10
f 49/7/11 50/7/11 51/7/11
f 49/7/11 51/7/11 52/7/11
f 53/7/12 54/7/12 55/7/12
f 53/7/12 55/7/12 56/7/12
