# Off-Grid transformer_ground_standard_off_S for Project Viewpoint. Z up, tile units, x east, y south. Generated by tools/build_viewpoint.py.
mtllib offgrid.mtl
o transformer_ground_standard_off_S
usemtl offgrid
v -0.425 -0.325 0.05
v 0.425 -0.325 0.05
v 0.425 0.325 0.05
v -0.425 0.325 0.05
v 0.425 -0.325 0
v 0.425 0.325 0
v -0.425 0.325 0
v -0.425 -0.325 0
v -0.375 -0.275 0.83
v 0.375 -0.275 0.83
v 0.375 0.275 0.83
v -0.375 0.275 0.83
v 0.375 -0.275 0.05
v 0.375 0.275 0.05
v -0.375 0.275 0.05
v -0.375 -0.275 0.05
v -0.375 -0.275 0.0485
v -0.375 0.275 0.0485
v 0.375 0.275 0.0485
v 0.375 -0.275 0.0485
v -0.391 -0.291 0.86
v 0.391 -0.291 0.86
v 0.391 0.291 0.86
v -0.391 0.291 0.86
v 0.391 -0.291 0.83
v 0.391 0.291 0.83
v -0.391 0.291 0.83
v -0.391 -0.291 0.83
v -0.391 -0.291 0.8285
v -0.391 0.291 0.8285
v 0.391 0.291 0.8285
v 0.391 -0.291 0.8285
v -0.007 0.277 0.795
v 0.007 0.277 0.795
v 0.007 0.277 0.1
v -0.007 0.277 0.1
v -0.007 0.276 0.1
v 0.007 0.276 0.1
v 0.007 0.276 0.795
v -0.007 0.276 0.795
v -0.345 0.2785 0.795
v 0.345 0.2785 0.795
v 0.345 0.2785 0.785
v -0.345 0.2785 0.785
v -0.345 0.2745 0.785
v 0.345 0.2745 0.785
v 0.345 0.2745 0.795
v -0.345 0.2745 0.795
v -0.345 0.2785 0.11
v 0.345 0.2785 0.11
v 0.345 0.2785 0.1
v -0.345 0.2785 0.1
v -0.345 0.2745 0.1
v 0.345 0.2745 0.1
v 0.345 0.2745 0.11
v -0.345 0.2745 0.11
v -0.03 0.279 0.49
v 0.03 0.279 0.49
v 0.03 0.279 0.39
v -0.03 0.279 0.39
v -0.03 0.278 0.39
v 0.03 0.278 0.39
v 0.03 0.278 0.49
v -0.03 0.278 0.49
v -0.018 0.279 0.38
v 0.018 0.279 0.38
v 0.018 0.279 0.3
v -0.018 0.279 0.3
v -0.018 0.278 0.3
v 0.018 0.278 0.3
v 0.018 0.278 0.38
v -0.018 0.278 0.38
v -0.305 0.279 0.71
v -0.07 0.279 0.71
v -0.07 0.279 0.5
v -0.305 0.279 0.5
v -0.305 0.278 0.5
v -0.07 0.278 0.5
v -0.07 0.278 0.71
v -0.305 0.278 0.71
v -0.293 0.281 0.698
v -0.082 0.281 0.698
v -0.082 0.281 0.512
v -0.293 0.281 0.512
v -0.293 0.28 0.512
v -0.082 0.28 0.512
v -0.082 0.28 0.698
v -0.293 0.28 0.698
v -0.1559 0.283 0.6868
v -0.1263 0.283 0.6868
v -0.1896 0.283 0.605
v -0.2191 0.283 0.605
v -0.2191 0.282 0.605
v -0.1896 0.282 0.605
v -0.1263 0.282 0.6868
v -0.1559 0.282 0.6868
v -0.1812 0.2845 0.6124
v -0.1516 0.2845 0.6124
v -0.2191 0.2845 0.5232
v -0.2487 0.2845 0.5232
v -0.2487 0.2805 0.5232
v -0.2191 0.2805 0.5232
v -0.1516 0.2805 0.6124
v -0.1812 0.2805 0.6124
v -0.2191 0.286 0.6199
v -0.1516 0.286 0.6199
v -0.1516 0.286 0.5976
v -0.2191 0.286 0.5976
v -0.2191 0.279 0.5976
v -0.1516 0.279 0.5976
v -0.1516 0.279 0.6199
v -0.2191 0.279 0.6199
v 0.375 -0.214 0.75
v 0.417 -0.214 0.75
v 0.417 -0.196 0.75
v 0.375 -0.196 0.75
v 0.417 -0.214 0.13
v 0.417 -0.196 0.13
v 0.375 -0.196 0.13
v 0.375 -0.214 0.13
v 0.3735 -0.196 0.13
v 0.3735 -0.214 0.13
v 0.3735 -0.214 0.75
v 0.3735 -0.196 0.75
v 0.375 -0.132 0.75
v 0.417 -0.132 0.75
v 0.417 -0.114 0.75
v 0.375 -0.114 0.75
v 0.417 -0.132 0.13
v 0.417 -0.114 0.13
v 0.375 -0.114 0.13
v 0.375 -0.132 0.13
v 0.3735 -0.114 0.13
v 0.3735 -0.132 0.13
v 0.3735 -0.132 0.75
v 0.3735 -0.114 0.75
v 0.375 -0.05 0.75
v 0.417 -0.05 0.75
v 0.417 -0.032 0.75
v 0.375 -0.032 0.75
v 0.417 -0.05 0.13
v 0.417 -0.032 0.13
v 0.375 -0.032 0.13
v 0.375 -0.05 0.13
v 0.3735 -0.032 0.13
v 0.3735 -0.05 0.13
v 0.3735 -0.05 0.75
v 0.3735 -0.032 0.75
v 0.375 0.032 0.75
v 0.417 0.032 0.75
v 0.417 0.05 0.75
v 0.375 0.05 0.75
v 0.417 0.032 0.13
v 0.417 0.05 0.13
v 0.375 0.05 0.13
v 0.375 0.032 0.13
v 0.3735 0.05 0.13
v 0.3735 0.032 0.13
v 0.3735 0.032 0.75
v 0.3735 0.05 0.75
v 0.375 0.114 0.75
v 0.417 0.114 0.75
v 0.417 0.132 0.75
v 0.375 0.132 0.75
v 0.417 0.114 0.13
v 0.417 0.132 0.13
v 0.375 0.132 0.13
v 0.375 0.114 0.13
v 0.3735 0.132 0.13
v 0.3735 0.114 0.13
v 0.3735 0.114 0.75
v 0.3735 0.132 0.75
v 0.375 0.196 0.75
v 0.417 0.196 0.75
v 0.417 0.214 0.75
v 0.375 0.214 0.75
v 0.417 0.196 0.13
v 0.417 0.214 0.13
v 0.375 0.214 0.13
v 0.375 0.196 0.13
v 0.3735 0.214 0.13
v 0.3735 0.196 0.13
v 0.3735 0.196 0.75
v 0.3735 0.214 0.75
v 0.175 0.21 0.91
v 0.26 0.21 0.91
v 0.26 0.285 0.91
v 0.175 0.285 0.91
v 0.26 0.21 0.86
v 0.26 0.285 0.86
v 0.175 0.285 0.86
v 0.175 0.21 0.86
v 0.175 0.21 0.8585
v 0.175 0.285 0.8585
v 0.26 0.285 0.8585
v 0.26 0.21 0.8585
vt 0.953125 0.921875
vt 0.640625 0.921875
vt 0.359375 0.953125
vt 0.015625 0.921875
vt 0.796875 0.953125
vt 0.078125 0.984375
vt 0.671875 0.921875
vt 0.015625 0.890625
vt 0.109375 0.984375
vt 0.703125 0.890625
vt 0.109375 0.953125
vt 0.640625 0.984375
vn 0 0 1
vn 1 0 0
vn 0 1 0
vn 0 -1 0
vn -1 0 0
vn 0 0 -1
f 1/1/1 2/1/1 3/1/1
f 1/1/1 3/1/1 4/1/1
f 5/2/2 6/2/2 3/2/2
f 5/2/2 3/2/2 2/2/2
f 6/2/3 7/2/3 4/2/3
f 6/2/3 4/2/3 3/2/3
f 8/2/4 5/2/4 2/2/4
f 8/2/4 2/2/4 1/2/4
f 7/2/5 8/2/5 1/2/5
f 7/2/5 1/2/5 4/2/5
f 8/2/6 7/2/6 6/2/6
f 8/2/6 6/2/6 5/2/6
f 9/3/1 10/3/1 11/3/1
f 9/3/1 11/3/1 12/3/1
f 13/4/2 14/4/2 11/4/2
f 13/4/2 11/4/2 10/4/2
f 14/4/3 15/4/3 12/4/3
f 14/4/3 12/4/3 11/4/3
f 16/4/4 13/4/4 10/4/4
f 16/4/4 10/4/4 9/4/4
f 15/4/5 16/4/5 9/4/5
f 15/4/5 9/4/5 12/4/5
f 17/4/6 18/4/6 19/4/6
f 17/4/6 19/4/6 20/4/6
f 21/3/1 22/3/1 23/3/1
f 21/3/1 23/3/1 24/3/1
f 25/5/2 26/5/2 23/5/2
f 25/5/2 23/5/2 22/5/2
f 26/5/3 27/5/3 24/5/3
f 26/5/3 24/5/3 23/5/3
f 28/5/4 25/5/4 22/5/4
f 28/5/4 22/5/4 21/5/4
f 27/5/5 28/5/5 21/5/5
f 27/5/5 21/5/5 24/5/5
f 29/5/6 30/5/6 31/5/6
f 29/5/6 31/5/6 32/5/6
f 33/6/3 34/6/3 35/6/3
f 33/6/3 35/6/3 36/6/3
f 37/6/4 38/6/4 39/6/4
f 37/6/4 39/6/4 40/6/4
f 41/6/3 42/6/3 43/6/3
f 41/6/3 43/6/3 44/6/3
f 45/6/4 46/6/4 47/6/4
f 45/6/4 47/6/4 48/6/4
f 49/6/3 50/6/3 51/6/3
f 49/6/3 51/6/3 52/6/3
f 53/6/4 54/6/4 55/6/4
f 53/6/4 55/6/4 56/6/4
f 57/7/3 58/7/3 59/7/3
f 57/7/3 59/7/3 60/7/3
f 61/7/4 62/7/4 63/7/4
f 61/7/4 63/7/4 64/7/4
f 65/8/3 66/8/3 67/8/3
f 65/8/3 67/8/3 68/8/3
f 69/8/4 70/8/4 71/8/4
f 69/8/4 71/8/4 72/8/4
f 73/9/3 74/9/3 75/9/3
f 73/9/3 75/9/3 76/9/3
f 77/9/4 78/9/4 79/9/4
f 77/9/4 79/9/4 80/9/4
f 81/10/3 82/10/3 83/10/3
f 81/10/3 83/10/3 84/10/3
f 85/10/4 86/10/4 87/10/4
f 85/10/4 87/10/4 88/10/4
f 89/9/3 90/9/3 91/9/3
f 89/9/3 91/9/3 92/9/3
f 93/9/4 94/9/4 95/9/4
f 93/9/4 95/9/4 96/9/4
f 97/9/3 98/9/3 99/9/3
f 97/9/3 99/9/3 100/9/3
f 101/9/4 102/9/4 103/9/4
f 101/9/4 103/9/4 104/9/4
f 105/9/3 106/9/3 107/9/3
f 105/9/3 107/9/3 108/9/3
f 109/9/4 110/9/4 111/9/4
f 109/9/4 111/9/4 112/9/4
f 113/3/1 114/3/1 115/3/1
f 113/3/1 115/3/1 116/3/1
f 117/4/2 118/4/2 115/4/2
f 117/4/2 115/4/2 114/4/2
f 118/4/3 119/4/3 116/4/3
f 118/4/3 116/4/3 115/4/3
f 120/4/4 117/4/4 114/4/4
f 120/4/4 114/4/4 113/4/4
f 121/4/5 122/4/5 123/4/5
f 121/4/5 123/4/5 124/4/5
f 120/4/6 119/4/6 118/4/6
f 120/4/6 118/4/6 117/4/6
f 125/3/1 126/3/1 127/3/1
f 125/3/1 127/3/1 128/3/1
f 129/4/2 130/4/2 127/4/2
f 129/4/2 127/4/2 126/4/2
f 130/4/3 131/4/3 128/4/3
f 130/4/3 128/4/3 127/4/3
f 132/4/4 129/4/4 126/4/4
f 132/4/4 126/4/4 125/4/4
f 133/4/5 134/4/5 135/4/5
f 133/4/5 135/4/5 136/4/5
f 132/4/6 131/4/6 130/4/6
f 132/4/6 130/4/6 129/4/6
f 137/3/1 138/3/1 139/3/1
f 137/3/1 139/3/1 140/3/1
f 141/4/2 142/4/2 139/4/2
f 141/4/2 139/4/2 138/4/2
f 142/4/3 143/4/3 140/4/3
f 142/4/3 140/4/3 139/4/3
f 144/4/4 141/4/4 138/4/4
f 144/4/4 138/4/4 137/4/4
f 145/4/5 146/4/5 147/4/5
f 145/4/5 147/4/5 148/4/5
f 144/4/6 143/4/6 142/4/6
f 144/4/6 142/4/6 141/4/6
f 149/3/1 150/3/1 151/3/1
f 149/3/1 151/3/1 152/3/1
f 153/4/2 154/4/2 151/4/2
f 153/4/2 151/4/2 150/4/2
f 154/4/3 155/4/3 152/4/3
f 154/4/3 152/4/3 151/4/3
f 156/4/4 153/4/4 150/4/4
f 156/4/4 150/4/4 149/4/4
f 157/4/5 158/4/5 159/4/5
f 157/4/5 159/4/5 160/4/5
f 156/4/6 155/4/6 154/4/6
f 156/4/6 154/4/6 153/4/6
f 161/3/1 162/3/1 163/3/1
f 161/3/1 163/3/1 164/3/1
f 165/4/2 166/4/2 163/4/2
f 165/4/2 163/4/2 162/4/2
f 166/4/3 167/4/3 164/4/3
f 166/4/3 164/4/3 163/4/3
f 168/4/4 165/4/4 162/4/4
f 168/4/4 162/4/4 161/4/4
f 169/4/5 170/4/5 171/4/5
f 169/4/5 171/4/5 172/4/5
f 168/4/6 167/4/6 166/4/6
f 168/4/6 166/4/6 165/4/6
f 173/3/1 174/3/1 175/3/1
f 173/3/1 175/3/1 176/3/1
f 177/4/2 178/4/2 175/4/2
f 177/4/2 175/4/2 174/4/2
f 178/4/3 179/4/3 176/4/3
f 178/4/3 176/4/3 175/4/3
f 180/4/4 177/4/4 174/4/4
f 180/4/4 174/4/4 173/4/4
f 181/4/5 182/4/5 183/4/5
f 181/4/5 183/4/5 184/4/5
f 180/4/6 179/4/6 178/4/6
f 180/4/6 178/4/6 177/4/6
f 185/11/1 186/11/1 187/11/1
f 185/11/1 187/11/1 188/11/1
f 189/12/2 190/12/2 187/12/2
f 189/12/2 187/12/2 186/12/2
f 190/12/3 191/12/3 188/12/3
f 190/12/3 188/12/3 187/12/3
f 192/12/4 189/12/4 186/12/4
f 192/12/4 186/12/4 185/12/4
f 191/12/5 192/12/5 185/12/5
f 191/12/5 185/12/5 188/12/5
f 193/12/6 194/12/6 195/12/6
f 193/12/6 195/12/6 196/12/6
